%TF.GenerationSoftware,KiCad,Pcbnew,8.0.4*%
%TF.CreationDate,2024-07-30T13:48:39+02:00*%
%TF.ProjectId,miniCO2,6d696e69-434f-4322-9e6b-696361645f70,rev?*%
%TF.SameCoordinates,Original*%
%TF.FileFunction,Soldermask,Top*%
%TF.FilePolarity,Negative*%
%FSLAX46Y46*%
G04 Gerber Fmt 4.6, Leading zero omitted, Abs format (unit mm)*
G04 Created by KiCad (PCBNEW 8.0.4) date 2024-07-30 13:48:39*
%MOMM*%
%LPD*%
G01*
G04 APERTURE LIST*
G04 Aperture macros list*
%AMRoundRect*
0 Rectangle with rounded corners*
0 $1 Rounding radius*
0 $2 $3 $4 $5 $6 $7 $8 $9 X,Y pos of 4 corners*
0 Add a 4 corners polygon primitive as box body*
4,1,4,$2,$3,$4,$5,$6,$7,$8,$9,$2,$3,0*
0 Add four circle primitives for the rounded corners*
1,1,$1+$1,$2,$3*
1,1,$1+$1,$4,$5*
1,1,$1+$1,$6,$7*
1,1,$1+$1,$8,$9*
0 Add four rect primitives between the rounded corners*
20,1,$1+$1,$2,$3,$4,$5,0*
20,1,$1+$1,$4,$5,$6,$7,0*
20,1,$1+$1,$6,$7,$8,$9,0*
20,1,$1+$1,$8,$9,$2,$3,0*%
G04 Aperture macros list end*
%ADD10C,1.250000*%
%ADD11C,1.450000*%
%ADD12O,1.450000X2.650000*%
%ADD13RoundRect,0.150000X0.150000X-0.512500X0.150000X0.512500X-0.150000X0.512500X-0.150000X-0.512500X0*%
%ADD14RoundRect,0.225000X-0.225000X-0.250000X0.225000X-0.250000X0.225000X0.250000X-0.225000X0.250000X0*%
%ADD15RoundRect,0.140000X0.170000X-0.140000X0.170000X0.140000X-0.170000X0.140000X-0.170000X-0.140000X0*%
%ADD16RoundRect,0.140000X-0.170000X0.140000X-0.170000X-0.140000X0.170000X-0.140000X0.170000X0.140000X0*%
%ADD17R,0.570000X0.480000*%
%ADD18R,4.800000X4.800000*%
%ADD19RoundRect,0.212500X0.737500X-0.212500X0.737500X0.212500X-0.737500X0.212500X-0.737500X-0.212500X0*%
%ADD20RoundRect,0.212500X0.212500X-0.737500X0.212500X0.737500X-0.212500X0.737500X-0.212500X-0.737500X0*%
%ADD21R,0.420000X1.300000*%
%ADD22R,3.600000X3.600000*%
%ADD23RoundRect,0.062500X-0.062500X-0.337500X0.062500X-0.337500X0.062500X0.337500X-0.062500X0.337500X0*%
%ADD24RoundRect,0.062500X-0.337500X-0.062500X0.337500X-0.062500X0.337500X0.062500X-0.337500X0.062500X0*%
G04 APERTURE END LIST*
D10*
%TO.C,J1*%
X139171900Y-80831262D03*
X143671900Y-80831262D03*
D11*
X137921900Y-82831262D03*
X140421900Y-82831262D03*
X142421900Y-82831262D03*
X144921900Y-82831262D03*
D12*
X135571900Y-80831262D03*
X147271900Y-80831262D03*
%TD*%
D13*
%TO.C,U2*%
X136752800Y-84460500D03*
X138652800Y-84460500D03*
X138652800Y-86735500D03*
X137702800Y-86735500D03*
X136752800Y-86735500D03*
%TD*%
D14*
%TO.C,C2*%
X146346900Y-82892862D03*
X147896900Y-82892862D03*
%TD*%
D15*
%TO.C,C3*%
X135563900Y-84254400D03*
X135563900Y-85214400D03*
%TD*%
D14*
%TO.C,C1*%
X135046900Y-82943662D03*
X136596900Y-82943662D03*
%TD*%
D16*
%TO.C,C4*%
X135513100Y-87589262D03*
X135513100Y-86629262D03*
%TD*%
D17*
%TO.C,SW1*%
X133561400Y-86603200D03*
X133561400Y-83983200D03*
X134721400Y-86603200D03*
X134721400Y-83983200D03*
%TD*%
D18*
%TO.C,U3*%
X144541400Y-88988862D03*
D19*
X140391400Y-91488862D03*
X140391400Y-90238862D03*
X140391400Y-88988862D03*
X140391400Y-87738862D03*
X140391400Y-86488862D03*
D20*
X142041400Y-84838862D03*
X143291400Y-84838862D03*
X144541400Y-84838862D03*
X145791400Y-84838862D03*
X147041400Y-84838862D03*
D19*
X148691400Y-86488862D03*
X148691400Y-87738862D03*
X148691400Y-88988862D03*
X148691400Y-90238862D03*
X148691400Y-91488862D03*
D20*
X147041400Y-93138862D03*
X145791400Y-93138862D03*
X144541400Y-93138862D03*
X143291400Y-93138862D03*
X142041400Y-93138862D03*
%TD*%
D21*
%TO.C,D2*%
X138916400Y-95031262D03*
X138066400Y-95031262D03*
X137216400Y-95031262D03*
X136366400Y-95031262D03*
%TD*%
%TO.C,D1*%
X146516400Y-95031262D03*
X145666400Y-95031262D03*
X144816400Y-95031262D03*
X143966400Y-95031262D03*
%TD*%
D22*
%TO.C,U1*%
X136071900Y-91122462D03*
D23*
X134321900Y-88672462D03*
X134821900Y-88672462D03*
X135321900Y-88672462D03*
X135821900Y-88672462D03*
X136321900Y-88672462D03*
X136821900Y-88672462D03*
X137321900Y-88672462D03*
X137821900Y-88672462D03*
D24*
X138521900Y-89372462D03*
X138521900Y-89872462D03*
X138521900Y-90372462D03*
X138521900Y-90872462D03*
X138521900Y-91372462D03*
X138521900Y-91872462D03*
X138521900Y-92372462D03*
X138521900Y-92872462D03*
D23*
X137821900Y-93572462D03*
X137321900Y-93572462D03*
X136821900Y-93572462D03*
X136321900Y-93572462D03*
X135821900Y-93572462D03*
X135321900Y-93572462D03*
X134821900Y-93572462D03*
X134321900Y-93572462D03*
D24*
X133621900Y-92872462D03*
X133621900Y-92372462D03*
X133621900Y-91872462D03*
X133621900Y-91372462D03*
X133621900Y-90872462D03*
X133621900Y-90372462D03*
X133621900Y-89872462D03*
X133621900Y-89372462D03*
%TD*%
M02*
