%TF.GenerationSoftware,KiCad,Pcbnew,8.0.4*%
%TF.CreationDate,2024-07-28T22:04:51+02:00*%
%TF.ProjectId,miniCO2,6d696e69-434f-4322-9e6b-696361645f70,rev?*%
%TF.SameCoordinates,Original*%
%TF.FileFunction,Legend,Bot*%
%TF.FilePolarity,Positive*%
%FSLAX46Y46*%
G04 Gerber Fmt 4.6, Leading zero omitted, Abs format (unit mm)*
G04 Created by KiCad (PCBNEW 8.0.4) date 2024-07-28 22:04:51*
%MOMM*%
%LPD*%
G01*
G04 APERTURE LIST*
%ADD10C,0.150000*%
%ADD11C,0.120000*%
G04 APERTURE END LIST*
D10*
X146459580Y-84093207D02*
X146507200Y-84045588D01*
X146507200Y-84045588D02*
X146554819Y-83902731D01*
X146554819Y-83902731D02*
X146554819Y-83807493D01*
X146554819Y-83807493D02*
X146507200Y-83664636D01*
X146507200Y-83664636D02*
X146411961Y-83569398D01*
X146411961Y-83569398D02*
X146316723Y-83521779D01*
X146316723Y-83521779D02*
X146126247Y-83474160D01*
X146126247Y-83474160D02*
X145983390Y-83474160D01*
X145983390Y-83474160D02*
X145792914Y-83521779D01*
X145792914Y-83521779D02*
X145697676Y-83569398D01*
X145697676Y-83569398D02*
X145602438Y-83664636D01*
X145602438Y-83664636D02*
X145554819Y-83807493D01*
X145554819Y-83807493D02*
X145554819Y-83902731D01*
X145554819Y-83902731D02*
X145602438Y-84045588D01*
X145602438Y-84045588D02*
X145650057Y-84093207D01*
X146554819Y-84997969D02*
X146554819Y-84521779D01*
X146554819Y-84521779D02*
X145554819Y-84521779D01*
X146554819Y-85331303D02*
X145554819Y-85331303D01*
X146554819Y-85902731D02*
X145983390Y-85474160D01*
X145554819Y-85902731D02*
X146126247Y-85331303D01*
X145555438Y-87220588D02*
X145507819Y-87125350D01*
X145507819Y-87125350D02*
X145507819Y-86982493D01*
X145507819Y-86982493D02*
X145555438Y-86839636D01*
X145555438Y-86839636D02*
X145650676Y-86744398D01*
X145650676Y-86744398D02*
X145745914Y-86696779D01*
X145745914Y-86696779D02*
X145936390Y-86649160D01*
X145936390Y-86649160D02*
X146079247Y-86649160D01*
X146079247Y-86649160D02*
X146269723Y-86696779D01*
X146269723Y-86696779D02*
X146364961Y-86744398D01*
X146364961Y-86744398D02*
X146460200Y-86839636D01*
X146460200Y-86839636D02*
X146507819Y-86982493D01*
X146507819Y-86982493D02*
X146507819Y-87077731D01*
X146507819Y-87077731D02*
X146460200Y-87220588D01*
X146460200Y-87220588D02*
X146412580Y-87268207D01*
X146412580Y-87268207D02*
X146079247Y-87268207D01*
X146079247Y-87268207D02*
X146079247Y-87077731D01*
X146507819Y-87696779D02*
X145507819Y-87696779D01*
X145507819Y-87696779D02*
X146507819Y-88268207D01*
X146507819Y-88268207D02*
X145507819Y-88268207D01*
X146507819Y-88744398D02*
X145507819Y-88744398D01*
X145507819Y-88744398D02*
X145507819Y-88982493D01*
X145507819Y-88982493D02*
X145555438Y-89125350D01*
X145555438Y-89125350D02*
X145650676Y-89220588D01*
X145650676Y-89220588D02*
X145745914Y-89268207D01*
X145745914Y-89268207D02*
X145936390Y-89315826D01*
X145936390Y-89315826D02*
X146079247Y-89315826D01*
X146079247Y-89315826D02*
X146269723Y-89268207D01*
X146269723Y-89268207D02*
X146364961Y-89220588D01*
X146364961Y-89220588D02*
X146460200Y-89125350D01*
X146460200Y-89125350D02*
X146507819Y-88982493D01*
X146507819Y-88982493D02*
X146507819Y-88744398D01*
X146478619Y-90252779D02*
X145478619Y-90252779D01*
X145478619Y-90919445D02*
X145478619Y-91109921D01*
X145478619Y-91109921D02*
X145526238Y-91205159D01*
X145526238Y-91205159D02*
X145621476Y-91300397D01*
X145621476Y-91300397D02*
X145811952Y-91348016D01*
X145811952Y-91348016D02*
X146145285Y-91348016D01*
X146145285Y-91348016D02*
X146335761Y-91300397D01*
X146335761Y-91300397D02*
X146431000Y-91205159D01*
X146431000Y-91205159D02*
X146478619Y-91109921D01*
X146478619Y-91109921D02*
X146478619Y-90919445D01*
X146478619Y-90919445D02*
X146431000Y-90824207D01*
X146431000Y-90824207D02*
X146335761Y-90728969D01*
X146335761Y-90728969D02*
X146145285Y-90681350D01*
X146145285Y-90681350D02*
X145811952Y-90681350D01*
X145811952Y-90681350D02*
X145621476Y-90728969D01*
X145621476Y-90728969D02*
X145526238Y-90824207D01*
X145526238Y-90824207D02*
X145478619Y-90919445D01*
X146468980Y-94398858D02*
X146468980Y-93779811D01*
X146468980Y-93779811D02*
X146088028Y-94113144D01*
X146088028Y-94113144D02*
X146088028Y-93970287D01*
X146088028Y-93970287D02*
X146040409Y-93875049D01*
X146040409Y-93875049D02*
X145992790Y-93827430D01*
X145992790Y-93827430D02*
X145897552Y-93779811D01*
X145897552Y-93779811D02*
X145659457Y-93779811D01*
X145659457Y-93779811D02*
X145564219Y-93827430D01*
X145564219Y-93827430D02*
X145516600Y-93875049D01*
X145516600Y-93875049D02*
X145468980Y-93970287D01*
X145468980Y-93970287D02*
X145468980Y-94256001D01*
X145468980Y-94256001D02*
X145516600Y-94351239D01*
X145516600Y-94351239D02*
X145564219Y-94398858D01*
X145564219Y-93351239D02*
X145516600Y-93303620D01*
X145516600Y-93303620D02*
X145468980Y-93351239D01*
X145468980Y-93351239D02*
X145516600Y-93398858D01*
X145516600Y-93398858D02*
X145564219Y-93351239D01*
X145564219Y-93351239D02*
X145468980Y-93351239D01*
X146468980Y-92970287D02*
X146468980Y-92351240D01*
X146468980Y-92351240D02*
X146088028Y-92684573D01*
X146088028Y-92684573D02*
X146088028Y-92541716D01*
X146088028Y-92541716D02*
X146040409Y-92446478D01*
X146040409Y-92446478D02*
X145992790Y-92398859D01*
X145992790Y-92398859D02*
X145897552Y-92351240D01*
X145897552Y-92351240D02*
X145659457Y-92351240D01*
X145659457Y-92351240D02*
X145564219Y-92398859D01*
X145564219Y-92398859D02*
X145516600Y-92446478D01*
X145516600Y-92446478D02*
X145468980Y-92541716D01*
X145468980Y-92541716D02*
X145468980Y-92827430D01*
X145468980Y-92827430D02*
X145516600Y-92922668D01*
X145516600Y-92922668D02*
X145564219Y-92970287D01*
X142747904Y-84036819D02*
X142747904Y-84846342D01*
X142747904Y-84846342D02*
X142700285Y-84941580D01*
X142700285Y-84941580D02*
X142652666Y-84989200D01*
X142652666Y-84989200D02*
X142557428Y-85036819D01*
X142557428Y-85036819D02*
X142366952Y-85036819D01*
X142366952Y-85036819D02*
X142271714Y-84989200D01*
X142271714Y-84989200D02*
X142224095Y-84941580D01*
X142224095Y-84941580D02*
X142176476Y-84846342D01*
X142176476Y-84846342D02*
X142176476Y-84036819D01*
X141176476Y-85036819D02*
X141747904Y-85036819D01*
X141462190Y-85036819D02*
X141462190Y-84036819D01*
X141462190Y-84036819D02*
X141557428Y-84179676D01*
X141557428Y-84179676D02*
X141652666Y-84274914D01*
X141652666Y-84274914D02*
X141747904Y-84322533D01*
X136498800Y-86147220D02*
X136451180Y-86004363D01*
X136451180Y-86004363D02*
X136451180Y-85766268D01*
X136451180Y-85766268D02*
X136498800Y-85671030D01*
X136498800Y-85671030D02*
X136546419Y-85623411D01*
X136546419Y-85623411D02*
X136641657Y-85575792D01*
X136641657Y-85575792D02*
X136736895Y-85575792D01*
X136736895Y-85575792D02*
X136832133Y-85623411D01*
X136832133Y-85623411D02*
X136879752Y-85671030D01*
X136879752Y-85671030D02*
X136927371Y-85766268D01*
X136927371Y-85766268D02*
X136974990Y-85956744D01*
X136974990Y-85956744D02*
X137022609Y-86051982D01*
X137022609Y-86051982D02*
X137070228Y-86099601D01*
X137070228Y-86099601D02*
X137165466Y-86147220D01*
X137165466Y-86147220D02*
X137260704Y-86147220D01*
X137260704Y-86147220D02*
X137355942Y-86099601D01*
X137355942Y-86099601D02*
X137403561Y-86051982D01*
X137403561Y-86051982D02*
X137451180Y-85956744D01*
X137451180Y-85956744D02*
X137451180Y-85718649D01*
X137451180Y-85718649D02*
X137403561Y-85575792D01*
X137451180Y-85242458D02*
X136451180Y-85004363D01*
X136451180Y-85004363D02*
X137165466Y-84813887D01*
X137165466Y-84813887D02*
X136451180Y-84623411D01*
X136451180Y-84623411D02*
X137451180Y-84385316D01*
X136451180Y-83480554D02*
X136451180Y-84051982D01*
X136451180Y-83766268D02*
X137451180Y-83766268D01*
X137451180Y-83766268D02*
X137308323Y-83861506D01*
X137308323Y-83861506D02*
X137213085Y-83956744D01*
X137213085Y-83956744D02*
X137165466Y-84051982D01*
X142216094Y-94749419D02*
X142216094Y-93749419D01*
X142216094Y-93749419D02*
X141977999Y-93749419D01*
X141977999Y-93749419D02*
X141835142Y-93797038D01*
X141835142Y-93797038D02*
X141739904Y-93892276D01*
X141739904Y-93892276D02*
X141692285Y-93987514D01*
X141692285Y-93987514D02*
X141644666Y-94177990D01*
X141644666Y-94177990D02*
X141644666Y-94320847D01*
X141644666Y-94320847D02*
X141692285Y-94511323D01*
X141692285Y-94511323D02*
X141739904Y-94606561D01*
X141739904Y-94606561D02*
X141835142Y-94701800D01*
X141835142Y-94701800D02*
X141977999Y-94749419D01*
X141977999Y-94749419D02*
X142216094Y-94749419D01*
X140692285Y-94749419D02*
X141263713Y-94749419D01*
X140977999Y-94749419D02*
X140977999Y-93749419D01*
X140977999Y-93749419D02*
X141073237Y-93892276D01*
X141073237Y-93892276D02*
X141168475Y-93987514D01*
X141168475Y-93987514D02*
X141263713Y-94035133D01*
X134785019Y-89154095D02*
X135594542Y-89154095D01*
X135594542Y-89154095D02*
X135689780Y-89201714D01*
X135689780Y-89201714D02*
X135737400Y-89249333D01*
X135737400Y-89249333D02*
X135785019Y-89344571D01*
X135785019Y-89344571D02*
X135785019Y-89535047D01*
X135785019Y-89535047D02*
X135737400Y-89630285D01*
X135737400Y-89630285D02*
X135689780Y-89677904D01*
X135689780Y-89677904D02*
X135594542Y-89725523D01*
X135594542Y-89725523D02*
X134785019Y-89725523D01*
X134880257Y-90154095D02*
X134832638Y-90201714D01*
X134832638Y-90201714D02*
X134785019Y-90296952D01*
X134785019Y-90296952D02*
X134785019Y-90535047D01*
X134785019Y-90535047D02*
X134832638Y-90630285D01*
X134832638Y-90630285D02*
X134880257Y-90677904D01*
X134880257Y-90677904D02*
X134975495Y-90725523D01*
X134975495Y-90725523D02*
X135070733Y-90725523D01*
X135070733Y-90725523D02*
X135213590Y-90677904D01*
X135213590Y-90677904D02*
X135785019Y-90106476D01*
X135785019Y-90106476D02*
X135785019Y-90725523D01*
X136818666Y-94339580D02*
X136866285Y-94387200D01*
X136866285Y-94387200D02*
X137009142Y-94434819D01*
X137009142Y-94434819D02*
X137104380Y-94434819D01*
X137104380Y-94434819D02*
X137247237Y-94387200D01*
X137247237Y-94387200D02*
X137342475Y-94291961D01*
X137342475Y-94291961D02*
X137390094Y-94196723D01*
X137390094Y-94196723D02*
X137437713Y-94006247D01*
X137437713Y-94006247D02*
X137437713Y-93863390D01*
X137437713Y-93863390D02*
X137390094Y-93672914D01*
X137390094Y-93672914D02*
X137342475Y-93577676D01*
X137342475Y-93577676D02*
X137247237Y-93482438D01*
X137247237Y-93482438D02*
X137104380Y-93434819D01*
X137104380Y-93434819D02*
X137009142Y-93434819D01*
X137009142Y-93434819D02*
X136866285Y-93482438D01*
X136866285Y-93482438D02*
X136818666Y-93530057D01*
X136437713Y-93530057D02*
X136390094Y-93482438D01*
X136390094Y-93482438D02*
X136294856Y-93434819D01*
X136294856Y-93434819D02*
X136056761Y-93434819D01*
X136056761Y-93434819D02*
X135961523Y-93482438D01*
X135961523Y-93482438D02*
X135913904Y-93530057D01*
X135913904Y-93530057D02*
X135866285Y-93625295D01*
X135866285Y-93625295D02*
X135866285Y-93720533D01*
X135866285Y-93720533D02*
X135913904Y-93863390D01*
X135913904Y-93863390D02*
X136485332Y-94434819D01*
X136485332Y-94434819D02*
X135866285Y-94434819D01*
X140313580Y-93051333D02*
X140361200Y-93003714D01*
X140361200Y-93003714D02*
X140408819Y-92860857D01*
X140408819Y-92860857D02*
X140408819Y-92765619D01*
X140408819Y-92765619D02*
X140361200Y-92622762D01*
X140361200Y-92622762D02*
X140265961Y-92527524D01*
X140265961Y-92527524D02*
X140170723Y-92479905D01*
X140170723Y-92479905D02*
X139980247Y-92432286D01*
X139980247Y-92432286D02*
X139837390Y-92432286D01*
X139837390Y-92432286D02*
X139646914Y-92479905D01*
X139646914Y-92479905D02*
X139551676Y-92527524D01*
X139551676Y-92527524D02*
X139456438Y-92622762D01*
X139456438Y-92622762D02*
X139408819Y-92765619D01*
X139408819Y-92765619D02*
X139408819Y-92860857D01*
X139408819Y-92860857D02*
X139456438Y-93003714D01*
X139456438Y-93003714D02*
X139504057Y-93051333D01*
X139408819Y-93384667D02*
X139408819Y-94003714D01*
X139408819Y-94003714D02*
X139789771Y-93670381D01*
X139789771Y-93670381D02*
X139789771Y-93813238D01*
X139789771Y-93813238D02*
X139837390Y-93908476D01*
X139837390Y-93908476D02*
X139885009Y-93956095D01*
X139885009Y-93956095D02*
X139980247Y-94003714D01*
X139980247Y-94003714D02*
X140218342Y-94003714D01*
X140218342Y-94003714D02*
X140313580Y-93956095D01*
X140313580Y-93956095D02*
X140361200Y-93908476D01*
X140361200Y-93908476D02*
X140408819Y-93813238D01*
X140408819Y-93813238D02*
X140408819Y-93527524D01*
X140408819Y-93527524D02*
X140361200Y-93432286D01*
X140361200Y-93432286D02*
X140313580Y-93384667D01*
X138916580Y-87082333D02*
X138964200Y-87034714D01*
X138964200Y-87034714D02*
X139011819Y-86891857D01*
X139011819Y-86891857D02*
X139011819Y-86796619D01*
X139011819Y-86796619D02*
X138964200Y-86653762D01*
X138964200Y-86653762D02*
X138868961Y-86558524D01*
X138868961Y-86558524D02*
X138773723Y-86510905D01*
X138773723Y-86510905D02*
X138583247Y-86463286D01*
X138583247Y-86463286D02*
X138440390Y-86463286D01*
X138440390Y-86463286D02*
X138249914Y-86510905D01*
X138249914Y-86510905D02*
X138154676Y-86558524D01*
X138154676Y-86558524D02*
X138059438Y-86653762D01*
X138059438Y-86653762D02*
X138011819Y-86796619D01*
X138011819Y-86796619D02*
X138011819Y-86891857D01*
X138011819Y-86891857D02*
X138059438Y-87034714D01*
X138059438Y-87034714D02*
X138107057Y-87082333D01*
X139011819Y-88034714D02*
X139011819Y-87463286D01*
X139011819Y-87749000D02*
X138011819Y-87749000D01*
X138011819Y-87749000D02*
X138154676Y-87653762D01*
X138154676Y-87653762D02*
X138249914Y-87558524D01*
X138249914Y-87558524D02*
X138297533Y-87463286D01*
X142609866Y-93272780D02*
X142657485Y-93320400D01*
X142657485Y-93320400D02*
X142800342Y-93368019D01*
X142800342Y-93368019D02*
X142895580Y-93368019D01*
X142895580Y-93368019D02*
X143038437Y-93320400D01*
X143038437Y-93320400D02*
X143133675Y-93225161D01*
X143133675Y-93225161D02*
X143181294Y-93129923D01*
X143181294Y-93129923D02*
X143228913Y-92939447D01*
X143228913Y-92939447D02*
X143228913Y-92796590D01*
X143228913Y-92796590D02*
X143181294Y-92606114D01*
X143181294Y-92606114D02*
X143133675Y-92510876D01*
X143133675Y-92510876D02*
X143038437Y-92415638D01*
X143038437Y-92415638D02*
X142895580Y-92368019D01*
X142895580Y-92368019D02*
X142800342Y-92368019D01*
X142800342Y-92368019D02*
X142657485Y-92415638D01*
X142657485Y-92415638D02*
X142609866Y-92463257D01*
X141752723Y-92701352D02*
X141752723Y-93368019D01*
X141990818Y-92320400D02*
X142228913Y-93034685D01*
X142228913Y-93034685D02*
X141609866Y-93034685D01*
D11*
%TO.C,U1*%
X139477600Y-90609600D02*
X139477600Y-90374600D01*
X139477600Y-86104600D02*
X139477600Y-85629600D01*
X139777600Y-90849600D02*
X139952600Y-90849600D01*
X139477600Y-85629600D02*
X139952600Y-85629600D01*
X144697600Y-90849600D02*
X144222600Y-90849600D01*
X144697600Y-85629600D02*
X144222600Y-85629600D01*
X144697600Y-90374600D02*
X144697600Y-90849600D01*
X144697600Y-86104600D02*
X144697600Y-85629600D01*
X139717600Y-91179600D02*
X139237600Y-91179600D01*
X139477600Y-90849600D01*
X139717600Y-91179600D01*
G36*
X139717600Y-91179600D02*
G01*
X139237600Y-91179600D01*
X139477600Y-90849600D01*
X139717600Y-91179600D01*
G37*
%TO.C,D1*%
X139578000Y-95094600D02*
X143378000Y-95094600D01*
X143378000Y-97144600D02*
X143378000Y-97894600D01*
X139578000Y-97894600D02*
X143378000Y-97894600D01*
%TO.C,U2*%
X135330200Y-89116000D02*
X135330200Y-89916000D01*
X135330200Y-90716000D02*
X135330200Y-89916000D01*
X138450200Y-89116000D02*
X138450200Y-89916000D01*
X138450200Y-90716000D02*
X138450200Y-89916000D01*
X135380200Y-88616000D02*
X135050200Y-88856000D01*
X135050200Y-88376000D01*
X135380200Y-88616000D01*
G36*
X135380200Y-88616000D02*
G01*
X135050200Y-88856000D01*
X135050200Y-88376000D01*
X135380200Y-88616000D01*
G37*
%TO.C,C2*%
X136546420Y-92200000D02*
X136827580Y-92200000D01*
X136546420Y-93220000D02*
X136827580Y-93220000D01*
%TO.C,C3*%
X139044000Y-93071836D02*
X139044000Y-92856164D01*
X138324000Y-93071836D02*
X138324000Y-92856164D01*
%TO.C,C1*%
X136511420Y-86612000D02*
X136792580Y-86612000D01*
X136511420Y-87632000D02*
X136792580Y-87632000D01*
%TO.C,C4*%
X142335364Y-91486400D02*
X142551036Y-91486400D01*
X142335364Y-92206400D02*
X142551036Y-92206400D01*
%TD*%
M02*
