%TF.GenerationSoftware,KiCad,Pcbnew,8.0.4*%
%TF.CreationDate,2024-07-28T22:04:51+02:00*%
%TF.ProjectId,miniCO2,6d696e69-434f-4322-9e6b-696361645f70,rev?*%
%TF.SameCoordinates,Original*%
%TF.FileFunction,Legend,Top*%
%TF.FilePolarity,Positive*%
%FSLAX46Y46*%
G04 Gerber Fmt 4.6, Leading zero omitted, Abs format (unit mm)*
G04 Created by KiCad (PCBNEW 8.0.4) date 2024-07-28 22:04:51*
%MOMM*%
%LPD*%
G01*
G04 APERTURE LIST*
%ADD10C,0.200000*%
%ADD11C,0.150000*%
%ADD12C,0.100000*%
%ADD13C,0.120000*%
G04 APERTURE END LIST*
D10*
X135057580Y-85154873D02*
X136057580Y-85154873D01*
X136057580Y-85154873D02*
X135343295Y-85488206D01*
X135343295Y-85488206D02*
X136057580Y-85821539D01*
X136057580Y-85821539D02*
X135057580Y-85821539D01*
X135057580Y-86297730D02*
X136057580Y-86297730D01*
X135057580Y-86773920D02*
X136057580Y-86773920D01*
X136057580Y-86773920D02*
X135057580Y-87345348D01*
X135057580Y-87345348D02*
X136057580Y-87345348D01*
X135057580Y-87821539D02*
X136057580Y-87821539D01*
X135152819Y-88869157D02*
X135105200Y-88821538D01*
X135105200Y-88821538D02*
X135057580Y-88678681D01*
X135057580Y-88678681D02*
X135057580Y-88583443D01*
X135057580Y-88583443D02*
X135105200Y-88440586D01*
X135105200Y-88440586D02*
X135200438Y-88345348D01*
X135200438Y-88345348D02*
X135295676Y-88297729D01*
X135295676Y-88297729D02*
X135486152Y-88250110D01*
X135486152Y-88250110D02*
X135629009Y-88250110D01*
X135629009Y-88250110D02*
X135819485Y-88297729D01*
X135819485Y-88297729D02*
X135914723Y-88345348D01*
X135914723Y-88345348D02*
X136009961Y-88440586D01*
X136009961Y-88440586D02*
X136057580Y-88583443D01*
X136057580Y-88583443D02*
X136057580Y-88678681D01*
X136057580Y-88678681D02*
X136009961Y-88821538D01*
X136009961Y-88821538D02*
X135962342Y-88869157D01*
X136057580Y-89488205D02*
X136057580Y-89678681D01*
X136057580Y-89678681D02*
X136009961Y-89773919D01*
X136009961Y-89773919D02*
X135914723Y-89869157D01*
X135914723Y-89869157D02*
X135724247Y-89916776D01*
X135724247Y-89916776D02*
X135390914Y-89916776D01*
X135390914Y-89916776D02*
X135200438Y-89869157D01*
X135200438Y-89869157D02*
X135105200Y-89773919D01*
X135105200Y-89773919D02*
X135057580Y-89678681D01*
X135057580Y-89678681D02*
X135057580Y-89488205D01*
X135057580Y-89488205D02*
X135105200Y-89392967D01*
X135105200Y-89392967D02*
X135200438Y-89297729D01*
X135200438Y-89297729D02*
X135390914Y-89250110D01*
X135390914Y-89250110D02*
X135724247Y-89250110D01*
X135724247Y-89250110D02*
X135914723Y-89297729D01*
X135914723Y-89297729D02*
X136009961Y-89392967D01*
X136009961Y-89392967D02*
X136057580Y-89488205D01*
X135962342Y-90297729D02*
X136009961Y-90345348D01*
X136009961Y-90345348D02*
X136057580Y-90440586D01*
X136057580Y-90440586D02*
X136057580Y-90678681D01*
X136057580Y-90678681D02*
X136009961Y-90773919D01*
X136009961Y-90773919D02*
X135962342Y-90821538D01*
X135962342Y-90821538D02*
X135867104Y-90869157D01*
X135867104Y-90869157D02*
X135771866Y-90869157D01*
X135771866Y-90869157D02*
X135629009Y-90821538D01*
X135629009Y-90821538D02*
X135057580Y-90250110D01*
X135057580Y-90250110D02*
X135057580Y-90869157D01*
X136057580Y-91916777D02*
X135057580Y-92250110D01*
X135057580Y-92250110D02*
X136057580Y-92583443D01*
X135057580Y-93440586D02*
X135057580Y-92869158D01*
X135057580Y-93154872D02*
X136057580Y-93154872D01*
X136057580Y-93154872D02*
X135914723Y-93059634D01*
X135914723Y-93059634D02*
X135819485Y-92964396D01*
X135819485Y-92964396D02*
X135771866Y-92869158D01*
D11*
X146978019Y-94640304D02*
X147787542Y-94640304D01*
X147787542Y-94640304D02*
X147882780Y-94592685D01*
X147882780Y-94592685D02*
X147930400Y-94545066D01*
X147930400Y-94545066D02*
X147978019Y-94449828D01*
X147978019Y-94449828D02*
X147978019Y-94259352D01*
X147978019Y-94259352D02*
X147930400Y-94164114D01*
X147930400Y-94164114D02*
X147882780Y-94116495D01*
X147882780Y-94116495D02*
X147787542Y-94068876D01*
X147787542Y-94068876D02*
X146978019Y-94068876D01*
X146978019Y-93687923D02*
X146978019Y-93068876D01*
X146978019Y-93068876D02*
X147358971Y-93402209D01*
X147358971Y-93402209D02*
X147358971Y-93259352D01*
X147358971Y-93259352D02*
X147406590Y-93164114D01*
X147406590Y-93164114D02*
X147454209Y-93116495D01*
X147454209Y-93116495D02*
X147549447Y-93068876D01*
X147549447Y-93068876D02*
X147787542Y-93068876D01*
X147787542Y-93068876D02*
X147882780Y-93116495D01*
X147882780Y-93116495D02*
X147930400Y-93164114D01*
X147930400Y-93164114D02*
X147978019Y-93259352D01*
X147978019Y-93259352D02*
X147978019Y-93545066D01*
X147978019Y-93545066D02*
X147930400Y-93640304D01*
X147930400Y-93640304D02*
X147882780Y-93687923D01*
D12*
X135963066Y-82210619D02*
X135963066Y-82924904D01*
X135963066Y-82924904D02*
X135915447Y-83067761D01*
X135915447Y-83067761D02*
X135820209Y-83163000D01*
X135820209Y-83163000D02*
X135677352Y-83210619D01*
X135677352Y-83210619D02*
X135582114Y-83210619D01*
X136963066Y-83210619D02*
X136391638Y-83210619D01*
X136677352Y-83210619D02*
X136677352Y-82210619D01*
X136677352Y-82210619D02*
X136582114Y-82353476D01*
X136582114Y-82353476D02*
X136486876Y-82448714D01*
X136486876Y-82448714D02*
X136391638Y-82496333D01*
D11*
X140739905Y-94984219D02*
X140739905Y-93984219D01*
X140739905Y-93984219D02*
X140978000Y-93984219D01*
X140978000Y-93984219D02*
X141120857Y-94031838D01*
X141120857Y-94031838D02*
X141216095Y-94127076D01*
X141216095Y-94127076D02*
X141263714Y-94222314D01*
X141263714Y-94222314D02*
X141311333Y-94412790D01*
X141311333Y-94412790D02*
X141311333Y-94555647D01*
X141311333Y-94555647D02*
X141263714Y-94746123D01*
X141263714Y-94746123D02*
X141216095Y-94841361D01*
X141216095Y-94841361D02*
X141120857Y-94936600D01*
X141120857Y-94936600D02*
X140978000Y-94984219D01*
X140978000Y-94984219D02*
X140739905Y-94984219D01*
X141692286Y-94079457D02*
X141739905Y-94031838D01*
X141739905Y-94031838D02*
X141835143Y-93984219D01*
X141835143Y-93984219D02*
X142073238Y-93984219D01*
X142073238Y-93984219D02*
X142168476Y-94031838D01*
X142168476Y-94031838D02*
X142216095Y-94079457D01*
X142216095Y-94079457D02*
X142263714Y-94174695D01*
X142263714Y-94174695D02*
X142263714Y-94269933D01*
X142263714Y-94269933D02*
X142216095Y-94412790D01*
X142216095Y-94412790D02*
X141644667Y-94984219D01*
X141644667Y-94984219D02*
X142263714Y-94984219D01*
D13*
%TO.C,U3*%
X138293000Y-94339400D02*
X136558000Y-94339400D01*
X146638000Y-94339400D02*
X144663000Y-94339400D01*
X136318000Y-92364400D02*
X136318000Y-94039400D01*
X146638000Y-92364400D02*
X146638000Y-94339400D01*
X136318000Y-85994400D02*
X136318000Y-84019400D01*
X146638000Y-85994400D02*
X146638000Y-84019400D01*
X136318000Y-84019400D02*
X138293000Y-84019400D01*
X146638000Y-84019400D02*
X144663000Y-84019400D01*
X136318000Y-94339400D02*
X135988000Y-94579400D01*
X135988000Y-94099400D01*
X136318000Y-94339400D01*
G36*
X136318000Y-94339400D02*
G01*
X135988000Y-94579400D01*
X135988000Y-94099400D01*
X136318000Y-94339400D01*
G37*
%TO.C,D2*%
X139578000Y-97894600D02*
X143378000Y-97894600D01*
X139578000Y-97894600D02*
X139578000Y-97144600D01*
X139578000Y-95094600D02*
X143378000Y-95094600D01*
%TD*%
M02*
