%TF.GenerationSoftware,KiCad,Pcbnew,8.0.4*%
%TF.CreationDate,2024-07-30T13:48:39+02:00*%
%TF.ProjectId,miniCO2,6d696e69-434f-4322-9e6b-696361645f70,rev?*%
%TF.SameCoordinates,Original*%
%TF.FileFunction,Copper,L2,Inr*%
%TF.FilePolarity,Positive*%
%FSLAX46Y46*%
G04 Gerber Fmt 4.6, Leading zero omitted, Abs format (unit mm)*
G04 Created by KiCad (PCBNEW 8.0.4) date 2024-07-30 13:48:39*
%MOMM*%
%LPD*%
G01*
G04 APERTURE LIST*
%TA.AperFunction,ComponentPad*%
%ADD10C,1.450000*%
%TD*%
%TA.AperFunction,ComponentPad*%
%ADD11O,1.450000X2.650000*%
%TD*%
%TA.AperFunction,ViaPad*%
%ADD12C,0.400000*%
%TD*%
%TA.AperFunction,ViaPad*%
%ADD13C,0.800000*%
%TD*%
%TA.AperFunction,Conductor*%
%ADD14C,0.200000*%
%TD*%
%TA.AperFunction,Conductor*%
%ADD15C,0.150000*%
%TD*%
G04 APERTURE END LIST*
D10*
%TO.N,VBUS*%
%TO.C,J1*%
X137921900Y-82831262D03*
%TO.N,D-*%
X140421900Y-82831262D03*
%TO.N,D+*%
X142421900Y-82831262D03*
%TO.N,GND*%
X144921900Y-82831262D03*
D11*
X135571900Y-80831262D03*
X147271900Y-80831262D03*
%TD*%
D12*
%TO.N,VBUS*%
X138293400Y-87587662D03*
%TO.N,+3.3V*%
X136159800Y-83980862D03*
%TO.N,Net-(D1-DOUT)*%
X143371800Y-95055262D03*
%TO.N,SCL*%
X139309400Y-93124862D03*
%TO.N,Net-(D1-DOUT)*%
X139157000Y-93937662D03*
%TO.N,DIN*%
X146041400Y-96131262D03*
D13*
%TO.N,+3.3V*%
X147221900Y-95431262D03*
X139641400Y-95007262D03*
%TO.N,GND*%
X142128400Y-86487000D03*
X140858400Y-85217000D03*
D12*
X147304000Y-88620600D03*
%TO.N,DIN*%
X139676482Y-92351380D03*
D13*
%TO.N,+3.3V*%
X147468400Y-89763600D03*
D12*
X136159800Y-84488862D03*
D13*
X141614400Y-89763600D03*
X148781900Y-83858062D03*
D12*
X133924600Y-87282862D03*
X133684300Y-93560862D03*
%TO.N,SWDIO*%
X147921900Y-92331262D03*
X134059100Y-88836462D03*
%TO.N,D-*%
X139055400Y-88313662D03*
%TO.N,D+*%
X138521900Y-89039662D03*
%TO.N,Net-(U1-~{RESET})*%
X137310300Y-88125262D03*
X133541400Y-85231262D03*
%TO.N,SWCLK*%
X149021900Y-85231262D03*
X133805100Y-88074462D03*
%TO.N,SCL*%
X147349500Y-87617262D03*
%TO.N,SDA*%
X138496600Y-93378862D03*
X147349500Y-86499662D03*
%TO.N,VBUS*%
X136752800Y-87486062D03*
%TD*%
D14*
%TO.N,DIN*%
X143971518Y-92351380D02*
X146041400Y-94421262D01*
X146041400Y-94421262D02*
X146041400Y-96131262D01*
X139676482Y-92351380D02*
X143971518Y-92351380D01*
%TO.N,D+*%
X141501400Y-87021262D02*
X141501400Y-83651762D01*
X141501400Y-83651762D02*
X142221900Y-82931262D01*
X142221900Y-82931262D02*
X142421900Y-82931262D01*
X139483000Y-89039662D02*
X141501400Y-87021262D01*
X138521900Y-89039662D02*
X139483000Y-89039662D01*
%TO.N,D-*%
X140221900Y-83131262D02*
X140421900Y-82931262D01*
X140221900Y-87517662D02*
X140221900Y-83131262D01*
X139345400Y-88313662D02*
X140141400Y-87517662D01*
X139055400Y-88313662D02*
X139345400Y-88313662D01*
D15*
%TO.N,SDA*%
X138496600Y-92030043D02*
X138496600Y-93378862D01*
X144026981Y-86499662D02*
X138496600Y-92030043D01*
X147349500Y-86499662D02*
X144026981Y-86499662D01*
%TO.N,SCL*%
X139201482Y-93016944D02*
X139309400Y-93124862D01*
X139201482Y-91911980D02*
X139201482Y-93016944D01*
X140747862Y-90365600D02*
X139201482Y-91911980D01*
X144601162Y-90365600D02*
X140747862Y-90365600D01*
X147349500Y-87617262D02*
X144601162Y-90365600D01*
%TD*%
%TA.AperFunction,Conductor*%
%TO.N,+3.3V*%
G36*
X137017239Y-83797347D02*
G01*
X137062994Y-83850151D01*
X137074200Y-83901662D01*
X137074200Y-85025262D01*
X137054515Y-85092301D01*
X137001711Y-85138056D01*
X136950200Y-85149262D01*
X136203711Y-85149262D01*
X136136672Y-85129577D01*
X136090917Y-85076773D01*
X136084080Y-85057889D01*
X136075182Y-85025262D01*
X135956600Y-84590462D01*
X135956599Y-84590462D01*
X135369400Y-84590462D01*
X135302361Y-84570777D01*
X135256606Y-84517973D01*
X135245400Y-84466462D01*
X135245400Y-83901662D01*
X135265085Y-83834623D01*
X135317889Y-83788868D01*
X135369400Y-83777662D01*
X136950200Y-83777662D01*
X137017239Y-83797347D01*
G37*
%TD.AperFunction*%
%TD*%
M02*
