M48
; DRILL file {KiCad 8.0.4} date 2024-07-31T09:21:52+0200
; FORMAT={-:-/ absolute / metric / decimal}
; #@! TF.CreationDate,2024-07-31T09:21:52+02:00
; #@! TF.GenerationSoftware,Kicad,Pcbnew,8.0.4
; #@! TF.FileFunction,Plated,1,4,PTH
FMAT,2
METRIC
; #@! TA.AperFunction,Plated,PTH,ViaDrill
T1C0.300
; #@! TA.AperFunction,Plated,PTH,ViaDrill
T2C0.400
; #@! TA.AperFunction,Plated,PTH,ComponentDrill
T3C1.000
%
G90
G05
T1
X133.541Y-85.231
X133.684Y-93.561
X133.805Y-88.074
X133.925Y-87.283
X134.059Y-88.836
X136.16Y-83.981
X136.16Y-84.489
X136.347Y-96.031
X136.753Y-87.486
X137.197Y-95.931
X137.31Y-88.125
X138.293Y-87.588
X138.497Y-93.379
X138.522Y-89.04
X139.055Y-88.314
X139.309Y-93.125
X139.697Y-92.381
X144.822Y-96.031
X147.304Y-88.621
X147.35Y-86.5
X147.35Y-87.617
X147.922Y-92.331
X149.022Y-85.231
T2
X140.858Y-85.217
X141.614Y-89.764
X142.128Y-86.487
X147.468Y-89.764
X148.782Y-83.858
T3
X137.922Y-82.831
X140.422Y-82.831
X142.422Y-82.831
X144.922Y-82.831
T3
X135.572Y-80.231G85X135.572Y-81.431
G05
X147.272Y-80.231G85X147.272Y-81.431
G05
M30
