%TF.GenerationSoftware,KiCad,Pcbnew,8.0.4*%
%TF.CreationDate,2024-07-30T13:48:39+02:00*%
%TF.ProjectId,miniCO2,6d696e69-434f-4322-9e6b-696361645f70,rev?*%
%TF.SameCoordinates,Original*%
%TF.FileFunction,Copper,L4,Bot*%
%TF.FilePolarity,Positive*%
%FSLAX46Y46*%
G04 Gerber Fmt 4.6, Leading zero omitted, Abs format (unit mm)*
G04 Created by KiCad (PCBNEW 8.0.4) date 2024-07-30 13:48:39*
%MOMM*%
%LPD*%
G01*
G04 APERTURE LIST*
%TA.AperFunction,WasherPad*%
%ADD10C,1.250000*%
%TD*%
%TA.AperFunction,ComponentPad*%
%ADD11C,1.450000*%
%TD*%
%TA.AperFunction,ComponentPad*%
%ADD12O,1.450000X2.650000*%
%TD*%
%TA.AperFunction,SMDPad,CuDef*%
%ADD13C,1.200000*%
%TD*%
%TA.AperFunction,SMDPad,CuDef*%
%ADD14R,1.200000X1.200000*%
%TD*%
%TA.AperFunction,ViaPad*%
%ADD15C,0.400000*%
%TD*%
%TA.AperFunction,ViaPad*%
%ADD16C,0.800000*%
%TD*%
%TA.AperFunction,Conductor*%
%ADD17C,0.200000*%
%TD*%
%TA.AperFunction,Conductor*%
%ADD18C,0.150000*%
%TD*%
G04 APERTURE END LIST*
D10*
%TO.P,J1,*%
%TO.N,*%
X139171900Y-80831262D03*
X143671900Y-80831262D03*
D11*
%TO.P,J1,1,VBUS*%
%TO.N,VBUS*%
X137921900Y-82831262D03*
%TO.P,J1,2,D-*%
%TO.N,D-*%
X140421900Y-82831262D03*
%TO.P,J1,3,D+*%
%TO.N,D+*%
X142421900Y-82831262D03*
%TO.P,J1,4,GND*%
%TO.N,GND*%
X144921900Y-82831262D03*
D12*
%TO.P,J1,5,Shield*%
X135571900Y-80831262D03*
X147271900Y-80831262D03*
%TD*%
D13*
%TO.P,J2,4,Pin_4*%
%TO.N,SWCLK*%
X149021900Y-85191262D03*
%TO.P,J2,3,Pin_3*%
%TO.N,GND*%
X149021900Y-87731262D03*
%TO.P,J2,2,Pin_2*%
%TO.N,SWDIO*%
X149021900Y-90271262D03*
D14*
%TO.P,J2,1,Pin_1*%
%TO.N,+3.3V*%
X149021900Y-92811262D03*
%TD*%
D15*
%TO.N,VBUS*%
X138293400Y-87587662D03*
%TO.N,+3.3V*%
X136159800Y-83980862D03*
%TO.N,Net-(D1-DOUT)*%
X143371800Y-95055262D03*
%TO.N,SCL*%
X139309400Y-93124862D03*
%TO.N,Net-(D1-DOUT)*%
X139157000Y-93937662D03*
%TO.N,DIN*%
X146041400Y-96131262D03*
D16*
%TO.N,+3.3V*%
X147221900Y-95431262D03*
X139641400Y-95007262D03*
%TO.N,GND*%
X142128400Y-86487000D03*
X140858400Y-85217000D03*
D15*
X147304000Y-88620600D03*
%TO.N,DIN*%
X139676482Y-92351380D03*
D16*
%TO.N,+3.3V*%
X147468400Y-89763600D03*
D15*
X136159800Y-84488862D03*
D16*
X141614400Y-89763600D03*
X148781900Y-83858062D03*
D15*
X133924600Y-87282862D03*
X133684300Y-93560862D03*
%TO.N,SWDIO*%
X147921900Y-92331262D03*
X134059100Y-88836462D03*
%TO.N,D-*%
X139055400Y-88313662D03*
%TO.N,D+*%
X138521900Y-89039662D03*
%TO.N,Net-(U1-~{RESET})*%
X137310300Y-88125262D03*
X133541400Y-85231262D03*
%TO.N,SWCLK*%
X149021900Y-85231262D03*
X133805100Y-88074462D03*
%TO.N,SCL*%
X147349500Y-87617262D03*
%TO.N,SDA*%
X138496600Y-93378862D03*
X147349500Y-86499662D03*
%TO.N,VBUS*%
X136752800Y-87486062D03*
%TD*%
D17*
%TO.N,SWCLK*%
X149021900Y-85231262D02*
X148955000Y-85298162D01*
%TO.N,GND*%
X148132562Y-88620600D02*
X147304000Y-88620600D01*
X149021900Y-87731262D02*
X148132562Y-88620600D01*
D18*
%TO.N,SWDIO*%
X149021900Y-91231262D02*
X149021900Y-90271262D01*
X147921900Y-92331262D02*
X149021900Y-91231262D01*
%TD*%
%TA.AperFunction,Conductor*%
%TO.N,+3.3V*%
G36*
X146823818Y-78421913D02*
G01*
X146843474Y-78423460D01*
X147007262Y-78436350D01*
X147014849Y-78437552D01*
X147191896Y-78480058D01*
X147199207Y-78482434D01*
X147367424Y-78552114D01*
X147374275Y-78555605D01*
X147529520Y-78650742D01*
X147535735Y-78655258D01*
X147674192Y-78773516D01*
X147679617Y-78778941D01*
X147797871Y-78917404D01*
X147802387Y-78923620D01*
X147897516Y-79078867D01*
X147901007Y-79085718D01*
X147970679Y-79253937D01*
X147973054Y-79261250D01*
X148015554Y-79438300D01*
X148016757Y-79445895D01*
X148031248Y-79630117D01*
X148031399Y-79633960D01*
X148031398Y-79671941D01*
X148017045Y-79706589D01*
X147982397Y-79720940D01*
X147947749Y-79706587D01*
X147941655Y-79699162D01*
X147934080Y-79687825D01*
X147815334Y-79569079D01*
X147732013Y-79513406D01*
X147675710Y-79475786D01*
X147675707Y-79475784D01*
X147675706Y-79475784D01*
X147520566Y-79411523D01*
X147520555Y-79411520D01*
X147355869Y-79378762D01*
X147355864Y-79378762D01*
X147187936Y-79378762D01*
X147187930Y-79378762D01*
X147023244Y-79411520D01*
X147023233Y-79411523D01*
X146868093Y-79475784D01*
X146728465Y-79569079D01*
X146609717Y-79687827D01*
X146516422Y-79827455D01*
X146452161Y-79982595D01*
X146452158Y-79982606D01*
X146419400Y-80147292D01*
X146419400Y-81515231D01*
X146452158Y-81679917D01*
X146452161Y-81679927D01*
X146516424Y-81835072D01*
X146539433Y-81869507D01*
X146609717Y-81974696D01*
X146728465Y-82093444D01*
X146784012Y-82130558D01*
X146868090Y-82186738D01*
X147023235Y-82251001D01*
X147023241Y-82251002D01*
X147023244Y-82251003D01*
X147187930Y-82283761D01*
X147187933Y-82283761D01*
X147187936Y-82283762D01*
X147187937Y-82283762D01*
X147355863Y-82283762D01*
X147355864Y-82283762D01*
X147520565Y-82251001D01*
X147675710Y-82186738D01*
X147815337Y-82093442D01*
X147934080Y-81974699D01*
X147954999Y-81943392D01*
X147963580Y-81930550D01*
X147994762Y-81909714D01*
X148031544Y-81917030D01*
X148048690Y-81940955D01*
X148049969Y-81940426D01*
X148051197Y-81943392D01*
X148089442Y-82009633D01*
X149238130Y-83158321D01*
X149238152Y-83158347D01*
X149240934Y-83161129D01*
X149240935Y-83161130D01*
X149275799Y-83195990D01*
X149278397Y-83198801D01*
X149394829Y-83335112D01*
X149397921Y-83338731D01*
X149402439Y-83344949D01*
X149482639Y-83475811D01*
X149497584Y-83500196D01*
X149501075Y-83507047D01*
X149570758Y-83675261D01*
X149573135Y-83682574D01*
X149615646Y-83859627D01*
X149616849Y-83867222D01*
X149631249Y-84050145D01*
X149631400Y-84053990D01*
X149631400Y-84653626D01*
X149617048Y-84688274D01*
X149582400Y-84702626D01*
X149547752Y-84688274D01*
X149478357Y-84618879D01*
X149385818Y-84560733D01*
X149339548Y-84531660D01*
X149184808Y-84477514D01*
X149184804Y-84477513D01*
X149184802Y-84477513D01*
X149021900Y-84459159D01*
X148858997Y-84477513D01*
X148858988Y-84477515D01*
X148704252Y-84531660D01*
X148704250Y-84531661D01*
X148565442Y-84618879D01*
X148449517Y-84734804D01*
X148362299Y-84873612D01*
X148362298Y-84873614D01*
X148319899Y-84994784D01*
X148308152Y-85028354D01*
X148289797Y-85191262D01*
X148308152Y-85354170D01*
X148362298Y-85508910D01*
X148362299Y-85508911D01*
X148449517Y-85647719D01*
X148565442Y-85763644D01*
X148611711Y-85792716D01*
X148704252Y-85850864D01*
X148858992Y-85905010D01*
X149021900Y-85923365D01*
X149184808Y-85905010D01*
X149339548Y-85850864D01*
X149478359Y-85763643D01*
X149547752Y-85694250D01*
X149582400Y-85679898D01*
X149617048Y-85694250D01*
X149631400Y-85728898D01*
X149631400Y-87193626D01*
X149617048Y-87228274D01*
X149582400Y-87242626D01*
X149547752Y-87228274D01*
X149478357Y-87158879D01*
X149353728Y-87080570D01*
X149339548Y-87071660D01*
X149189203Y-87019052D01*
X149184811Y-87017515D01*
X149184810Y-87017514D01*
X149184808Y-87017514D01*
X149184804Y-87017513D01*
X149184802Y-87017513D01*
X149021900Y-86999159D01*
X148858997Y-87017513D01*
X148858988Y-87017515D01*
X148704252Y-87071660D01*
X148704250Y-87071661D01*
X148565442Y-87158879D01*
X148449517Y-87274804D01*
X148362299Y-87413612D01*
X148362298Y-87413614D01*
X148308153Y-87568350D01*
X148308151Y-87568359D01*
X148289797Y-87731262D01*
X148303806Y-87855604D01*
X148308152Y-87894170D01*
X148346200Y-88002906D01*
X148357370Y-88034826D01*
X148355268Y-88072270D01*
X148345768Y-88085658D01*
X148052681Y-88378748D01*
X148018033Y-88393100D01*
X147663188Y-88393100D01*
X147628540Y-88378748D01*
X147542342Y-88292550D01*
X147542335Y-88292545D01*
X147429308Y-88234955D01*
X147429305Y-88234954D01*
X147429304Y-88234954D01*
X147304000Y-88215108D01*
X147178696Y-88234954D01*
X147178694Y-88234954D01*
X147178692Y-88234955D01*
X147178690Y-88234955D01*
X147065664Y-88292545D01*
X147065657Y-88292550D01*
X146975950Y-88382257D01*
X146975945Y-88382264D01*
X146918355Y-88495290D01*
X146918355Y-88495292D01*
X146918354Y-88495294D01*
X146918354Y-88495296D01*
X146898508Y-88620600D01*
X146918354Y-88745904D01*
X146918354Y-88745905D01*
X146918355Y-88745907D01*
X146918355Y-88745909D01*
X146975945Y-88858935D01*
X146975950Y-88858942D01*
X147065657Y-88948649D01*
X147065664Y-88948654D01*
X147178691Y-89006244D01*
X147178692Y-89006244D01*
X147178696Y-89006246D01*
X147304000Y-89026092D01*
X147429304Y-89006246D01*
X147429308Y-89006244D01*
X147429309Y-89006244D01*
X147542335Y-88948654D01*
X147542337Y-88948652D01*
X147542342Y-88948650D01*
X147628540Y-88862452D01*
X147663188Y-88848100D01*
X148177813Y-88848100D01*
X148177815Y-88848100D01*
X148261430Y-88813465D01*
X148667502Y-88407392D01*
X148702149Y-88393041D01*
X148718332Y-88395790D01*
X148858992Y-88445010D01*
X149021900Y-88463365D01*
X149184808Y-88445010D01*
X149339548Y-88390864D01*
X149478359Y-88303643D01*
X149547752Y-88234250D01*
X149582400Y-88219898D01*
X149617048Y-88234250D01*
X149631400Y-88268898D01*
X149631400Y-89733626D01*
X149617048Y-89768274D01*
X149582400Y-89782626D01*
X149547752Y-89768274D01*
X149478357Y-89698879D01*
X149385818Y-89640733D01*
X149339548Y-89611660D01*
X149184808Y-89557514D01*
X149184804Y-89557513D01*
X149184802Y-89557513D01*
X149021900Y-89539159D01*
X148858997Y-89557513D01*
X148858988Y-89557515D01*
X148704252Y-89611660D01*
X148704250Y-89611661D01*
X148565442Y-89698879D01*
X148449517Y-89814804D01*
X148362299Y-89953612D01*
X148362298Y-89953614D01*
X148308152Y-90108354D01*
X148289797Y-90271262D01*
X148308152Y-90434170D01*
X148362298Y-90588910D01*
X148362299Y-90588911D01*
X148449517Y-90727719D01*
X148565442Y-90843644D01*
X148611711Y-90872716D01*
X148704252Y-90930864D01*
X148786584Y-90959673D01*
X148814547Y-90984663D01*
X148819400Y-91005923D01*
X148819400Y-91127087D01*
X148805048Y-91161735D01*
X148042381Y-91924401D01*
X148007733Y-91938753D01*
X148000068Y-91938150D01*
X147921900Y-91925770D01*
X147796596Y-91945616D01*
X147796594Y-91945616D01*
X147796592Y-91945617D01*
X147796590Y-91945617D01*
X147683564Y-92003207D01*
X147683557Y-92003212D01*
X147593850Y-92092919D01*
X147593845Y-92092926D01*
X147536255Y-92205952D01*
X147536255Y-92205954D01*
X147536254Y-92205956D01*
X147536254Y-92205958D01*
X147516408Y-92331262D01*
X147536254Y-92456566D01*
X147536254Y-92456567D01*
X147536255Y-92456569D01*
X147536255Y-92456571D01*
X147593845Y-92569597D01*
X147593850Y-92569604D01*
X147683557Y-92659311D01*
X147683564Y-92659316D01*
X147796591Y-92716906D01*
X147796592Y-92716906D01*
X147796596Y-92716908D01*
X147921900Y-92736754D01*
X148047204Y-92716908D01*
X148047208Y-92716906D01*
X148047209Y-92716906D01*
X148160235Y-92659316D01*
X148160237Y-92659314D01*
X148160242Y-92659312D01*
X148243940Y-92575614D01*
X148278588Y-92561262D01*
X148771900Y-92561262D01*
X148771900Y-92011262D01*
X148646573Y-92011262D01*
X148611925Y-91996910D01*
X148597573Y-91962262D01*
X148611925Y-91927614D01*
X149193569Y-91345971D01*
X149193569Y-91345970D01*
X149193571Y-91345969D01*
X149224400Y-91271542D01*
X149224400Y-91190982D01*
X149224400Y-91005923D01*
X149238752Y-90971275D01*
X149257215Y-90959673D01*
X149339548Y-90930864D01*
X149478359Y-90843643D01*
X149547752Y-90774250D01*
X149582400Y-90759898D01*
X149617048Y-90774250D01*
X149631400Y-90808898D01*
X149631400Y-91962262D01*
X149617048Y-91996910D01*
X149582400Y-92011262D01*
X149271900Y-92011262D01*
X149271900Y-93611262D01*
X149582400Y-93611262D01*
X149617048Y-93625614D01*
X149631400Y-93660262D01*
X149631400Y-95176091D01*
X149631399Y-95176105D01*
X149631399Y-95229128D01*
X149631213Y-95233397D01*
X149614922Y-95419664D01*
X149613439Y-95428076D01*
X149565605Y-95606613D01*
X149562683Y-95614639D01*
X149484579Y-95782142D01*
X149480309Y-95789540D01*
X149374295Y-95940948D01*
X149368805Y-95947491D01*
X149238113Y-96078187D01*
X149231570Y-96083677D01*
X149080171Y-96189690D01*
X149072774Y-96193961D01*
X148905260Y-96272076D01*
X148897233Y-96274997D01*
X148718711Y-96322833D01*
X148710300Y-96324317D01*
X148591147Y-96334741D01*
X148524453Y-96340576D01*
X148520185Y-96340762D01*
X148466714Y-96340762D01*
X148466555Y-96340775D01*
X146463855Y-96341277D01*
X146429203Y-96326934D01*
X146414843Y-96292289D01*
X146420183Y-96270034D01*
X146427046Y-96256566D01*
X146446892Y-96131262D01*
X146427046Y-96005958D01*
X146427044Y-96005954D01*
X146427044Y-96005952D01*
X146369454Y-95892926D01*
X146369449Y-95892919D01*
X146279742Y-95803212D01*
X146279735Y-95803207D01*
X146166708Y-95745617D01*
X146166705Y-95745616D01*
X146166704Y-95745616D01*
X146041400Y-95725770D01*
X145916096Y-95745616D01*
X145916094Y-95745616D01*
X145916092Y-95745617D01*
X145916090Y-95745617D01*
X145803064Y-95803207D01*
X145803057Y-95803212D01*
X145713350Y-95892919D01*
X145713345Y-95892926D01*
X145655755Y-96005952D01*
X145655755Y-96005954D01*
X145655754Y-96005956D01*
X145655754Y-96005958D01*
X145635908Y-96131262D01*
X145655754Y-96256566D01*
X145655754Y-96256567D01*
X145655755Y-96256569D01*
X145655755Y-96256571D01*
X145662723Y-96270245D01*
X145665666Y-96307632D01*
X145641309Y-96336149D01*
X145619076Y-96341490D01*
X134391528Y-96344310D01*
X134374763Y-96341357D01*
X134373125Y-96340761D01*
X134373123Y-96340761D01*
X134324045Y-96340761D01*
X134319774Y-96340575D01*
X134133506Y-96324278D01*
X134125095Y-96322794D01*
X133946580Y-96274960D01*
X133938553Y-96272039D01*
X133771045Y-96193927D01*
X133763648Y-96189656D01*
X133612254Y-96083647D01*
X133605711Y-96078157D01*
X133475024Y-95947466D01*
X133469534Y-95940923D01*
X133373111Y-95803212D01*
X133363521Y-95789515D01*
X133359257Y-95782128D01*
X133281149Y-95614617D01*
X133278234Y-95606608D01*
X133230398Y-95428067D01*
X133228916Y-95419659D01*
X133228721Y-95417427D01*
X133212586Y-95232954D01*
X133212512Y-95231262D01*
X133426495Y-95231262D01*
X133446062Y-95417427D01*
X133503907Y-95595456D01*
X133514975Y-95614626D01*
X133590601Y-95745616D01*
X133597502Y-95757568D01*
X133597505Y-95757571D01*
X133722752Y-95896674D01*
X133722755Y-95896676D01*
X133722757Y-95896678D01*
X133874197Y-96006705D01*
X134045205Y-96082843D01*
X134228305Y-96121762D01*
X134415495Y-96121762D01*
X134598595Y-96082843D01*
X134769603Y-96006705D01*
X134921043Y-95896678D01*
X134924422Y-95892926D01*
X134986892Y-95823545D01*
X135046298Y-95757568D01*
X135139893Y-95595456D01*
X135197738Y-95417427D01*
X135217305Y-95231262D01*
X140526495Y-95231262D01*
X140546062Y-95417427D01*
X140603907Y-95595456D01*
X140614975Y-95614626D01*
X140690601Y-95745616D01*
X140697502Y-95757568D01*
X140697505Y-95757571D01*
X140822752Y-95896674D01*
X140822755Y-95896676D01*
X140822757Y-95896678D01*
X140974197Y-96006705D01*
X141145205Y-96082843D01*
X141328305Y-96121762D01*
X141515495Y-96121762D01*
X141698595Y-96082843D01*
X141869603Y-96006705D01*
X142021043Y-95896678D01*
X142024422Y-95892926D01*
X142086892Y-95823545D01*
X142146298Y-95757568D01*
X142239893Y-95595456D01*
X142297738Y-95417427D01*
X142317305Y-95231262D01*
X142298806Y-95055262D01*
X142966308Y-95055262D01*
X142986154Y-95180566D01*
X142986154Y-95180567D01*
X142986155Y-95180569D01*
X142986155Y-95180571D01*
X143043745Y-95293597D01*
X143043750Y-95293604D01*
X143133457Y-95383311D01*
X143133464Y-95383316D01*
X143246491Y-95440906D01*
X143246492Y-95440906D01*
X143246496Y-95440908D01*
X143371800Y-95460754D01*
X143497104Y-95440908D01*
X143497108Y-95440906D01*
X143497109Y-95440906D01*
X143610135Y-95383316D01*
X143610137Y-95383314D01*
X143610142Y-95383312D01*
X143699850Y-95293604D01*
X143712058Y-95269645D01*
X143731615Y-95231262D01*
X147626495Y-95231262D01*
X147646062Y-95417427D01*
X147703907Y-95595456D01*
X147714975Y-95614626D01*
X147790601Y-95745616D01*
X147797502Y-95757568D01*
X147797505Y-95757571D01*
X147922752Y-95896674D01*
X147922755Y-95896676D01*
X147922757Y-95896678D01*
X148074197Y-96006705D01*
X148245205Y-96082843D01*
X148428305Y-96121762D01*
X148615495Y-96121762D01*
X148798595Y-96082843D01*
X148969603Y-96006705D01*
X149121043Y-95896678D01*
X149124422Y-95892926D01*
X149186892Y-95823545D01*
X149246298Y-95757568D01*
X149339893Y-95595456D01*
X149397738Y-95417427D01*
X149417305Y-95231262D01*
X149397738Y-95045097D01*
X149339893Y-94867068D01*
X149246298Y-94704956D01*
X149214478Y-94669616D01*
X149121047Y-94565849D01*
X149121044Y-94565847D01*
X149121042Y-94565845D01*
X148969603Y-94455819D01*
X148798595Y-94379681D01*
X148798592Y-94379680D01*
X148798588Y-94379679D01*
X148615495Y-94340762D01*
X148428305Y-94340762D01*
X148245211Y-94379679D01*
X148245202Y-94379682D01*
X148074196Y-94455820D01*
X147922756Y-94565845D01*
X147797505Y-94704952D01*
X147797499Y-94704960D01*
X147703909Y-94867064D01*
X147703907Y-94867067D01*
X147650214Y-95032319D01*
X147646062Y-95045097D01*
X147626495Y-95231262D01*
X143731615Y-95231262D01*
X143757444Y-95180571D01*
X143757444Y-95180569D01*
X143757446Y-95180566D01*
X143777292Y-95055262D01*
X143757446Y-94929958D01*
X143757444Y-94929954D01*
X143757444Y-94929952D01*
X143699854Y-94816926D01*
X143699849Y-94816919D01*
X143610142Y-94727212D01*
X143610135Y-94727207D01*
X143497108Y-94669617D01*
X143497105Y-94669616D01*
X143497104Y-94669616D01*
X143371800Y-94649770D01*
X143246496Y-94669616D01*
X143246494Y-94669616D01*
X143246492Y-94669617D01*
X143246490Y-94669617D01*
X143133464Y-94727207D01*
X143133457Y-94727212D01*
X143043750Y-94816919D01*
X143043745Y-94816926D01*
X142986155Y-94929952D01*
X142986155Y-94929954D01*
X142986154Y-94929956D01*
X142986154Y-94929958D01*
X142966308Y-95055262D01*
X142298806Y-95055262D01*
X142297738Y-95045097D01*
X142239893Y-94867068D01*
X142146298Y-94704956D01*
X142114478Y-94669616D01*
X142021047Y-94565849D01*
X142021044Y-94565847D01*
X142021042Y-94565845D01*
X141869603Y-94455819D01*
X141698595Y-94379681D01*
X141698592Y-94379680D01*
X141698588Y-94379679D01*
X141515495Y-94340762D01*
X141328305Y-94340762D01*
X141145211Y-94379679D01*
X141145202Y-94379682D01*
X140974196Y-94455820D01*
X140822756Y-94565845D01*
X140697505Y-94704952D01*
X140697499Y-94704960D01*
X140603909Y-94867064D01*
X140603907Y-94867067D01*
X140550214Y-95032319D01*
X140546062Y-95045097D01*
X140526495Y-95231262D01*
X135217305Y-95231262D01*
X135197738Y-95045097D01*
X135139893Y-94867068D01*
X135046298Y-94704956D01*
X135014478Y-94669616D01*
X134921047Y-94565849D01*
X134921044Y-94565847D01*
X134921042Y-94565845D01*
X134769603Y-94455819D01*
X134598595Y-94379681D01*
X134598592Y-94379680D01*
X134598588Y-94379679D01*
X134415495Y-94340762D01*
X134228305Y-94340762D01*
X134045211Y-94379679D01*
X134045202Y-94379682D01*
X133874196Y-94455820D01*
X133722756Y-94565845D01*
X133597505Y-94704952D01*
X133597499Y-94704960D01*
X133503909Y-94867064D01*
X133503907Y-94867067D01*
X133450214Y-95032319D01*
X133446062Y-95045097D01*
X133426495Y-95231262D01*
X133212512Y-95231262D01*
X133212401Y-95228699D01*
X133212402Y-95180047D01*
X133212401Y-95180045D01*
X133212401Y-95172799D01*
X133212400Y-95172785D01*
X133212400Y-93378862D01*
X138091108Y-93378862D01*
X138110954Y-93504166D01*
X138110954Y-93504167D01*
X138110955Y-93504169D01*
X138110955Y-93504171D01*
X138168545Y-93617197D01*
X138168550Y-93617204D01*
X138258257Y-93706911D01*
X138258264Y-93706916D01*
X138371291Y-93764506D01*
X138371292Y-93764506D01*
X138371296Y-93764508D01*
X138496600Y-93784354D01*
X138621904Y-93764508D01*
X138722318Y-93713343D01*
X138759706Y-93710401D01*
X138788223Y-93734757D01*
X138791166Y-93772145D01*
X138788224Y-93779248D01*
X138771354Y-93812356D01*
X138771354Y-93812358D01*
X138751508Y-93937662D01*
X138771354Y-94062966D01*
X138771354Y-94062967D01*
X138771355Y-94062969D01*
X138771355Y-94062971D01*
X138828945Y-94175997D01*
X138828950Y-94176004D01*
X138918657Y-94265711D01*
X138918664Y-94265716D01*
X139031691Y-94323306D01*
X139031692Y-94323306D01*
X139031696Y-94323308D01*
X139157000Y-94343154D01*
X139282304Y-94323308D01*
X139282308Y-94323306D01*
X139282309Y-94323306D01*
X139395335Y-94265716D01*
X139395337Y-94265714D01*
X139395342Y-94265712D01*
X139485050Y-94176004D01*
X139485054Y-94175997D01*
X139542644Y-94062971D01*
X139542644Y-94062969D01*
X139542646Y-94062966D01*
X139562492Y-93937662D01*
X139542646Y-93812358D01*
X139542644Y-93812354D01*
X139542644Y-93812352D01*
X139485054Y-93699326D01*
X139485049Y-93699319D01*
X139395342Y-93609612D01*
X139395338Y-93609609D01*
X139390663Y-93607227D01*
X139366309Y-93578708D01*
X139369254Y-93541320D01*
X139397773Y-93516966D01*
X139405231Y-93515175D01*
X139434704Y-93510508D01*
X139434708Y-93510506D01*
X139434709Y-93510506D01*
X139547735Y-93452916D01*
X139547737Y-93452914D01*
X139547742Y-93452912D01*
X139569698Y-93430956D01*
X148221900Y-93430956D01*
X148233504Y-93489298D01*
X148277707Y-93555454D01*
X148343863Y-93599657D01*
X148402205Y-93611262D01*
X148771900Y-93611262D01*
X148771900Y-93061262D01*
X148221900Y-93061262D01*
X148221900Y-93430956D01*
X139569698Y-93430956D01*
X139637450Y-93363204D01*
X139637454Y-93363197D01*
X139695044Y-93250171D01*
X139695044Y-93250169D01*
X139695046Y-93250166D01*
X139714892Y-93124862D01*
X139695046Y-92999558D01*
X139695044Y-92999554D01*
X139695044Y-92999552D01*
X139637454Y-92886526D01*
X139637449Y-92886519D01*
X139582693Y-92831763D01*
X139568341Y-92797115D01*
X139582693Y-92762467D01*
X139617341Y-92748115D01*
X139624991Y-92748716D01*
X139676482Y-92756872D01*
X139801786Y-92737026D01*
X139801790Y-92737024D01*
X139801791Y-92737024D01*
X139914817Y-92679434D01*
X139914819Y-92679432D01*
X139914824Y-92679430D01*
X140004532Y-92589722D01*
X140004536Y-92589715D01*
X140062126Y-92476689D01*
X140062126Y-92476687D01*
X140062128Y-92476684D01*
X140081974Y-92351380D01*
X140062128Y-92226076D01*
X140062126Y-92226072D01*
X140062126Y-92226070D01*
X140004536Y-92113044D01*
X140004531Y-92113037D01*
X139914824Y-92023330D01*
X139914817Y-92023325D01*
X139801790Y-91965735D01*
X139801787Y-91965734D01*
X139801786Y-91965734D01*
X139676482Y-91945888D01*
X139551178Y-91965734D01*
X139551176Y-91965734D01*
X139551174Y-91965735D01*
X139551172Y-91965735D01*
X139438146Y-92023325D01*
X139438139Y-92023330D01*
X139348432Y-92113037D01*
X139348427Y-92113044D01*
X139290837Y-92226070D01*
X139290837Y-92226072D01*
X139290836Y-92226074D01*
X139290836Y-92226076D01*
X139270990Y-92351380D01*
X139290836Y-92476684D01*
X139290836Y-92476685D01*
X139290837Y-92476687D01*
X139290837Y-92476689D01*
X139348427Y-92589715D01*
X139348432Y-92589722D01*
X139403188Y-92644478D01*
X139417540Y-92679126D01*
X139403188Y-92713774D01*
X139368540Y-92728126D01*
X139360878Y-92727523D01*
X139309400Y-92719370D01*
X139184096Y-92739216D01*
X139184094Y-92739216D01*
X139184092Y-92739217D01*
X139184090Y-92739217D01*
X139071064Y-92796807D01*
X139071057Y-92796812D01*
X138981350Y-92886519D01*
X138981345Y-92886526D01*
X138923755Y-92999552D01*
X138923755Y-92999554D01*
X138905974Y-93111817D01*
X138886378Y-93143793D01*
X138849911Y-93152548D01*
X138822929Y-93138799D01*
X138734942Y-93050812D01*
X138734935Y-93050807D01*
X138621908Y-92993217D01*
X138621905Y-92993216D01*
X138621904Y-92993216D01*
X138496600Y-92973370D01*
X138371296Y-92993216D01*
X138371294Y-92993216D01*
X138371292Y-92993217D01*
X138371290Y-92993217D01*
X138258264Y-93050807D01*
X138258257Y-93050812D01*
X138168550Y-93140519D01*
X138168545Y-93140526D01*
X138110955Y-93253552D01*
X138110955Y-93253554D01*
X138110954Y-93253556D01*
X138110954Y-93253558D01*
X138091108Y-93378862D01*
X133212400Y-93378862D01*
X133212400Y-88074462D01*
X133399608Y-88074462D01*
X133419454Y-88199766D01*
X133419454Y-88199767D01*
X133419455Y-88199769D01*
X133419455Y-88199771D01*
X133477045Y-88312797D01*
X133477050Y-88312804D01*
X133566757Y-88402511D01*
X133566764Y-88402516D01*
X133679791Y-88460106D01*
X133679792Y-88460106D01*
X133679796Y-88460108D01*
X133748202Y-88470942D01*
X133780177Y-88490536D01*
X133788932Y-88527003D01*
X133775184Y-88553986D01*
X133731048Y-88598122D01*
X133731045Y-88598126D01*
X133673455Y-88711152D01*
X133673455Y-88711154D01*
X133673454Y-88711156D01*
X133673454Y-88711158D01*
X133653608Y-88836462D01*
X133673454Y-88961766D01*
X133673454Y-88961767D01*
X133673455Y-88961769D01*
X133673455Y-88961771D01*
X133731045Y-89074797D01*
X133731050Y-89074804D01*
X133820757Y-89164511D01*
X133820764Y-89164516D01*
X133933791Y-89222106D01*
X133933792Y-89222106D01*
X133933796Y-89222108D01*
X134059100Y-89241954D01*
X134184404Y-89222108D01*
X134184408Y-89222106D01*
X134184409Y-89222106D01*
X134297435Y-89164516D01*
X134297437Y-89164514D01*
X134297442Y-89164512D01*
X134387150Y-89074804D01*
X134405056Y-89039662D01*
X138116408Y-89039662D01*
X138136254Y-89164966D01*
X138136254Y-89164967D01*
X138136255Y-89164969D01*
X138136255Y-89164971D01*
X138193845Y-89277997D01*
X138193850Y-89278004D01*
X138283557Y-89367711D01*
X138283564Y-89367716D01*
X138396591Y-89425306D01*
X138396592Y-89425306D01*
X138396596Y-89425308D01*
X138521900Y-89445154D01*
X138647204Y-89425308D01*
X138647208Y-89425306D01*
X138647209Y-89425306D01*
X138760235Y-89367716D01*
X138760237Y-89367714D01*
X138760242Y-89367712D01*
X138849950Y-89278004D01*
X138849954Y-89277997D01*
X138907544Y-89164971D01*
X138907544Y-89164969D01*
X138907546Y-89164966D01*
X138927392Y-89039662D01*
X138907546Y-88914358D01*
X138907544Y-88914354D01*
X138907544Y-88914352D01*
X138849954Y-88801326D01*
X138849949Y-88801319D01*
X138777464Y-88728834D01*
X138768348Y-88706827D01*
X138765187Y-88708137D01*
X138742942Y-88702796D01*
X138647208Y-88654017D01*
X138647205Y-88654016D01*
X138647204Y-88654016D01*
X138521900Y-88634170D01*
X138396596Y-88654016D01*
X138396594Y-88654016D01*
X138396592Y-88654017D01*
X138396590Y-88654017D01*
X138283564Y-88711607D01*
X138283557Y-88711612D01*
X138193850Y-88801319D01*
X138193845Y-88801326D01*
X138136255Y-88914352D01*
X138136255Y-88914354D01*
X138136254Y-88914356D01*
X138136254Y-88914358D01*
X138116408Y-89039662D01*
X134405056Y-89039662D01*
X134444744Y-88961771D01*
X134444744Y-88961769D01*
X134444746Y-88961766D01*
X134464592Y-88836462D01*
X134444746Y-88711158D01*
X134444744Y-88711154D01*
X134444744Y-88711152D01*
X134387154Y-88598126D01*
X134387149Y-88598119D01*
X134297442Y-88508412D01*
X134297435Y-88508407D01*
X134184408Y-88450817D01*
X134184405Y-88450816D01*
X134184404Y-88450816D01*
X134115997Y-88439981D01*
X134084022Y-88420386D01*
X134075267Y-88383919D01*
X134089013Y-88356940D01*
X134133150Y-88312804D01*
X134133154Y-88312797D01*
X134190744Y-88199771D01*
X134190744Y-88199769D01*
X134190746Y-88199766D01*
X134210592Y-88074462D01*
X134190746Y-87949158D01*
X134190744Y-87949154D01*
X134190744Y-87949152D01*
X134133154Y-87836126D01*
X134133149Y-87836119D01*
X134043442Y-87746412D01*
X134043435Y-87746407D01*
X133930408Y-87688817D01*
X133930405Y-87688816D01*
X133930404Y-87688816D01*
X133805100Y-87668970D01*
X133679796Y-87688816D01*
X133679794Y-87688816D01*
X133679792Y-87688817D01*
X133679790Y-87688817D01*
X133566764Y-87746407D01*
X133566757Y-87746412D01*
X133477050Y-87836119D01*
X133477045Y-87836126D01*
X133419455Y-87949152D01*
X133419455Y-87949154D01*
X133419454Y-87949156D01*
X133419454Y-87949158D01*
X133399608Y-88074462D01*
X133212400Y-88074462D01*
X133212400Y-87486062D01*
X136347308Y-87486062D01*
X136367154Y-87611366D01*
X136367154Y-87611367D01*
X136367155Y-87611369D01*
X136367155Y-87611371D01*
X136424745Y-87724397D01*
X136424750Y-87724404D01*
X136514457Y-87814111D01*
X136514464Y-87814116D01*
X136627491Y-87871706D01*
X136627492Y-87871706D01*
X136627496Y-87871708D01*
X136752800Y-87891554D01*
X136878104Y-87871708D01*
X136894866Y-87863166D01*
X136932253Y-87860224D01*
X136960771Y-87884579D01*
X136963714Y-87921967D01*
X136960772Y-87929071D01*
X136924654Y-87999956D01*
X136904808Y-88125262D01*
X136924654Y-88250566D01*
X136924654Y-88250567D01*
X136924655Y-88250569D01*
X136924655Y-88250571D01*
X136982245Y-88363597D01*
X136982250Y-88363604D01*
X137071957Y-88453311D01*
X137071964Y-88453316D01*
X137184991Y-88510906D01*
X137184992Y-88510906D01*
X137184996Y-88510908D01*
X137310300Y-88530754D01*
X137435604Y-88510908D01*
X137435608Y-88510906D01*
X137435609Y-88510906D01*
X137548635Y-88453316D01*
X137548637Y-88453314D01*
X137548642Y-88453312D01*
X137638350Y-88363604D01*
X137663797Y-88313662D01*
X138649908Y-88313662D01*
X138669754Y-88438966D01*
X138669754Y-88438967D01*
X138669755Y-88438969D01*
X138669755Y-88438971D01*
X138727345Y-88551997D01*
X138727350Y-88552004D01*
X138799835Y-88624489D01*
X138808950Y-88646495D01*
X138812112Y-88645186D01*
X138834358Y-88650527D01*
X138930096Y-88699308D01*
X139055400Y-88719154D01*
X139180704Y-88699308D01*
X139180708Y-88699306D01*
X139180709Y-88699306D01*
X139293735Y-88641716D01*
X139293737Y-88641714D01*
X139293742Y-88641712D01*
X139383450Y-88552004D01*
X139383454Y-88551997D01*
X139441044Y-88438971D01*
X139441044Y-88438969D01*
X139441046Y-88438966D01*
X139460892Y-88313662D01*
X139441046Y-88188358D01*
X139441044Y-88188354D01*
X139441044Y-88188352D01*
X139383454Y-88075326D01*
X139383449Y-88075319D01*
X139293742Y-87985612D01*
X139293735Y-87985607D01*
X139180708Y-87928017D01*
X139180705Y-87928016D01*
X139180704Y-87928016D01*
X139055400Y-87908170D01*
X138930096Y-87928016D01*
X138930094Y-87928016D01*
X138930092Y-87928017D01*
X138930090Y-87928017D01*
X138817064Y-87985607D01*
X138817057Y-87985612D01*
X138727350Y-88075319D01*
X138727345Y-88075326D01*
X138669755Y-88188352D01*
X138669755Y-88188354D01*
X138669754Y-88188356D01*
X138669754Y-88188358D01*
X138649908Y-88313662D01*
X137663797Y-88313662D01*
X137664238Y-88312797D01*
X137695944Y-88250571D01*
X137695944Y-88250569D01*
X137695946Y-88250566D01*
X137715792Y-88125262D01*
X137695946Y-87999958D01*
X137695944Y-87999954D01*
X137695944Y-87999952D01*
X137638354Y-87886926D01*
X137638349Y-87886919D01*
X137548642Y-87797212D01*
X137548635Y-87797207D01*
X137435608Y-87739617D01*
X137435605Y-87739616D01*
X137435604Y-87739616D01*
X137310300Y-87719770D01*
X137184996Y-87739616D01*
X137184994Y-87739616D01*
X137184992Y-87739617D01*
X137168231Y-87748157D01*
X137130844Y-87751098D01*
X137102327Y-87726741D01*
X137099386Y-87689354D01*
X137102328Y-87682251D01*
X137109095Y-87668970D01*
X137138446Y-87611366D01*
X137142200Y-87587662D01*
X137887908Y-87587662D01*
X137907754Y-87712966D01*
X137907754Y-87712967D01*
X137907755Y-87712969D01*
X137907755Y-87712971D01*
X137965345Y-87825997D01*
X137965350Y-87826004D01*
X138055057Y-87915711D01*
X138055064Y-87915716D01*
X138168091Y-87973306D01*
X138168092Y-87973306D01*
X138168096Y-87973308D01*
X138293400Y-87993154D01*
X138418704Y-87973308D01*
X138418708Y-87973306D01*
X138418709Y-87973306D01*
X138531735Y-87915716D01*
X138531737Y-87915714D01*
X138531742Y-87915712D01*
X138621450Y-87826004D01*
X138621454Y-87825997D01*
X138679044Y-87712971D01*
X138679044Y-87712969D01*
X138679046Y-87712966D01*
X138694204Y-87617262D01*
X146944008Y-87617262D01*
X146963854Y-87742566D01*
X146963854Y-87742567D01*
X146963855Y-87742569D01*
X146963855Y-87742571D01*
X147021445Y-87855597D01*
X147021450Y-87855604D01*
X147111157Y-87945311D01*
X147111164Y-87945316D01*
X147224191Y-88002906D01*
X147224192Y-88002906D01*
X147224196Y-88002908D01*
X147349500Y-88022754D01*
X147474804Y-88002908D01*
X147474808Y-88002906D01*
X147474809Y-88002906D01*
X147587835Y-87945316D01*
X147587837Y-87945314D01*
X147587842Y-87945312D01*
X147677550Y-87855604D01*
X147687478Y-87836120D01*
X147735144Y-87742571D01*
X147735144Y-87742569D01*
X147735146Y-87742566D01*
X147754992Y-87617262D01*
X147735146Y-87491958D01*
X147735144Y-87491954D01*
X147735144Y-87491952D01*
X147677554Y-87378926D01*
X147677549Y-87378919D01*
X147587842Y-87289212D01*
X147587835Y-87289207D01*
X147474808Y-87231617D01*
X147474805Y-87231616D01*
X147474804Y-87231616D01*
X147349500Y-87211770D01*
X147224196Y-87231616D01*
X147224194Y-87231616D01*
X147224192Y-87231617D01*
X147224190Y-87231617D01*
X147111164Y-87289207D01*
X147111157Y-87289212D01*
X147021450Y-87378919D01*
X147021445Y-87378926D01*
X146963855Y-87491952D01*
X146963855Y-87491954D01*
X146963854Y-87491956D01*
X146963854Y-87491958D01*
X146944008Y-87617262D01*
X138694204Y-87617262D01*
X138698892Y-87587662D01*
X138679046Y-87462358D01*
X138679044Y-87462354D01*
X138679044Y-87462352D01*
X138621454Y-87349326D01*
X138621449Y-87349319D01*
X138531742Y-87259612D01*
X138531735Y-87259607D01*
X138418708Y-87202017D01*
X138418705Y-87202016D01*
X138418704Y-87202016D01*
X138293400Y-87182170D01*
X138168096Y-87202016D01*
X138168094Y-87202016D01*
X138168092Y-87202017D01*
X138168090Y-87202017D01*
X138055064Y-87259607D01*
X138055057Y-87259612D01*
X137965350Y-87349319D01*
X137965345Y-87349326D01*
X137907755Y-87462352D01*
X137907755Y-87462354D01*
X137907754Y-87462356D01*
X137907754Y-87462358D01*
X137887908Y-87587662D01*
X137142200Y-87587662D01*
X137158292Y-87486062D01*
X137138446Y-87360758D01*
X137138444Y-87360754D01*
X137138444Y-87360752D01*
X137080854Y-87247726D01*
X137080849Y-87247719D01*
X136991142Y-87158012D01*
X136991135Y-87158007D01*
X136878108Y-87100417D01*
X136878105Y-87100416D01*
X136878104Y-87100416D01*
X136752800Y-87080570D01*
X136627496Y-87100416D01*
X136627494Y-87100416D01*
X136627492Y-87100417D01*
X136627490Y-87100417D01*
X136514464Y-87158007D01*
X136514457Y-87158012D01*
X136424750Y-87247719D01*
X136424745Y-87247726D01*
X136367155Y-87360752D01*
X136367155Y-87360754D01*
X136367154Y-87360756D01*
X136367154Y-87360758D01*
X136347308Y-87486062D01*
X133212400Y-87486062D01*
X133212400Y-86487000D01*
X141596348Y-86487000D01*
X141614476Y-86624704D01*
X141667626Y-86753021D01*
X141667629Y-86753026D01*
X141724936Y-86827711D01*
X141752182Y-86863218D01*
X141862374Y-86947771D01*
X141862376Y-86947771D01*
X141862378Y-86947773D01*
X141986436Y-86999159D01*
X141990695Y-87000923D01*
X142128400Y-87019052D01*
X142266105Y-87000923D01*
X142394426Y-86947771D01*
X142504618Y-86863218D01*
X142589171Y-86753026D01*
X142642323Y-86624705D01*
X142658785Y-86499662D01*
X146944008Y-86499662D01*
X146963854Y-86624966D01*
X146963854Y-86624967D01*
X146963855Y-86624969D01*
X146963855Y-86624971D01*
X147021445Y-86737997D01*
X147021450Y-86738004D01*
X147111157Y-86827711D01*
X147111164Y-86827716D01*
X147224191Y-86885306D01*
X147224192Y-86885306D01*
X147224196Y-86885308D01*
X147349500Y-86905154D01*
X147474804Y-86885308D01*
X147474808Y-86885306D01*
X147474809Y-86885306D01*
X147587835Y-86827716D01*
X147587837Y-86827714D01*
X147587842Y-86827712D01*
X147677550Y-86738004D01*
X147677554Y-86737997D01*
X147735144Y-86624971D01*
X147735144Y-86624969D01*
X147735146Y-86624966D01*
X147754992Y-86499662D01*
X147735146Y-86374358D01*
X147735144Y-86374354D01*
X147735144Y-86374352D01*
X147677554Y-86261326D01*
X147677549Y-86261319D01*
X147587842Y-86171612D01*
X147587835Y-86171607D01*
X147474808Y-86114017D01*
X147474805Y-86114016D01*
X147474804Y-86114016D01*
X147349500Y-86094170D01*
X147224196Y-86114016D01*
X147224194Y-86114016D01*
X147224192Y-86114017D01*
X147224190Y-86114017D01*
X147111164Y-86171607D01*
X147111157Y-86171612D01*
X147021450Y-86261319D01*
X147021445Y-86261326D01*
X146963855Y-86374352D01*
X146963855Y-86374354D01*
X146963854Y-86374356D01*
X146963854Y-86374358D01*
X146944008Y-86499662D01*
X142658785Y-86499662D01*
X142660452Y-86487000D01*
X142642323Y-86349295D01*
X142605883Y-86261320D01*
X142589173Y-86220978D01*
X142589170Y-86220973D01*
X142551290Y-86171607D01*
X142504618Y-86110782D01*
X142394426Y-86026229D01*
X142394421Y-86026226D01*
X142266104Y-85973076D01*
X142128400Y-85954948D01*
X141990695Y-85973076D01*
X141862378Y-86026226D01*
X141862373Y-86026229D01*
X141752182Y-86110781D01*
X141752181Y-86110782D01*
X141667629Y-86220973D01*
X141667626Y-86220978D01*
X141614476Y-86349295D01*
X141596348Y-86487000D01*
X133212400Y-86487000D01*
X133212400Y-85586950D01*
X133226752Y-85552302D01*
X133261400Y-85537950D01*
X133296048Y-85552302D01*
X133303057Y-85559311D01*
X133303064Y-85559316D01*
X133416091Y-85616906D01*
X133416092Y-85616906D01*
X133416096Y-85616908D01*
X133541400Y-85636754D01*
X133666704Y-85616908D01*
X133666708Y-85616906D01*
X133666709Y-85616906D01*
X133779735Y-85559316D01*
X133779737Y-85559314D01*
X133779742Y-85559312D01*
X133869450Y-85469604D01*
X133869454Y-85469597D01*
X133927044Y-85356571D01*
X133927044Y-85356569D01*
X133927046Y-85356566D01*
X133946892Y-85231262D01*
X133944633Y-85217000D01*
X140326348Y-85217000D01*
X140344476Y-85354704D01*
X140397626Y-85483021D01*
X140397629Y-85483026D01*
X140439773Y-85537950D01*
X140482182Y-85593218D01*
X140592374Y-85677771D01*
X140592376Y-85677771D01*
X140592378Y-85677773D01*
X140715806Y-85728898D01*
X140720695Y-85730923D01*
X140858400Y-85749052D01*
X140996105Y-85730923D01*
X141124426Y-85677771D01*
X141234618Y-85593218D01*
X141319171Y-85483026D01*
X141372323Y-85354705D01*
X141390452Y-85217000D01*
X141372323Y-85079295D01*
X141319171Y-84950974D01*
X141234618Y-84840782D01*
X141124426Y-84756229D01*
X141124421Y-84756226D01*
X140996104Y-84703076D01*
X140858400Y-84684948D01*
X140720695Y-84703076D01*
X140592378Y-84756226D01*
X140592373Y-84756229D01*
X140482182Y-84840781D01*
X140482181Y-84840782D01*
X140397629Y-84950973D01*
X140397626Y-84950978D01*
X140344476Y-85079295D01*
X140326348Y-85217000D01*
X133944633Y-85217000D01*
X133927046Y-85105958D01*
X133927044Y-85105954D01*
X133927044Y-85105952D01*
X133869454Y-84992926D01*
X133869449Y-84992919D01*
X133779742Y-84903212D01*
X133779735Y-84903207D01*
X133666708Y-84845617D01*
X133666705Y-84845616D01*
X133666704Y-84845616D01*
X133541400Y-84825770D01*
X133416096Y-84845616D01*
X133416094Y-84845616D01*
X133416092Y-84845617D01*
X133416090Y-84845617D01*
X133303064Y-84903207D01*
X133303057Y-84903212D01*
X133296048Y-84910222D01*
X133261400Y-84924574D01*
X133226752Y-84910222D01*
X133212400Y-84875574D01*
X133212400Y-84054505D01*
X133212551Y-84050660D01*
X133221637Y-83935224D01*
X133226990Y-83867211D01*
X133228193Y-83859627D01*
X133270700Y-83682564D01*
X133273074Y-83675261D01*
X133342753Y-83507033D01*
X133346238Y-83500192D01*
X133441383Y-83344922D01*
X133445892Y-83338716D01*
X133565281Y-83198919D01*
X133567869Y-83196120D01*
X133932728Y-82831262D01*
X137064704Y-82831262D01*
X137083436Y-83009483D01*
X137138812Y-83179915D01*
X137228414Y-83335109D01*
X137348324Y-83468283D01*
X137493302Y-83573616D01*
X137657012Y-83646504D01*
X137832299Y-83683762D01*
X138011501Y-83683762D01*
X138186788Y-83646504D01*
X138350498Y-83573616D01*
X138495476Y-83468283D01*
X138615386Y-83335109D01*
X138704988Y-83179915D01*
X138760364Y-83009483D01*
X138779096Y-82831262D01*
X139564704Y-82831262D01*
X139583436Y-83009483D01*
X139638812Y-83179915D01*
X139728414Y-83335109D01*
X139848324Y-83468283D01*
X139993302Y-83573616D01*
X140157012Y-83646504D01*
X140332299Y-83683762D01*
X140511501Y-83683762D01*
X140686788Y-83646504D01*
X140850498Y-83573616D01*
X140995476Y-83468283D01*
X141115386Y-83335109D01*
X141204988Y-83179915D01*
X141260364Y-83009483D01*
X141279096Y-82831262D01*
X141564704Y-82831262D01*
X141583436Y-83009483D01*
X141638812Y-83179915D01*
X141728414Y-83335109D01*
X141848324Y-83468283D01*
X141993302Y-83573616D01*
X142157012Y-83646504D01*
X142332299Y-83683762D01*
X142511501Y-83683762D01*
X142686788Y-83646504D01*
X142850498Y-83573616D01*
X142995476Y-83468283D01*
X143115386Y-83335109D01*
X143204988Y-83179915D01*
X143260364Y-83009483D01*
X143279096Y-82831262D01*
X144064704Y-82831262D01*
X144083436Y-83009483D01*
X144138812Y-83179915D01*
X144228414Y-83335109D01*
X144348324Y-83468283D01*
X144493302Y-83573616D01*
X144657012Y-83646504D01*
X144832299Y-83683762D01*
X145011501Y-83683762D01*
X145186788Y-83646504D01*
X145350498Y-83573616D01*
X145495476Y-83468283D01*
X145615386Y-83335109D01*
X145704988Y-83179915D01*
X145760364Y-83009483D01*
X145779096Y-82831262D01*
X145760364Y-82653041D01*
X145704988Y-82482609D01*
X145615386Y-82327415D01*
X145495476Y-82194241D01*
X145350498Y-82088908D01*
X145186788Y-82016020D01*
X145011501Y-81978762D01*
X144832299Y-81978762D01*
X144657012Y-82016020D01*
X144493302Y-82088908D01*
X144348324Y-82194241D01*
X144348323Y-82194242D01*
X144348319Y-82194245D01*
X144228417Y-82327411D01*
X144228411Y-82327419D01*
X144138814Y-82482605D01*
X144138812Y-82482608D01*
X144138812Y-82482609D01*
X144083436Y-82653041D01*
X144064704Y-82831262D01*
X143279096Y-82831262D01*
X143260364Y-82653041D01*
X143204988Y-82482609D01*
X143115386Y-82327415D01*
X142995476Y-82194241D01*
X142850498Y-82088908D01*
X142686788Y-82016020D01*
X142511501Y-81978762D01*
X142332299Y-81978762D01*
X142157012Y-82016020D01*
X141993302Y-82088908D01*
X141848324Y-82194241D01*
X141848323Y-82194242D01*
X141848319Y-82194245D01*
X141728417Y-82327411D01*
X141728411Y-82327419D01*
X141638814Y-82482605D01*
X141638812Y-82482608D01*
X141638812Y-82482609D01*
X141583436Y-82653041D01*
X141564704Y-82831262D01*
X141279096Y-82831262D01*
X141260364Y-82653041D01*
X141204988Y-82482609D01*
X141115386Y-82327415D01*
X140995476Y-82194241D01*
X140850498Y-82088908D01*
X140686788Y-82016020D01*
X140511501Y-81978762D01*
X140332299Y-81978762D01*
X140157012Y-82016020D01*
X139993302Y-82088908D01*
X139848324Y-82194241D01*
X139848323Y-82194242D01*
X139848319Y-82194245D01*
X139728417Y-82327411D01*
X139728411Y-82327419D01*
X139638814Y-82482605D01*
X139638812Y-82482608D01*
X139638812Y-82482609D01*
X139583436Y-82653041D01*
X139564704Y-82831262D01*
X138779096Y-82831262D01*
X138760364Y-82653041D01*
X138704988Y-82482609D01*
X138615386Y-82327415D01*
X138495476Y-82194241D01*
X138350498Y-82088908D01*
X138186788Y-82016020D01*
X138011501Y-81978762D01*
X137832299Y-81978762D01*
X137657012Y-82016020D01*
X137493302Y-82088908D01*
X137348324Y-82194241D01*
X137348323Y-82194242D01*
X137348319Y-82194245D01*
X137228417Y-82327411D01*
X137228411Y-82327419D01*
X137138814Y-82482605D01*
X137138812Y-82482608D01*
X137138812Y-82482609D01*
X137083436Y-82653041D01*
X137064704Y-82831262D01*
X133932728Y-82831262D01*
X134754358Y-82009633D01*
X134792603Y-81943391D01*
X134792604Y-81943387D01*
X134793831Y-81940426D01*
X134795276Y-81941024D01*
X134814951Y-81915352D01*
X134852130Y-81910434D01*
X134880219Y-81930549D01*
X134909717Y-81974696D01*
X135028465Y-82093444D01*
X135084012Y-82130558D01*
X135168090Y-82186738D01*
X135323235Y-82251001D01*
X135323241Y-82251002D01*
X135323244Y-82251003D01*
X135487930Y-82283761D01*
X135487933Y-82283761D01*
X135487936Y-82283762D01*
X135487937Y-82283762D01*
X135655863Y-82283762D01*
X135655864Y-82283762D01*
X135820565Y-82251001D01*
X135975710Y-82186738D01*
X136115337Y-82093442D01*
X136234080Y-81974699D01*
X136327376Y-81835072D01*
X136391639Y-81679927D01*
X136424400Y-81515226D01*
X136424400Y-80831261D01*
X138414638Y-80831261D01*
X138421092Y-80888542D01*
X138421400Y-80894028D01*
X138421400Y-80905184D01*
X138424609Y-80921321D01*
X138425242Y-80925389D01*
X138433623Y-80999768D01*
X138433624Y-80999770D01*
X138447761Y-81040170D01*
X138449570Y-81046796D01*
X138450242Y-81050176D01*
X138456290Y-81064778D01*
X138457269Y-81067344D01*
X138472241Y-81110130D01*
X138489631Y-81159826D01*
X138489632Y-81159827D01*
X138579847Y-81303405D01*
X138579849Y-81303407D01*
X138699755Y-81423313D01*
X138699757Y-81423314D01*
X138843331Y-81513529D01*
X138843335Y-81513530D01*
X138843336Y-81513531D01*
X138935812Y-81545890D01*
X138935818Y-81545892D01*
X138938374Y-81546867D01*
X138952987Y-81552920D01*
X138956366Y-81553591D01*
X138962984Y-81555397D01*
X139003393Y-81569538D01*
X139077777Y-81577919D01*
X139081823Y-81578547D01*
X139097982Y-81581762D01*
X139109133Y-81581762D01*
X139114618Y-81582069D01*
X139171900Y-81588524D01*
X139229181Y-81582069D01*
X139234667Y-81581762D01*
X139245817Y-81581762D01*
X139245818Y-81581762D01*
X139261973Y-81578548D01*
X139266012Y-81577920D01*
X139340407Y-81569538D01*
X139380808Y-81555399D01*
X139387431Y-81553592D01*
X139390813Y-81552920D01*
X139390818Y-81552918D01*
X139405417Y-81546871D01*
X139407981Y-81545892D01*
X139500464Y-81513531D01*
X139500466Y-81513529D01*
X139500468Y-81513529D01*
X139553175Y-81480409D01*
X139644045Y-81423313D01*
X139763951Y-81303407D01*
X139821047Y-81212537D01*
X139854167Y-81159830D01*
X139854168Y-81159827D01*
X139854169Y-81159826D01*
X139886531Y-81067338D01*
X139887509Y-81064779D01*
X139893556Y-81050180D01*
X139893556Y-81050179D01*
X139893558Y-81050175D01*
X139894230Y-81046793D01*
X139896039Y-81040166D01*
X139910176Y-80999769D01*
X139918558Y-80925374D01*
X139919189Y-80921321D01*
X139922400Y-80905180D01*
X139922400Y-80894028D01*
X139922708Y-80888542D01*
X139929162Y-80831262D01*
X139929162Y-80831261D01*
X142914638Y-80831261D01*
X142921092Y-80888542D01*
X142921400Y-80894028D01*
X142921400Y-80905184D01*
X142924609Y-80921321D01*
X142925242Y-80925389D01*
X142933623Y-80999768D01*
X142933624Y-80999770D01*
X142947761Y-81040170D01*
X142949570Y-81046796D01*
X142950242Y-81050176D01*
X142956290Y-81064778D01*
X142957269Y-81067344D01*
X142972241Y-81110130D01*
X142989631Y-81159826D01*
X142989632Y-81159827D01*
X143079847Y-81303405D01*
X143079849Y-81303407D01*
X143199755Y-81423313D01*
X143199757Y-81423314D01*
X143343331Y-81513529D01*
X143343335Y-81513530D01*
X143343336Y-81513531D01*
X143435812Y-81545890D01*
X143435818Y-81545892D01*
X143438374Y-81546867D01*
X143452987Y-81552920D01*
X143456366Y-81553591D01*
X143462984Y-81555397D01*
X143503393Y-81569538D01*
X143577777Y-81577919D01*
X143581823Y-81578547D01*
X143597982Y-81581762D01*
X143609133Y-81581762D01*
X143614618Y-81582069D01*
X143671900Y-81588524D01*
X143729181Y-81582069D01*
X143734667Y-81581762D01*
X143745817Y-81581762D01*
X143745818Y-81581762D01*
X143761973Y-81578548D01*
X143766012Y-81577920D01*
X143840407Y-81569538D01*
X143880808Y-81555399D01*
X143887431Y-81553592D01*
X143890813Y-81552920D01*
X143890818Y-81552918D01*
X143905417Y-81546871D01*
X143907981Y-81545892D01*
X144000464Y-81513531D01*
X144000466Y-81513529D01*
X144000468Y-81513529D01*
X144053175Y-81480409D01*
X144144045Y-81423313D01*
X144263951Y-81303407D01*
X144321047Y-81212537D01*
X144354167Y-81159830D01*
X144354168Y-81159827D01*
X144354169Y-81159826D01*
X144386531Y-81067338D01*
X144387509Y-81064779D01*
X144393556Y-81050180D01*
X144393556Y-81050179D01*
X144393558Y-81050175D01*
X144394230Y-81046793D01*
X144396039Y-81040166D01*
X144410176Y-80999769D01*
X144418558Y-80925374D01*
X144419189Y-80921321D01*
X144422400Y-80905180D01*
X144422400Y-80894028D01*
X144422708Y-80888542D01*
X144429162Y-80831262D01*
X144422708Y-80773980D01*
X144422400Y-80768494D01*
X144422400Y-80757347D01*
X144422400Y-80757344D01*
X144419185Y-80741185D01*
X144418556Y-80737134D01*
X144410176Y-80662755D01*
X144396035Y-80622346D01*
X144394229Y-80615728D01*
X144393558Y-80612349D01*
X144387505Y-80597736D01*
X144386530Y-80595180D01*
X144354167Y-80502693D01*
X144263952Y-80359119D01*
X144263951Y-80359117D01*
X144144045Y-80239211D01*
X144144043Y-80239209D01*
X144048324Y-80179065D01*
X144000464Y-80148993D01*
X143950768Y-80131603D01*
X143907982Y-80116631D01*
X143905416Y-80115652D01*
X143890814Y-80109604D01*
X143889124Y-80109268D01*
X143887431Y-80108931D01*
X143880808Y-80107123D01*
X143840408Y-80092986D01*
X143840406Y-80092985D01*
X143766027Y-80084604D01*
X143761959Y-80083971D01*
X143745822Y-80080762D01*
X143745818Y-80080762D01*
X143734667Y-80080762D01*
X143729181Y-80080454D01*
X143671900Y-80074000D01*
X143614619Y-80080454D01*
X143609133Y-80080762D01*
X143597982Y-80080762D01*
X143583867Y-80083568D01*
X143581839Y-80083972D01*
X143577772Y-80084604D01*
X143503398Y-80092985D01*
X143503394Y-80092985D01*
X143503393Y-80092986D01*
X143474332Y-80103154D01*
X143462991Y-80107123D01*
X143456373Y-80108929D01*
X143452994Y-80109601D01*
X143452986Y-80109603D01*
X143438388Y-80115650D01*
X143435823Y-80116629D01*
X143343336Y-80148993D01*
X143343334Y-80148994D01*
X143199756Y-80239209D01*
X143079847Y-80359118D01*
X142989632Y-80502696D01*
X142989631Y-80502698D01*
X142957267Y-80595185D01*
X142956288Y-80597750D01*
X142950241Y-80612348D01*
X142950239Y-80612356D01*
X142949567Y-80615735D01*
X142947761Y-80622353D01*
X142933624Y-80662756D01*
X142933623Y-80662760D01*
X142925242Y-80737134D01*
X142924610Y-80741201D01*
X142921400Y-80757344D01*
X142921400Y-80757347D01*
X142921400Y-80768494D01*
X142921092Y-80773980D01*
X142914638Y-80831261D01*
X139929162Y-80831261D01*
X139922708Y-80773980D01*
X139922400Y-80768494D01*
X139922400Y-80757347D01*
X139922400Y-80757344D01*
X139919185Y-80741185D01*
X139918556Y-80737134D01*
X139910176Y-80662755D01*
X139896035Y-80622346D01*
X139894229Y-80615728D01*
X139893558Y-80612349D01*
X139887505Y-80597736D01*
X139886530Y-80595180D01*
X139854167Y-80502693D01*
X139763952Y-80359119D01*
X139763951Y-80359117D01*
X139644045Y-80239211D01*
X139644043Y-80239209D01*
X139548324Y-80179065D01*
X139500464Y-80148993D01*
X139450768Y-80131603D01*
X139407982Y-80116631D01*
X139405416Y-80115652D01*
X139390814Y-80109604D01*
X139389124Y-80109268D01*
X139387431Y-80108931D01*
X139380808Y-80107123D01*
X139340408Y-80092986D01*
X139340406Y-80092985D01*
X139266027Y-80084604D01*
X139261959Y-80083971D01*
X139245822Y-80080762D01*
X139245818Y-80080762D01*
X139234667Y-80080762D01*
X139229181Y-80080454D01*
X139171900Y-80074000D01*
X139114619Y-80080454D01*
X139109133Y-80080762D01*
X139097982Y-80080762D01*
X139083867Y-80083568D01*
X139081839Y-80083972D01*
X139077772Y-80084604D01*
X139003398Y-80092985D01*
X139003394Y-80092985D01*
X139003393Y-80092986D01*
X138974332Y-80103154D01*
X138962991Y-80107123D01*
X138956373Y-80108929D01*
X138952994Y-80109601D01*
X138952986Y-80109603D01*
X138938388Y-80115650D01*
X138935823Y-80116629D01*
X138843336Y-80148993D01*
X138843334Y-80148994D01*
X138699756Y-80239209D01*
X138579847Y-80359118D01*
X138489632Y-80502696D01*
X138489631Y-80502698D01*
X138457267Y-80595185D01*
X138456288Y-80597750D01*
X138450241Y-80612348D01*
X138450239Y-80612356D01*
X138449567Y-80615735D01*
X138447761Y-80622353D01*
X138433624Y-80662756D01*
X138433623Y-80662760D01*
X138425242Y-80737134D01*
X138424610Y-80741201D01*
X138421400Y-80757344D01*
X138421400Y-80757347D01*
X138421400Y-80768494D01*
X138421092Y-80773980D01*
X138414638Y-80831261D01*
X136424400Y-80831261D01*
X136424400Y-80147298D01*
X136413597Y-80092986D01*
X136391641Y-79982606D01*
X136391638Y-79982595D01*
X136362456Y-79912143D01*
X136327376Y-79827452D01*
X136256207Y-79720940D01*
X136234082Y-79687827D01*
X136115334Y-79569079D01*
X136058735Y-79531261D01*
X136426607Y-79531261D01*
X136426607Y-79531262D01*
X136445731Y-79725434D01*
X136445731Y-79725435D01*
X136502368Y-79912143D01*
X136540026Y-79982595D01*
X136592497Y-80080762D01*
X136594346Y-80084220D01*
X136594348Y-80084223D01*
X136647505Y-80148994D01*
X136718122Y-80235040D01*
X136804560Y-80305978D01*
X136868938Y-80358813D01*
X136868941Y-80358815D01*
X136868945Y-80358818D01*
X137041018Y-80450793D01*
X137227728Y-80507431D01*
X137421900Y-80526555D01*
X137616072Y-80507431D01*
X137802782Y-80450793D01*
X137974855Y-80358818D01*
X138125678Y-80235040D01*
X138249456Y-80084217D01*
X138341431Y-79912144D01*
X138398069Y-79725434D01*
X138417193Y-79531262D01*
X138417193Y-79531261D01*
X144426607Y-79531261D01*
X144426607Y-79531262D01*
X144445731Y-79725434D01*
X144445731Y-79725435D01*
X144502368Y-79912143D01*
X144540026Y-79982595D01*
X144592497Y-80080762D01*
X144594346Y-80084220D01*
X144594348Y-80084223D01*
X144647505Y-80148994D01*
X144718122Y-80235040D01*
X144804560Y-80305978D01*
X144868938Y-80358813D01*
X144868941Y-80358815D01*
X144868945Y-80358818D01*
X145041018Y-80450793D01*
X145227728Y-80507431D01*
X145421900Y-80526555D01*
X145616072Y-80507431D01*
X145802782Y-80450793D01*
X145974855Y-80358818D01*
X146125678Y-80235040D01*
X146249456Y-80084217D01*
X146341431Y-79912144D01*
X146398069Y-79725434D01*
X146417193Y-79531262D01*
X146398069Y-79337090D01*
X146341431Y-79150380D01*
X146249456Y-78978307D01*
X146249453Y-78978303D01*
X146249451Y-78978300D01*
X146196616Y-78913922D01*
X146125678Y-78827484D01*
X146054738Y-78769265D01*
X145974861Y-78703710D01*
X145974858Y-78703708D01*
X145974856Y-78703707D01*
X145974855Y-78703706D01*
X145845174Y-78634390D01*
X145802781Y-78611730D01*
X145616072Y-78555093D01*
X145421900Y-78535969D01*
X145227727Y-78555093D01*
X145227726Y-78555093D01*
X145041018Y-78611730D01*
X144868941Y-78703708D01*
X144868938Y-78703710D01*
X144718122Y-78827484D01*
X144594348Y-78978300D01*
X144594346Y-78978303D01*
X144502368Y-79150380D01*
X144445731Y-79337088D01*
X144445731Y-79337089D01*
X144426607Y-79531261D01*
X138417193Y-79531261D01*
X138398069Y-79337090D01*
X138341431Y-79150380D01*
X138249456Y-78978307D01*
X138249453Y-78978303D01*
X138249451Y-78978300D01*
X138196616Y-78913922D01*
X138125678Y-78827484D01*
X138054738Y-78769265D01*
X137974861Y-78703710D01*
X137974858Y-78703708D01*
X137974856Y-78703707D01*
X137974855Y-78703706D01*
X137845174Y-78634390D01*
X137802781Y-78611730D01*
X137616072Y-78555093D01*
X137421900Y-78535969D01*
X137227727Y-78555093D01*
X137227726Y-78555093D01*
X137041018Y-78611730D01*
X136868941Y-78703708D01*
X136868938Y-78703710D01*
X136718122Y-78827484D01*
X136594348Y-78978300D01*
X136594346Y-78978303D01*
X136502368Y-79150380D01*
X136445731Y-79337088D01*
X136445731Y-79337089D01*
X136426607Y-79531261D01*
X136058735Y-79531261D01*
X136032013Y-79513406D01*
X135975710Y-79475786D01*
X135975707Y-79475784D01*
X135975706Y-79475784D01*
X135820566Y-79411523D01*
X135820555Y-79411520D01*
X135655869Y-79378762D01*
X135655864Y-79378762D01*
X135487936Y-79378762D01*
X135487930Y-79378762D01*
X135323244Y-79411520D01*
X135323233Y-79411523D01*
X135168093Y-79475784D01*
X135028465Y-79569079D01*
X134909717Y-79687827D01*
X134902142Y-79699165D01*
X134870959Y-79720001D01*
X134834177Y-79712684D01*
X134813341Y-79681501D01*
X134812400Y-79671942D01*
X134812400Y-79633196D01*
X134812551Y-79629350D01*
X134815429Y-79592791D01*
X134826992Y-79445904D01*
X134828195Y-79438315D01*
X134834629Y-79411520D01*
X134870710Y-79261250D01*
X134873076Y-79253968D01*
X134942763Y-79085735D01*
X134946249Y-79078895D01*
X135041394Y-78923638D01*
X135045908Y-78917428D01*
X135164165Y-78778970D01*
X135169584Y-78773550D01*
X135308063Y-78655281D01*
X135314256Y-78650781D01*
X135469531Y-78555629D01*
X135476363Y-78552150D01*
X135644588Y-78482470D01*
X135651895Y-78480095D01*
X135828951Y-78437588D01*
X135836533Y-78436387D01*
X136020468Y-78421912D01*
X136024304Y-78421762D01*
X136073123Y-78421762D01*
X146770677Y-78421762D01*
X146819974Y-78421762D01*
X146823818Y-78421913D01*
G37*
%TD.AperFunction*%
%TD*%
M02*
