%TF.GenerationSoftware,KiCad,Pcbnew,8.0.4*%
%TF.CreationDate,2024-07-28T22:04:51+02:00*%
%TF.ProjectId,miniCO2,6d696e69-434f-4322-9e6b-696361645f70,rev?*%
%TF.SameCoordinates,Original*%
%TF.FileFunction,Soldermask,Bot*%
%TF.FilePolarity,Negative*%
%FSLAX46Y46*%
G04 Gerber Fmt 4.6, Leading zero omitted, Abs format (unit mm)*
G04 Created by KiCad (PCBNEW 8.0.4) date 2024-07-28 22:04:51*
%MOMM*%
%LPD*%
G01*
G04 APERTURE LIST*
G04 Aperture macros list*
%AMRoundRect*
0 Rectangle with rounded corners*
0 $1 Rounding radius*
0 $2 $3 $4 $5 $6 $7 $8 $9 X,Y pos of 4 corners*
0 Add a 4 corners polygon primitive as box body*
4,1,4,$2,$3,$4,$5,$6,$7,$8,$9,$2,$3,0*
0 Add four circle primitives for the rounded corners*
1,1,$1+$1,$2,$3*
1,1,$1+$1,$4,$5*
1,1,$1+$1,$6,$7*
1,1,$1+$1,$8,$9*
0 Add four rect primitives between the rounded corners*
20,1,$1+$1,$2,$3,$4,$5,0*
20,1,$1+$1,$4,$5,$6,$7,0*
20,1,$1+$1,$6,$7,$8,$9,0*
20,1,$1+$1,$8,$9,$2,$3,0*%
G04 Aperture macros list end*
%ADD10R,1.200000X1.200000*%
%ADD11C,1.200000*%
%ADD12RoundRect,0.062500X-0.337500X-0.062500X0.337500X-0.062500X0.337500X0.062500X-0.337500X0.062500X0*%
%ADD13RoundRect,0.062500X-0.062500X-0.337500X0.062500X-0.337500X0.062500X0.337500X-0.062500X0.337500X0*%
%ADD14R,3.600000X3.600000*%
%ADD15R,0.480000X0.570000*%
%ADD16C,1.250000*%
%ADD17C,1.450000*%
%ADD18O,1.450000X2.450000*%
%ADD19R,1.000000X0.600000*%
%ADD20RoundRect,0.150000X-0.150000X0.512500X-0.150000X-0.512500X0.150000X-0.512500X0.150000X0.512500X0*%
%ADD21RoundRect,0.225000X0.225000X0.250000X-0.225000X0.250000X-0.225000X-0.250000X0.225000X-0.250000X0*%
%ADD22RoundRect,0.140000X-0.170000X0.140000X-0.170000X-0.140000X0.170000X-0.140000X0.170000X0.140000X0*%
%ADD23RoundRect,0.140000X0.140000X0.170000X-0.140000X0.170000X-0.140000X-0.170000X0.140000X-0.170000X0*%
G04 APERTURE END LIST*
D10*
%TO.C,J2*%
X147320000Y-92583000D03*
D11*
X147320000Y-90043000D03*
X147320000Y-87503000D03*
X147320000Y-84963000D03*
%TD*%
D12*
%TO.C,U1*%
X139637600Y-89989600D03*
X139637600Y-89489600D03*
X139637600Y-88989600D03*
X139637600Y-88489600D03*
X139637600Y-87989600D03*
X139637600Y-87489600D03*
X139637600Y-86989600D03*
X139637600Y-86489600D03*
D13*
X140337600Y-85789600D03*
X140837600Y-85789600D03*
X141337600Y-85789600D03*
X141837600Y-85789600D03*
X142337600Y-85789600D03*
X142837600Y-85789600D03*
X143337600Y-85789600D03*
X143837600Y-85789600D03*
D12*
X144537600Y-86489600D03*
X144537600Y-86989600D03*
X144537600Y-87489600D03*
X144537600Y-87989600D03*
X144537600Y-88489600D03*
X144537600Y-88989600D03*
X144537600Y-89489600D03*
X144537600Y-89989600D03*
D13*
X143837600Y-90689600D03*
X143337600Y-90689600D03*
X142837600Y-90689600D03*
X142337600Y-90689600D03*
X141837600Y-90689600D03*
X141337600Y-90689600D03*
X140837600Y-90689600D03*
X140337600Y-90689600D03*
D14*
X142087600Y-88239600D03*
%TD*%
D15*
%TO.C,SW1*%
X135596000Y-85797000D03*
X138216000Y-85797000D03*
X135596000Y-84637000D03*
X138216000Y-84637000D03*
%TD*%
D16*
%TO.C,J1*%
X139228000Y-80844000D03*
X143728000Y-80844000D03*
D17*
X137978000Y-82944000D03*
X140478000Y-82944000D03*
X142478000Y-82944000D03*
X144978000Y-82944000D03*
D18*
X135628000Y-80844000D03*
X147328000Y-80844000D03*
%TD*%
D19*
%TO.C,D1*%
X142478000Y-95844600D03*
X142478000Y-97144600D03*
X140478000Y-97144600D03*
X140478000Y-95844600D03*
%TD*%
D20*
%TO.C,U2*%
X135940200Y-88778500D03*
X136890200Y-88778500D03*
X137840200Y-88778500D03*
X137840200Y-91053500D03*
X135940200Y-91053500D03*
%TD*%
D21*
%TO.C,C2*%
X137462000Y-92710000D03*
X135912000Y-92710000D03*
%TD*%
D22*
%TO.C,C3*%
X138684000Y-93444000D03*
X138684000Y-92484000D03*
%TD*%
D21*
%TO.C,C1*%
X137427000Y-87122000D03*
X135877000Y-87122000D03*
%TD*%
D23*
%TO.C,C4*%
X142923200Y-91846400D03*
X141963200Y-91846400D03*
%TD*%
M02*
