M48
; DRILL file {KiCad 8.0.4} date 2024-07-28T22:04:50+0200
; FORMAT={-:-/ absolute / metric / decimal}
; #@! TF.CreationDate,2024-07-28T22:04:50+02:00
; #@! TF.GenerationSoftware,Kicad,Pcbnew,8.0.4
; #@! TF.FileFunction,Plated,1,4,PTH
FMAT,2
METRIC
; #@! TA.AperFunction,Plated,PTH,ViaDrill
T1C0.200
; #@! TA.AperFunction,Plated,PTH,ViaDrill
T2C0.250
; #@! TA.AperFunction,Plated,PTH,ViaDrill
T3C0.400
; #@! TA.AperFunction,Plated,PTH,ComponentDrill
T4C1.000
%
G90
G05
T1
X135.585Y-84.023
X137.77Y-84.633
X139.853Y-91.992
X140.567Y-91.954
X141.275Y-91.948
X141.445Y-97.442
X142.48Y-96.49
X144.018Y-91.93
X144.778Y-84.495
X144.812Y-92.456
X144.876Y-85.931
X144.882Y-93.218
X145.212Y-93.853
X145.694Y-85.879
X147.32Y-84.963
X147.32Y-90.043
T2
X140.478Y-95.145
X141.326Y-96.571
T3
X136.906Y-91.643
X137.922Y-93.785
X139.497Y-90.932
X147.32Y-92.583
T4
X137.978Y-82.944
X140.478Y-82.944
X142.478Y-82.944
X144.978Y-82.944
T4
X135.628Y-80.344G85X135.628Y-81.344
G05
X147.328Y-80.344G85X147.328Y-81.344
G05
M30
