%TF.GenerationSoftware,KiCad,Pcbnew,8.0.4*%
%TF.CreationDate,2024-07-31T09:21:43+02:00*%
%TF.ProjectId,miniCO2,6d696e69-434f-4322-9e6b-696361645f70,rev?*%
%TF.SameCoordinates,Original*%
%TF.FileFunction,Legend,Top*%
%TF.FilePolarity,Positive*%
%FSLAX46Y46*%
G04 Gerber Fmt 4.6, Leading zero omitted, Abs format (unit mm)*
G04 Created by KiCad (PCBNEW 8.0.4) date 2024-07-31 09:21:43*
%MOMM*%
%LPD*%
G01*
G04 APERTURE LIST*
%ADD10C,0.120000*%
%ADD11C,0.100000*%
G04 APERTURE END LIST*
D10*
%TO.C,U2*%
X136142800Y-85598000D02*
X136142800Y-86398000D01*
X136142800Y-85598000D02*
X136142800Y-84798000D01*
X139262800Y-85598000D02*
X139262800Y-86398000D01*
X139262800Y-85598000D02*
X139262800Y-84798000D01*
X136192800Y-86898000D02*
X135862800Y-87138000D01*
X135862800Y-86658000D01*
X136192800Y-86898000D01*
G36*
X136192800Y-86898000D02*
G01*
X135862800Y-87138000D01*
X135862800Y-86658000D01*
X136192800Y-86898000D01*
G37*
%TO.C,C2*%
X146981320Y-82382862D02*
X147262480Y-82382862D01*
X146981320Y-83402862D02*
X147262480Y-83402862D01*
%TO.C,U3*%
X141356400Y-94148862D02*
X139621400Y-94148862D01*
X149701400Y-94148862D02*
X147726400Y-94148862D01*
X139381400Y-92173862D02*
X139381400Y-93848862D01*
X149701400Y-92173862D02*
X149701400Y-94148862D01*
X139381400Y-85803862D02*
X139381400Y-83828862D01*
X149701400Y-85803862D02*
X149701400Y-83828862D01*
X139381400Y-83828862D02*
X141356400Y-83828862D01*
X149701400Y-83828862D02*
X147726400Y-83828862D01*
X139381400Y-94148862D02*
X139051400Y-94388862D01*
X139051400Y-93908862D01*
X139381400Y-94148862D01*
G36*
X139381400Y-94148862D02*
G01*
X139051400Y-94388862D01*
X139051400Y-93908862D01*
X139381400Y-94148862D01*
G37*
D11*
%TO.C,D2*%
X147421900Y-96581262D02*
X143721900Y-96581262D01*
X147421900Y-94481262D02*
X147421900Y-96581262D01*
D10*
X143721900Y-96581262D02*
X143021900Y-95981262D01*
D11*
X143021900Y-95981262D02*
X143021900Y-94481262D01*
D10*
%TO.C,C3*%
X135203900Y-84842236D02*
X135203900Y-84626564D01*
X135923900Y-84842236D02*
X135923900Y-84626564D01*
D11*
%TO.C,D1*%
X135421900Y-95981262D02*
X135421900Y-94481262D01*
D10*
X136121900Y-96581262D02*
X135421900Y-95981262D01*
D11*
X139821900Y-94481262D02*
X139821900Y-96581262D01*
X139821900Y-96581262D02*
X136121900Y-96581262D01*
D10*
%TO.C,U1*%
X133461900Y-88987462D02*
X133461900Y-88752462D01*
X133461900Y-93732462D02*
X133461900Y-93257462D01*
X133936900Y-88512462D02*
X133761900Y-88512462D01*
X133936900Y-93732462D02*
X133461900Y-93732462D01*
X138206900Y-88512462D02*
X138681900Y-88512462D01*
X138206900Y-93732462D02*
X138681900Y-93732462D01*
X138681900Y-88512462D02*
X138681900Y-88987462D01*
X138681900Y-93732462D02*
X138681900Y-93257462D01*
X133461900Y-88512462D02*
X133221900Y-88182462D01*
X133701900Y-88182462D01*
X133461900Y-88512462D01*
G36*
X133461900Y-88512462D02*
G01*
X133221900Y-88182462D01*
X133701900Y-88182462D01*
X133461900Y-88512462D01*
G37*
%TO.C,C1*%
X135681320Y-82433662D02*
X135962480Y-82433662D01*
X135681320Y-83453662D02*
X135962480Y-83453662D01*
%TO.C,C4*%
X135873100Y-87001426D02*
X135873100Y-87217098D01*
X135153100Y-87001426D02*
X135153100Y-87217098D01*
%TD*%
M02*
