%TF.GenerationSoftware,KiCad,Pcbnew,8.0.4*%
%TF.CreationDate,2024-07-30T13:48:39+02:00*%
%TF.ProjectId,miniCO2,6d696e69-434f-4322-9e6b-696361645f70,rev?*%
%TF.SameCoordinates,Original*%
%TF.FileFunction,Profile,NP*%
%FSLAX46Y46*%
G04 Gerber Fmt 4.6, Leading zero omitted, Abs format (unit mm)*
G04 Created by KiCad (PCBNEW 8.0.4) date 2024-07-30 13:48:39*
%MOMM*%
%LPD*%
G01*
G04 APERTURE LIST*
%TA.AperFunction,Profile*%
%ADD10C,0.100000*%
%TD*%
G04 APERTURE END LIST*
D10*
X132921900Y-84052582D02*
G75*
G02*
X133361249Y-82991931I1500000J-18D01*
G01*
X149482560Y-82991922D02*
G75*
G02*
X149921912Y-84052582I-1060660J-1060678D01*
G01*
X134321900Y-96631261D02*
G75*
G02*
X132921901Y-95231262I0J1399999D01*
G01*
X149921900Y-95231262D02*
G75*
G02*
X148521900Y-96631262I-1400000J0D01*
G01*
X149121900Y-95231262D02*
G75*
G02*
X147921900Y-95231262I-600000J0D01*
G01*
X147921900Y-95231262D02*
G75*
G02*
X149121900Y-95231262I600000J0D01*
G01*
X134921900Y-95231262D02*
G75*
G02*
X133721900Y-95231262I-600000J0D01*
G01*
X133721900Y-95231262D02*
G75*
G02*
X134921900Y-95231262I600000J0D01*
G01*
X146821900Y-78131262D02*
G75*
G02*
X148321938Y-79631262I0J-1500038D01*
G01*
X134521900Y-79631262D02*
G75*
G02*
X136021900Y-78131300I1500000J-38D01*
G01*
X142021900Y-95231262D02*
G75*
G02*
X140821900Y-95231262I-600000J0D01*
G01*
X140821900Y-95231262D02*
G75*
G02*
X142021900Y-95231262I600000J0D01*
G01*
X146121900Y-79531262D02*
G75*
G02*
X144721900Y-79531262I-700000J0D01*
G01*
X144721900Y-79531262D02*
G75*
G02*
X146121900Y-79531262I700000J0D01*
G01*
X138121900Y-79531262D02*
G75*
G02*
X136721900Y-79531262I-700000J0D01*
G01*
X136721900Y-79531262D02*
G75*
G02*
X138121900Y-79531262I700000J0D01*
G01*
X134521900Y-81831262D02*
X134521900Y-79631262D01*
X148321900Y-79631262D02*
X148321900Y-81831262D01*
X134321900Y-96634828D02*
X148521900Y-96631262D01*
X134521900Y-81831262D02*
X133361240Y-82991922D01*
X149921900Y-84052582D02*
X149921900Y-95231262D01*
X148321900Y-81831262D02*
X149482560Y-82991922D01*
X132921900Y-84052582D02*
X132921901Y-95231262D01*
X136021900Y-78131262D02*
X146821900Y-78131262D01*
M02*
