%TF.GenerationSoftware,KiCad,Pcbnew,8.0.4*%
%TF.CreationDate,2024-07-28T22:04:51+02:00*%
%TF.ProjectId,miniCO2,6d696e69-434f-4322-9e6b-696361645f70,rev?*%
%TF.SameCoordinates,Original*%
%TF.FileFunction,Copper,L1,Top*%
%TF.FilePolarity,Positive*%
%FSLAX46Y46*%
G04 Gerber Fmt 4.6, Leading zero omitted, Abs format (unit mm)*
G04 Created by KiCad (PCBNEW 8.0.4) date 2024-07-28 22:04:51*
%MOMM*%
%LPD*%
G01*
G04 APERTURE LIST*
G04 Aperture macros list*
%AMRoundRect*
0 Rectangle with rounded corners*
0 $1 Rounding radius*
0 $2 $3 $4 $5 $6 $7 $8 $9 X,Y pos of 4 corners*
0 Add a 4 corners polygon primitive as box body*
4,1,4,$2,$3,$4,$5,$6,$7,$8,$9,$2,$3,0*
0 Add four circle primitives for the rounded corners*
1,1,$1+$1,$2,$3*
1,1,$1+$1,$4,$5*
1,1,$1+$1,$6,$7*
1,1,$1+$1,$8,$9*
0 Add four rect primitives between the rounded corners*
20,1,$1+$1,$2,$3,$4,$5,0*
20,1,$1+$1,$4,$5,$6,$7,0*
20,1,$1+$1,$6,$7,$8,$9,0*
20,1,$1+$1,$8,$9,$2,$3,0*%
G04 Aperture macros list end*
%TA.AperFunction,SMDPad,CuDef*%
%ADD10RoundRect,0.212500X0.212500X-0.737500X0.212500X0.737500X-0.212500X0.737500X-0.212500X-0.737500X0*%
%TD*%
%TA.AperFunction,SMDPad,CuDef*%
%ADD11RoundRect,0.212500X0.737500X-0.212500X0.737500X0.212500X-0.737500X0.212500X-0.737500X-0.212500X0*%
%TD*%
%TA.AperFunction,HeatsinkPad*%
%ADD12R,4.800000X4.800000*%
%TD*%
%TA.AperFunction,WasherPad*%
%ADD13C,1.250000*%
%TD*%
%TA.AperFunction,ComponentPad*%
%ADD14C,1.450000*%
%TD*%
%TA.AperFunction,ComponentPad*%
%ADD15O,1.450000X2.450000*%
%TD*%
%TA.AperFunction,SMDPad,CuDef*%
%ADD16R,1.000000X0.600000*%
%TD*%
%TA.AperFunction,ViaPad*%
%ADD17C,0.350000*%
%TD*%
%TA.AperFunction,ViaPad*%
%ADD18C,0.400000*%
%TD*%
%TA.AperFunction,ViaPad*%
%ADD19C,0.800000*%
%TD*%
%TA.AperFunction,Conductor*%
%ADD20C,0.250000*%
%TD*%
%TA.AperFunction,Conductor*%
%ADD21C,0.500000*%
%TD*%
%TA.AperFunction,Conductor*%
%ADD22C,0.150000*%
%TD*%
%TA.AperFunction,Conductor*%
%ADD23C,0.800000*%
%TD*%
G04 APERTURE END LIST*
D10*
%TO.P,U3,1*%
%TO.N,N/C*%
X138978000Y-93329400D03*
%TO.P,U3,2*%
X140228000Y-93329400D03*
%TO.P,U3,3*%
X141478000Y-93329400D03*
%TO.P,U3,4*%
X142728000Y-93329400D03*
%TO.P,U3,5*%
X143978000Y-93329400D03*
D11*
%TO.P,U3,6,GND*%
%TO.N,GND*%
X145628000Y-91679400D03*
%TO.P,U3,7,VDD*%
%TO.N,+3.3V*%
X145628000Y-90429400D03*
%TO.P,U3,8*%
%TO.N,N/C*%
X145628000Y-89179400D03*
%TO.P,U3,9,SCL*%
%TO.N,SCL*%
X145628000Y-87929400D03*
%TO.P,U3,10,SDA*%
%TO.N,SDA*%
X145628000Y-86679400D03*
D10*
%TO.P,U3,11*%
%TO.N,N/C*%
X143978000Y-85029400D03*
%TO.P,U3,12*%
X142728000Y-85029400D03*
%TO.P,U3,13*%
X141478000Y-85029400D03*
%TO.P,U3,14*%
X140228000Y-85029400D03*
%TO.P,U3,15*%
X138978000Y-85029400D03*
D11*
%TO.P,U3,16*%
X137328000Y-86679400D03*
%TO.P,U3,17*%
X137328000Y-87929400D03*
%TO.P,U3,18*%
X137328000Y-89179400D03*
%TO.P,U3,19,VDD*%
%TO.N,+3.3V*%
X137328000Y-90429400D03*
%TO.P,U3,20,GND*%
%TO.N,GND*%
X137328000Y-91679400D03*
D12*
%TO.P,U3,21,GND*%
X141478000Y-89179400D03*
%TD*%
D13*
%TO.P,J1,*%
%TO.N,*%
X139228000Y-80844000D03*
X143728000Y-80844000D03*
D14*
%TO.P,J1,1,VBUS*%
%TO.N,VBUS*%
X137978000Y-82944000D03*
%TO.P,J1,2,D-*%
%TO.N,D-*%
X140478000Y-82944000D03*
%TO.P,J1,3,D+*%
%TO.N,D+*%
X142478000Y-82944000D03*
%TO.P,J1,4,GND*%
%TO.N,GND*%
X144978000Y-82944000D03*
D15*
%TO.P,J1,5,Shield*%
X135628000Y-80844000D03*
X147328000Y-80844000D03*
%TD*%
D16*
%TO.P,D2,4,VDD*%
%TO.N,+3.3V*%
X142478000Y-95844600D03*
%TO.P,D2,3,DIN*%
%TO.N,Net-(D1-DOUT)*%
X142478000Y-97144600D03*
%TO.P,D2,2,VSS*%
%TO.N,GND*%
X140478000Y-97144600D03*
%TO.P,D2,1,DOUT*%
%TO.N,unconnected-(D2-DOUT-Pad1)*%
X140478000Y-95844600D03*
%TD*%
D17*
%TO.N,Net-(U1-~{RESET})*%
X137769600Y-84632800D03*
D18*
%TO.N,GND*%
X141325600Y-96570800D03*
D17*
%TO.N,Net-(D1-DOUT)*%
X142480248Y-96490205D03*
%TO.N,DIN*%
X141445348Y-97442000D03*
X145211800Y-93853000D03*
%TO.N,D-*%
X144881600Y-93218000D03*
%TO.N,SWDIO*%
X147320000Y-90043000D03*
%TO.N,SCL*%
X145694400Y-85879401D03*
%TO.N,SWCLK*%
X147320000Y-84963000D03*
%TO.N,+3.3V*%
X144777999Y-84494963D03*
D19*
X147320000Y-92583000D03*
%TO.N,GND*%
X136906000Y-91643200D03*
X139496800Y-90932000D03*
%TO.N,+3.3V*%
X137922000Y-93785000D03*
D17*
X141274800Y-91948000D03*
D18*
X140478000Y-95144598D03*
D17*
%TO.N,SWDIO*%
X139852896Y-91991794D03*
%TO.N,D+*%
X144812200Y-92456000D03*
%TO.N,Net-(U1-~{RESET})*%
X144018000Y-91930200D03*
X135585200Y-84023200D03*
%TO.N,SWCLK*%
X140567052Y-91954402D03*
%TO.N,SDA*%
X144875630Y-85931389D03*
%TD*%
D20*
%TO.N,SCL*%
X146544029Y-85879401D02*
X146939000Y-86274372D01*
X146939000Y-87249000D02*
X146258600Y-87929400D01*
X146258600Y-87929400D02*
X145628000Y-87929400D01*
X146939000Y-86274372D02*
X146939000Y-87249000D01*
X145694400Y-85879401D02*
X146544029Y-85879401D01*
D21*
%TO.N,GND*%
X143586200Y-91287600D02*
X141478000Y-89179400D01*
X145222600Y-91679400D02*
X144830800Y-91287600D01*
X145628000Y-91679400D02*
X145222600Y-91679400D01*
X144830800Y-91287600D02*
X143586200Y-91287600D01*
X140751800Y-97144600D02*
X141325600Y-96570800D01*
X140478000Y-97144600D02*
X140751800Y-97144600D01*
D22*
%TO.N,Net-(D1-DOUT)*%
X142480248Y-96490205D02*
X142480248Y-97142352D01*
X142480248Y-97142352D02*
X142478000Y-97144600D01*
D23*
%TO.N,GND*%
X146007000Y-91679400D02*
X145628000Y-91679400D01*
D20*
%TO.N,SDA*%
X144879989Y-85931389D02*
X145628000Y-86679400D01*
X144875630Y-85931389D02*
X144879989Y-85931389D01*
D23*
%TO.N,GND*%
X140538200Y-89890600D02*
X139496800Y-90932000D01*
X140538200Y-89154000D02*
X140538200Y-89890600D01*
X136946000Y-91654000D02*
X136956800Y-91643200D01*
%TD*%
%TA.AperFunction,Conductor*%
%TO.N,+3.3V*%
G36*
X147449395Y-79294736D02*
G01*
X147578703Y-79307475D01*
X147588115Y-79309347D01*
X147710144Y-79346375D01*
X147719008Y-79350048D01*
X147831459Y-79410173D01*
X147839443Y-79415510D01*
X147937999Y-79496425D01*
X147944791Y-79503220D01*
X148025654Y-79601800D01*
X148030990Y-79609790D01*
X148091066Y-79722263D01*
X148094740Y-79731142D01*
X148124293Y-79828689D01*
X148120604Y-79866010D01*
X148091605Y-79889791D01*
X148054284Y-79886102D01*
X148036656Y-79870119D01*
X147990182Y-79800565D01*
X147871434Y-79681817D01*
X147788113Y-79626144D01*
X147731810Y-79588524D01*
X147731807Y-79588522D01*
X147731806Y-79588522D01*
X147576666Y-79524261D01*
X147576655Y-79524258D01*
X147411969Y-79491500D01*
X147411964Y-79491500D01*
X147244036Y-79491500D01*
X147244030Y-79491500D01*
X147079344Y-79524258D01*
X147079333Y-79524261D01*
X146924193Y-79588522D01*
X146784565Y-79681817D01*
X146665817Y-79800565D01*
X146572522Y-79940193D01*
X146508261Y-80095333D01*
X146508258Y-80095344D01*
X146475500Y-80260030D01*
X146475500Y-81427969D01*
X146508258Y-81592655D01*
X146508261Y-81592666D01*
X146511822Y-81601262D01*
X146572524Y-81747810D01*
X146610144Y-81804113D01*
X146665817Y-81887434D01*
X146784565Y-82006182D01*
X146840112Y-82043296D01*
X146924190Y-82099476D01*
X147079335Y-82163739D01*
X147079341Y-82163740D01*
X147079344Y-82163741D01*
X147244030Y-82196499D01*
X147244033Y-82196499D01*
X147244036Y-82196500D01*
X147244037Y-82196500D01*
X147411963Y-82196500D01*
X147411964Y-82196500D01*
X147576665Y-82163739D01*
X147731810Y-82099476D01*
X147871437Y-82006180D01*
X147990180Y-81887437D01*
X148056816Y-81787709D01*
X148087997Y-81766874D01*
X148124779Y-81774190D01*
X148145615Y-81805372D01*
X148146557Y-81814930D01*
X148146922Y-93302864D01*
X148135251Y-93334607D01*
X148075945Y-93404352D01*
X148075941Y-93404358D01*
X147987992Y-93554879D01*
X147927734Y-93718474D01*
X147897031Y-93890086D01*
X147896829Y-94064432D01*
X147927135Y-94236111D01*
X147927136Y-94236113D01*
X147987017Y-94399845D01*
X147987018Y-94399847D01*
X147987019Y-94399849D01*
X148074620Y-94550572D01*
X148129018Y-94614844D01*
X148140447Y-94650563D01*
X148123272Y-94683902D01*
X148091616Y-94695500D01*
X143343436Y-94695500D01*
X143267010Y-94715979D01*
X143267008Y-94715979D01*
X143198488Y-94755540D01*
X143198488Y-94755541D01*
X143142541Y-94811488D01*
X143142540Y-94811488D01*
X143102979Y-94880008D01*
X143102979Y-94880010D01*
X143082500Y-94956436D01*
X143082500Y-95376191D01*
X143068148Y-95410839D01*
X143033500Y-95425191D01*
X143023941Y-95424250D01*
X142990506Y-95417600D01*
X142728000Y-95417600D01*
X142728000Y-96045600D01*
X142713648Y-96080248D01*
X142679000Y-96094600D01*
X141851000Y-96094600D01*
X141851000Y-96157111D01*
X141858368Y-96194150D01*
X141886438Y-96236161D01*
X141928449Y-96264231D01*
X141965488Y-96271599D01*
X141965492Y-96271600D01*
X142118297Y-96271600D01*
X142152945Y-96285952D01*
X142167297Y-96320600D01*
X142161956Y-96342845D01*
X142142749Y-96380540D01*
X142142748Y-96380542D01*
X142142748Y-96380544D01*
X142125379Y-96490205D01*
X142142748Y-96599866D01*
X142142748Y-96599867D01*
X142142749Y-96599869D01*
X142166180Y-96645855D01*
X142169123Y-96683242D01*
X142144766Y-96711759D01*
X142122521Y-96717100D01*
X141965438Y-96717100D01*
X141928253Y-96724497D01*
X141886077Y-96752677D01*
X141857897Y-96794853D01*
X141850500Y-96832038D01*
X141850500Y-97261013D01*
X141836148Y-97295661D01*
X141801500Y-97310013D01*
X141766852Y-97295661D01*
X141757841Y-97283258D01*
X141732447Y-97233419D01*
X141732442Y-97233412D01*
X141653935Y-97154905D01*
X141653932Y-97154903D01*
X141555009Y-97104500D01*
X141452091Y-97088199D01*
X141420115Y-97068603D01*
X141411360Y-97032136D01*
X141425107Y-97005156D01*
X141627675Y-96802590D01*
X141628526Y-96801114D01*
X141631325Y-96796805D01*
X141633165Y-96794272D01*
X141633173Y-96794265D01*
X141637805Y-96785172D01*
X141638983Y-96783002D01*
X141677374Y-96716510D01*
X141681125Y-96702508D01*
X141684798Y-96692944D01*
X141687173Y-96688283D01*
X141687174Y-96688282D01*
X141690004Y-96670406D01*
X141691068Y-96665398D01*
X141703100Y-96620499D01*
X141703100Y-96591584D01*
X141703703Y-96583919D01*
X141705781Y-96570800D01*
X141703703Y-96557678D01*
X141703100Y-96550014D01*
X141703100Y-96521099D01*
X141691071Y-96476211D01*
X141690004Y-96471191D01*
X141687174Y-96453320D01*
X141687174Y-96453318D01*
X141684791Y-96448641D01*
X141681125Y-96439091D01*
X141677374Y-96425090D01*
X141639006Y-96358635D01*
X141637781Y-96356379D01*
X141633173Y-96347335D01*
X141633167Y-96347329D01*
X141631316Y-96344781D01*
X141628527Y-96340486D01*
X141627675Y-96339010D01*
X141627672Y-96339007D01*
X141627671Y-96339005D01*
X141557394Y-96268729D01*
X141557390Y-96268725D01*
X141555922Y-96267877D01*
X141551626Y-96265087D01*
X141549068Y-96263229D01*
X141549065Y-96263227D01*
X141539996Y-96258606D01*
X141537749Y-96257385D01*
X141471312Y-96219027D01*
X141471307Y-96219025D01*
X141457311Y-96215274D01*
X141447752Y-96211605D01*
X141443084Y-96209227D01*
X141443080Y-96209225D01*
X141425197Y-96206392D01*
X141420184Y-96205326D01*
X141375302Y-96193300D01*
X141375299Y-96193300D01*
X141346385Y-96193300D01*
X141338721Y-96192697D01*
X141325600Y-96190619D01*
X141312479Y-96192697D01*
X141304815Y-96193300D01*
X141275900Y-96193300D01*
X141231004Y-96205329D01*
X141225991Y-96206394D01*
X141208118Y-96209225D01*
X141208117Y-96209226D01*
X141203443Y-96211607D01*
X141193889Y-96215274D01*
X141179892Y-96219025D01*
X141179889Y-96219026D01*
X141175601Y-96221502D01*
X141138418Y-96226396D01*
X141108666Y-96203565D01*
X141103044Y-96169506D01*
X141105499Y-96157161D01*
X141105500Y-96157158D01*
X141105500Y-95532088D01*
X141851000Y-95532088D01*
X141851000Y-95594600D01*
X142228000Y-95594600D01*
X142228000Y-95417600D01*
X141965488Y-95417600D01*
X141928449Y-95424968D01*
X141886438Y-95453038D01*
X141858368Y-95495049D01*
X141851000Y-95532088D01*
X141105500Y-95532088D01*
X141105500Y-95532042D01*
X141105499Y-95532038D01*
X141098102Y-95494853D01*
X141098102Y-95494852D01*
X141070163Y-95453038D01*
X141069922Y-95452677D01*
X141028451Y-95424968D01*
X141027748Y-95424498D01*
X141027747Y-95424497D01*
X141027746Y-95424497D01*
X140990561Y-95417100D01*
X140990558Y-95417100D01*
X139965442Y-95417100D01*
X139965438Y-95417100D01*
X139932060Y-95423740D01*
X139895277Y-95416424D01*
X139874442Y-95385242D01*
X139873500Y-95375682D01*
X139873500Y-94981836D01*
X139864843Y-94949534D01*
X139853021Y-94905411D01*
X139853020Y-94905409D01*
X139853020Y-94905408D01*
X139813459Y-94836888D01*
X139757511Y-94780940D01*
X139688990Y-94741379D01*
X139612564Y-94720900D01*
X139612562Y-94720900D01*
X134858665Y-94720900D01*
X134824017Y-94706548D01*
X134809665Y-94671900D01*
X134809665Y-94654396D01*
X134821140Y-94622886D01*
X134881021Y-94551578D01*
X134968151Y-94400565D01*
X135027627Y-94236676D01*
X135050324Y-94106736D01*
X138425499Y-94106736D01*
X138432019Y-94156257D01*
X138482692Y-94264924D01*
X138482693Y-94264926D01*
X138567473Y-94349706D01*
X138567475Y-94349707D01*
X138567476Y-94349708D01*
X138676144Y-94400381D01*
X138725660Y-94406900D01*
X138725663Y-94406900D01*
X139230336Y-94406900D01*
X139230340Y-94406900D01*
X139279856Y-94400381D01*
X139388524Y-94349708D01*
X139473308Y-94264924D01*
X139523981Y-94156256D01*
X139530500Y-94106740D01*
X139530500Y-92552060D01*
X139523981Y-92502544D01*
X139473308Y-92393876D01*
X139473307Y-92393875D01*
X139473306Y-92393873D01*
X139388526Y-92309093D01*
X139388524Y-92309092D01*
X139279857Y-92258419D01*
X139269952Y-92257115D01*
X139230340Y-92251900D01*
X138725660Y-92251900D01*
X138692649Y-92256246D01*
X138676142Y-92258419D01*
X138567475Y-92309092D01*
X138567473Y-92309093D01*
X138482693Y-92393873D01*
X138482692Y-92393875D01*
X138432019Y-92502542D01*
X138425500Y-92552063D01*
X138425500Y-94106736D01*
X138425499Y-94106736D01*
X135050324Y-94106736D01*
X135057627Y-94064930D01*
X135057233Y-93890584D01*
X135057232Y-93890578D01*
X135057232Y-93890573D01*
X135030826Y-93743338D01*
X135026457Y-93718975D01*
X134966241Y-93555357D01*
X134943004Y-93515500D01*
X134878432Y-93404742D01*
X134878433Y-93404742D01*
X134846882Y-93367513D01*
X134818901Y-93334496D01*
X134807284Y-93302812D01*
X134807512Y-91931736D01*
X136250499Y-91931736D01*
X136257019Y-91981257D01*
X136307692Y-92089924D01*
X136307693Y-92089926D01*
X136392473Y-92174706D01*
X136392475Y-92174707D01*
X136392476Y-92174708D01*
X136501144Y-92225381D01*
X136550660Y-92231900D01*
X136550663Y-92231900D01*
X138105336Y-92231900D01*
X138105340Y-92231900D01*
X138154856Y-92225381D01*
X138263524Y-92174708D01*
X138348308Y-92089924D01*
X138398981Y-91981256D01*
X138405500Y-91931740D01*
X138405500Y-91427060D01*
X138398981Y-91377544D01*
X138348308Y-91268876D01*
X138348307Y-91268875D01*
X138348306Y-91268873D01*
X138263526Y-91184093D01*
X138263524Y-91184092D01*
X138154857Y-91133419D01*
X138144952Y-91132115D01*
X138105340Y-91126900D01*
X138105336Y-91126900D01*
X137074499Y-91126900D01*
X137061817Y-91125230D01*
X137053823Y-91123088D01*
X137026249Y-91115699D01*
X137026247Y-91115699D01*
X136943782Y-91115699D01*
X136937387Y-91115280D01*
X136906000Y-91111148D01*
X136789533Y-91126481D01*
X136783137Y-91126900D01*
X136550660Y-91126900D01*
X136517649Y-91131246D01*
X136501142Y-91133419D01*
X136392475Y-91184092D01*
X136392473Y-91184093D01*
X136307693Y-91268873D01*
X136307692Y-91268875D01*
X136257019Y-91377542D01*
X136250500Y-91427063D01*
X136250500Y-91931736D01*
X136250499Y-91931736D01*
X134807512Y-91931736D01*
X134807720Y-90681675D01*
X136251000Y-90681675D01*
X136257510Y-90731126D01*
X136308108Y-90839633D01*
X136308109Y-90839635D01*
X136392764Y-90924290D01*
X136392766Y-90924291D01*
X136501273Y-90974889D01*
X136550725Y-90981400D01*
X137078000Y-90981400D01*
X137578000Y-90981400D01*
X138105275Y-90981400D01*
X138154726Y-90974889D01*
X138263233Y-90924291D01*
X138263235Y-90924290D01*
X138347890Y-90839635D01*
X138347891Y-90839633D01*
X138398489Y-90731126D01*
X138405000Y-90681675D01*
X138405000Y-90679400D01*
X137578000Y-90679400D01*
X137578000Y-90981400D01*
X137078000Y-90981400D01*
X137078000Y-90679400D01*
X136251000Y-90679400D01*
X136251000Y-90681675D01*
X134807720Y-90681675D01*
X134807804Y-90177124D01*
X136251000Y-90177124D01*
X136251000Y-90179400D01*
X137078000Y-90179400D01*
X137578000Y-90179400D01*
X138405000Y-90179400D01*
X138405000Y-90177124D01*
X138398489Y-90127673D01*
X138347891Y-90019166D01*
X138347890Y-90019164D01*
X138263235Y-89934509D01*
X138263233Y-89934508D01*
X138154726Y-89883910D01*
X138105275Y-89877400D01*
X137578000Y-89877400D01*
X137578000Y-90179400D01*
X137078000Y-90179400D01*
X137078000Y-89877400D01*
X136550725Y-89877400D01*
X136501273Y-89883910D01*
X136392766Y-89934508D01*
X136392764Y-89934509D01*
X136308109Y-90019164D01*
X136308108Y-90019166D01*
X136257510Y-90127673D01*
X136251000Y-90177124D01*
X134807804Y-90177124D01*
X134807928Y-89431736D01*
X136250499Y-89431736D01*
X136257019Y-89481257D01*
X136307692Y-89589924D01*
X136307693Y-89589926D01*
X136392473Y-89674706D01*
X136392475Y-89674707D01*
X136392476Y-89674708D01*
X136501144Y-89725381D01*
X136550660Y-89731900D01*
X136550663Y-89731900D01*
X138105336Y-89731900D01*
X138105340Y-89731900D01*
X138154856Y-89725381D01*
X138263524Y-89674708D01*
X138348308Y-89589924D01*
X138398981Y-89481256D01*
X138405500Y-89431740D01*
X138405500Y-88927060D01*
X138398981Y-88877544D01*
X138348308Y-88768876D01*
X138348307Y-88768875D01*
X138348306Y-88768873D01*
X138263526Y-88684093D01*
X138263524Y-88684092D01*
X138154857Y-88633419D01*
X138144952Y-88632115D01*
X138105340Y-88626900D01*
X136550660Y-88626900D01*
X136517649Y-88631246D01*
X136501142Y-88633419D01*
X136392475Y-88684092D01*
X136392473Y-88684093D01*
X136307693Y-88768873D01*
X136307692Y-88768875D01*
X136257019Y-88877542D01*
X136250500Y-88927063D01*
X136250500Y-89431736D01*
X136250499Y-89431736D01*
X134807928Y-89431736D01*
X134808136Y-88181736D01*
X136250499Y-88181736D01*
X136257019Y-88231257D01*
X136307692Y-88339924D01*
X136307693Y-88339926D01*
X136392473Y-88424706D01*
X136392475Y-88424707D01*
X136392476Y-88424708D01*
X136501144Y-88475381D01*
X136550660Y-88481900D01*
X136550663Y-88481900D01*
X138105336Y-88481900D01*
X138105340Y-88481900D01*
X138154856Y-88475381D01*
X138263524Y-88424708D01*
X138348308Y-88339924D01*
X138398981Y-88231256D01*
X138405500Y-88181740D01*
X138405500Y-87677060D01*
X138398981Y-87627544D01*
X138348308Y-87518876D01*
X138348307Y-87518875D01*
X138348306Y-87518873D01*
X138263526Y-87434093D01*
X138263524Y-87434092D01*
X138154857Y-87383419D01*
X138144952Y-87382115D01*
X138105340Y-87376900D01*
X136550660Y-87376900D01*
X136517649Y-87381246D01*
X136501142Y-87383419D01*
X136392475Y-87434092D01*
X136392473Y-87434093D01*
X136307693Y-87518873D01*
X136307692Y-87518875D01*
X136257019Y-87627542D01*
X136250500Y-87677063D01*
X136250500Y-88181736D01*
X136250499Y-88181736D01*
X134808136Y-88181736D01*
X134808344Y-86931736D01*
X136250499Y-86931736D01*
X136257019Y-86981257D01*
X136307692Y-87089924D01*
X136307693Y-87089926D01*
X136392473Y-87174706D01*
X136392475Y-87174707D01*
X136392476Y-87174708D01*
X136501144Y-87225381D01*
X136550660Y-87231900D01*
X136550663Y-87231900D01*
X138105336Y-87231900D01*
X138105340Y-87231900D01*
X138154856Y-87225381D01*
X138263524Y-87174708D01*
X138348308Y-87089924D01*
X138398981Y-86981256D01*
X138405500Y-86931740D01*
X138405500Y-86766838D01*
X138950500Y-86766838D01*
X138950500Y-91591961D01*
X138957897Y-91629146D01*
X138986077Y-91671322D01*
X138998245Y-91679452D01*
X139028252Y-91699502D01*
X139065442Y-91706900D01*
X139525073Y-91706900D01*
X139559721Y-91721252D01*
X139574073Y-91755900D01*
X139566491Y-91779229D01*
X139567552Y-91779770D01*
X139515396Y-91882132D01*
X139498027Y-91991794D01*
X139515396Y-92101455D01*
X139565799Y-92200378D01*
X139565801Y-92200381D01*
X139644308Y-92278888D01*
X139644315Y-92278893D01*
X139718940Y-92316916D01*
X139743297Y-92345433D01*
X139740354Y-92382820D01*
X139734969Y-92390234D01*
X139735152Y-92390362D01*
X139732692Y-92393875D01*
X139682019Y-92502542D01*
X139675500Y-92552063D01*
X139675500Y-94106736D01*
X139675499Y-94106736D01*
X139682019Y-94156257D01*
X139732692Y-94264924D01*
X139732693Y-94264926D01*
X139817473Y-94349706D01*
X139817475Y-94349707D01*
X139817476Y-94349708D01*
X139926144Y-94400381D01*
X139975660Y-94406900D01*
X139975663Y-94406900D01*
X140480336Y-94406900D01*
X140480340Y-94406900D01*
X140529856Y-94400381D01*
X140638524Y-94349708D01*
X140723308Y-94264924D01*
X140773981Y-94156256D01*
X140780500Y-94106740D01*
X140780500Y-94106736D01*
X140925499Y-94106736D01*
X140932019Y-94156257D01*
X140982692Y-94264924D01*
X140982693Y-94264926D01*
X141067473Y-94349706D01*
X141067475Y-94349707D01*
X141067476Y-94349708D01*
X141176144Y-94400381D01*
X141225660Y-94406900D01*
X141225663Y-94406900D01*
X141730336Y-94406900D01*
X141730340Y-94406900D01*
X141779856Y-94400381D01*
X141888524Y-94349708D01*
X141973308Y-94264924D01*
X142023981Y-94156256D01*
X142030500Y-94106740D01*
X142030500Y-94106736D01*
X142175499Y-94106736D01*
X142182019Y-94156257D01*
X142232692Y-94264924D01*
X142232693Y-94264926D01*
X142317473Y-94349706D01*
X142317475Y-94349707D01*
X142317476Y-94349708D01*
X142426144Y-94400381D01*
X142475660Y-94406900D01*
X142475663Y-94406900D01*
X142980336Y-94406900D01*
X142980340Y-94406900D01*
X143029856Y-94400381D01*
X143138524Y-94349708D01*
X143223308Y-94264924D01*
X143273981Y-94156256D01*
X143280500Y-94106740D01*
X143280500Y-92552060D01*
X143273981Y-92502544D01*
X143223308Y-92393876D01*
X143223307Y-92393875D01*
X143223306Y-92393873D01*
X143138526Y-92309093D01*
X143138524Y-92309092D01*
X143029857Y-92258419D01*
X143019952Y-92257115D01*
X142980340Y-92251900D01*
X142475660Y-92251900D01*
X142442649Y-92256246D01*
X142426142Y-92258419D01*
X142317475Y-92309092D01*
X142317473Y-92309093D01*
X142232693Y-92393873D01*
X142232692Y-92393875D01*
X142182019Y-92502542D01*
X142175500Y-92552063D01*
X142175500Y-94106736D01*
X142175499Y-94106736D01*
X142030500Y-94106736D01*
X142030500Y-92552060D01*
X142023981Y-92502544D01*
X141973308Y-92393876D01*
X141973307Y-92393875D01*
X141973306Y-92393873D01*
X141888526Y-92309093D01*
X141888524Y-92309092D01*
X141779857Y-92258419D01*
X141769952Y-92257115D01*
X141730340Y-92251900D01*
X141225660Y-92251900D01*
X141192649Y-92256246D01*
X141176142Y-92258419D01*
X141067475Y-92309092D01*
X141067473Y-92309093D01*
X140982693Y-92393873D01*
X140982692Y-92393875D01*
X140932019Y-92502542D01*
X140925500Y-92552063D01*
X140925500Y-94106736D01*
X140925499Y-94106736D01*
X140780500Y-94106736D01*
X140780500Y-92552060D01*
X140773981Y-92502544D01*
X140723308Y-92393876D01*
X140723307Y-92393875D01*
X140723306Y-92393873D01*
X140687716Y-92358283D01*
X140673364Y-92323635D01*
X140687716Y-92288987D01*
X140700113Y-92279978D01*
X140775639Y-92241497D01*
X140854147Y-92162989D01*
X140904552Y-92064063D01*
X140921921Y-91954402D01*
X140904552Y-91844741D01*
X140870620Y-91778145D01*
X140867678Y-91740758D01*
X140892035Y-91712240D01*
X140914280Y-91706900D01*
X143658441Y-91706900D01*
X143693089Y-91721252D01*
X143707441Y-91755900D01*
X143702101Y-91778143D01*
X143693882Y-91794274D01*
X143680500Y-91820538D01*
X143663131Y-91930200D01*
X143680500Y-92039861D01*
X143730903Y-92138784D01*
X143730905Y-92138787D01*
X143760370Y-92168252D01*
X143774722Y-92202900D01*
X143760370Y-92237548D01*
X143727229Y-92251275D01*
X143727264Y-92251795D01*
X143725733Y-92251895D01*
X143725722Y-92251900D01*
X143725660Y-92251900D01*
X143692649Y-92256246D01*
X143676142Y-92258419D01*
X143567475Y-92309092D01*
X143567473Y-92309093D01*
X143482693Y-92393873D01*
X143482692Y-92393875D01*
X143432019Y-92502542D01*
X143425500Y-92552063D01*
X143425500Y-94106736D01*
X143425499Y-94106736D01*
X143432019Y-94156257D01*
X143482692Y-94264924D01*
X143482693Y-94264926D01*
X143567473Y-94349706D01*
X143567475Y-94349707D01*
X143567476Y-94349708D01*
X143676144Y-94400381D01*
X143725660Y-94406900D01*
X143725663Y-94406900D01*
X144230336Y-94406900D01*
X144230340Y-94406900D01*
X144279856Y-94400381D01*
X144388524Y-94349708D01*
X144473308Y-94264924D01*
X144523981Y-94156256D01*
X144530500Y-94106740D01*
X144530500Y-93480878D01*
X144544852Y-93446230D01*
X144579500Y-93431878D01*
X144614148Y-93446230D01*
X144673013Y-93505095D01*
X144771939Y-93555500D01*
X144881600Y-93572869D01*
X144881601Y-93572868D01*
X144885410Y-93573472D01*
X144885240Y-93574543D01*
X144915845Y-93587221D01*
X144930197Y-93621869D01*
X144924857Y-93644114D01*
X144874300Y-93743338D01*
X144874300Y-93743339D01*
X144856931Y-93853000D01*
X144874300Y-93962661D01*
X144924705Y-94061587D01*
X145003213Y-94140095D01*
X145102139Y-94190500D01*
X145211800Y-94207869D01*
X145321461Y-94190500D01*
X145420387Y-94140095D01*
X145498895Y-94061587D01*
X145549300Y-93962661D01*
X145566669Y-93853000D01*
X145549300Y-93743339D01*
X145498895Y-93644413D01*
X145420387Y-93565905D01*
X145420384Y-93565903D01*
X145321461Y-93515500D01*
X145211800Y-93498131D01*
X145211798Y-93498131D01*
X145207990Y-93497528D01*
X145208159Y-93496456D01*
X145177555Y-93483779D01*
X145163203Y-93449131D01*
X145168543Y-93426886D01*
X145181571Y-93401316D01*
X145219100Y-93327661D01*
X145236469Y-93218000D01*
X145219100Y-93108339D01*
X145168695Y-93009413D01*
X145090187Y-92930905D01*
X145090184Y-92930903D01*
X144991261Y-92880500D01*
X144957008Y-92875074D01*
X144925033Y-92855479D01*
X144916278Y-92819012D01*
X144935874Y-92787036D01*
X144942414Y-92783027D01*
X145020787Y-92743095D01*
X145099295Y-92664587D01*
X145149700Y-92565661D01*
X145167069Y-92456000D01*
X145149700Y-92346339D01*
X145135597Y-92318660D01*
X145127692Y-92303145D01*
X145124749Y-92265758D01*
X145149106Y-92237241D01*
X145171351Y-92231900D01*
X146405336Y-92231900D01*
X146405340Y-92231900D01*
X146454856Y-92225381D01*
X146563524Y-92174708D01*
X146648308Y-92089924D01*
X146698981Y-91981256D01*
X146705500Y-91931740D01*
X146705500Y-91427060D01*
X146698981Y-91377544D01*
X146648308Y-91268876D01*
X146648307Y-91268875D01*
X146648306Y-91268873D01*
X146563526Y-91184093D01*
X146563524Y-91184092D01*
X146454857Y-91133419D01*
X146444952Y-91132115D01*
X146405340Y-91126900D01*
X146405336Y-91126900D01*
X145224261Y-91126900D01*
X145189613Y-91112548D01*
X145142113Y-91065048D01*
X145127761Y-91030400D01*
X145142113Y-90995752D01*
X145176761Y-90981400D01*
X145378000Y-90981400D01*
X145878000Y-90981400D01*
X146405275Y-90981400D01*
X146454726Y-90974889D01*
X146563233Y-90924291D01*
X146563235Y-90924290D01*
X146647890Y-90839635D01*
X146647891Y-90839633D01*
X146698489Y-90731126D01*
X146705000Y-90681675D01*
X146705000Y-90679400D01*
X145878000Y-90679400D01*
X145878000Y-90981400D01*
X145378000Y-90981400D01*
X145378000Y-90679400D01*
X144551000Y-90679400D01*
X144551000Y-90681675D01*
X144557510Y-90731126D01*
X144608462Y-90840392D01*
X144610098Y-90877859D01*
X144584761Y-90905509D01*
X144564053Y-90910100D01*
X144054500Y-90910100D01*
X144019852Y-90895748D01*
X144005500Y-90861100D01*
X144005500Y-90177124D01*
X144551000Y-90177124D01*
X144551000Y-90179400D01*
X145378000Y-90179400D01*
X145878000Y-90179400D01*
X146705000Y-90179400D01*
X146705000Y-90177124D01*
X146698489Y-90127673D01*
X146659005Y-90043000D01*
X146965131Y-90043000D01*
X146982500Y-90152661D01*
X147032905Y-90251587D01*
X147111413Y-90330095D01*
X147210339Y-90380500D01*
X147320000Y-90397869D01*
X147429661Y-90380500D01*
X147528587Y-90330095D01*
X147607095Y-90251587D01*
X147657500Y-90152661D01*
X147674869Y-90043000D01*
X147657500Y-89933339D01*
X147607095Y-89834413D01*
X147528587Y-89755905D01*
X147528584Y-89755903D01*
X147429661Y-89705500D01*
X147320000Y-89688131D01*
X147210338Y-89705500D01*
X147111415Y-89755903D01*
X147111412Y-89755905D01*
X147032905Y-89834412D01*
X147032903Y-89834415D01*
X146982500Y-89933338D01*
X146982500Y-89933339D01*
X146965131Y-90043000D01*
X146659005Y-90043000D01*
X146647891Y-90019166D01*
X146647890Y-90019164D01*
X146563235Y-89934509D01*
X146563233Y-89934508D01*
X146454726Y-89883910D01*
X146405275Y-89877400D01*
X145878000Y-89877400D01*
X145878000Y-90179400D01*
X145378000Y-90179400D01*
X145378000Y-89877400D01*
X144850725Y-89877400D01*
X144801273Y-89883910D01*
X144692766Y-89934508D01*
X144692764Y-89934509D01*
X144608109Y-90019164D01*
X144608108Y-90019166D01*
X144557510Y-90127673D01*
X144551000Y-90177124D01*
X144005500Y-90177124D01*
X144005500Y-89431736D01*
X144550499Y-89431736D01*
X144557019Y-89481257D01*
X144607692Y-89589924D01*
X144607693Y-89589926D01*
X144692473Y-89674706D01*
X144692475Y-89674707D01*
X144692476Y-89674708D01*
X144801144Y-89725381D01*
X144850660Y-89731900D01*
X144850663Y-89731900D01*
X146405336Y-89731900D01*
X146405340Y-89731900D01*
X146454856Y-89725381D01*
X146563524Y-89674708D01*
X146648308Y-89589924D01*
X146698981Y-89481256D01*
X146705500Y-89431740D01*
X146705500Y-88927060D01*
X146698981Y-88877544D01*
X146648308Y-88768876D01*
X146648307Y-88768875D01*
X146648306Y-88768873D01*
X146563526Y-88684093D01*
X146563524Y-88684092D01*
X146454857Y-88633419D01*
X146444952Y-88632115D01*
X146405340Y-88626900D01*
X144850660Y-88626900D01*
X144817649Y-88631246D01*
X144801142Y-88633419D01*
X144692475Y-88684092D01*
X144692473Y-88684093D01*
X144607693Y-88768873D01*
X144607692Y-88768875D01*
X144557019Y-88877542D01*
X144550500Y-88927063D01*
X144550500Y-89431736D01*
X144550499Y-89431736D01*
X144005500Y-89431736D01*
X144005500Y-86766842D01*
X144005499Y-86766838D01*
X143998102Y-86729653D01*
X143998102Y-86729652D01*
X143984012Y-86708565D01*
X143969922Y-86687477D01*
X143938361Y-86666390D01*
X143927748Y-86659298D01*
X143927747Y-86659297D01*
X143927746Y-86659297D01*
X143890561Y-86651900D01*
X143890558Y-86651900D01*
X139065442Y-86651900D01*
X139065438Y-86651900D01*
X139028253Y-86659297D01*
X138986077Y-86687477D01*
X138957897Y-86729653D01*
X138950500Y-86766838D01*
X138405500Y-86766838D01*
X138405500Y-86427060D01*
X138398981Y-86377544D01*
X138348308Y-86268876D01*
X138348307Y-86268875D01*
X138348306Y-86268873D01*
X138263526Y-86184093D01*
X138263524Y-86184092D01*
X138154857Y-86133419D01*
X138144952Y-86132115D01*
X138105340Y-86126900D01*
X136550660Y-86126900D01*
X136517649Y-86131246D01*
X136501142Y-86133419D01*
X136392475Y-86184092D01*
X136392473Y-86184093D01*
X136307693Y-86268873D01*
X136307692Y-86268875D01*
X136257019Y-86377542D01*
X136250500Y-86427063D01*
X136250500Y-86931736D01*
X136250499Y-86931736D01*
X134808344Y-86931736D01*
X134808531Y-85806736D01*
X138425499Y-85806736D01*
X138432019Y-85856257D01*
X138482692Y-85964924D01*
X138482693Y-85964926D01*
X138567473Y-86049706D01*
X138567475Y-86049707D01*
X138567476Y-86049708D01*
X138676144Y-86100381D01*
X138725660Y-86106900D01*
X138725663Y-86106900D01*
X139230336Y-86106900D01*
X139230340Y-86106900D01*
X139279856Y-86100381D01*
X139388524Y-86049708D01*
X139473308Y-85964924D01*
X139523981Y-85856256D01*
X139530500Y-85806740D01*
X139530500Y-85806736D01*
X139675499Y-85806736D01*
X139682019Y-85856257D01*
X139732692Y-85964924D01*
X139732693Y-85964926D01*
X139817473Y-86049706D01*
X139817475Y-86049707D01*
X139817476Y-86049708D01*
X139926144Y-86100381D01*
X139975660Y-86106900D01*
X139975663Y-86106900D01*
X140480336Y-86106900D01*
X140480340Y-86106900D01*
X140529856Y-86100381D01*
X140638524Y-86049708D01*
X140723308Y-85964924D01*
X140773981Y-85856256D01*
X140780500Y-85806740D01*
X140780500Y-85806736D01*
X140925499Y-85806736D01*
X140932019Y-85856257D01*
X140982692Y-85964924D01*
X140982693Y-85964926D01*
X141067473Y-86049706D01*
X141067475Y-86049707D01*
X141067476Y-86049708D01*
X141176144Y-86100381D01*
X141225660Y-86106900D01*
X141225663Y-86106900D01*
X141730336Y-86106900D01*
X141730340Y-86106900D01*
X141779856Y-86100381D01*
X141888524Y-86049708D01*
X141973308Y-85964924D01*
X142023981Y-85856256D01*
X142030500Y-85806740D01*
X142030500Y-85806736D01*
X142175499Y-85806736D01*
X142182019Y-85856257D01*
X142232692Y-85964924D01*
X142232693Y-85964926D01*
X142317473Y-86049706D01*
X142317475Y-86049707D01*
X142317476Y-86049708D01*
X142426144Y-86100381D01*
X142475660Y-86106900D01*
X142475663Y-86106900D01*
X142980336Y-86106900D01*
X142980340Y-86106900D01*
X143029856Y-86100381D01*
X143138524Y-86049708D01*
X143223308Y-85964924D01*
X143273981Y-85856256D01*
X143280500Y-85806740D01*
X143280500Y-85806736D01*
X143425499Y-85806736D01*
X143432019Y-85856257D01*
X143482692Y-85964924D01*
X143482693Y-85964926D01*
X143567473Y-86049706D01*
X143567475Y-86049707D01*
X143567476Y-86049708D01*
X143676144Y-86100381D01*
X143725660Y-86106900D01*
X143725663Y-86106900D01*
X144230336Y-86106900D01*
X144230340Y-86106900D01*
X144279856Y-86100381D01*
X144388524Y-86049708D01*
X144450857Y-85987375D01*
X144485505Y-85973023D01*
X144520153Y-85987375D01*
X144533901Y-86014356D01*
X144538129Y-86041047D01*
X144538129Y-86041048D01*
X144538130Y-86041050D01*
X144547945Y-86060313D01*
X144588533Y-86139973D01*
X144588535Y-86139976D01*
X144627914Y-86179355D01*
X144642266Y-86214003D01*
X144627916Y-86248650D01*
X144607692Y-86268875D01*
X144557019Y-86377542D01*
X144550500Y-86427063D01*
X144550500Y-86931736D01*
X144550499Y-86931736D01*
X144557019Y-86981257D01*
X144607692Y-87089924D01*
X144607693Y-87089926D01*
X144692473Y-87174706D01*
X144692475Y-87174707D01*
X144692476Y-87174708D01*
X144801144Y-87225381D01*
X144850660Y-87231900D01*
X144850663Y-87231900D01*
X146405336Y-87231900D01*
X146405340Y-87231900D01*
X146454856Y-87225381D01*
X146485325Y-87211172D01*
X146522789Y-87209537D01*
X146550440Y-87234873D01*
X146552076Y-87272340D01*
X146540679Y-87290230D01*
X146465434Y-87365475D01*
X146430786Y-87379827D01*
X146424391Y-87379408D01*
X146418242Y-87378598D01*
X146405340Y-87376900D01*
X144850660Y-87376900D01*
X144817649Y-87381246D01*
X144801142Y-87383419D01*
X144692475Y-87434092D01*
X144692473Y-87434093D01*
X144607693Y-87518873D01*
X144607692Y-87518875D01*
X144557019Y-87627542D01*
X144550500Y-87677063D01*
X144550500Y-88181736D01*
X144550499Y-88181736D01*
X144557019Y-88231257D01*
X144607692Y-88339924D01*
X144607693Y-88339926D01*
X144692473Y-88424706D01*
X144692475Y-88424707D01*
X144692476Y-88424708D01*
X144801144Y-88475381D01*
X144850660Y-88481900D01*
X144850663Y-88481900D01*
X146405336Y-88481900D01*
X146405340Y-88481900D01*
X146454856Y-88475381D01*
X146563524Y-88424708D01*
X146648308Y-88339924D01*
X146698981Y-88231256D01*
X146705500Y-88181740D01*
X146705500Y-87859885D01*
X146719852Y-87825237D01*
X147153057Y-87392032D01*
X147153059Y-87392030D01*
X147191500Y-87299225D01*
X147191500Y-87198775D01*
X147191500Y-86224147D01*
X147153059Y-86131342D01*
X147153057Y-86131340D01*
X147153057Y-86131339D01*
X147082030Y-86060313D01*
X146687061Y-85665343D01*
X146680296Y-85662541D01*
X146636240Y-85644292D01*
X146594255Y-85626901D01*
X146594254Y-85626901D01*
X145957878Y-85626901D01*
X145923230Y-85612549D01*
X145902987Y-85592306D01*
X145902984Y-85592304D01*
X145804061Y-85541901D01*
X145694400Y-85524532D01*
X145584738Y-85541901D01*
X145485815Y-85592304D01*
X145485812Y-85592306D01*
X145407305Y-85670813D01*
X145407303Y-85670816D01*
X145356900Y-85769739D01*
X145339531Y-85879401D01*
X145345004Y-85913957D01*
X145336249Y-85950424D01*
X145304272Y-85970019D01*
X145267805Y-85961264D01*
X145261959Y-85956270D01*
X145240518Y-85934829D01*
X145226769Y-85907846D01*
X145222264Y-85879401D01*
X145213130Y-85821728D01*
X145162725Y-85722802D01*
X145084217Y-85644294D01*
X145084214Y-85644292D01*
X144985291Y-85593889D01*
X144875630Y-85576520D01*
X144765968Y-85593889D01*
X144667045Y-85644292D01*
X144667042Y-85644294D01*
X144614148Y-85697189D01*
X144579500Y-85711541D01*
X144544852Y-85697189D01*
X144530500Y-85662541D01*
X144530500Y-84963000D01*
X146965131Y-84963000D01*
X146982500Y-85072661D01*
X147032905Y-85171587D01*
X147111413Y-85250095D01*
X147210339Y-85300500D01*
X147320000Y-85317869D01*
X147429661Y-85300500D01*
X147528587Y-85250095D01*
X147607095Y-85171587D01*
X147657500Y-85072661D01*
X147674869Y-84963000D01*
X147657500Y-84853339D01*
X147607095Y-84754413D01*
X147528587Y-84675905D01*
X147528584Y-84675903D01*
X147429661Y-84625500D01*
X147320000Y-84608131D01*
X147210338Y-84625500D01*
X147111415Y-84675903D01*
X147111412Y-84675905D01*
X147032905Y-84754412D01*
X147032903Y-84754415D01*
X146982500Y-84853338D01*
X146982500Y-84853339D01*
X146965131Y-84963000D01*
X144530500Y-84963000D01*
X144530500Y-84252063D01*
X144530500Y-84252060D01*
X144523981Y-84202544D01*
X144473308Y-84093876D01*
X144473307Y-84093875D01*
X144473306Y-84093873D01*
X144388526Y-84009093D01*
X144388524Y-84009092D01*
X144279857Y-83958419D01*
X144269952Y-83957115D01*
X144230340Y-83951900D01*
X143725660Y-83951900D01*
X143692649Y-83956246D01*
X143676142Y-83958419D01*
X143567475Y-84009092D01*
X143567473Y-84009093D01*
X143482693Y-84093873D01*
X143482692Y-84093875D01*
X143432019Y-84202542D01*
X143432019Y-84202544D01*
X143428170Y-84231784D01*
X143425500Y-84252063D01*
X143425500Y-85806736D01*
X143425499Y-85806736D01*
X143280500Y-85806736D01*
X143280500Y-84252060D01*
X143273981Y-84202544D01*
X143223308Y-84093876D01*
X143223307Y-84093875D01*
X143223306Y-84093873D01*
X143138526Y-84009093D01*
X143138524Y-84009092D01*
X143029857Y-83958419D01*
X143019952Y-83957115D01*
X142980340Y-83951900D01*
X142475660Y-83951900D01*
X142442649Y-83956246D01*
X142426142Y-83958419D01*
X142317475Y-84009092D01*
X142317473Y-84009093D01*
X142232693Y-84093873D01*
X142232692Y-84093875D01*
X142182019Y-84202542D01*
X142182019Y-84202544D01*
X142178170Y-84231784D01*
X142175500Y-84252063D01*
X142175500Y-85806736D01*
X142175499Y-85806736D01*
X142030500Y-85806736D01*
X142030500Y-84252060D01*
X142023981Y-84202544D01*
X141973308Y-84093876D01*
X141973307Y-84093875D01*
X141973306Y-84093873D01*
X141888526Y-84009093D01*
X141888524Y-84009092D01*
X141779857Y-83958419D01*
X141769952Y-83957115D01*
X141730340Y-83951900D01*
X141225660Y-83951900D01*
X141192649Y-83956246D01*
X141176142Y-83958419D01*
X141067475Y-84009092D01*
X141067473Y-84009093D01*
X140982693Y-84093873D01*
X140982692Y-84093875D01*
X140932019Y-84202542D01*
X140932019Y-84202544D01*
X140928170Y-84231784D01*
X140925500Y-84252063D01*
X140925500Y-85806736D01*
X140925499Y-85806736D01*
X140780500Y-85806736D01*
X140780500Y-84252060D01*
X140773981Y-84202544D01*
X140723308Y-84093876D01*
X140723307Y-84093875D01*
X140723306Y-84093873D01*
X140638526Y-84009093D01*
X140638524Y-84009092D01*
X140529857Y-83958419D01*
X140519952Y-83957115D01*
X140480340Y-83951900D01*
X139975660Y-83951900D01*
X139942649Y-83956246D01*
X139926142Y-83958419D01*
X139817475Y-84009092D01*
X139817473Y-84009093D01*
X139732693Y-84093873D01*
X139732692Y-84093875D01*
X139682019Y-84202542D01*
X139682019Y-84202544D01*
X139678170Y-84231784D01*
X139675500Y-84252063D01*
X139675500Y-85806736D01*
X139675499Y-85806736D01*
X139530500Y-85806736D01*
X139530500Y-84252060D01*
X139523981Y-84202544D01*
X139473308Y-84093876D01*
X139473307Y-84093875D01*
X139473306Y-84093873D01*
X139388526Y-84009093D01*
X139388524Y-84009092D01*
X139279857Y-83958419D01*
X139269952Y-83957115D01*
X139230340Y-83951900D01*
X138725660Y-83951900D01*
X138692649Y-83956246D01*
X138676142Y-83958419D01*
X138567475Y-84009092D01*
X138567473Y-84009093D01*
X138482693Y-84093873D01*
X138482692Y-84093875D01*
X138432019Y-84202542D01*
X138432019Y-84202544D01*
X138428170Y-84231784D01*
X138425500Y-84252063D01*
X138425500Y-85806736D01*
X138425499Y-85806736D01*
X134808531Y-85806736D01*
X134808727Y-84632800D01*
X137414731Y-84632800D01*
X137432100Y-84742461D01*
X137482505Y-84841387D01*
X137561013Y-84919895D01*
X137659939Y-84970300D01*
X137769600Y-84987669D01*
X137879261Y-84970300D01*
X137978187Y-84919895D01*
X138056695Y-84841387D01*
X138107100Y-84742461D01*
X138124469Y-84632800D01*
X138107100Y-84523139D01*
X138056695Y-84424213D01*
X137978187Y-84345705D01*
X137978184Y-84345703D01*
X137879261Y-84295300D01*
X137769600Y-84277931D01*
X137659938Y-84295300D01*
X137561015Y-84345703D01*
X137561012Y-84345705D01*
X137482505Y-84424212D01*
X137482503Y-84424215D01*
X137432100Y-84523138D01*
X137432100Y-84523139D01*
X137414731Y-84632800D01*
X134808727Y-84632800D01*
X134808828Y-84023200D01*
X135230331Y-84023200D01*
X135247700Y-84132861D01*
X135298105Y-84231787D01*
X135376613Y-84310295D01*
X135475539Y-84360700D01*
X135585200Y-84378069D01*
X135694861Y-84360700D01*
X135793787Y-84310295D01*
X135872295Y-84231787D01*
X135922700Y-84132861D01*
X135940069Y-84023200D01*
X135922700Y-83913539D01*
X135872295Y-83814613D01*
X135793787Y-83736105D01*
X135793784Y-83736103D01*
X135694861Y-83685700D01*
X135585200Y-83668331D01*
X135475538Y-83685700D01*
X135376615Y-83736103D01*
X135376612Y-83736105D01*
X135298105Y-83814612D01*
X135298103Y-83814615D01*
X135247700Y-83913538D01*
X135232566Y-84009092D01*
X135230331Y-84023200D01*
X134808828Y-84023200D01*
X134809008Y-82944000D01*
X137120804Y-82944000D01*
X137139536Y-83122221D01*
X137194912Y-83292653D01*
X137284514Y-83447847D01*
X137404424Y-83581021D01*
X137549402Y-83686354D01*
X137713112Y-83759242D01*
X137888399Y-83796500D01*
X138067601Y-83796500D01*
X138242888Y-83759242D01*
X138406598Y-83686354D01*
X138551576Y-83581021D01*
X138671486Y-83447847D01*
X138761088Y-83292653D01*
X138816464Y-83122221D01*
X138835196Y-82944000D01*
X139620804Y-82944000D01*
X139639536Y-83122221D01*
X139694912Y-83292653D01*
X139784514Y-83447847D01*
X139904424Y-83581021D01*
X140049402Y-83686354D01*
X140213112Y-83759242D01*
X140388399Y-83796500D01*
X140567601Y-83796500D01*
X140742888Y-83759242D01*
X140906598Y-83686354D01*
X141051576Y-83581021D01*
X141171486Y-83447847D01*
X141261088Y-83292653D01*
X141316464Y-83122221D01*
X141335196Y-82944000D01*
X141620804Y-82944000D01*
X141639536Y-83122221D01*
X141694912Y-83292653D01*
X141784514Y-83447847D01*
X141904424Y-83581021D01*
X142049402Y-83686354D01*
X142213112Y-83759242D01*
X142388399Y-83796500D01*
X142567601Y-83796500D01*
X142742888Y-83759242D01*
X142906598Y-83686354D01*
X143051576Y-83581021D01*
X143171486Y-83447847D01*
X143261088Y-83292653D01*
X143316464Y-83122221D01*
X143335196Y-82944000D01*
X144120804Y-82944000D01*
X144139536Y-83122221D01*
X144194912Y-83292653D01*
X144284514Y-83447847D01*
X144404424Y-83581021D01*
X144549402Y-83686354D01*
X144713112Y-83759242D01*
X144888399Y-83796500D01*
X145067601Y-83796500D01*
X145242888Y-83759242D01*
X145406598Y-83686354D01*
X145551576Y-83581021D01*
X145671486Y-83447847D01*
X145761088Y-83292653D01*
X145816464Y-83122221D01*
X145835196Y-82944000D01*
X145816464Y-82765779D01*
X145761088Y-82595347D01*
X145671486Y-82440153D01*
X145551576Y-82306979D01*
X145406598Y-82201646D01*
X145242888Y-82128758D01*
X145067601Y-82091500D01*
X144888399Y-82091500D01*
X144713112Y-82128758D01*
X144549402Y-82201646D01*
X144404424Y-82306979D01*
X144404423Y-82306980D01*
X144404419Y-82306983D01*
X144284517Y-82440149D01*
X144284511Y-82440157D01*
X144194914Y-82595343D01*
X144194912Y-82595346D01*
X144194912Y-82595347D01*
X144139536Y-82765779D01*
X144120804Y-82944000D01*
X143335196Y-82944000D01*
X143316464Y-82765779D01*
X143261088Y-82595347D01*
X143171486Y-82440153D01*
X143051576Y-82306979D01*
X142906598Y-82201646D01*
X142742888Y-82128758D01*
X142567601Y-82091500D01*
X142388399Y-82091500D01*
X142213112Y-82128758D01*
X142049402Y-82201646D01*
X141904424Y-82306979D01*
X141904423Y-82306980D01*
X141904419Y-82306983D01*
X141784517Y-82440149D01*
X141784511Y-82440157D01*
X141694914Y-82595343D01*
X141694912Y-82595346D01*
X141694912Y-82595347D01*
X141639536Y-82765779D01*
X141620804Y-82944000D01*
X141335196Y-82944000D01*
X141316464Y-82765779D01*
X141261088Y-82595347D01*
X141171486Y-82440153D01*
X141051576Y-82306979D01*
X140906598Y-82201646D01*
X140742888Y-82128758D01*
X140567601Y-82091500D01*
X140388399Y-82091500D01*
X140213112Y-82128758D01*
X140049402Y-82201646D01*
X139904424Y-82306979D01*
X139904423Y-82306980D01*
X139904419Y-82306983D01*
X139784517Y-82440149D01*
X139784511Y-82440157D01*
X139694914Y-82595343D01*
X139694912Y-82595346D01*
X139694912Y-82595347D01*
X139639536Y-82765779D01*
X139620804Y-82944000D01*
X138835196Y-82944000D01*
X138816464Y-82765779D01*
X138761088Y-82595347D01*
X138671486Y-82440153D01*
X138551576Y-82306979D01*
X138406598Y-82201646D01*
X138242888Y-82128758D01*
X138067601Y-82091500D01*
X137888399Y-82091500D01*
X137713112Y-82128758D01*
X137549402Y-82201646D01*
X137404424Y-82306979D01*
X137404423Y-82306980D01*
X137404419Y-82306983D01*
X137284517Y-82440149D01*
X137284511Y-82440157D01*
X137194914Y-82595343D01*
X137194912Y-82595346D01*
X137194912Y-82595347D01*
X137139536Y-82765779D01*
X137120804Y-82944000D01*
X134809008Y-82944000D01*
X134809196Y-81814554D01*
X134823554Y-81779910D01*
X134858204Y-81765564D01*
X134892850Y-81779922D01*
X134898937Y-81787339D01*
X134908575Y-81801764D01*
X134965817Y-81887434D01*
X135084565Y-82006182D01*
X135140112Y-82043296D01*
X135224190Y-82099476D01*
X135379335Y-82163739D01*
X135379341Y-82163740D01*
X135379344Y-82163741D01*
X135544030Y-82196499D01*
X135544033Y-82196499D01*
X135544036Y-82196500D01*
X135544037Y-82196500D01*
X135711963Y-82196500D01*
X135711964Y-82196500D01*
X135876665Y-82163739D01*
X136031810Y-82099476D01*
X136171437Y-82006180D01*
X136290180Y-81887437D01*
X136383476Y-81747810D01*
X136447739Y-81592665D01*
X136449806Y-81582276D01*
X136480499Y-81427969D01*
X136480500Y-81427962D01*
X136480500Y-80843999D01*
X138470738Y-80843999D01*
X138477192Y-80901280D01*
X138477500Y-80906766D01*
X138477500Y-80917922D01*
X138480709Y-80934059D01*
X138481342Y-80938127D01*
X138489723Y-81012506D01*
X138489724Y-81012508D01*
X138503861Y-81052908D01*
X138505670Y-81059534D01*
X138506342Y-81062914D01*
X138512390Y-81077516D01*
X138513369Y-81080082D01*
X138528341Y-81122868D01*
X138545731Y-81172564D01*
X138545732Y-81172565D01*
X138635947Y-81316143D01*
X138635949Y-81316145D01*
X138755855Y-81436051D01*
X138755857Y-81436052D01*
X138899431Y-81526267D01*
X138899435Y-81526268D01*
X138899436Y-81526269D01*
X138991912Y-81558628D01*
X138991918Y-81558630D01*
X138994474Y-81559605D01*
X139009087Y-81565658D01*
X139012466Y-81566329D01*
X139019084Y-81568135D01*
X139059493Y-81582276D01*
X139133877Y-81590657D01*
X139137923Y-81591285D01*
X139154082Y-81594500D01*
X139165233Y-81594500D01*
X139170718Y-81594807D01*
X139228000Y-81601262D01*
X139285281Y-81594807D01*
X139290767Y-81594500D01*
X139301917Y-81594500D01*
X139301918Y-81594500D01*
X139318073Y-81591286D01*
X139322112Y-81590658D01*
X139396507Y-81582276D01*
X139436908Y-81568137D01*
X139443531Y-81566330D01*
X139446913Y-81565658D01*
X139446918Y-81565656D01*
X139461517Y-81559609D01*
X139464081Y-81558630D01*
X139556564Y-81526269D01*
X139556566Y-81526267D01*
X139556568Y-81526267D01*
X139609275Y-81493147D01*
X139700145Y-81436051D01*
X139820051Y-81316145D01*
X139877147Y-81225275D01*
X139910267Y-81172568D01*
X139910268Y-81172565D01*
X139910269Y-81172564D01*
X139942631Y-81080076D01*
X139943609Y-81077517D01*
X139949656Y-81062918D01*
X139949656Y-81062917D01*
X139949658Y-81062913D01*
X139950330Y-81059531D01*
X139952139Y-81052904D01*
X139966276Y-81012507D01*
X139974658Y-80938112D01*
X139975289Y-80934059D01*
X139978500Y-80917918D01*
X139978500Y-80906766D01*
X139978808Y-80901280D01*
X139985262Y-80844000D01*
X139985262Y-80843999D01*
X142970738Y-80843999D01*
X142977192Y-80901280D01*
X142977500Y-80906766D01*
X142977500Y-80917922D01*
X142980709Y-80934059D01*
X142981342Y-80938127D01*
X142989723Y-81012506D01*
X142989724Y-81012508D01*
X143003861Y-81052908D01*
X143005670Y-81059534D01*
X143006342Y-81062914D01*
X143012390Y-81077516D01*
X143013369Y-81080082D01*
X143028341Y-81122868D01*
X143045731Y-81172564D01*
X143045732Y-81172565D01*
X143135947Y-81316143D01*
X143135949Y-81316145D01*
X143255855Y-81436051D01*
X143255857Y-81436052D01*
X143399431Y-81526267D01*
X143399435Y-81526268D01*
X143399436Y-81526269D01*
X143491912Y-81558628D01*
X143491918Y-81558630D01*
X143494474Y-81559605D01*
X143509087Y-81565658D01*
X143512466Y-81566329D01*
X143519084Y-81568135D01*
X143559493Y-81582276D01*
X143633877Y-81590657D01*
X143637923Y-81591285D01*
X143654082Y-81594500D01*
X143665233Y-81594500D01*
X143670718Y-81594807D01*
X143728000Y-81601262D01*
X143785281Y-81594807D01*
X143790767Y-81594500D01*
X143801917Y-81594500D01*
X143801918Y-81594500D01*
X143818073Y-81591286D01*
X143822112Y-81590658D01*
X143896507Y-81582276D01*
X143936908Y-81568137D01*
X143943531Y-81566330D01*
X143946913Y-81565658D01*
X143946918Y-81565656D01*
X143961517Y-81559609D01*
X143964081Y-81558630D01*
X144056564Y-81526269D01*
X144056566Y-81526267D01*
X144056568Y-81526267D01*
X144109275Y-81493147D01*
X144200145Y-81436051D01*
X144320051Y-81316145D01*
X144377147Y-81225275D01*
X144410267Y-81172568D01*
X144410268Y-81172565D01*
X144410269Y-81172564D01*
X144442631Y-81080076D01*
X144443609Y-81077517D01*
X144449656Y-81062918D01*
X144449656Y-81062917D01*
X144449658Y-81062913D01*
X144450330Y-81059531D01*
X144452139Y-81052904D01*
X144466276Y-81012507D01*
X144474658Y-80938112D01*
X144475289Y-80934059D01*
X144478500Y-80917918D01*
X144478500Y-80906766D01*
X144478808Y-80901280D01*
X144485262Y-80844000D01*
X144478808Y-80786718D01*
X144478500Y-80781232D01*
X144478500Y-80770085D01*
X144478500Y-80770082D01*
X144475285Y-80753923D01*
X144474656Y-80749872D01*
X144466276Y-80675493D01*
X144452135Y-80635084D01*
X144450329Y-80628466D01*
X144449658Y-80625087D01*
X144443605Y-80610474D01*
X144442630Y-80607918D01*
X144410267Y-80515431D01*
X144320052Y-80371857D01*
X144320051Y-80371855D01*
X144200145Y-80251949D01*
X144200143Y-80251947D01*
X144104424Y-80191803D01*
X144056564Y-80161731D01*
X144006868Y-80144341D01*
X143964082Y-80129369D01*
X143961516Y-80128390D01*
X143946914Y-80122342D01*
X143945224Y-80122006D01*
X143943531Y-80121669D01*
X143936908Y-80119861D01*
X143896508Y-80105724D01*
X143896506Y-80105723D01*
X143822127Y-80097342D01*
X143818059Y-80096709D01*
X143801922Y-80093500D01*
X143801918Y-80093500D01*
X143790767Y-80093500D01*
X143785281Y-80093192D01*
X143728000Y-80086738D01*
X143670719Y-80093192D01*
X143665233Y-80093500D01*
X143654082Y-80093500D01*
X143639967Y-80096306D01*
X143637939Y-80096710D01*
X143633872Y-80097342D01*
X143559498Y-80105723D01*
X143559494Y-80105723D01*
X143559493Y-80105724D01*
X143530432Y-80115892D01*
X143519091Y-80119861D01*
X143512473Y-80121667D01*
X143509094Y-80122339D01*
X143509086Y-80122341D01*
X143494488Y-80128388D01*
X143491923Y-80129367D01*
X143399436Y-80161731D01*
X143399434Y-80161732D01*
X143255856Y-80251947D01*
X143135947Y-80371856D01*
X143045732Y-80515434D01*
X143045731Y-80515436D01*
X143013367Y-80607923D01*
X143012388Y-80610488D01*
X143006341Y-80625086D01*
X143006339Y-80625094D01*
X143005667Y-80628473D01*
X143003861Y-80635091D01*
X142989724Y-80675494D01*
X142989723Y-80675498D01*
X142981342Y-80749872D01*
X142980710Y-80753939D01*
X142977500Y-80770082D01*
X142977500Y-80770085D01*
X142977500Y-80781232D01*
X142977192Y-80786718D01*
X142970738Y-80843999D01*
X139985262Y-80843999D01*
X139978808Y-80786718D01*
X139978500Y-80781232D01*
X139978500Y-80770085D01*
X139978500Y-80770082D01*
X139975285Y-80753923D01*
X139974656Y-80749872D01*
X139966276Y-80675493D01*
X139952135Y-80635084D01*
X139950329Y-80628466D01*
X139949658Y-80625087D01*
X139943605Y-80610474D01*
X139942630Y-80607918D01*
X139910267Y-80515431D01*
X139820052Y-80371857D01*
X139820051Y-80371855D01*
X139700145Y-80251949D01*
X139700143Y-80251947D01*
X139604424Y-80191803D01*
X139556564Y-80161731D01*
X139506868Y-80144341D01*
X139464082Y-80129369D01*
X139461516Y-80128390D01*
X139446914Y-80122342D01*
X139445224Y-80122006D01*
X139443531Y-80121669D01*
X139436908Y-80119861D01*
X139396508Y-80105724D01*
X139396506Y-80105723D01*
X139322127Y-80097342D01*
X139318059Y-80096709D01*
X139301922Y-80093500D01*
X139301918Y-80093500D01*
X139290767Y-80093500D01*
X139285281Y-80093192D01*
X139228000Y-80086738D01*
X139170719Y-80093192D01*
X139165233Y-80093500D01*
X139154082Y-80093500D01*
X139139967Y-80096306D01*
X139137939Y-80096710D01*
X139133872Y-80097342D01*
X139059498Y-80105723D01*
X139059494Y-80105723D01*
X139059493Y-80105724D01*
X139030432Y-80115892D01*
X139019091Y-80119861D01*
X139012473Y-80121667D01*
X139009094Y-80122339D01*
X139009086Y-80122341D01*
X138994488Y-80128388D01*
X138991923Y-80129367D01*
X138899436Y-80161731D01*
X138899434Y-80161732D01*
X138755856Y-80251947D01*
X138635947Y-80371856D01*
X138545732Y-80515434D01*
X138545731Y-80515436D01*
X138513367Y-80607923D01*
X138512388Y-80610488D01*
X138506341Y-80625086D01*
X138506339Y-80625094D01*
X138505667Y-80628473D01*
X138503861Y-80635091D01*
X138489724Y-80675494D01*
X138489723Y-80675498D01*
X138481342Y-80749872D01*
X138480710Y-80753939D01*
X138477500Y-80770082D01*
X138477500Y-80770085D01*
X138477500Y-80781232D01*
X138477192Y-80786718D01*
X138470738Y-80843999D01*
X136480500Y-80843999D01*
X136480500Y-80260037D01*
X136480499Y-80260030D01*
X136447741Y-80095344D01*
X136447738Y-80095333D01*
X136425603Y-80041894D01*
X136383476Y-79940190D01*
X136308998Y-79828726D01*
X136290182Y-79800565D01*
X136171434Y-79681817D01*
X136088113Y-79626144D01*
X136031810Y-79588524D01*
X136031807Y-79588522D01*
X136031806Y-79588522D01*
X135876666Y-79524261D01*
X135876655Y-79524258D01*
X135711969Y-79491500D01*
X135711964Y-79491500D01*
X135544036Y-79491500D01*
X135544030Y-79491500D01*
X135379344Y-79524258D01*
X135379333Y-79524261D01*
X135224193Y-79588522D01*
X135084565Y-79681817D01*
X134965817Y-79800565D01*
X134919303Y-79870179D01*
X134888120Y-79891015D01*
X134851338Y-79883698D01*
X134830502Y-79852515D01*
X134831672Y-79828729D01*
X134861380Y-79730844D01*
X134865049Y-79721986D01*
X134925157Y-79609562D01*
X134930479Y-79601599D01*
X135011368Y-79503055D01*
X135018142Y-79496283D01*
X135116689Y-79415420D01*
X135124668Y-79410089D01*
X135237086Y-79350008D01*
X135245953Y-79346336D01*
X135283346Y-79334993D01*
X135367935Y-79309337D01*
X135377344Y-79307465D01*
X135506604Y-79294736D01*
X135511406Y-79294500D01*
X135556595Y-79294500D01*
X147399405Y-79294500D01*
X147444591Y-79294500D01*
X147449395Y-79294736D01*
G37*
%TD.AperFunction*%
%TD*%
M02*
