%TF.GenerationSoftware,KiCad,Pcbnew,8.0.4*%
%TF.CreationDate,2025-02-17T15:21:00+00:00*%
%TF.ProjectId,miniCO2,6d696e69-434f-4322-9e6b-696361645f70,rev?*%
%TF.SameCoordinates,Original*%
%TF.FileFunction,Drillmap*%
%TF.FilePolarity,Positive*%
%FSLAX45Y45*%
G04 Gerber Fmt 4.5, Leading zero omitted, Abs format (unit mm)*
G04 Created by KiCad (PCBNEW 8.0.4) date 2025-02-17 15:21:00*
%MOMM*%
%LPD*%
G01*
G04 APERTURE LIST*
%ADD10C,0.100000*%
%ADD11C,0.200000*%
G04 APERTURE END LIST*
D10*
X14867190Y-8233126D02*
X14867190Y-11503126D01*
X13607190Y-8233126D02*
X13417190Y-8233126D01*
X13417190Y-11503126D02*
X13417190Y-8233126D01*
X14867190Y-8233126D02*
X14677190Y-8233126D01*
X13607190Y-8083126D02*
X14677190Y-8083126D01*
X14867190Y-11503126D02*
X13417190Y-11503126D01*
X14677190Y-8083126D02*
X14677190Y-8233126D01*
X13607190Y-8083126D02*
X13607190Y-8233126D01*
D11*
D10*
X13507190Y-9120126D02*
X13537190Y-9150126D01*
X13537190Y-9120126D02*
X13507190Y-9150126D01*
X13537190Y-8493126D02*
X13567190Y-8523126D01*
X13567190Y-8493126D02*
X13537190Y-8523126D01*
X13537190Y-8548126D02*
X13567190Y-8578126D01*
X13567190Y-8548126D02*
X13537190Y-8578126D01*
X13537190Y-10608126D02*
X13567190Y-10638126D01*
X13567190Y-10608126D02*
X13537190Y-10638126D01*
X13537190Y-10688126D02*
X13567190Y-10718126D01*
X13567190Y-10688126D02*
X13537190Y-10718126D01*
X13568440Y-8774376D02*
X13598440Y-8804376D01*
X13598440Y-8774376D02*
X13568440Y-8804376D01*
X13572190Y-8868126D02*
X13602190Y-8898126D01*
X13602190Y-8868126D02*
X13572190Y-8898126D01*
X13596190Y-10319126D02*
X13626190Y-10349126D01*
X13626190Y-10319126D02*
X13596190Y-10349126D01*
X13607190Y-10246126D02*
X13637190Y-10276126D01*
X13637190Y-10246126D02*
X13607190Y-10276126D01*
X13612190Y-11048126D02*
X13642190Y-11078126D01*
X13642190Y-11048126D02*
X13612190Y-11078126D01*
X13667190Y-10298126D02*
X13697190Y-10328126D01*
X13697190Y-10298126D02*
X13667190Y-10328126D01*
X13672190Y-8338126D02*
X13702190Y-8368126D01*
X13702190Y-8338126D02*
X13672190Y-8368126D01*
X13682190Y-10693126D02*
X13712190Y-10723126D01*
X13712190Y-10693126D02*
X13682190Y-10723126D01*
X13687190Y-9178126D02*
X13717190Y-9208126D01*
X13717190Y-9178126D02*
X13687190Y-9208126D01*
X13792190Y-11003126D02*
X13822190Y-11033126D01*
X13822190Y-11003126D02*
X13792190Y-11033126D01*
X13807190Y-10398126D02*
X13837190Y-10428126D01*
X13837190Y-10398126D02*
X13807190Y-10428126D01*
X13909190Y-10308126D02*
X13939190Y-10338126D01*
X13939190Y-10308126D02*
X13909190Y-10338126D01*
X13914190Y-10537126D02*
X13944190Y-10567126D01*
X13944190Y-10537126D02*
X13914190Y-10567126D01*
X13969690Y-10585626D02*
X13999690Y-10615626D01*
X13999690Y-10585626D02*
X13969690Y-10615626D01*
X13997190Y-8388126D02*
X14027190Y-8418126D01*
X14027190Y-8388126D02*
X13997190Y-8418126D01*
X14007190Y-10918126D02*
X14037190Y-10948126D01*
X14037190Y-10918126D02*
X14007190Y-10948126D01*
X14037190Y-10538126D02*
X14067190Y-10568126D01*
X14067190Y-10538126D02*
X14037190Y-10568126D01*
X14047190Y-11028126D02*
X14077190Y-11058126D01*
X14077190Y-11028126D02*
X14047190Y-11058126D01*
X14052190Y-11410626D02*
X14082190Y-11440626D01*
X14082190Y-11410626D02*
X14052190Y-11440626D01*
X14077190Y-9883626D02*
X14107190Y-9913626D01*
X14107190Y-9883626D02*
X14077190Y-9913626D01*
X14077190Y-9963126D02*
X14107190Y-9993126D01*
X14107190Y-9963126D02*
X14077190Y-9993126D01*
X14087190Y-10308126D02*
X14117190Y-10338126D01*
X14117190Y-10308126D02*
X14087190Y-10338126D01*
X14117190Y-8573126D02*
X14147190Y-8603126D01*
X14147190Y-8573126D02*
X14117190Y-8603126D01*
X14117190Y-8763126D02*
X14147190Y-8793126D01*
X14147190Y-8763126D02*
X14117190Y-8793126D01*
X14127190Y-10042126D02*
X14157190Y-10072126D01*
X14157190Y-10042126D02*
X14127190Y-10072126D01*
X14132190Y-9678126D02*
X14162190Y-9708126D01*
X14162190Y-9678126D02*
X14132190Y-9708126D01*
X14152190Y-8998126D02*
X14182190Y-9028126D01*
X14182190Y-8998126D02*
X14152190Y-9028126D01*
X14203190Y-9726126D02*
X14233190Y-9756126D01*
X14233190Y-9726126D02*
X14203190Y-9756126D01*
X14203190Y-9805626D02*
X14233190Y-9835626D01*
X14233190Y-9805626D02*
X14203190Y-9835626D01*
X14203190Y-9884126D02*
X14233190Y-9914126D01*
X14233190Y-9884126D02*
X14203190Y-9914126D01*
X14227190Y-9148126D02*
X14257190Y-9178126D01*
X14257190Y-9148126D02*
X14227190Y-9178126D01*
X14247190Y-11338126D02*
X14277190Y-11368126D01*
X14277190Y-11338126D02*
X14247190Y-11368126D01*
X14287190Y-10438126D02*
X14317190Y-10468126D01*
X14317190Y-10438126D02*
X14287190Y-10468126D01*
X14337190Y-9238126D02*
X14367190Y-9268126D01*
X14367190Y-9238126D02*
X14337190Y-9268126D01*
X14367190Y-10438126D02*
X14397190Y-10468126D01*
X14397190Y-10438126D02*
X14367190Y-10468126D01*
X14397190Y-9995626D02*
X14427190Y-10025626D01*
X14427190Y-9995626D02*
X14397190Y-10025626D01*
X14417190Y-8738126D02*
X14447190Y-8768126D01*
X14447190Y-8738126D02*
X14417190Y-8768126D01*
X14467190Y-8468126D02*
X14497190Y-8498126D01*
X14497190Y-8468126D02*
X14467190Y-8498126D01*
X14487190Y-10618126D02*
X14517190Y-10648126D01*
X14517190Y-10618126D02*
X14487190Y-10648126D01*
X14517190Y-11218126D02*
X14547190Y-11248126D01*
X14547190Y-11218126D02*
X14517190Y-11248126D01*
X14527190Y-9153126D02*
X14557190Y-9183126D01*
X14557190Y-9153126D02*
X14527190Y-9183126D01*
X14527190Y-9223126D02*
X14557190Y-9253126D01*
X14557190Y-9223126D02*
X14527190Y-9253126D01*
X14547190Y-11338126D02*
X14577190Y-11368126D01*
X14577190Y-11338126D02*
X14547190Y-11368126D01*
X14602190Y-9443126D02*
X14632190Y-9473126D01*
X14632190Y-9443126D02*
X14602190Y-9473126D01*
X14609190Y-11083126D02*
X14639190Y-11113126D01*
X14639190Y-11083126D02*
X14609190Y-11113126D01*
X14619690Y-8225124D02*
X14649690Y-8255124D01*
X14649690Y-8225124D02*
X14619690Y-8255124D01*
X14622190Y-10928126D02*
X14652190Y-10958126D01*
X14652190Y-10928126D02*
X14622190Y-10958126D01*
X14622190Y-11008126D02*
X14652190Y-11038126D01*
X14652190Y-11008126D02*
X14622190Y-11038126D01*
X14627190Y-10688126D02*
X14657190Y-10718126D01*
X14657190Y-10688126D02*
X14627190Y-10718126D01*
X14627190Y-10848126D02*
X14657190Y-10878126D01*
X14657190Y-10848126D02*
X14627190Y-10878126D01*
X14652190Y-10193126D02*
X14682190Y-10223126D01*
X14682190Y-10193126D02*
X14652190Y-10223126D01*
X14687190Y-9443126D02*
X14717190Y-9473126D01*
X14717190Y-9443126D02*
X14687190Y-9473126D01*
X14697762Y-8315136D02*
X14727762Y-8345136D01*
X14727762Y-8315136D02*
X14697762Y-8345136D01*
X14717190Y-10768126D02*
X14747190Y-10798126D01*
X14747190Y-10768126D02*
X14717190Y-10798126D01*
X14717190Y-11148126D02*
X14747190Y-11178126D01*
X14747190Y-11148126D02*
X14717190Y-11178126D01*
X14722190Y-10043126D02*
X14752190Y-10073126D01*
X14752190Y-10043126D02*
X14722190Y-10073126D01*
X14727190Y-10438126D02*
X14757190Y-10468126D01*
X14757190Y-10438126D02*
X14727190Y-10468126D01*
X14750638Y-8313987D02*
X14780638Y-8343987D01*
X14780638Y-8313987D02*
X14750638Y-8343987D01*
X14807190Y-8748126D02*
X14837190Y-8778126D01*
X14837190Y-8748126D02*
X14807190Y-8778126D01*
X13677190Y-9643126D02*
G75*
G02*
X13627190Y-9643126I-25000J0D01*
G01*
X13627190Y-9643126D02*
G75*
G02*
X13677190Y-9643126I25000J0D01*
G01*
X13632190Y-9668126D02*
X13672190Y-9668126D01*
X13672190Y-9618126D02*
G75*
G02*
X13672190Y-9668126I0J-25000D01*
G01*
X13672190Y-9618126D02*
X13632190Y-9618126D01*
X13632190Y-9618126D02*
G75*
G03*
X13632190Y-9668126I0J-25000D01*
G01*
X13677190Y-10073126D02*
G75*
G02*
X13627190Y-10073126I-25000J0D01*
G01*
X13627190Y-10073126D02*
G75*
G02*
X13677190Y-10073126I25000J0D01*
G01*
X13632190Y-10098126D02*
X13672190Y-10098126D01*
X13672190Y-10048126D02*
G75*
G02*
X13672190Y-10098126I0J-25000D01*
G01*
X13672190Y-10048126D02*
X13632190Y-10048126D01*
X13632190Y-10048126D02*
G75*
G03*
X13632190Y-10098126I0J-25000D01*
G01*
X13927190Y-9583126D02*
X13927190Y-9653126D01*
X13892190Y-9618126D02*
X13962190Y-9618126D01*
X13927190Y-10063126D02*
X13927190Y-10133126D01*
X13892190Y-10098126D02*
X13962190Y-10098126D01*
X14357190Y-9583126D02*
X14357190Y-9653126D01*
X14322190Y-9618126D02*
X14392190Y-9618126D01*
X14357190Y-10063126D02*
X14357190Y-10133126D01*
X14322190Y-10098126D02*
X14392190Y-10098126D01*
D11*
X13672967Y-11819610D02*
X13672967Y-11619610D01*
X13672967Y-11619610D02*
X13720586Y-11619610D01*
X13720586Y-11619610D02*
X13749157Y-11629134D01*
X13749157Y-11629134D02*
X13768205Y-11648181D01*
X13768205Y-11648181D02*
X13777729Y-11667229D01*
X13777729Y-11667229D02*
X13787252Y-11705324D01*
X13787252Y-11705324D02*
X13787252Y-11733896D01*
X13787252Y-11733896D02*
X13777729Y-11771991D01*
X13777729Y-11771991D02*
X13768205Y-11791038D01*
X13768205Y-11791038D02*
X13749157Y-11810086D01*
X13749157Y-11810086D02*
X13720586Y-11819610D01*
X13720586Y-11819610D02*
X13672967Y-11819610D01*
X13872967Y-11819610D02*
X13872967Y-11686277D01*
X13872967Y-11724372D02*
X13882491Y-11705324D01*
X13882491Y-11705324D02*
X13892014Y-11695800D01*
X13892014Y-11695800D02*
X13911062Y-11686277D01*
X13911062Y-11686277D02*
X13930110Y-11686277D01*
X13996776Y-11819610D02*
X13996776Y-11686277D01*
X13996776Y-11619610D02*
X13987252Y-11629134D01*
X13987252Y-11629134D02*
X13996776Y-11638658D01*
X13996776Y-11638658D02*
X14006300Y-11629134D01*
X14006300Y-11629134D02*
X13996776Y-11619610D01*
X13996776Y-11619610D02*
X13996776Y-11638658D01*
X14120586Y-11819610D02*
X14101538Y-11810086D01*
X14101538Y-11810086D02*
X14092014Y-11791038D01*
X14092014Y-11791038D02*
X14092014Y-11619610D01*
X14225348Y-11819610D02*
X14206300Y-11810086D01*
X14206300Y-11810086D02*
X14196776Y-11791038D01*
X14196776Y-11791038D02*
X14196776Y-11619610D01*
X14453919Y-11819610D02*
X14453919Y-11619610D01*
X14453919Y-11619610D02*
X14520586Y-11762467D01*
X14520586Y-11762467D02*
X14587252Y-11619610D01*
X14587252Y-11619610D02*
X14587252Y-11819610D01*
X14768205Y-11819610D02*
X14768205Y-11714848D01*
X14768205Y-11714848D02*
X14758681Y-11695800D01*
X14758681Y-11695800D02*
X14739633Y-11686277D01*
X14739633Y-11686277D02*
X14701538Y-11686277D01*
X14701538Y-11686277D02*
X14682491Y-11695800D01*
X14768205Y-11810086D02*
X14749157Y-11819610D01*
X14749157Y-11819610D02*
X14701538Y-11819610D01*
X14701538Y-11819610D02*
X14682491Y-11810086D01*
X14682491Y-11810086D02*
X14672967Y-11791038D01*
X14672967Y-11791038D02*
X14672967Y-11771991D01*
X14672967Y-11771991D02*
X14682491Y-11752943D01*
X14682491Y-11752943D02*
X14701538Y-11743419D01*
X14701538Y-11743419D02*
X14749157Y-11743419D01*
X14749157Y-11743419D02*
X14768205Y-11733896D01*
X14863443Y-11686277D02*
X14863443Y-11886277D01*
X14863443Y-11695800D02*
X14882491Y-11686277D01*
X14882491Y-11686277D02*
X14920586Y-11686277D01*
X14920586Y-11686277D02*
X14939633Y-11695800D01*
X14939633Y-11695800D02*
X14949157Y-11705324D01*
X14949157Y-11705324D02*
X14958681Y-11724372D01*
X14958681Y-11724372D02*
X14958681Y-11781515D01*
X14958681Y-11781515D02*
X14949157Y-11800562D01*
X14949157Y-11800562D02*
X14939633Y-11810086D01*
X14939633Y-11810086D02*
X14920586Y-11819610D01*
X14920586Y-11819610D02*
X14882491Y-11819610D01*
X14882491Y-11819610D02*
X14863443Y-11810086D01*
X15044395Y-11800562D02*
X15053919Y-11810086D01*
X15053919Y-11810086D02*
X15044395Y-11819610D01*
X15044395Y-11819610D02*
X15034872Y-11810086D01*
X15034872Y-11810086D02*
X15044395Y-11800562D01*
X15044395Y-11800562D02*
X15044395Y-11819610D01*
X15044395Y-11695800D02*
X15053919Y-11705324D01*
X15053919Y-11705324D02*
X15044395Y-11714848D01*
X15044395Y-11714848D02*
X15034872Y-11705324D01*
X15034872Y-11705324D02*
X15044395Y-11695800D01*
X15044395Y-11695800D02*
X15044395Y-11714848D01*
D10*
X13382190Y-12133126D02*
X13412190Y-12163126D01*
X13412190Y-12133126D02*
X13382190Y-12163126D01*
D11*
X13711062Y-12039610D02*
X13730110Y-12039610D01*
X13730110Y-12039610D02*
X13749157Y-12049134D01*
X13749157Y-12049134D02*
X13758681Y-12058658D01*
X13758681Y-12058658D02*
X13768205Y-12077705D01*
X13768205Y-12077705D02*
X13777729Y-12115800D01*
X13777729Y-12115800D02*
X13777729Y-12163419D01*
X13777729Y-12163419D02*
X13768205Y-12201515D01*
X13768205Y-12201515D02*
X13758681Y-12220562D01*
X13758681Y-12220562D02*
X13749157Y-12230086D01*
X13749157Y-12230086D02*
X13730110Y-12239610D01*
X13730110Y-12239610D02*
X13711062Y-12239610D01*
X13711062Y-12239610D02*
X13692014Y-12230086D01*
X13692014Y-12230086D02*
X13682491Y-12220562D01*
X13682491Y-12220562D02*
X13672967Y-12201515D01*
X13672967Y-12201515D02*
X13663443Y-12163419D01*
X13663443Y-12163419D02*
X13663443Y-12115800D01*
X13663443Y-12115800D02*
X13672967Y-12077705D01*
X13672967Y-12077705D02*
X13682491Y-12058658D01*
X13682491Y-12058658D02*
X13692014Y-12049134D01*
X13692014Y-12049134D02*
X13711062Y-12039610D01*
X13863443Y-12220562D02*
X13872967Y-12230086D01*
X13872967Y-12230086D02*
X13863443Y-12239610D01*
X13863443Y-12239610D02*
X13853919Y-12230086D01*
X13853919Y-12230086D02*
X13863443Y-12220562D01*
X13863443Y-12220562D02*
X13863443Y-12239610D01*
X13939633Y-12039610D02*
X14063443Y-12039610D01*
X14063443Y-12039610D02*
X13996776Y-12115800D01*
X13996776Y-12115800D02*
X14025348Y-12115800D01*
X14025348Y-12115800D02*
X14044395Y-12125324D01*
X14044395Y-12125324D02*
X14053919Y-12134848D01*
X14053919Y-12134848D02*
X14063443Y-12153896D01*
X14063443Y-12153896D02*
X14063443Y-12201515D01*
X14063443Y-12201515D02*
X14053919Y-12220562D01*
X14053919Y-12220562D02*
X14044395Y-12230086D01*
X14044395Y-12230086D02*
X14025348Y-12239610D01*
X14025348Y-12239610D02*
X13968205Y-12239610D01*
X13968205Y-12239610D02*
X13949157Y-12230086D01*
X13949157Y-12230086D02*
X13939633Y-12220562D01*
X14187252Y-12039610D02*
X14206300Y-12039610D01*
X14206300Y-12039610D02*
X14225348Y-12049134D01*
X14225348Y-12049134D02*
X14234872Y-12058658D01*
X14234872Y-12058658D02*
X14244395Y-12077705D01*
X14244395Y-12077705D02*
X14253919Y-12115800D01*
X14253919Y-12115800D02*
X14253919Y-12163419D01*
X14253919Y-12163419D02*
X14244395Y-12201515D01*
X14244395Y-12201515D02*
X14234872Y-12220562D01*
X14234872Y-12220562D02*
X14225348Y-12230086D01*
X14225348Y-12230086D02*
X14206300Y-12239610D01*
X14206300Y-12239610D02*
X14187252Y-12239610D01*
X14187252Y-12239610D02*
X14168205Y-12230086D01*
X14168205Y-12230086D02*
X14158681Y-12220562D01*
X14158681Y-12220562D02*
X14149157Y-12201515D01*
X14149157Y-12201515D02*
X14139633Y-12163419D01*
X14139633Y-12163419D02*
X14139633Y-12115800D01*
X14139633Y-12115800D02*
X14149157Y-12077705D01*
X14149157Y-12077705D02*
X14158681Y-12058658D01*
X14158681Y-12058658D02*
X14168205Y-12049134D01*
X14168205Y-12049134D02*
X14187252Y-12039610D01*
X14377729Y-12039610D02*
X14396776Y-12039610D01*
X14396776Y-12039610D02*
X14415824Y-12049134D01*
X14415824Y-12049134D02*
X14425348Y-12058658D01*
X14425348Y-12058658D02*
X14434872Y-12077705D01*
X14434872Y-12077705D02*
X14444395Y-12115800D01*
X14444395Y-12115800D02*
X14444395Y-12163419D01*
X14444395Y-12163419D02*
X14434872Y-12201515D01*
X14434872Y-12201515D02*
X14425348Y-12220562D01*
X14425348Y-12220562D02*
X14415824Y-12230086D01*
X14415824Y-12230086D02*
X14396776Y-12239610D01*
X14396776Y-12239610D02*
X14377729Y-12239610D01*
X14377729Y-12239610D02*
X14358681Y-12230086D01*
X14358681Y-12230086D02*
X14349157Y-12220562D01*
X14349157Y-12220562D02*
X14339633Y-12201515D01*
X14339633Y-12201515D02*
X14330110Y-12163419D01*
X14330110Y-12163419D02*
X14330110Y-12115800D01*
X14330110Y-12115800D02*
X14339633Y-12077705D01*
X14339633Y-12077705D02*
X14349157Y-12058658D01*
X14349157Y-12058658D02*
X14358681Y-12049134D01*
X14358681Y-12049134D02*
X14377729Y-12039610D01*
X14530110Y-12239610D02*
X14530110Y-12106277D01*
X14530110Y-12125324D02*
X14539633Y-12115800D01*
X14539633Y-12115800D02*
X14558681Y-12106277D01*
X14558681Y-12106277D02*
X14587253Y-12106277D01*
X14587253Y-12106277D02*
X14606300Y-12115800D01*
X14606300Y-12115800D02*
X14615824Y-12134848D01*
X14615824Y-12134848D02*
X14615824Y-12239610D01*
X14615824Y-12134848D02*
X14625348Y-12115800D01*
X14625348Y-12115800D02*
X14644395Y-12106277D01*
X14644395Y-12106277D02*
X14672967Y-12106277D01*
X14672967Y-12106277D02*
X14692014Y-12115800D01*
X14692014Y-12115800D02*
X14701538Y-12134848D01*
X14701538Y-12134848D02*
X14701538Y-12239610D01*
X14796776Y-12239610D02*
X14796776Y-12106277D01*
X14796776Y-12125324D02*
X14806300Y-12115800D01*
X14806300Y-12115800D02*
X14825348Y-12106277D01*
X14825348Y-12106277D02*
X14853919Y-12106277D01*
X14853919Y-12106277D02*
X14872967Y-12115800D01*
X14872967Y-12115800D02*
X14882491Y-12134848D01*
X14882491Y-12134848D02*
X14882491Y-12239610D01*
X14882491Y-12134848D02*
X14892014Y-12115800D01*
X14892014Y-12115800D02*
X14911062Y-12106277D01*
X14911062Y-12106277D02*
X14939633Y-12106277D01*
X14939633Y-12106277D02*
X14958681Y-12115800D01*
X14958681Y-12115800D02*
X14968205Y-12134848D01*
X14968205Y-12134848D02*
X14968205Y-12239610D01*
X15358681Y-12030086D02*
X15187253Y-12287229D01*
X15615824Y-12039610D02*
X15634872Y-12039610D01*
X15634872Y-12039610D02*
X15653919Y-12049134D01*
X15653919Y-12049134D02*
X15663443Y-12058658D01*
X15663443Y-12058658D02*
X15672967Y-12077705D01*
X15672967Y-12077705D02*
X15682491Y-12115800D01*
X15682491Y-12115800D02*
X15682491Y-12163419D01*
X15682491Y-12163419D02*
X15672967Y-12201515D01*
X15672967Y-12201515D02*
X15663443Y-12220562D01*
X15663443Y-12220562D02*
X15653919Y-12230086D01*
X15653919Y-12230086D02*
X15634872Y-12239610D01*
X15634872Y-12239610D02*
X15615824Y-12239610D01*
X15615824Y-12239610D02*
X15596776Y-12230086D01*
X15596776Y-12230086D02*
X15587253Y-12220562D01*
X15587253Y-12220562D02*
X15577729Y-12201515D01*
X15577729Y-12201515D02*
X15568205Y-12163419D01*
X15568205Y-12163419D02*
X15568205Y-12115800D01*
X15568205Y-12115800D02*
X15577729Y-12077705D01*
X15577729Y-12077705D02*
X15587253Y-12058658D01*
X15587253Y-12058658D02*
X15596776Y-12049134D01*
X15596776Y-12049134D02*
X15615824Y-12039610D01*
X15768205Y-12220562D02*
X15777729Y-12230086D01*
X15777729Y-12230086D02*
X15768205Y-12239610D01*
X15768205Y-12239610D02*
X15758681Y-12230086D01*
X15758681Y-12230086D02*
X15768205Y-12220562D01*
X15768205Y-12220562D02*
X15768205Y-12239610D01*
X15901538Y-12039610D02*
X15920586Y-12039610D01*
X15920586Y-12039610D02*
X15939634Y-12049134D01*
X15939634Y-12049134D02*
X15949157Y-12058658D01*
X15949157Y-12058658D02*
X15958681Y-12077705D01*
X15958681Y-12077705D02*
X15968205Y-12115800D01*
X15968205Y-12115800D02*
X15968205Y-12163419D01*
X15968205Y-12163419D02*
X15958681Y-12201515D01*
X15958681Y-12201515D02*
X15949157Y-12220562D01*
X15949157Y-12220562D02*
X15939634Y-12230086D01*
X15939634Y-12230086D02*
X15920586Y-12239610D01*
X15920586Y-12239610D02*
X15901538Y-12239610D01*
X15901538Y-12239610D02*
X15882491Y-12230086D01*
X15882491Y-12230086D02*
X15872967Y-12220562D01*
X15872967Y-12220562D02*
X15863443Y-12201515D01*
X15863443Y-12201515D02*
X15853919Y-12163419D01*
X15853919Y-12163419D02*
X15853919Y-12115800D01*
X15853919Y-12115800D02*
X15863443Y-12077705D01*
X15863443Y-12077705D02*
X15872967Y-12058658D01*
X15872967Y-12058658D02*
X15882491Y-12049134D01*
X15882491Y-12049134D02*
X15901538Y-12039610D01*
X16158681Y-12239610D02*
X16044396Y-12239610D01*
X16101538Y-12239610D02*
X16101538Y-12039610D01*
X16101538Y-12039610D02*
X16082491Y-12068181D01*
X16082491Y-12068181D02*
X16063443Y-12087229D01*
X16063443Y-12087229D02*
X16044396Y-12096753D01*
X16349157Y-12239610D02*
X16234872Y-12239610D01*
X16292015Y-12239610D02*
X16292015Y-12039610D01*
X16292015Y-12039610D02*
X16272967Y-12068181D01*
X16272967Y-12068181D02*
X16253919Y-12087229D01*
X16253919Y-12087229D02*
X16234872Y-12096753D01*
X16463443Y-12125324D02*
X16444396Y-12115800D01*
X16444396Y-12115800D02*
X16434872Y-12106277D01*
X16434872Y-12106277D02*
X16425348Y-12087229D01*
X16425348Y-12087229D02*
X16425348Y-12077705D01*
X16425348Y-12077705D02*
X16434872Y-12058658D01*
X16434872Y-12058658D02*
X16444396Y-12049134D01*
X16444396Y-12049134D02*
X16463443Y-12039610D01*
X16463443Y-12039610D02*
X16501538Y-12039610D01*
X16501538Y-12039610D02*
X16520586Y-12049134D01*
X16520586Y-12049134D02*
X16530110Y-12058658D01*
X16530110Y-12058658D02*
X16539634Y-12077705D01*
X16539634Y-12077705D02*
X16539634Y-12087229D01*
X16539634Y-12087229D02*
X16530110Y-12106277D01*
X16530110Y-12106277D02*
X16520586Y-12115800D01*
X16520586Y-12115800D02*
X16501538Y-12125324D01*
X16501538Y-12125324D02*
X16463443Y-12125324D01*
X16463443Y-12125324D02*
X16444396Y-12134848D01*
X16444396Y-12134848D02*
X16434872Y-12144372D01*
X16434872Y-12144372D02*
X16425348Y-12163419D01*
X16425348Y-12163419D02*
X16425348Y-12201515D01*
X16425348Y-12201515D02*
X16434872Y-12220562D01*
X16434872Y-12220562D02*
X16444396Y-12230086D01*
X16444396Y-12230086D02*
X16463443Y-12239610D01*
X16463443Y-12239610D02*
X16501538Y-12239610D01*
X16501538Y-12239610D02*
X16520586Y-12230086D01*
X16520586Y-12230086D02*
X16530110Y-12220562D01*
X16530110Y-12220562D02*
X16539634Y-12201515D01*
X16539634Y-12201515D02*
X16539634Y-12163419D01*
X16539634Y-12163419D02*
X16530110Y-12144372D01*
X16530110Y-12144372D02*
X16520586Y-12134848D01*
X16520586Y-12134848D02*
X16501538Y-12125324D01*
X16615824Y-12039610D02*
X16615824Y-12077705D01*
X16692015Y-12039610D02*
X16692015Y-12077705D01*
X16987253Y-12315800D02*
X16977729Y-12306277D01*
X16977729Y-12306277D02*
X16958681Y-12277705D01*
X16958681Y-12277705D02*
X16949158Y-12258658D01*
X16949158Y-12258658D02*
X16939634Y-12230086D01*
X16939634Y-12230086D02*
X16930110Y-12182467D01*
X16930110Y-12182467D02*
X16930110Y-12144372D01*
X16930110Y-12144372D02*
X16939634Y-12096753D01*
X16939634Y-12096753D02*
X16949158Y-12068181D01*
X16949158Y-12068181D02*
X16958681Y-12049134D01*
X16958681Y-12049134D02*
X16977729Y-12020562D01*
X16977729Y-12020562D02*
X16987253Y-12011038D01*
X17149158Y-12039610D02*
X17111062Y-12039610D01*
X17111062Y-12039610D02*
X17092015Y-12049134D01*
X17092015Y-12049134D02*
X17082491Y-12058658D01*
X17082491Y-12058658D02*
X17063443Y-12087229D01*
X17063443Y-12087229D02*
X17053920Y-12125324D01*
X17053920Y-12125324D02*
X17053920Y-12201515D01*
X17053920Y-12201515D02*
X17063443Y-12220562D01*
X17063443Y-12220562D02*
X17072967Y-12230086D01*
X17072967Y-12230086D02*
X17092015Y-12239610D01*
X17092015Y-12239610D02*
X17130110Y-12239610D01*
X17130110Y-12239610D02*
X17149158Y-12230086D01*
X17149158Y-12230086D02*
X17158681Y-12220562D01*
X17158681Y-12220562D02*
X17168205Y-12201515D01*
X17168205Y-12201515D02*
X17168205Y-12153896D01*
X17168205Y-12153896D02*
X17158681Y-12134848D01*
X17158681Y-12134848D02*
X17149158Y-12125324D01*
X17149158Y-12125324D02*
X17130110Y-12115800D01*
X17130110Y-12115800D02*
X17092015Y-12115800D01*
X17092015Y-12115800D02*
X17072967Y-12125324D01*
X17072967Y-12125324D02*
X17063443Y-12134848D01*
X17063443Y-12134848D02*
X17053920Y-12153896D01*
X17339634Y-12106277D02*
X17339634Y-12239610D01*
X17292015Y-12030086D02*
X17244396Y-12172943D01*
X17244396Y-12172943D02*
X17368205Y-12172943D01*
X17596777Y-12239610D02*
X17596777Y-12039610D01*
X17682491Y-12239610D02*
X17682491Y-12134848D01*
X17682491Y-12134848D02*
X17672967Y-12115800D01*
X17672967Y-12115800D02*
X17653920Y-12106277D01*
X17653920Y-12106277D02*
X17625348Y-12106277D01*
X17625348Y-12106277D02*
X17606301Y-12115800D01*
X17606301Y-12115800D02*
X17596777Y-12125324D01*
X17806301Y-12239610D02*
X17787253Y-12230086D01*
X17787253Y-12230086D02*
X17777729Y-12220562D01*
X17777729Y-12220562D02*
X17768205Y-12201515D01*
X17768205Y-12201515D02*
X17768205Y-12144372D01*
X17768205Y-12144372D02*
X17777729Y-12125324D01*
X17777729Y-12125324D02*
X17787253Y-12115800D01*
X17787253Y-12115800D02*
X17806301Y-12106277D01*
X17806301Y-12106277D02*
X17834872Y-12106277D01*
X17834872Y-12106277D02*
X17853920Y-12115800D01*
X17853920Y-12115800D02*
X17863443Y-12125324D01*
X17863443Y-12125324D02*
X17872967Y-12144372D01*
X17872967Y-12144372D02*
X17872967Y-12201515D01*
X17872967Y-12201515D02*
X17863443Y-12220562D01*
X17863443Y-12220562D02*
X17853920Y-12230086D01*
X17853920Y-12230086D02*
X17834872Y-12239610D01*
X17834872Y-12239610D02*
X17806301Y-12239610D01*
X17987253Y-12239610D02*
X17968205Y-12230086D01*
X17968205Y-12230086D02*
X17958682Y-12211038D01*
X17958682Y-12211038D02*
X17958682Y-12039610D01*
X18139634Y-12230086D02*
X18120586Y-12239610D01*
X18120586Y-12239610D02*
X18082491Y-12239610D01*
X18082491Y-12239610D02*
X18063443Y-12230086D01*
X18063443Y-12230086D02*
X18053920Y-12211038D01*
X18053920Y-12211038D02*
X18053920Y-12134848D01*
X18053920Y-12134848D02*
X18063443Y-12115800D01*
X18063443Y-12115800D02*
X18082491Y-12106277D01*
X18082491Y-12106277D02*
X18120586Y-12106277D01*
X18120586Y-12106277D02*
X18139634Y-12115800D01*
X18139634Y-12115800D02*
X18149158Y-12134848D01*
X18149158Y-12134848D02*
X18149158Y-12153896D01*
X18149158Y-12153896D02*
X18053920Y-12172943D01*
X18225348Y-12230086D02*
X18244396Y-12239610D01*
X18244396Y-12239610D02*
X18282491Y-12239610D01*
X18282491Y-12239610D02*
X18301539Y-12230086D01*
X18301539Y-12230086D02*
X18311063Y-12211038D01*
X18311063Y-12211038D02*
X18311063Y-12201515D01*
X18311063Y-12201515D02*
X18301539Y-12182467D01*
X18301539Y-12182467D02*
X18282491Y-12172943D01*
X18282491Y-12172943D02*
X18253920Y-12172943D01*
X18253920Y-12172943D02*
X18234872Y-12163419D01*
X18234872Y-12163419D02*
X18225348Y-12144372D01*
X18225348Y-12144372D02*
X18225348Y-12134848D01*
X18225348Y-12134848D02*
X18234872Y-12115800D01*
X18234872Y-12115800D02*
X18253920Y-12106277D01*
X18253920Y-12106277D02*
X18282491Y-12106277D01*
X18282491Y-12106277D02*
X18301539Y-12115800D01*
X18377729Y-12315800D02*
X18387253Y-12306277D01*
X18387253Y-12306277D02*
X18406301Y-12277705D01*
X18406301Y-12277705D02*
X18415824Y-12258658D01*
X18415824Y-12258658D02*
X18425348Y-12230086D01*
X18425348Y-12230086D02*
X18434872Y-12182467D01*
X18434872Y-12182467D02*
X18434872Y-12144372D01*
X18434872Y-12144372D02*
X18425348Y-12096753D01*
X18425348Y-12096753D02*
X18415824Y-12068181D01*
X18415824Y-12068181D02*
X18406301Y-12049134D01*
X18406301Y-12049134D02*
X18387253Y-12020562D01*
X18387253Y-12020562D02*
X18377729Y-12011038D01*
D10*
X13412190Y-12412126D02*
G75*
G02*
X13362190Y-12412126I-25000J0D01*
G01*
X13362190Y-12412126D02*
G75*
G02*
X13412190Y-12412126I25000J0D01*
G01*
D11*
X13711062Y-12303610D02*
X13730110Y-12303610D01*
X13730110Y-12303610D02*
X13749157Y-12313134D01*
X13749157Y-12313134D02*
X13758681Y-12322658D01*
X13758681Y-12322658D02*
X13768205Y-12341705D01*
X13768205Y-12341705D02*
X13777729Y-12379800D01*
X13777729Y-12379800D02*
X13777729Y-12427419D01*
X13777729Y-12427419D02*
X13768205Y-12465515D01*
X13768205Y-12465515D02*
X13758681Y-12484562D01*
X13758681Y-12484562D02*
X13749157Y-12494086D01*
X13749157Y-12494086D02*
X13730110Y-12503610D01*
X13730110Y-12503610D02*
X13711062Y-12503610D01*
X13711062Y-12503610D02*
X13692014Y-12494086D01*
X13692014Y-12494086D02*
X13682491Y-12484562D01*
X13682491Y-12484562D02*
X13672967Y-12465515D01*
X13672967Y-12465515D02*
X13663443Y-12427419D01*
X13663443Y-12427419D02*
X13663443Y-12379800D01*
X13663443Y-12379800D02*
X13672967Y-12341705D01*
X13672967Y-12341705D02*
X13682491Y-12322658D01*
X13682491Y-12322658D02*
X13692014Y-12313134D01*
X13692014Y-12313134D02*
X13711062Y-12303610D01*
X13863443Y-12484562D02*
X13872967Y-12494086D01*
X13872967Y-12494086D02*
X13863443Y-12503610D01*
X13863443Y-12503610D02*
X13853919Y-12494086D01*
X13853919Y-12494086D02*
X13863443Y-12484562D01*
X13863443Y-12484562D02*
X13863443Y-12503610D01*
X14053919Y-12303610D02*
X13958681Y-12303610D01*
X13958681Y-12303610D02*
X13949157Y-12398848D01*
X13949157Y-12398848D02*
X13958681Y-12389324D01*
X13958681Y-12389324D02*
X13977729Y-12379800D01*
X13977729Y-12379800D02*
X14025348Y-12379800D01*
X14025348Y-12379800D02*
X14044395Y-12389324D01*
X14044395Y-12389324D02*
X14053919Y-12398848D01*
X14053919Y-12398848D02*
X14063443Y-12417896D01*
X14063443Y-12417896D02*
X14063443Y-12465515D01*
X14063443Y-12465515D02*
X14053919Y-12484562D01*
X14053919Y-12484562D02*
X14044395Y-12494086D01*
X14044395Y-12494086D02*
X14025348Y-12503610D01*
X14025348Y-12503610D02*
X13977729Y-12503610D01*
X13977729Y-12503610D02*
X13958681Y-12494086D01*
X13958681Y-12494086D02*
X13949157Y-12484562D01*
X14187252Y-12303610D02*
X14206300Y-12303610D01*
X14206300Y-12303610D02*
X14225348Y-12313134D01*
X14225348Y-12313134D02*
X14234872Y-12322658D01*
X14234872Y-12322658D02*
X14244395Y-12341705D01*
X14244395Y-12341705D02*
X14253919Y-12379800D01*
X14253919Y-12379800D02*
X14253919Y-12427419D01*
X14253919Y-12427419D02*
X14244395Y-12465515D01*
X14244395Y-12465515D02*
X14234872Y-12484562D01*
X14234872Y-12484562D02*
X14225348Y-12494086D01*
X14225348Y-12494086D02*
X14206300Y-12503610D01*
X14206300Y-12503610D02*
X14187252Y-12503610D01*
X14187252Y-12503610D02*
X14168205Y-12494086D01*
X14168205Y-12494086D02*
X14158681Y-12484562D01*
X14158681Y-12484562D02*
X14149157Y-12465515D01*
X14149157Y-12465515D02*
X14139633Y-12427419D01*
X14139633Y-12427419D02*
X14139633Y-12379800D01*
X14139633Y-12379800D02*
X14149157Y-12341705D01*
X14149157Y-12341705D02*
X14158681Y-12322658D01*
X14158681Y-12322658D02*
X14168205Y-12313134D01*
X14168205Y-12313134D02*
X14187252Y-12303610D01*
X14377729Y-12303610D02*
X14396776Y-12303610D01*
X14396776Y-12303610D02*
X14415824Y-12313134D01*
X14415824Y-12313134D02*
X14425348Y-12322658D01*
X14425348Y-12322658D02*
X14434872Y-12341705D01*
X14434872Y-12341705D02*
X14444395Y-12379800D01*
X14444395Y-12379800D02*
X14444395Y-12427419D01*
X14444395Y-12427419D02*
X14434872Y-12465515D01*
X14434872Y-12465515D02*
X14425348Y-12484562D01*
X14425348Y-12484562D02*
X14415824Y-12494086D01*
X14415824Y-12494086D02*
X14396776Y-12503610D01*
X14396776Y-12503610D02*
X14377729Y-12503610D01*
X14377729Y-12503610D02*
X14358681Y-12494086D01*
X14358681Y-12494086D02*
X14349157Y-12484562D01*
X14349157Y-12484562D02*
X14339633Y-12465515D01*
X14339633Y-12465515D02*
X14330110Y-12427419D01*
X14330110Y-12427419D02*
X14330110Y-12379800D01*
X14330110Y-12379800D02*
X14339633Y-12341705D01*
X14339633Y-12341705D02*
X14349157Y-12322658D01*
X14349157Y-12322658D02*
X14358681Y-12313134D01*
X14358681Y-12313134D02*
X14377729Y-12303610D01*
X14530110Y-12503610D02*
X14530110Y-12370277D01*
X14530110Y-12389324D02*
X14539633Y-12379800D01*
X14539633Y-12379800D02*
X14558681Y-12370277D01*
X14558681Y-12370277D02*
X14587253Y-12370277D01*
X14587253Y-12370277D02*
X14606300Y-12379800D01*
X14606300Y-12379800D02*
X14615824Y-12398848D01*
X14615824Y-12398848D02*
X14615824Y-12503610D01*
X14615824Y-12398848D02*
X14625348Y-12379800D01*
X14625348Y-12379800D02*
X14644395Y-12370277D01*
X14644395Y-12370277D02*
X14672967Y-12370277D01*
X14672967Y-12370277D02*
X14692014Y-12379800D01*
X14692014Y-12379800D02*
X14701538Y-12398848D01*
X14701538Y-12398848D02*
X14701538Y-12503610D01*
X14796776Y-12503610D02*
X14796776Y-12370277D01*
X14796776Y-12389324D02*
X14806300Y-12379800D01*
X14806300Y-12379800D02*
X14825348Y-12370277D01*
X14825348Y-12370277D02*
X14853919Y-12370277D01*
X14853919Y-12370277D02*
X14872967Y-12379800D01*
X14872967Y-12379800D02*
X14882491Y-12398848D01*
X14882491Y-12398848D02*
X14882491Y-12503610D01*
X14882491Y-12398848D02*
X14892014Y-12379800D01*
X14892014Y-12379800D02*
X14911062Y-12370277D01*
X14911062Y-12370277D02*
X14939633Y-12370277D01*
X14939633Y-12370277D02*
X14958681Y-12379800D01*
X14958681Y-12379800D02*
X14968205Y-12398848D01*
X14968205Y-12398848D02*
X14968205Y-12503610D01*
X15358681Y-12294086D02*
X15187253Y-12551229D01*
X15615824Y-12303610D02*
X15634872Y-12303610D01*
X15634872Y-12303610D02*
X15653919Y-12313134D01*
X15653919Y-12313134D02*
X15663443Y-12322658D01*
X15663443Y-12322658D02*
X15672967Y-12341705D01*
X15672967Y-12341705D02*
X15682491Y-12379800D01*
X15682491Y-12379800D02*
X15682491Y-12427419D01*
X15682491Y-12427419D02*
X15672967Y-12465515D01*
X15672967Y-12465515D02*
X15663443Y-12484562D01*
X15663443Y-12484562D02*
X15653919Y-12494086D01*
X15653919Y-12494086D02*
X15634872Y-12503610D01*
X15634872Y-12503610D02*
X15615824Y-12503610D01*
X15615824Y-12503610D02*
X15596776Y-12494086D01*
X15596776Y-12494086D02*
X15587253Y-12484562D01*
X15587253Y-12484562D02*
X15577729Y-12465515D01*
X15577729Y-12465515D02*
X15568205Y-12427419D01*
X15568205Y-12427419D02*
X15568205Y-12379800D01*
X15568205Y-12379800D02*
X15577729Y-12341705D01*
X15577729Y-12341705D02*
X15587253Y-12322658D01*
X15587253Y-12322658D02*
X15596776Y-12313134D01*
X15596776Y-12313134D02*
X15615824Y-12303610D01*
X15768205Y-12484562D02*
X15777729Y-12494086D01*
X15777729Y-12494086D02*
X15768205Y-12503610D01*
X15768205Y-12503610D02*
X15758681Y-12494086D01*
X15758681Y-12494086D02*
X15768205Y-12484562D01*
X15768205Y-12484562D02*
X15768205Y-12503610D01*
X15901538Y-12303610D02*
X15920586Y-12303610D01*
X15920586Y-12303610D02*
X15939634Y-12313134D01*
X15939634Y-12313134D02*
X15949157Y-12322658D01*
X15949157Y-12322658D02*
X15958681Y-12341705D01*
X15958681Y-12341705D02*
X15968205Y-12379800D01*
X15968205Y-12379800D02*
X15968205Y-12427419D01*
X15968205Y-12427419D02*
X15958681Y-12465515D01*
X15958681Y-12465515D02*
X15949157Y-12484562D01*
X15949157Y-12484562D02*
X15939634Y-12494086D01*
X15939634Y-12494086D02*
X15920586Y-12503610D01*
X15920586Y-12503610D02*
X15901538Y-12503610D01*
X15901538Y-12503610D02*
X15882491Y-12494086D01*
X15882491Y-12494086D02*
X15872967Y-12484562D01*
X15872967Y-12484562D02*
X15863443Y-12465515D01*
X15863443Y-12465515D02*
X15853919Y-12427419D01*
X15853919Y-12427419D02*
X15853919Y-12379800D01*
X15853919Y-12379800D02*
X15863443Y-12341705D01*
X15863443Y-12341705D02*
X15872967Y-12322658D01*
X15872967Y-12322658D02*
X15882491Y-12313134D01*
X15882491Y-12313134D02*
X15901538Y-12303610D01*
X16158681Y-12503610D02*
X16044396Y-12503610D01*
X16101538Y-12503610D02*
X16101538Y-12303610D01*
X16101538Y-12303610D02*
X16082491Y-12332181D01*
X16082491Y-12332181D02*
X16063443Y-12351229D01*
X16063443Y-12351229D02*
X16044396Y-12360753D01*
X16253919Y-12503610D02*
X16292015Y-12503610D01*
X16292015Y-12503610D02*
X16311062Y-12494086D01*
X16311062Y-12494086D02*
X16320586Y-12484562D01*
X16320586Y-12484562D02*
X16339634Y-12455991D01*
X16339634Y-12455991D02*
X16349157Y-12417896D01*
X16349157Y-12417896D02*
X16349157Y-12341705D01*
X16349157Y-12341705D02*
X16339634Y-12322658D01*
X16339634Y-12322658D02*
X16330110Y-12313134D01*
X16330110Y-12313134D02*
X16311062Y-12303610D01*
X16311062Y-12303610D02*
X16272967Y-12303610D01*
X16272967Y-12303610D02*
X16253919Y-12313134D01*
X16253919Y-12313134D02*
X16244396Y-12322658D01*
X16244396Y-12322658D02*
X16234872Y-12341705D01*
X16234872Y-12341705D02*
X16234872Y-12389324D01*
X16234872Y-12389324D02*
X16244396Y-12408372D01*
X16244396Y-12408372D02*
X16253919Y-12417896D01*
X16253919Y-12417896D02*
X16272967Y-12427419D01*
X16272967Y-12427419D02*
X16311062Y-12427419D01*
X16311062Y-12427419D02*
X16330110Y-12417896D01*
X16330110Y-12417896D02*
X16339634Y-12408372D01*
X16339634Y-12408372D02*
X16349157Y-12389324D01*
X16415824Y-12303610D02*
X16549157Y-12303610D01*
X16549157Y-12303610D02*
X16463443Y-12503610D01*
X16615824Y-12303610D02*
X16615824Y-12341705D01*
X16692015Y-12303610D02*
X16692015Y-12341705D01*
X16987253Y-12579800D02*
X16977729Y-12570277D01*
X16977729Y-12570277D02*
X16958681Y-12541705D01*
X16958681Y-12541705D02*
X16949158Y-12522658D01*
X16949158Y-12522658D02*
X16939634Y-12494086D01*
X16939634Y-12494086D02*
X16930110Y-12446467D01*
X16930110Y-12446467D02*
X16930110Y-12408372D01*
X16930110Y-12408372D02*
X16939634Y-12360753D01*
X16939634Y-12360753D02*
X16949158Y-12332181D01*
X16949158Y-12332181D02*
X16958681Y-12313134D01*
X16958681Y-12313134D02*
X16977729Y-12284562D01*
X16977729Y-12284562D02*
X16987253Y-12275038D01*
X17101539Y-12303610D02*
X17120586Y-12303610D01*
X17120586Y-12303610D02*
X17139634Y-12313134D01*
X17139634Y-12313134D02*
X17149158Y-12322658D01*
X17149158Y-12322658D02*
X17158681Y-12341705D01*
X17158681Y-12341705D02*
X17168205Y-12379800D01*
X17168205Y-12379800D02*
X17168205Y-12427419D01*
X17168205Y-12427419D02*
X17158681Y-12465515D01*
X17158681Y-12465515D02*
X17149158Y-12484562D01*
X17149158Y-12484562D02*
X17139634Y-12494086D01*
X17139634Y-12494086D02*
X17120586Y-12503610D01*
X17120586Y-12503610D02*
X17101539Y-12503610D01*
X17101539Y-12503610D02*
X17082491Y-12494086D01*
X17082491Y-12494086D02*
X17072967Y-12484562D01*
X17072967Y-12484562D02*
X17063443Y-12465515D01*
X17063443Y-12465515D02*
X17053920Y-12427419D01*
X17053920Y-12427419D02*
X17053920Y-12379800D01*
X17053920Y-12379800D02*
X17063443Y-12341705D01*
X17063443Y-12341705D02*
X17072967Y-12322658D01*
X17072967Y-12322658D02*
X17082491Y-12313134D01*
X17082491Y-12313134D02*
X17101539Y-12303610D01*
X17406301Y-12503610D02*
X17406301Y-12303610D01*
X17492015Y-12503610D02*
X17492015Y-12398848D01*
X17492015Y-12398848D02*
X17482491Y-12379800D01*
X17482491Y-12379800D02*
X17463443Y-12370277D01*
X17463443Y-12370277D02*
X17434872Y-12370277D01*
X17434872Y-12370277D02*
X17415824Y-12379800D01*
X17415824Y-12379800D02*
X17406301Y-12389324D01*
X17615824Y-12503610D02*
X17596777Y-12494086D01*
X17596777Y-12494086D02*
X17587253Y-12484562D01*
X17587253Y-12484562D02*
X17577729Y-12465515D01*
X17577729Y-12465515D02*
X17577729Y-12408372D01*
X17577729Y-12408372D02*
X17587253Y-12389324D01*
X17587253Y-12389324D02*
X17596777Y-12379800D01*
X17596777Y-12379800D02*
X17615824Y-12370277D01*
X17615824Y-12370277D02*
X17644396Y-12370277D01*
X17644396Y-12370277D02*
X17663443Y-12379800D01*
X17663443Y-12379800D02*
X17672967Y-12389324D01*
X17672967Y-12389324D02*
X17682491Y-12408372D01*
X17682491Y-12408372D02*
X17682491Y-12465515D01*
X17682491Y-12465515D02*
X17672967Y-12484562D01*
X17672967Y-12484562D02*
X17663443Y-12494086D01*
X17663443Y-12494086D02*
X17644396Y-12503610D01*
X17644396Y-12503610D02*
X17615824Y-12503610D01*
X17796777Y-12503610D02*
X17777729Y-12494086D01*
X17777729Y-12494086D02*
X17768205Y-12475038D01*
X17768205Y-12475038D02*
X17768205Y-12303610D01*
X17949158Y-12494086D02*
X17930110Y-12503610D01*
X17930110Y-12503610D02*
X17892015Y-12503610D01*
X17892015Y-12503610D02*
X17872967Y-12494086D01*
X17872967Y-12494086D02*
X17863443Y-12475038D01*
X17863443Y-12475038D02*
X17863443Y-12398848D01*
X17863443Y-12398848D02*
X17872967Y-12379800D01*
X17872967Y-12379800D02*
X17892015Y-12370277D01*
X17892015Y-12370277D02*
X17930110Y-12370277D01*
X17930110Y-12370277D02*
X17949158Y-12379800D01*
X17949158Y-12379800D02*
X17958682Y-12398848D01*
X17958682Y-12398848D02*
X17958682Y-12417896D01*
X17958682Y-12417896D02*
X17863443Y-12436943D01*
X18034872Y-12494086D02*
X18053920Y-12503610D01*
X18053920Y-12503610D02*
X18092015Y-12503610D01*
X18092015Y-12503610D02*
X18111063Y-12494086D01*
X18111063Y-12494086D02*
X18120586Y-12475038D01*
X18120586Y-12475038D02*
X18120586Y-12465515D01*
X18120586Y-12465515D02*
X18111063Y-12446467D01*
X18111063Y-12446467D02*
X18092015Y-12436943D01*
X18092015Y-12436943D02*
X18063443Y-12436943D01*
X18063443Y-12436943D02*
X18044396Y-12427419D01*
X18044396Y-12427419D02*
X18034872Y-12408372D01*
X18034872Y-12408372D02*
X18034872Y-12398848D01*
X18034872Y-12398848D02*
X18044396Y-12379800D01*
X18044396Y-12379800D02*
X18063443Y-12370277D01*
X18063443Y-12370277D02*
X18092015Y-12370277D01*
X18092015Y-12370277D02*
X18111063Y-12379800D01*
X18358682Y-12427419D02*
X18511063Y-12427419D01*
X18434872Y-12503610D02*
X18434872Y-12351229D01*
X18749158Y-12322658D02*
X18758682Y-12313134D01*
X18758682Y-12313134D02*
X18777729Y-12303610D01*
X18777729Y-12303610D02*
X18825348Y-12303610D01*
X18825348Y-12303610D02*
X18844396Y-12313134D01*
X18844396Y-12313134D02*
X18853920Y-12322658D01*
X18853920Y-12322658D02*
X18863444Y-12341705D01*
X18863444Y-12341705D02*
X18863444Y-12360753D01*
X18863444Y-12360753D02*
X18853920Y-12389324D01*
X18853920Y-12389324D02*
X18739634Y-12503610D01*
X18739634Y-12503610D02*
X18863444Y-12503610D01*
X19092015Y-12494086D02*
X19111063Y-12503610D01*
X19111063Y-12503610D02*
X19149158Y-12503610D01*
X19149158Y-12503610D02*
X19168206Y-12494086D01*
X19168206Y-12494086D02*
X19177729Y-12475038D01*
X19177729Y-12475038D02*
X19177729Y-12465515D01*
X19177729Y-12465515D02*
X19168206Y-12446467D01*
X19168206Y-12446467D02*
X19149158Y-12436943D01*
X19149158Y-12436943D02*
X19120586Y-12436943D01*
X19120586Y-12436943D02*
X19101539Y-12427419D01*
X19101539Y-12427419D02*
X19092015Y-12408372D01*
X19092015Y-12408372D02*
X19092015Y-12398848D01*
X19092015Y-12398848D02*
X19101539Y-12379800D01*
X19101539Y-12379800D02*
X19120586Y-12370277D01*
X19120586Y-12370277D02*
X19149158Y-12370277D01*
X19149158Y-12370277D02*
X19168206Y-12379800D01*
X19292015Y-12503610D02*
X19272967Y-12494086D01*
X19272967Y-12494086D02*
X19263444Y-12475038D01*
X19263444Y-12475038D02*
X19263444Y-12303610D01*
X19396777Y-12503610D02*
X19377729Y-12494086D01*
X19377729Y-12494086D02*
X19368206Y-12484562D01*
X19368206Y-12484562D02*
X19358682Y-12465515D01*
X19358682Y-12465515D02*
X19358682Y-12408372D01*
X19358682Y-12408372D02*
X19368206Y-12389324D01*
X19368206Y-12389324D02*
X19377729Y-12379800D01*
X19377729Y-12379800D02*
X19396777Y-12370277D01*
X19396777Y-12370277D02*
X19425348Y-12370277D01*
X19425348Y-12370277D02*
X19444396Y-12379800D01*
X19444396Y-12379800D02*
X19453920Y-12389324D01*
X19453920Y-12389324D02*
X19463444Y-12408372D01*
X19463444Y-12408372D02*
X19463444Y-12465515D01*
X19463444Y-12465515D02*
X19453920Y-12484562D01*
X19453920Y-12484562D02*
X19444396Y-12494086D01*
X19444396Y-12494086D02*
X19425348Y-12503610D01*
X19425348Y-12503610D02*
X19396777Y-12503610D01*
X19520587Y-12370277D02*
X19596777Y-12370277D01*
X19549158Y-12303610D02*
X19549158Y-12475038D01*
X19549158Y-12475038D02*
X19558682Y-12494086D01*
X19558682Y-12494086D02*
X19577729Y-12503610D01*
X19577729Y-12503610D02*
X19596777Y-12503610D01*
X19653920Y-12494086D02*
X19672967Y-12503610D01*
X19672967Y-12503610D02*
X19711063Y-12503610D01*
X19711063Y-12503610D02*
X19730110Y-12494086D01*
X19730110Y-12494086D02*
X19739634Y-12475038D01*
X19739634Y-12475038D02*
X19739634Y-12465515D01*
X19739634Y-12465515D02*
X19730110Y-12446467D01*
X19730110Y-12446467D02*
X19711063Y-12436943D01*
X19711063Y-12436943D02*
X19682491Y-12436943D01*
X19682491Y-12436943D02*
X19663444Y-12427419D01*
X19663444Y-12427419D02*
X19653920Y-12408372D01*
X19653920Y-12408372D02*
X19653920Y-12398848D01*
X19653920Y-12398848D02*
X19663444Y-12379800D01*
X19663444Y-12379800D02*
X19682491Y-12370277D01*
X19682491Y-12370277D02*
X19711063Y-12370277D01*
X19711063Y-12370277D02*
X19730110Y-12379800D01*
X19806301Y-12579800D02*
X19815825Y-12570277D01*
X19815825Y-12570277D02*
X19834872Y-12541705D01*
X19834872Y-12541705D02*
X19844396Y-12522658D01*
X19844396Y-12522658D02*
X19853920Y-12494086D01*
X19853920Y-12494086D02*
X19863444Y-12446467D01*
X19863444Y-12446467D02*
X19863444Y-12408372D01*
X19863444Y-12408372D02*
X19853920Y-12360753D01*
X19853920Y-12360753D02*
X19844396Y-12332181D01*
X19844396Y-12332181D02*
X19834872Y-12313134D01*
X19834872Y-12313134D02*
X19815825Y-12284562D01*
X19815825Y-12284562D02*
X19806301Y-12275038D01*
D10*
X13377190Y-12641126D02*
X13377190Y-12711126D01*
X13342190Y-12676126D02*
X13412190Y-12676126D01*
D11*
X13711062Y-12567610D02*
X13730110Y-12567610D01*
X13730110Y-12567610D02*
X13749157Y-12577134D01*
X13749157Y-12577134D02*
X13758681Y-12586658D01*
X13758681Y-12586658D02*
X13768205Y-12605705D01*
X13768205Y-12605705D02*
X13777729Y-12643800D01*
X13777729Y-12643800D02*
X13777729Y-12691419D01*
X13777729Y-12691419D02*
X13768205Y-12729515D01*
X13768205Y-12729515D02*
X13758681Y-12748562D01*
X13758681Y-12748562D02*
X13749157Y-12758086D01*
X13749157Y-12758086D02*
X13730110Y-12767610D01*
X13730110Y-12767610D02*
X13711062Y-12767610D01*
X13711062Y-12767610D02*
X13692014Y-12758086D01*
X13692014Y-12758086D02*
X13682491Y-12748562D01*
X13682491Y-12748562D02*
X13672967Y-12729515D01*
X13672967Y-12729515D02*
X13663443Y-12691419D01*
X13663443Y-12691419D02*
X13663443Y-12643800D01*
X13663443Y-12643800D02*
X13672967Y-12605705D01*
X13672967Y-12605705D02*
X13682491Y-12586658D01*
X13682491Y-12586658D02*
X13692014Y-12577134D01*
X13692014Y-12577134D02*
X13711062Y-12567610D01*
X13863443Y-12748562D02*
X13872967Y-12758086D01*
X13872967Y-12758086D02*
X13863443Y-12767610D01*
X13863443Y-12767610D02*
X13853919Y-12758086D01*
X13853919Y-12758086D02*
X13863443Y-12748562D01*
X13863443Y-12748562D02*
X13863443Y-12767610D01*
X13939633Y-12567610D02*
X14072967Y-12567610D01*
X14072967Y-12567610D02*
X13987252Y-12767610D01*
X14187252Y-12567610D02*
X14206300Y-12567610D01*
X14206300Y-12567610D02*
X14225348Y-12577134D01*
X14225348Y-12577134D02*
X14234872Y-12586658D01*
X14234872Y-12586658D02*
X14244395Y-12605705D01*
X14244395Y-12605705D02*
X14253919Y-12643800D01*
X14253919Y-12643800D02*
X14253919Y-12691419D01*
X14253919Y-12691419D02*
X14244395Y-12729515D01*
X14244395Y-12729515D02*
X14234872Y-12748562D01*
X14234872Y-12748562D02*
X14225348Y-12758086D01*
X14225348Y-12758086D02*
X14206300Y-12767610D01*
X14206300Y-12767610D02*
X14187252Y-12767610D01*
X14187252Y-12767610D02*
X14168205Y-12758086D01*
X14168205Y-12758086D02*
X14158681Y-12748562D01*
X14158681Y-12748562D02*
X14149157Y-12729515D01*
X14149157Y-12729515D02*
X14139633Y-12691419D01*
X14139633Y-12691419D02*
X14139633Y-12643800D01*
X14139633Y-12643800D02*
X14149157Y-12605705D01*
X14149157Y-12605705D02*
X14158681Y-12586658D01*
X14158681Y-12586658D02*
X14168205Y-12577134D01*
X14168205Y-12577134D02*
X14187252Y-12567610D01*
X14377729Y-12567610D02*
X14396776Y-12567610D01*
X14396776Y-12567610D02*
X14415824Y-12577134D01*
X14415824Y-12577134D02*
X14425348Y-12586658D01*
X14425348Y-12586658D02*
X14434872Y-12605705D01*
X14434872Y-12605705D02*
X14444395Y-12643800D01*
X14444395Y-12643800D02*
X14444395Y-12691419D01*
X14444395Y-12691419D02*
X14434872Y-12729515D01*
X14434872Y-12729515D02*
X14425348Y-12748562D01*
X14425348Y-12748562D02*
X14415824Y-12758086D01*
X14415824Y-12758086D02*
X14396776Y-12767610D01*
X14396776Y-12767610D02*
X14377729Y-12767610D01*
X14377729Y-12767610D02*
X14358681Y-12758086D01*
X14358681Y-12758086D02*
X14349157Y-12748562D01*
X14349157Y-12748562D02*
X14339633Y-12729515D01*
X14339633Y-12729515D02*
X14330110Y-12691419D01*
X14330110Y-12691419D02*
X14330110Y-12643800D01*
X14330110Y-12643800D02*
X14339633Y-12605705D01*
X14339633Y-12605705D02*
X14349157Y-12586658D01*
X14349157Y-12586658D02*
X14358681Y-12577134D01*
X14358681Y-12577134D02*
X14377729Y-12567610D01*
X14530110Y-12767610D02*
X14530110Y-12634277D01*
X14530110Y-12653324D02*
X14539633Y-12643800D01*
X14539633Y-12643800D02*
X14558681Y-12634277D01*
X14558681Y-12634277D02*
X14587253Y-12634277D01*
X14587253Y-12634277D02*
X14606300Y-12643800D01*
X14606300Y-12643800D02*
X14615824Y-12662848D01*
X14615824Y-12662848D02*
X14615824Y-12767610D01*
X14615824Y-12662848D02*
X14625348Y-12643800D01*
X14625348Y-12643800D02*
X14644395Y-12634277D01*
X14644395Y-12634277D02*
X14672967Y-12634277D01*
X14672967Y-12634277D02*
X14692014Y-12643800D01*
X14692014Y-12643800D02*
X14701538Y-12662848D01*
X14701538Y-12662848D02*
X14701538Y-12767610D01*
X14796776Y-12767610D02*
X14796776Y-12634277D01*
X14796776Y-12653324D02*
X14806300Y-12643800D01*
X14806300Y-12643800D02*
X14825348Y-12634277D01*
X14825348Y-12634277D02*
X14853919Y-12634277D01*
X14853919Y-12634277D02*
X14872967Y-12643800D01*
X14872967Y-12643800D02*
X14882491Y-12662848D01*
X14882491Y-12662848D02*
X14882491Y-12767610D01*
X14882491Y-12662848D02*
X14892014Y-12643800D01*
X14892014Y-12643800D02*
X14911062Y-12634277D01*
X14911062Y-12634277D02*
X14939633Y-12634277D01*
X14939633Y-12634277D02*
X14958681Y-12643800D01*
X14958681Y-12643800D02*
X14968205Y-12662848D01*
X14968205Y-12662848D02*
X14968205Y-12767610D01*
X15358681Y-12558086D02*
X15187253Y-12815229D01*
X15615824Y-12567610D02*
X15634872Y-12567610D01*
X15634872Y-12567610D02*
X15653919Y-12577134D01*
X15653919Y-12577134D02*
X15663443Y-12586658D01*
X15663443Y-12586658D02*
X15672967Y-12605705D01*
X15672967Y-12605705D02*
X15682491Y-12643800D01*
X15682491Y-12643800D02*
X15682491Y-12691419D01*
X15682491Y-12691419D02*
X15672967Y-12729515D01*
X15672967Y-12729515D02*
X15663443Y-12748562D01*
X15663443Y-12748562D02*
X15653919Y-12758086D01*
X15653919Y-12758086D02*
X15634872Y-12767610D01*
X15634872Y-12767610D02*
X15615824Y-12767610D01*
X15615824Y-12767610D02*
X15596776Y-12758086D01*
X15596776Y-12758086D02*
X15587253Y-12748562D01*
X15587253Y-12748562D02*
X15577729Y-12729515D01*
X15577729Y-12729515D02*
X15568205Y-12691419D01*
X15568205Y-12691419D02*
X15568205Y-12643800D01*
X15568205Y-12643800D02*
X15577729Y-12605705D01*
X15577729Y-12605705D02*
X15587253Y-12586658D01*
X15587253Y-12586658D02*
X15596776Y-12577134D01*
X15596776Y-12577134D02*
X15615824Y-12567610D01*
X15768205Y-12748562D02*
X15777729Y-12758086D01*
X15777729Y-12758086D02*
X15768205Y-12767610D01*
X15768205Y-12767610D02*
X15758681Y-12758086D01*
X15758681Y-12758086D02*
X15768205Y-12748562D01*
X15768205Y-12748562D02*
X15768205Y-12767610D01*
X15901538Y-12567610D02*
X15920586Y-12567610D01*
X15920586Y-12567610D02*
X15939634Y-12577134D01*
X15939634Y-12577134D02*
X15949157Y-12586658D01*
X15949157Y-12586658D02*
X15958681Y-12605705D01*
X15958681Y-12605705D02*
X15968205Y-12643800D01*
X15968205Y-12643800D02*
X15968205Y-12691419D01*
X15968205Y-12691419D02*
X15958681Y-12729515D01*
X15958681Y-12729515D02*
X15949157Y-12748562D01*
X15949157Y-12748562D02*
X15939634Y-12758086D01*
X15939634Y-12758086D02*
X15920586Y-12767610D01*
X15920586Y-12767610D02*
X15901538Y-12767610D01*
X15901538Y-12767610D02*
X15882491Y-12758086D01*
X15882491Y-12758086D02*
X15872967Y-12748562D01*
X15872967Y-12748562D02*
X15863443Y-12729515D01*
X15863443Y-12729515D02*
X15853919Y-12691419D01*
X15853919Y-12691419D02*
X15853919Y-12643800D01*
X15853919Y-12643800D02*
X15863443Y-12605705D01*
X15863443Y-12605705D02*
X15872967Y-12586658D01*
X15872967Y-12586658D02*
X15882491Y-12577134D01*
X15882491Y-12577134D02*
X15901538Y-12567610D01*
X16044396Y-12586658D02*
X16053919Y-12577134D01*
X16053919Y-12577134D02*
X16072967Y-12567610D01*
X16072967Y-12567610D02*
X16120586Y-12567610D01*
X16120586Y-12567610D02*
X16139634Y-12577134D01*
X16139634Y-12577134D02*
X16149157Y-12586658D01*
X16149157Y-12586658D02*
X16158681Y-12605705D01*
X16158681Y-12605705D02*
X16158681Y-12624753D01*
X16158681Y-12624753D02*
X16149157Y-12653324D01*
X16149157Y-12653324D02*
X16034872Y-12767610D01*
X16034872Y-12767610D02*
X16158681Y-12767610D01*
X16225348Y-12567610D02*
X16358681Y-12567610D01*
X16358681Y-12567610D02*
X16272967Y-12767610D01*
X16520586Y-12567610D02*
X16482491Y-12567610D01*
X16482491Y-12567610D02*
X16463443Y-12577134D01*
X16463443Y-12577134D02*
X16453919Y-12586658D01*
X16453919Y-12586658D02*
X16434872Y-12615229D01*
X16434872Y-12615229D02*
X16425348Y-12653324D01*
X16425348Y-12653324D02*
X16425348Y-12729515D01*
X16425348Y-12729515D02*
X16434872Y-12748562D01*
X16434872Y-12748562D02*
X16444396Y-12758086D01*
X16444396Y-12758086D02*
X16463443Y-12767610D01*
X16463443Y-12767610D02*
X16501538Y-12767610D01*
X16501538Y-12767610D02*
X16520586Y-12758086D01*
X16520586Y-12758086D02*
X16530110Y-12748562D01*
X16530110Y-12748562D02*
X16539634Y-12729515D01*
X16539634Y-12729515D02*
X16539634Y-12681896D01*
X16539634Y-12681896D02*
X16530110Y-12662848D01*
X16530110Y-12662848D02*
X16520586Y-12653324D01*
X16520586Y-12653324D02*
X16501538Y-12643800D01*
X16501538Y-12643800D02*
X16463443Y-12643800D01*
X16463443Y-12643800D02*
X16444396Y-12653324D01*
X16444396Y-12653324D02*
X16434872Y-12662848D01*
X16434872Y-12662848D02*
X16425348Y-12681896D01*
X16615824Y-12567610D02*
X16615824Y-12605705D01*
X16692015Y-12567610D02*
X16692015Y-12605705D01*
X16987253Y-12843800D02*
X16977729Y-12834277D01*
X16977729Y-12834277D02*
X16958681Y-12805705D01*
X16958681Y-12805705D02*
X16949158Y-12786658D01*
X16949158Y-12786658D02*
X16939634Y-12758086D01*
X16939634Y-12758086D02*
X16930110Y-12710467D01*
X16930110Y-12710467D02*
X16930110Y-12672372D01*
X16930110Y-12672372D02*
X16939634Y-12624753D01*
X16939634Y-12624753D02*
X16949158Y-12596181D01*
X16949158Y-12596181D02*
X16958681Y-12577134D01*
X16958681Y-12577134D02*
X16977729Y-12548562D01*
X16977729Y-12548562D02*
X16987253Y-12539038D01*
X17149158Y-12634277D02*
X17149158Y-12767610D01*
X17101539Y-12558086D02*
X17053920Y-12700943D01*
X17053920Y-12700943D02*
X17177729Y-12700943D01*
X17406301Y-12767610D02*
X17406301Y-12567610D01*
X17492015Y-12767610D02*
X17492015Y-12662848D01*
X17492015Y-12662848D02*
X17482491Y-12643800D01*
X17482491Y-12643800D02*
X17463443Y-12634277D01*
X17463443Y-12634277D02*
X17434872Y-12634277D01*
X17434872Y-12634277D02*
X17415824Y-12643800D01*
X17415824Y-12643800D02*
X17406301Y-12653324D01*
X17615824Y-12767610D02*
X17596777Y-12758086D01*
X17596777Y-12758086D02*
X17587253Y-12748562D01*
X17587253Y-12748562D02*
X17577729Y-12729515D01*
X17577729Y-12729515D02*
X17577729Y-12672372D01*
X17577729Y-12672372D02*
X17587253Y-12653324D01*
X17587253Y-12653324D02*
X17596777Y-12643800D01*
X17596777Y-12643800D02*
X17615824Y-12634277D01*
X17615824Y-12634277D02*
X17644396Y-12634277D01*
X17644396Y-12634277D02*
X17663443Y-12643800D01*
X17663443Y-12643800D02*
X17672967Y-12653324D01*
X17672967Y-12653324D02*
X17682491Y-12672372D01*
X17682491Y-12672372D02*
X17682491Y-12729515D01*
X17682491Y-12729515D02*
X17672967Y-12748562D01*
X17672967Y-12748562D02*
X17663443Y-12758086D01*
X17663443Y-12758086D02*
X17644396Y-12767610D01*
X17644396Y-12767610D02*
X17615824Y-12767610D01*
X17796777Y-12767610D02*
X17777729Y-12758086D01*
X17777729Y-12758086D02*
X17768205Y-12739038D01*
X17768205Y-12739038D02*
X17768205Y-12567610D01*
X17949158Y-12758086D02*
X17930110Y-12767610D01*
X17930110Y-12767610D02*
X17892015Y-12767610D01*
X17892015Y-12767610D02*
X17872967Y-12758086D01*
X17872967Y-12758086D02*
X17863443Y-12739038D01*
X17863443Y-12739038D02*
X17863443Y-12662848D01*
X17863443Y-12662848D02*
X17872967Y-12643800D01*
X17872967Y-12643800D02*
X17892015Y-12634277D01*
X17892015Y-12634277D02*
X17930110Y-12634277D01*
X17930110Y-12634277D02*
X17949158Y-12643800D01*
X17949158Y-12643800D02*
X17958682Y-12662848D01*
X17958682Y-12662848D02*
X17958682Y-12681896D01*
X17958682Y-12681896D02*
X17863443Y-12700943D01*
X18034872Y-12758086D02*
X18053920Y-12767610D01*
X18053920Y-12767610D02*
X18092015Y-12767610D01*
X18092015Y-12767610D02*
X18111063Y-12758086D01*
X18111063Y-12758086D02*
X18120586Y-12739038D01*
X18120586Y-12739038D02*
X18120586Y-12729515D01*
X18120586Y-12729515D02*
X18111063Y-12710467D01*
X18111063Y-12710467D02*
X18092015Y-12700943D01*
X18092015Y-12700943D02*
X18063443Y-12700943D01*
X18063443Y-12700943D02*
X18044396Y-12691419D01*
X18044396Y-12691419D02*
X18034872Y-12672372D01*
X18034872Y-12672372D02*
X18034872Y-12662848D01*
X18034872Y-12662848D02*
X18044396Y-12643800D01*
X18044396Y-12643800D02*
X18063443Y-12634277D01*
X18063443Y-12634277D02*
X18092015Y-12634277D01*
X18092015Y-12634277D02*
X18111063Y-12643800D01*
X18187253Y-12843800D02*
X18196777Y-12834277D01*
X18196777Y-12834277D02*
X18215824Y-12805705D01*
X18215824Y-12805705D02*
X18225348Y-12786658D01*
X18225348Y-12786658D02*
X18234872Y-12758086D01*
X18234872Y-12758086D02*
X18244396Y-12710467D01*
X18244396Y-12710467D02*
X18244396Y-12672372D01*
X18244396Y-12672372D02*
X18234872Y-12624753D01*
X18234872Y-12624753D02*
X18225348Y-12596181D01*
X18225348Y-12596181D02*
X18215824Y-12577134D01*
X18215824Y-12577134D02*
X18196777Y-12548562D01*
X18196777Y-12548562D02*
X18187253Y-12539038D01*
M02*
