G04 #@! TF.GenerationSoftware,KiCad,Pcbnew,8.0.4*
G04 #@! TF.CreationDate,2025-02-17T15:20:16+00:00*
G04 #@! TF.ProjectId,miniCO2,6d696e69-434f-4322-9e6b-696361645f70,rev?*
G04 #@! TF.SameCoordinates,Original*
G04 #@! TF.FileFunction,Paste,Top*
G04 #@! TF.FilePolarity,Positive*
%FSLAX46Y46*%
G04 Gerber Fmt 4.6, Leading zero omitted, Abs format (unit mm)*
G04 Created by KiCad (PCBNEW 8.0.4) date 2025-02-17 15:20:16*
%MOMM*%
%LPD*%
G01*
G04 APERTURE LIST*
G04 Aperture macros list*
%AMRoundRect*
0 Rectangle with rounded corners*
0 $1 Rounding radius*
0 $2 $3 $4 $5 $6 $7 $8 $9 X,Y pos of 4 corners*
0 Add a 4 corners polygon primitive as box body*
4,1,4,$2,$3,$4,$5,$6,$7,$8,$9,$2,$3,0*
0 Add four circle primitives for the rounded corners*
1,1,$1+$1,$2,$3*
1,1,$1+$1,$4,$5*
1,1,$1+$1,$6,$7*
1,1,$1+$1,$8,$9*
0 Add four rect primitives between the rounded corners*
20,1,$1+$1,$2,$3,$4,$5,0*
20,1,$1+$1,$4,$5,$6,$7,0*
20,1,$1+$1,$6,$7,$8,$9,0*
20,1,$1+$1,$8,$9,$2,$3,0*%
%AMFreePoly0*
4,1,6,0.725000,-0.725000,-0.725000,-0.725000,-0.725000,0.125000,-0.125000,0.725000,0.725000,0.725000,0.725000,-0.725000,0.725000,-0.725000,$1*%
G04 Aperture macros list end*
%ADD10RoundRect,0.375000X-0.375000X-1.125000X0.375000X-1.125000X0.375000X1.125000X-0.375000X1.125000X0*%
%ADD11RoundRect,0.075000X0.425000X-0.075000X0.425000X0.075000X-0.425000X0.075000X-0.425000X-0.075000X0*%
%ADD12C,1.100000*%
%ADD13C,0.250000*%
%ADD14RoundRect,0.079500X0.100500X-0.079500X0.100500X0.079500X-0.100500X0.079500X-0.100500X-0.079500X0*%
%ADD15RoundRect,0.079500X-0.100500X0.079500X-0.100500X-0.079500X0.100500X-0.079500X0.100500X0.079500X0*%
%ADD16RoundRect,0.147500X-0.172500X0.147500X-0.172500X-0.147500X0.172500X-0.147500X0.172500X0.147500X0*%
%ADD17RoundRect,0.250001X-0.714999X-0.714999X0.714999X-0.714999X0.714999X0.714999X-0.714999X0.714999X0*%
%ADD18RoundRect,0.212500X-0.737500X-0.212500X0.737500X-0.212500X0.737500X0.212500X-0.737500X0.212500X0*%
%ADD19RoundRect,0.212500X-0.212500X-0.737500X0.212500X-0.737500X0.212500X0.737500X-0.212500X0.737500X0*%
%ADD20RoundRect,0.147500X-0.147500X-0.172500X0.147500X-0.172500X0.147500X0.172500X-0.147500X0.172500X0*%
%ADD21R,0.700000X1.100000*%
%ADD22R,1.090000X0.800000*%
%ADD23R,1.600000X0.900000*%
%ADD24R,0.700000X0.700000*%
%ADD25R,1.450000X1.450000*%
%ADD26FreePoly0,180.000000*%
%ADD27R,0.400000X0.800000*%
%ADD28R,0.800000X0.400000*%
G04 APERTURE END LIST*
D10*
X147621900Y-84631262D03*
D11*
X140661900Y-101361262D03*
X140661900Y-100571262D03*
X140661900Y-99781262D03*
X140661900Y-98991262D03*
X140661900Y-98201262D03*
X140661900Y-97411262D03*
X140661900Y-96621262D03*
X140661900Y-95831262D03*
X142181900Y-95831262D03*
X142181900Y-96621262D03*
X142181900Y-97411262D03*
X142181900Y-98201262D03*
X142181900Y-98991262D03*
X142181900Y-99781262D03*
X142181900Y-100571262D03*
X142181900Y-101361262D03*
D12*
X139271900Y-100981262D03*
X143571900Y-100981262D03*
X139271900Y-96181262D03*
X143571900Y-96181262D03*
D13*
X147671900Y-102926262D03*
X146671900Y-102926262D03*
X146671900Y-103336262D03*
X147671900Y-103336262D03*
D14*
X136021900Y-103276262D03*
X136021900Y-102586262D03*
D10*
X135221900Y-84631262D03*
D14*
X135321900Y-103276262D03*
X135321900Y-102586262D03*
D15*
X135221900Y-90686262D03*
X135221900Y-91376262D03*
D16*
X135221900Y-88846262D03*
X135221900Y-89816262D03*
D17*
X140221900Y-86981262D03*
X140221900Y-89381262D03*
X142621900Y-86981262D03*
X142621900Y-89381262D03*
D18*
X137271900Y-85681262D03*
X137271900Y-86931262D03*
X137271900Y-88181262D03*
X137271900Y-89431262D03*
X137271900Y-90681262D03*
D19*
X138921900Y-92331262D03*
X140171900Y-92331262D03*
X141421900Y-92331262D03*
X142671900Y-92331262D03*
X143921900Y-92331262D03*
D18*
X145571900Y-90681262D03*
X145571900Y-89431262D03*
X145571900Y-88181262D03*
X145571900Y-86931262D03*
X145571900Y-85681262D03*
D19*
X143921900Y-84031262D03*
X142671900Y-84031262D03*
X141421900Y-84031262D03*
X140171900Y-84031262D03*
X138921900Y-84031262D03*
D14*
X137521900Y-103276262D03*
X137521900Y-102586262D03*
D20*
X134881900Y-101731262D03*
X135851900Y-101731262D03*
D14*
X138221900Y-103276262D03*
X138221900Y-102586262D03*
D21*
X135311900Y-100481262D03*
X135311900Y-96681262D03*
D22*
X137576900Y-99781262D03*
X137571900Y-97381262D03*
D23*
X137321900Y-98581262D03*
D24*
X147371900Y-114381262D03*
X147371900Y-104481262D03*
X135471900Y-104481262D03*
X135471900Y-114381262D03*
D25*
X139446900Y-107456262D03*
X139446900Y-109431262D03*
X139446900Y-111406262D03*
X141421900Y-107456262D03*
X141421900Y-109431262D03*
X141421900Y-111406262D03*
X143396900Y-107456262D03*
X143396900Y-109431262D03*
D26*
X143396900Y-111406262D03*
D27*
X146221900Y-114331262D03*
X145421900Y-114331262D03*
X144621900Y-114331262D03*
X143821900Y-114331262D03*
X143021900Y-114331262D03*
X142221900Y-114331262D03*
X141421900Y-114331262D03*
X140621900Y-114331262D03*
X139821900Y-114331262D03*
X139021900Y-114331262D03*
X138221900Y-114331262D03*
X137421900Y-114331262D03*
X136621900Y-114331262D03*
D28*
X135521900Y-113431262D03*
X135521900Y-112631262D03*
X135521900Y-111831262D03*
X135521900Y-111031262D03*
X135521900Y-110231262D03*
X135521900Y-109431262D03*
X135521900Y-108631262D03*
X135521900Y-107831262D03*
X135521900Y-107031262D03*
X135521900Y-106231262D03*
X135521900Y-105431262D03*
D27*
X136621900Y-104531262D03*
X137421900Y-104531262D03*
X138221900Y-104531262D03*
X139021900Y-104531262D03*
X139821900Y-104531262D03*
X140621900Y-104531262D03*
X141421900Y-104531262D03*
X142221900Y-104531262D03*
X143021900Y-104531262D03*
X143821900Y-104531262D03*
X144621900Y-104531262D03*
X145421900Y-104531262D03*
X146221900Y-104531262D03*
D28*
X147321900Y-105431262D03*
X147321900Y-106231262D03*
X147321900Y-107031262D03*
X147321900Y-107831262D03*
X147321900Y-108631262D03*
X147321900Y-109431262D03*
X147321900Y-110231262D03*
X147321900Y-111031262D03*
X147321900Y-111831262D03*
X147321900Y-112631262D03*
X147321900Y-113431262D03*
D15*
X136821900Y-102376262D03*
X136821900Y-101686262D03*
M02*
