M48
; DRILL file {KiCad 8.0.4} date 2025-02-17T15:20:59+0000
; FORMAT={-:-/ absolute / metric / decimal}
; #@! TF.CreationDate,2025-02-17T15:20:59+00:00
; #@! TF.GenerationSoftware,Kicad,Pcbnew,8.0.4
; #@! TF.FileFunction,Plated,1,4,PTH
FMAT,2
METRIC
; #@! TA.AperFunction,Plated,PTH,ViaDrill
T1C0.300
; #@! TA.AperFunction,Plated,PTH,ComponentDrill
T2C0.500
; #@! TA.AperFunction,Plated,PTH,ComponentDrill
T3C0.700
%
G90
G05
T1
X135.222Y-91.351
X135.522Y-85.081
X135.522Y-85.631
X135.522Y-106.231
X135.522Y-107.031
X135.834Y-87.894
X135.872Y-88.831
X136.112Y-103.341
X136.222Y-102.611
X136.272Y-110.631
X136.822Y-103.131
X136.872Y-83.531
X136.972Y-107.081
X137.022Y-91.931
X138.072Y-110.181
X138.222Y-104.131
X139.242Y-103.231
X139.292Y-105.521
X139.847Y-106.006
X140.122Y-84.031
X140.222Y-109.331
X140.522Y-105.531
X140.622Y-110.431
X140.672Y-114.256
X140.922Y-98.986
X140.922Y-99.781
X141.022Y-103.231
X141.322Y-85.881
X141.322Y-87.781
X141.422Y-100.571
X141.472Y-96.931
X141.672Y-90.131
X142.182Y-97.411
X142.182Y-98.206
X142.182Y-98.991
X142.422Y-91.631
X142.622Y-113.531
X143.022Y-104.531
X143.522Y-92.531
X143.822Y-104.531
X144.122Y-100.106
X144.322Y-87.531
X144.822Y-84.831
X145.022Y-106.331
X145.322Y-112.331
X145.422Y-91.681
X145.422Y-92.381
X145.622Y-113.531
X146.172Y-94.581
X146.242Y-110.981
X146.347Y-82.401
X146.372Y-109.431
X146.372Y-110.231
X146.422Y-107.031
X146.422Y-108.631
X146.672Y-102.081
X147.022Y-94.581
X147.128Y-83.301
X147.322Y-107.831
X147.322Y-111.631
X147.372Y-100.581
X147.422Y-104.531
X147.656Y-83.29
X148.222Y-87.631
T3
X139.272Y-96.181
X139.272Y-100.981
X143.572Y-96.181
X143.572Y-100.981
T2
X136.322Y-96.431G85X136.722Y-96.431
G05
X136.322Y-100.731G85X136.722Y-100.731
G05
M30
