G04 #@! TF.GenerationSoftware,KiCad,Pcbnew,8.0.4*
G04 #@! TF.CreationDate,2025-02-17T15:20:16+00:00*
G04 #@! TF.ProjectId,miniCO2,6d696e69-434f-4322-9e6b-696361645f70,rev?*
G04 #@! TF.SameCoordinates,Original*
G04 #@! TF.FileFunction,Legend,Bot*
G04 #@! TF.FilePolarity,Positive*
%FSLAX46Y46*%
G04 Gerber Fmt 4.6, Leading zero omitted, Abs format (unit mm)*
G04 Created by KiCad (PCBNEW 8.0.4) date 2025-02-17 15:20:16*
%MOMM*%
%LPD*%
G01*
G04 APERTURE LIST*
G04 Aperture macros list*
%AMRoundRect*
0 Rectangle with rounded corners*
0 $1 Rounding radius*
0 $2 $3 $4 $5 $6 $7 $8 $9 X,Y pos of 4 corners*
0 Add a 4 corners polygon primitive as box body*
4,1,4,$2,$3,$4,$5,$6,$7,$8,$9,$2,$3,0*
0 Add four circle primitives for the rounded corners*
1,1,$1+$1,$2,$3*
1,1,$1+$1,$4,$5*
1,1,$1+$1,$6,$7*
1,1,$1+$1,$8,$9*
0 Add four rect primitives between the rounded corners*
20,1,$1+$1,$2,$3,$4,$5,0*
20,1,$1+$1,$4,$5,$6,$7,0*
20,1,$1+$1,$6,$7,$8,$9,0*
20,1,$1+$1,$8,$9,$2,$3,0*%
G04 Aperture macros list end*
%ADD10C,0.150000*%
%ADD11C,0.100000*%
%ADD12C,0.120000*%
%ADD13C,0.660000*%
%ADD14O,0.580000X1.000000*%
%ADD15C,1.100000*%
%ADD16O,1.200000X0.800000*%
%ADD17RoundRect,0.100000X-0.130000X-0.100000X0.130000X-0.100000X0.130000X0.100000X-0.130000X0.100000X0*%
%ADD18RoundRect,0.062500X-0.127279X0.038891X0.038891X-0.127279X0.127279X-0.038891X-0.038891X0.127279X0*%
%ADD19RoundRect,0.062500X0.062500X-0.117500X0.062500X0.117500X-0.062500X0.117500X-0.062500X-0.117500X0*%
%ADD20R,0.800000X2.700000*%
%ADD21C,0.900000*%
%ADD22R,0.700000X1.500000*%
%ADD23RoundRect,0.100000X0.100000X-0.225000X0.100000X0.225000X-0.100000X0.225000X-0.100000X-0.225000X0*%
%ADD24RoundRect,0.100000X-0.100000X0.130000X-0.100000X-0.130000X0.100000X-0.130000X0.100000X0.130000X0*%
%ADD25RoundRect,0.100000X0.162635X-0.021213X-0.021213X0.162635X-0.162635X0.021213X0.021213X-0.162635X0*%
%ADD26R,0.600000X0.460000*%
%ADD27R,0.600000X0.575000*%
%ADD28RoundRect,0.147500X-0.147500X-0.172500X0.147500X-0.172500X0.147500X0.172500X-0.147500X0.172500X0*%
%ADD29RoundRect,0.250000X-0.250000X-0.475000X0.250000X-0.475000X0.250000X0.475000X-0.250000X0.475000X0*%
%ADD30R,1.020000X1.780000*%
%ADD31RoundRect,0.225000X-0.250000X0.225000X-0.250000X-0.225000X0.250000X-0.225000X0.250000X0.225000X0*%
%ADD32RoundRect,0.250000X-0.475000X0.250000X-0.475000X-0.250000X0.475000X-0.250000X0.475000X0.250000X0*%
%ADD33RoundRect,0.225000X-0.225000X-0.250000X0.225000X-0.250000X0.225000X0.250000X-0.225000X0.250000X0*%
%ADD34RoundRect,0.100000X0.130000X0.100000X-0.130000X0.100000X-0.130000X-0.100000X0.130000X-0.100000X0*%
%ADD35R,0.460000X0.600000*%
%ADD36R,0.575000X0.600000*%
%ADD37RoundRect,0.135000X-0.135000X-0.185000X0.135000X-0.185000X0.135000X0.185000X-0.135000X0.185000X0*%
%ADD38RoundRect,0.250000X0.475000X-0.250000X0.475000X0.250000X-0.475000X0.250000X-0.475000X-0.250000X0*%
%ADD39RoundRect,0.225000X0.225000X0.250000X-0.225000X0.250000X-0.225000X-0.250000X0.225000X-0.250000X0*%
%ADD40RoundRect,0.150000X0.587500X0.150000X-0.587500X0.150000X-0.587500X-0.150000X0.587500X-0.150000X0*%
%ADD41R,0.400000X1.150000*%
%ADD42RoundRect,0.062500X-0.062500X0.187500X-0.062500X-0.187500X0.062500X-0.187500X0.062500X0.187500X0*%
%ADD43R,1.600000X0.900000*%
%ADD44RoundRect,0.112500X-0.237500X0.112500X-0.237500X-0.112500X0.237500X-0.112500X0.237500X0.112500X0*%
%ADD45RoundRect,0.150000X-0.512500X-0.150000X0.512500X-0.150000X0.512500X0.150000X-0.512500X0.150000X0*%
%ADD46RoundRect,0.250000X0.250000X0.475000X-0.250000X0.475000X-0.250000X-0.475000X0.250000X-0.475000X0*%
%ADD47RoundRect,0.140000X0.170000X-0.140000X0.170000X0.140000X-0.170000X0.140000X-0.170000X-0.140000X0*%
G04 APERTURE END LIST*
D10*
X138346900Y-97781262D02*
X142221900Y-97781262D01*
X136171900Y-106431262D02*
X136659400Y-106656262D01*
X139071900Y-108493762D02*
X142446900Y-108506262D01*
X142901900Y-91531262D02*
X142896900Y-94381262D01*
X137046900Y-102781262D02*
X138791900Y-104051262D01*
X139721900Y-98331262D02*
X143046900Y-98331262D01*
X136146900Y-107706262D02*
X137046900Y-107843762D01*
X136896900Y-97431262D02*
X141471900Y-97441262D01*
X135427604Y-100313530D02*
X134856176Y-100313530D01*
X134856176Y-100313530D02*
X134741890Y-100351625D01*
X134741890Y-100351625D02*
X134665700Y-100427816D01*
X134665700Y-100427816D02*
X134627604Y-100542101D01*
X134627604Y-100542101D02*
X134627604Y-100618292D01*
X134627604Y-99551625D02*
X134627604Y-99932577D01*
X134627604Y-99932577D02*
X135427604Y-99932577D01*
X134703795Y-98827815D02*
X134665700Y-98865911D01*
X134665700Y-98865911D02*
X134627604Y-98980196D01*
X134627604Y-98980196D02*
X134627604Y-99056387D01*
X134627604Y-99056387D02*
X134665700Y-99170673D01*
X134665700Y-99170673D02*
X134741890Y-99246863D01*
X134741890Y-99246863D02*
X134818080Y-99284958D01*
X134818080Y-99284958D02*
X134970461Y-99323054D01*
X134970461Y-99323054D02*
X135084747Y-99323054D01*
X135084747Y-99323054D02*
X135237128Y-99284958D01*
X135237128Y-99284958D02*
X135313319Y-99246863D01*
X135313319Y-99246863D02*
X135389509Y-99170673D01*
X135389509Y-99170673D02*
X135427604Y-99056387D01*
X135427604Y-99056387D02*
X135427604Y-98980196D01*
X135427604Y-98980196D02*
X135389509Y-98865911D01*
X135389509Y-98865911D02*
X135351414Y-98827815D01*
X135427604Y-98256387D02*
X134856176Y-98256387D01*
X134856176Y-98256387D02*
X134741890Y-98294482D01*
X134741890Y-98294482D02*
X134665700Y-98370673D01*
X134665700Y-98370673D02*
X134627604Y-98484958D01*
X134627604Y-98484958D02*
X134627604Y-98561149D01*
X134627604Y-97494482D02*
X134627604Y-97875434D01*
X134627604Y-97875434D02*
X135427604Y-97875434D01*
X134703795Y-96770672D02*
X134665700Y-96808768D01*
X134665700Y-96808768D02*
X134627604Y-96923053D01*
X134627604Y-96923053D02*
X134627604Y-96999244D01*
X134627604Y-96999244D02*
X134665700Y-97113530D01*
X134665700Y-97113530D02*
X134741890Y-97189720D01*
X134741890Y-97189720D02*
X134818080Y-97227815D01*
X134818080Y-97227815D02*
X134970461Y-97265911D01*
X134970461Y-97265911D02*
X135084747Y-97265911D01*
X135084747Y-97265911D02*
X135237128Y-97227815D01*
X135237128Y-97227815D02*
X135313319Y-97189720D01*
X135313319Y-97189720D02*
X135389509Y-97113530D01*
X135389509Y-97113530D02*
X135427604Y-96999244D01*
X135427604Y-96999244D02*
X135427604Y-96923053D01*
X135427604Y-96923053D02*
X135389509Y-96808768D01*
X135389509Y-96808768D02*
X135351414Y-96770672D01*
X135427604Y-96199244D02*
X134856176Y-96199244D01*
X134856176Y-96199244D02*
X134741890Y-96237339D01*
X134741890Y-96237339D02*
X134665700Y-96313530D01*
X134665700Y-96313530D02*
X134627604Y-96427815D01*
X134627604Y-96427815D02*
X134627604Y-96504006D01*
X134627604Y-95437339D02*
X134627604Y-95818291D01*
X134627604Y-95818291D02*
X135427604Y-95818291D01*
X134703795Y-94713529D02*
X134665700Y-94751625D01*
X134665700Y-94751625D02*
X134627604Y-94865910D01*
X134627604Y-94865910D02*
X134627604Y-94942101D01*
X134627604Y-94942101D02*
X134665700Y-95056387D01*
X134665700Y-95056387D02*
X134741890Y-95132577D01*
X134741890Y-95132577D02*
X134818080Y-95170672D01*
X134818080Y-95170672D02*
X134970461Y-95208768D01*
X134970461Y-95208768D02*
X135084747Y-95208768D01*
X135084747Y-95208768D02*
X135237128Y-95170672D01*
X135237128Y-95170672D02*
X135313319Y-95132577D01*
X135313319Y-95132577D02*
X135389509Y-95056387D01*
X135389509Y-95056387D02*
X135427604Y-94942101D01*
X135427604Y-94942101D02*
X135427604Y-94865910D01*
X135427604Y-94865910D02*
X135389509Y-94751625D01*
X135389509Y-94751625D02*
X135351414Y-94713529D01*
X135427604Y-94142101D02*
X134856176Y-94142101D01*
X134856176Y-94142101D02*
X134741890Y-94180196D01*
X134741890Y-94180196D02*
X134665700Y-94256387D01*
X134665700Y-94256387D02*
X134627604Y-94370672D01*
X134627604Y-94370672D02*
X134627604Y-94446863D01*
X134627604Y-93380196D02*
X134627604Y-93761148D01*
X134627604Y-93761148D02*
X135427604Y-93761148D01*
X134703795Y-92656386D02*
X134665700Y-92694482D01*
X134665700Y-92694482D02*
X134627604Y-92808767D01*
X134627604Y-92808767D02*
X134627604Y-92884958D01*
X134627604Y-92884958D02*
X134665700Y-92999244D01*
X134665700Y-92999244D02*
X134741890Y-93075434D01*
X134741890Y-93075434D02*
X134818080Y-93113529D01*
X134818080Y-93113529D02*
X134970461Y-93151625D01*
X134970461Y-93151625D02*
X135084747Y-93151625D01*
X135084747Y-93151625D02*
X135237128Y-93113529D01*
X135237128Y-93113529D02*
X135313319Y-93075434D01*
X135313319Y-93075434D02*
X135389509Y-92999244D01*
X135389509Y-92999244D02*
X135427604Y-92884958D01*
X135427604Y-92884958D02*
X135427604Y-92808767D01*
X135427604Y-92808767D02*
X135389509Y-92694482D01*
X135389509Y-92694482D02*
X135351414Y-92656386D01*
X140876719Y-101864595D02*
X140400528Y-101531262D01*
X140876719Y-101293167D02*
X139876719Y-101293167D01*
X139876719Y-101293167D02*
X139876719Y-101674119D01*
X139876719Y-101674119D02*
X139924338Y-101769357D01*
X139924338Y-101769357D02*
X139971957Y-101816976D01*
X139971957Y-101816976D02*
X140067195Y-101864595D01*
X140067195Y-101864595D02*
X140210052Y-101864595D01*
X140210052Y-101864595D02*
X140305290Y-101816976D01*
X140305290Y-101816976D02*
X140352909Y-101769357D01*
X140352909Y-101769357D02*
X140400528Y-101674119D01*
X140400528Y-101674119D02*
X140400528Y-101293167D01*
X140210052Y-102721738D02*
X140876719Y-102721738D01*
X139829100Y-102483643D02*
X140543385Y-102245548D01*
X140543385Y-102245548D02*
X140543385Y-102864595D01*
X144222206Y-100074779D02*
X144929312Y-99367672D01*
X144929312Y-99367672D02*
X144760954Y-99199313D01*
X144760954Y-99199313D02*
X144626267Y-99131970D01*
X144626267Y-99131970D02*
X144491580Y-99131970D01*
X144491580Y-99131970D02*
X144390564Y-99165642D01*
X144390564Y-99165642D02*
X144222206Y-99266657D01*
X144222206Y-99266657D02*
X144121190Y-99367672D01*
X144121190Y-99367672D02*
X144020175Y-99536031D01*
X144020175Y-99536031D02*
X143986503Y-99637046D01*
X143986503Y-99637046D02*
X143986503Y-99771733D01*
X143986503Y-99771733D02*
X144053847Y-99906420D01*
X144053847Y-99906420D02*
X144222206Y-100074779D01*
X144289549Y-98727909D02*
X143851816Y-98290176D01*
X143851816Y-98290176D02*
X143818145Y-98795252D01*
X143818145Y-98795252D02*
X143717129Y-98694237D01*
X143717129Y-98694237D02*
X143616114Y-98660565D01*
X143616114Y-98660565D02*
X143548771Y-98660565D01*
X143548771Y-98660565D02*
X143447755Y-98694237D01*
X143447755Y-98694237D02*
X143279397Y-98862596D01*
X143279397Y-98862596D02*
X143245725Y-98963611D01*
X143245725Y-98963611D02*
X143245725Y-99030955D01*
X143245725Y-99030955D02*
X143279397Y-99131970D01*
X143279397Y-99131970D02*
X143481427Y-99334000D01*
X143481427Y-99334000D02*
X143582442Y-99367672D01*
X143582442Y-99367672D02*
X143649786Y-99367672D01*
X139759994Y-95486081D02*
X139759994Y-94486081D01*
X139759994Y-94486081D02*
X139521899Y-94486081D01*
X139521899Y-94486081D02*
X139379042Y-94533700D01*
X139379042Y-94533700D02*
X139283804Y-94628938D01*
X139283804Y-94628938D02*
X139236185Y-94724176D01*
X139236185Y-94724176D02*
X139188566Y-94914652D01*
X139188566Y-94914652D02*
X139188566Y-95057509D01*
X139188566Y-95057509D02*
X139236185Y-95247985D01*
X139236185Y-95247985D02*
X139283804Y-95343223D01*
X139283804Y-95343223D02*
X139379042Y-95438462D01*
X139379042Y-95438462D02*
X139521899Y-95486081D01*
X139521899Y-95486081D02*
X139759994Y-95486081D01*
X138331423Y-94819414D02*
X138331423Y-95486081D01*
X138569518Y-94438462D02*
X138807613Y-95152747D01*
X138807613Y-95152747D02*
X138188566Y-95152747D01*
X144801719Y-97239595D02*
X144801719Y-96763405D01*
X144801719Y-96763405D02*
X143801719Y-96763405D01*
X144801719Y-98096738D02*
X144801719Y-97525310D01*
X144801719Y-97811024D02*
X143801719Y-97811024D01*
X143801719Y-97811024D02*
X143944576Y-97715786D01*
X143944576Y-97715786D02*
X144039814Y-97620548D01*
X144039814Y-97620548D02*
X144087433Y-97525310D01*
D11*
X145512100Y-83814594D02*
X145464480Y-83671737D01*
X145464480Y-83671737D02*
X145464480Y-83433642D01*
X145464480Y-83433642D02*
X145512100Y-83338404D01*
X145512100Y-83338404D02*
X145559719Y-83290785D01*
X145559719Y-83290785D02*
X145654957Y-83243166D01*
X145654957Y-83243166D02*
X145750195Y-83243166D01*
X145750195Y-83243166D02*
X145845433Y-83290785D01*
X145845433Y-83290785D02*
X145893052Y-83338404D01*
X145893052Y-83338404D02*
X145940671Y-83433642D01*
X145940671Y-83433642D02*
X145988290Y-83624118D01*
X145988290Y-83624118D02*
X146035909Y-83719356D01*
X146035909Y-83719356D02*
X146083528Y-83766975D01*
X146083528Y-83766975D02*
X146178766Y-83814594D01*
X146178766Y-83814594D02*
X146274004Y-83814594D01*
X146274004Y-83814594D02*
X146369242Y-83766975D01*
X146369242Y-83766975D02*
X146416861Y-83719356D01*
X146416861Y-83719356D02*
X146464480Y-83624118D01*
X146464480Y-83624118D02*
X146464480Y-83386023D01*
X146464480Y-83386023D02*
X146416861Y-83243166D01*
X146464480Y-82909832D02*
X145464480Y-82671737D01*
X145464480Y-82671737D02*
X146178766Y-82481261D01*
X146178766Y-82481261D02*
X145464480Y-82290785D01*
X145464480Y-82290785D02*
X146464480Y-82052690D01*
X146464480Y-81766975D02*
X146464480Y-81147928D01*
X146464480Y-81147928D02*
X146083528Y-81481261D01*
X146083528Y-81481261D02*
X146083528Y-81338404D01*
X146083528Y-81338404D02*
X146035909Y-81243166D01*
X146035909Y-81243166D02*
X145988290Y-81195547D01*
X145988290Y-81195547D02*
X145893052Y-81147928D01*
X145893052Y-81147928D02*
X145654957Y-81147928D01*
X145654957Y-81147928D02*
X145559719Y-81195547D01*
X145559719Y-81195547D02*
X145512100Y-81243166D01*
X145512100Y-81243166D02*
X145464480Y-81338404D01*
X145464480Y-81338404D02*
X145464480Y-81624118D01*
X145464480Y-81624118D02*
X145512100Y-81719356D01*
X145512100Y-81719356D02*
X145559719Y-81766975D01*
D10*
X145976719Y-86069357D02*
X146786242Y-86069357D01*
X146786242Y-86069357D02*
X146881480Y-86116976D01*
X146881480Y-86116976D02*
X146929100Y-86164595D01*
X146929100Y-86164595D02*
X146976719Y-86259833D01*
X146976719Y-86259833D02*
X146976719Y-86450309D01*
X146976719Y-86450309D02*
X146929100Y-86545547D01*
X146929100Y-86545547D02*
X146881480Y-86593166D01*
X146881480Y-86593166D02*
X146786242Y-86640785D01*
X146786242Y-86640785D02*
X145976719Y-86640785D01*
X145976719Y-87021738D02*
X145976719Y-87688404D01*
X145976719Y-87688404D02*
X146976719Y-87259833D01*
X141318145Y-101370718D02*
X141890564Y-101269703D01*
X141722206Y-101774779D02*
X142429312Y-101067672D01*
X142429312Y-101067672D02*
X142159938Y-100798298D01*
X142159938Y-100798298D02*
X142058923Y-100764626D01*
X142058923Y-100764626D02*
X141991580Y-100764626D01*
X141991580Y-100764626D02*
X141890564Y-100798298D01*
X141890564Y-100798298D02*
X141789549Y-100899313D01*
X141789549Y-100899313D02*
X141755877Y-101000329D01*
X141755877Y-101000329D02*
X141755877Y-101067672D01*
X141755877Y-101067672D02*
X141789549Y-101168687D01*
X141789549Y-101168687D02*
X142058923Y-101438061D01*
X141789549Y-100427909D02*
X141351816Y-99990176D01*
X141351816Y-99990176D02*
X141318145Y-100495252D01*
X141318145Y-100495252D02*
X141217129Y-100394237D01*
X141217129Y-100394237D02*
X141116114Y-100360565D01*
X141116114Y-100360565D02*
X141048771Y-100360565D01*
X141048771Y-100360565D02*
X140947755Y-100394237D01*
X140947755Y-100394237D02*
X140779397Y-100562596D01*
X140779397Y-100562596D02*
X140745725Y-100663611D01*
X140745725Y-100663611D02*
X140745725Y-100730955D01*
X140745725Y-100730955D02*
X140779397Y-100831970D01*
X140779397Y-100831970D02*
X140981427Y-101034000D01*
X140981427Y-101034000D02*
X141082442Y-101067672D01*
X141082442Y-101067672D02*
X141149786Y-101067672D01*
D11*
X142658805Y-107948842D02*
X142658805Y-108948842D01*
X142658805Y-108948842D02*
X142896900Y-108948842D01*
X142896900Y-108948842D02*
X143039757Y-108901223D01*
X143039757Y-108901223D02*
X143134995Y-108805985D01*
X143134995Y-108805985D02*
X143182614Y-108710747D01*
X143182614Y-108710747D02*
X143230233Y-108520271D01*
X143230233Y-108520271D02*
X143230233Y-108377414D01*
X143230233Y-108377414D02*
X143182614Y-108186938D01*
X143182614Y-108186938D02*
X143134995Y-108091700D01*
X143134995Y-108091700D02*
X143039757Y-107996462D01*
X143039757Y-107996462D02*
X142896900Y-107948842D01*
X142896900Y-107948842D02*
X142658805Y-107948842D01*
X143563567Y-108948842D02*
X144230233Y-108948842D01*
X144230233Y-108948842D02*
X143801662Y-107948842D01*
D10*
X142255233Y-92062271D02*
X142588566Y-92062271D01*
X142588566Y-92586081D02*
X142588566Y-91586081D01*
X142588566Y-91586081D02*
X142112376Y-91586081D01*
X141398090Y-92062271D02*
X141255233Y-92109890D01*
X141255233Y-92109890D02*
X141207614Y-92157509D01*
X141207614Y-92157509D02*
X141159995Y-92252747D01*
X141159995Y-92252747D02*
X141159995Y-92395604D01*
X141159995Y-92395604D02*
X141207614Y-92490842D01*
X141207614Y-92490842D02*
X141255233Y-92538462D01*
X141255233Y-92538462D02*
X141350471Y-92586081D01*
X141350471Y-92586081D02*
X141731423Y-92586081D01*
X141731423Y-92586081D02*
X141731423Y-91586081D01*
X141731423Y-91586081D02*
X141398090Y-91586081D01*
X141398090Y-91586081D02*
X141302852Y-91633700D01*
X141302852Y-91633700D02*
X141255233Y-91681319D01*
X141255233Y-91681319D02*
X141207614Y-91776557D01*
X141207614Y-91776557D02*
X141207614Y-91871795D01*
X141207614Y-91871795D02*
X141255233Y-91967033D01*
X141255233Y-91967033D02*
X141302852Y-92014652D01*
X141302852Y-92014652D02*
X141398090Y-92062271D01*
X141398090Y-92062271D02*
X141731423Y-92062271D01*
X140207614Y-92586081D02*
X140779042Y-92586081D01*
X140493328Y-92586081D02*
X140493328Y-91586081D01*
X140493328Y-91586081D02*
X140588566Y-91728938D01*
X140588566Y-91728938D02*
X140683804Y-91824176D01*
X140683804Y-91824176D02*
X140779042Y-91871795D01*
X147438566Y-90840842D02*
X147486185Y-90888462D01*
X147486185Y-90888462D02*
X147629042Y-90936081D01*
X147629042Y-90936081D02*
X147724280Y-90936081D01*
X147724280Y-90936081D02*
X147867137Y-90888462D01*
X147867137Y-90888462D02*
X147962375Y-90793223D01*
X147962375Y-90793223D02*
X148009994Y-90697985D01*
X148009994Y-90697985D02*
X148057613Y-90507509D01*
X148057613Y-90507509D02*
X148057613Y-90364652D01*
X148057613Y-90364652D02*
X148009994Y-90174176D01*
X148009994Y-90174176D02*
X147962375Y-90078938D01*
X147962375Y-90078938D02*
X147867137Y-89983700D01*
X147867137Y-89983700D02*
X147724280Y-89936081D01*
X147724280Y-89936081D02*
X147629042Y-89936081D01*
X147629042Y-89936081D02*
X147486185Y-89983700D01*
X147486185Y-89983700D02*
X147438566Y-90031319D01*
X147057613Y-90031319D02*
X147009994Y-89983700D01*
X147009994Y-89983700D02*
X146914756Y-89936081D01*
X146914756Y-89936081D02*
X146676661Y-89936081D01*
X146676661Y-89936081D02*
X146581423Y-89983700D01*
X146581423Y-89983700D02*
X146533804Y-90031319D01*
X146533804Y-90031319D02*
X146486185Y-90126557D01*
X146486185Y-90126557D02*
X146486185Y-90221795D01*
X146486185Y-90221795D02*
X146533804Y-90364652D01*
X146533804Y-90364652D02*
X147105232Y-90936081D01*
X147105232Y-90936081D02*
X146486185Y-90936081D01*
X138776719Y-86019357D02*
X139586242Y-86019357D01*
X139586242Y-86019357D02*
X139681480Y-86066976D01*
X139681480Y-86066976D02*
X139729100Y-86114595D01*
X139729100Y-86114595D02*
X139776719Y-86209833D01*
X139776719Y-86209833D02*
X139776719Y-86400309D01*
X139776719Y-86400309D02*
X139729100Y-86495547D01*
X139729100Y-86495547D02*
X139681480Y-86543166D01*
X139681480Y-86543166D02*
X139586242Y-86590785D01*
X139586242Y-86590785D02*
X138776719Y-86590785D01*
X138776719Y-87495547D02*
X138776719Y-87305071D01*
X138776719Y-87305071D02*
X138824338Y-87209833D01*
X138824338Y-87209833D02*
X138871957Y-87162214D01*
X138871957Y-87162214D02*
X139014814Y-87066976D01*
X139014814Y-87066976D02*
X139205290Y-87019357D01*
X139205290Y-87019357D02*
X139586242Y-87019357D01*
X139586242Y-87019357D02*
X139681480Y-87066976D01*
X139681480Y-87066976D02*
X139729100Y-87114595D01*
X139729100Y-87114595D02*
X139776719Y-87209833D01*
X139776719Y-87209833D02*
X139776719Y-87400309D01*
X139776719Y-87400309D02*
X139729100Y-87495547D01*
X139729100Y-87495547D02*
X139681480Y-87543166D01*
X139681480Y-87543166D02*
X139586242Y-87590785D01*
X139586242Y-87590785D02*
X139348147Y-87590785D01*
X139348147Y-87590785D02*
X139252909Y-87543166D01*
X139252909Y-87543166D02*
X139205290Y-87495547D01*
X139205290Y-87495547D02*
X139157671Y-87400309D01*
X139157671Y-87400309D02*
X139157671Y-87209833D01*
X139157671Y-87209833D02*
X139205290Y-87114595D01*
X139205290Y-87114595D02*
X139252909Y-87066976D01*
X139252909Y-87066976D02*
X139348147Y-87019357D01*
X144531480Y-91588404D02*
X144579100Y-91540785D01*
X144579100Y-91540785D02*
X144626719Y-91397928D01*
X144626719Y-91397928D02*
X144626719Y-91302690D01*
X144626719Y-91302690D02*
X144579100Y-91159833D01*
X144579100Y-91159833D02*
X144483861Y-91064595D01*
X144483861Y-91064595D02*
X144388623Y-91016976D01*
X144388623Y-91016976D02*
X144198147Y-90969357D01*
X144198147Y-90969357D02*
X144055290Y-90969357D01*
X144055290Y-90969357D02*
X143864814Y-91016976D01*
X143864814Y-91016976D02*
X143769576Y-91064595D01*
X143769576Y-91064595D02*
X143674338Y-91159833D01*
X143674338Y-91159833D02*
X143626719Y-91302690D01*
X143626719Y-91302690D02*
X143626719Y-91397928D01*
X143626719Y-91397928D02*
X143674338Y-91540785D01*
X143674338Y-91540785D02*
X143721957Y-91588404D01*
X144626719Y-92540785D02*
X144626719Y-91969357D01*
X144626719Y-92255071D02*
X143626719Y-92255071D01*
X143626719Y-92255071D02*
X143769576Y-92159833D01*
X143769576Y-92159833D02*
X143864814Y-92064595D01*
X143864814Y-92064595D02*
X143912433Y-91969357D01*
X143626719Y-93159833D02*
X143626719Y-93255071D01*
X143626719Y-93255071D02*
X143674338Y-93350309D01*
X143674338Y-93350309D02*
X143721957Y-93397928D01*
X143721957Y-93397928D02*
X143817195Y-93445547D01*
X143817195Y-93445547D02*
X144007671Y-93493166D01*
X144007671Y-93493166D02*
X144245766Y-93493166D01*
X144245766Y-93493166D02*
X144436242Y-93445547D01*
X144436242Y-93445547D02*
X144531480Y-93397928D01*
X144531480Y-93397928D02*
X144579100Y-93350309D01*
X144579100Y-93350309D02*
X144626719Y-93255071D01*
X144626719Y-93255071D02*
X144626719Y-93159833D01*
X144626719Y-93159833D02*
X144579100Y-93064595D01*
X144579100Y-93064595D02*
X144531480Y-93016976D01*
X144531480Y-93016976D02*
X144436242Y-92969357D01*
X144436242Y-92969357D02*
X144245766Y-92921738D01*
X144245766Y-92921738D02*
X144007671Y-92921738D01*
X144007671Y-92921738D02*
X143817195Y-92969357D01*
X143817195Y-92969357D02*
X143721957Y-93016976D01*
X143721957Y-93016976D02*
X143674338Y-93064595D01*
X143674338Y-93064595D02*
X143626719Y-93159833D01*
D11*
X143663566Y-107538681D02*
X144139756Y-107538681D01*
X144139756Y-107538681D02*
X144139756Y-106538681D01*
X143377851Y-106633919D02*
X143330232Y-106586300D01*
X143330232Y-106586300D02*
X143234994Y-106538681D01*
X143234994Y-106538681D02*
X142996899Y-106538681D01*
X142996899Y-106538681D02*
X142901661Y-106586300D01*
X142901661Y-106586300D02*
X142854042Y-106633919D01*
X142854042Y-106633919D02*
X142806423Y-106729157D01*
X142806423Y-106729157D02*
X142806423Y-106824395D01*
X142806423Y-106824395D02*
X142854042Y-106967252D01*
X142854042Y-106967252D02*
X143425470Y-107538681D01*
X143425470Y-107538681D02*
X142806423Y-107538681D01*
D10*
X135959994Y-107686081D02*
X135959994Y-106686081D01*
X135959994Y-106686081D02*
X135721899Y-106686081D01*
X135721899Y-106686081D02*
X135579042Y-106733700D01*
X135579042Y-106733700D02*
X135483804Y-106828938D01*
X135483804Y-106828938D02*
X135436185Y-106924176D01*
X135436185Y-106924176D02*
X135388566Y-107114652D01*
X135388566Y-107114652D02*
X135388566Y-107257509D01*
X135388566Y-107257509D02*
X135436185Y-107447985D01*
X135436185Y-107447985D02*
X135483804Y-107543223D01*
X135483804Y-107543223D02*
X135579042Y-107638462D01*
X135579042Y-107638462D02*
X135721899Y-107686081D01*
X135721899Y-107686081D02*
X135959994Y-107686081D01*
X134436185Y-107686081D02*
X135007613Y-107686081D01*
X134721899Y-107686081D02*
X134721899Y-106686081D01*
X134721899Y-106686081D02*
X134817137Y-106828938D01*
X134817137Y-106828938D02*
X134912375Y-106924176D01*
X134912375Y-106924176D02*
X135007613Y-106971795D01*
X147831480Y-107164595D02*
X147879100Y-107116976D01*
X147879100Y-107116976D02*
X147926719Y-106974119D01*
X147926719Y-106974119D02*
X147926719Y-106878881D01*
X147926719Y-106878881D02*
X147879100Y-106736024D01*
X147879100Y-106736024D02*
X147783861Y-106640786D01*
X147783861Y-106640786D02*
X147688623Y-106593167D01*
X147688623Y-106593167D02*
X147498147Y-106545548D01*
X147498147Y-106545548D02*
X147355290Y-106545548D01*
X147355290Y-106545548D02*
X147164814Y-106593167D01*
X147164814Y-106593167D02*
X147069576Y-106640786D01*
X147069576Y-106640786D02*
X146974338Y-106736024D01*
X146974338Y-106736024D02*
X146926719Y-106878881D01*
X146926719Y-106878881D02*
X146926719Y-106974119D01*
X146926719Y-106974119D02*
X146974338Y-107116976D01*
X146974338Y-107116976D02*
X147021957Y-107164595D01*
X147260052Y-108021738D02*
X147926719Y-108021738D01*
X146879100Y-107783643D02*
X147593385Y-107545548D01*
X147593385Y-107545548D02*
X147593385Y-108164595D01*
X135501480Y-83838404D02*
X135549100Y-83790785D01*
X135549100Y-83790785D02*
X135596719Y-83647928D01*
X135596719Y-83647928D02*
X135596719Y-83552690D01*
X135596719Y-83552690D02*
X135549100Y-83409833D01*
X135549100Y-83409833D02*
X135453861Y-83314595D01*
X135453861Y-83314595D02*
X135358623Y-83266976D01*
X135358623Y-83266976D02*
X135168147Y-83219357D01*
X135168147Y-83219357D02*
X135025290Y-83219357D01*
X135025290Y-83219357D02*
X134834814Y-83266976D01*
X134834814Y-83266976D02*
X134739576Y-83314595D01*
X134739576Y-83314595D02*
X134644338Y-83409833D01*
X134644338Y-83409833D02*
X134596719Y-83552690D01*
X134596719Y-83552690D02*
X134596719Y-83647928D01*
X134596719Y-83647928D02*
X134644338Y-83790785D01*
X134644338Y-83790785D02*
X134691957Y-83838404D01*
X135596719Y-84790785D02*
X135596719Y-84219357D01*
X135596719Y-84505071D02*
X134596719Y-84505071D01*
X134596719Y-84505071D02*
X134739576Y-84409833D01*
X134739576Y-84409833D02*
X134834814Y-84314595D01*
X134834814Y-84314595D02*
X134882433Y-84219357D01*
X135596719Y-85266976D02*
X135596719Y-85457452D01*
X135596719Y-85457452D02*
X135549100Y-85552690D01*
X135549100Y-85552690D02*
X135501480Y-85600309D01*
X135501480Y-85600309D02*
X135358623Y-85695547D01*
X135358623Y-85695547D02*
X135168147Y-85743166D01*
X135168147Y-85743166D02*
X134787195Y-85743166D01*
X134787195Y-85743166D02*
X134691957Y-85695547D01*
X134691957Y-85695547D02*
X134644338Y-85647928D01*
X134644338Y-85647928D02*
X134596719Y-85552690D01*
X134596719Y-85552690D02*
X134596719Y-85362214D01*
X134596719Y-85362214D02*
X134644338Y-85266976D01*
X134644338Y-85266976D02*
X134691957Y-85219357D01*
X134691957Y-85219357D02*
X134787195Y-85171738D01*
X134787195Y-85171738D02*
X135025290Y-85171738D01*
X135025290Y-85171738D02*
X135120528Y-85219357D01*
X135120528Y-85219357D02*
X135168147Y-85266976D01*
X135168147Y-85266976D02*
X135215766Y-85362214D01*
X135215766Y-85362214D02*
X135215766Y-85552690D01*
X135215766Y-85552690D02*
X135168147Y-85647928D01*
X135168147Y-85647928D02*
X135120528Y-85695547D01*
X135120528Y-85695547D02*
X135025290Y-85743166D01*
X136364757Y-108940842D02*
X136412376Y-108988462D01*
X136412376Y-108988462D02*
X136555233Y-109036081D01*
X136555233Y-109036081D02*
X136650471Y-109036081D01*
X136650471Y-109036081D02*
X136793328Y-108988462D01*
X136793328Y-108988462D02*
X136888566Y-108893223D01*
X136888566Y-108893223D02*
X136936185Y-108797985D01*
X136936185Y-108797985D02*
X136983804Y-108607509D01*
X136983804Y-108607509D02*
X136983804Y-108464652D01*
X136983804Y-108464652D02*
X136936185Y-108274176D01*
X136936185Y-108274176D02*
X136888566Y-108178938D01*
X136888566Y-108178938D02*
X136793328Y-108083700D01*
X136793328Y-108083700D02*
X136650471Y-108036081D01*
X136650471Y-108036081D02*
X136555233Y-108036081D01*
X136555233Y-108036081D02*
X136412376Y-108083700D01*
X136412376Y-108083700D02*
X136364757Y-108131319D01*
X135412376Y-109036081D02*
X135983804Y-109036081D01*
X135698090Y-109036081D02*
X135698090Y-108036081D01*
X135698090Y-108036081D02*
X135793328Y-108178938D01*
X135793328Y-108178938D02*
X135888566Y-108274176D01*
X135888566Y-108274176D02*
X135983804Y-108321795D01*
X135079042Y-108036081D02*
X134412376Y-108036081D01*
X134412376Y-108036081D02*
X134840947Y-109036081D01*
X143481480Y-103588404D02*
X143529100Y-103540785D01*
X143529100Y-103540785D02*
X143576719Y-103397928D01*
X143576719Y-103397928D02*
X143576719Y-103302690D01*
X143576719Y-103302690D02*
X143529100Y-103159833D01*
X143529100Y-103159833D02*
X143433861Y-103064595D01*
X143433861Y-103064595D02*
X143338623Y-103016976D01*
X143338623Y-103016976D02*
X143148147Y-102969357D01*
X143148147Y-102969357D02*
X143005290Y-102969357D01*
X143005290Y-102969357D02*
X142814814Y-103016976D01*
X142814814Y-103016976D02*
X142719576Y-103064595D01*
X142719576Y-103064595D02*
X142624338Y-103159833D01*
X142624338Y-103159833D02*
X142576719Y-103302690D01*
X142576719Y-103302690D02*
X142576719Y-103397928D01*
X142576719Y-103397928D02*
X142624338Y-103540785D01*
X142624338Y-103540785D02*
X142671957Y-103588404D01*
X143576719Y-104540785D02*
X143576719Y-103969357D01*
X143576719Y-104255071D02*
X142576719Y-104255071D01*
X142576719Y-104255071D02*
X142719576Y-104159833D01*
X142719576Y-104159833D02*
X142814814Y-104064595D01*
X142814814Y-104064595D02*
X142862433Y-103969357D01*
X143005290Y-105112214D02*
X142957671Y-105016976D01*
X142957671Y-105016976D02*
X142910052Y-104969357D01*
X142910052Y-104969357D02*
X142814814Y-104921738D01*
X142814814Y-104921738D02*
X142767195Y-104921738D01*
X142767195Y-104921738D02*
X142671957Y-104969357D01*
X142671957Y-104969357D02*
X142624338Y-105016976D01*
X142624338Y-105016976D02*
X142576719Y-105112214D01*
X142576719Y-105112214D02*
X142576719Y-105302690D01*
X142576719Y-105302690D02*
X142624338Y-105397928D01*
X142624338Y-105397928D02*
X142671957Y-105445547D01*
X142671957Y-105445547D02*
X142767195Y-105493166D01*
X142767195Y-105493166D02*
X142814814Y-105493166D01*
X142814814Y-105493166D02*
X142910052Y-105445547D01*
X142910052Y-105445547D02*
X142957671Y-105397928D01*
X142957671Y-105397928D02*
X143005290Y-105302690D01*
X143005290Y-105302690D02*
X143005290Y-105112214D01*
X143005290Y-105112214D02*
X143052909Y-105016976D01*
X143052909Y-105016976D02*
X143100528Y-104969357D01*
X143100528Y-104969357D02*
X143195766Y-104921738D01*
X143195766Y-104921738D02*
X143386242Y-104921738D01*
X143386242Y-104921738D02*
X143481480Y-104969357D01*
X143481480Y-104969357D02*
X143529100Y-105016976D01*
X143529100Y-105016976D02*
X143576719Y-105112214D01*
X143576719Y-105112214D02*
X143576719Y-105302690D01*
X143576719Y-105302690D02*
X143529100Y-105397928D01*
X143529100Y-105397928D02*
X143481480Y-105445547D01*
X143481480Y-105445547D02*
X143386242Y-105493166D01*
X143386242Y-105493166D02*
X143195766Y-105493166D01*
X143195766Y-105493166D02*
X143100528Y-105445547D01*
X143100528Y-105445547D02*
X143052909Y-105397928D01*
X143052909Y-105397928D02*
X143005290Y-105302690D01*
X140701719Y-98593167D02*
X139701719Y-98593167D01*
X139701719Y-98593167D02*
X139701719Y-98831262D01*
X139701719Y-98831262D02*
X139749338Y-98974119D01*
X139749338Y-98974119D02*
X139844576Y-99069357D01*
X139844576Y-99069357D02*
X139939814Y-99116976D01*
X139939814Y-99116976D02*
X140130290Y-99164595D01*
X140130290Y-99164595D02*
X140273147Y-99164595D01*
X140273147Y-99164595D02*
X140463623Y-99116976D01*
X140463623Y-99116976D02*
X140558861Y-99069357D01*
X140558861Y-99069357D02*
X140654100Y-98974119D01*
X140654100Y-98974119D02*
X140701719Y-98831262D01*
X140701719Y-98831262D02*
X140701719Y-98593167D01*
X139796957Y-99545548D02*
X139749338Y-99593167D01*
X139749338Y-99593167D02*
X139701719Y-99688405D01*
X139701719Y-99688405D02*
X139701719Y-99926500D01*
X139701719Y-99926500D02*
X139749338Y-100021738D01*
X139749338Y-100021738D02*
X139796957Y-100069357D01*
X139796957Y-100069357D02*
X139892195Y-100116976D01*
X139892195Y-100116976D02*
X139987433Y-100116976D01*
X139987433Y-100116976D02*
X140130290Y-100069357D01*
X140130290Y-100069357D02*
X140701719Y-99497929D01*
X140701719Y-99497929D02*
X140701719Y-100116976D01*
X136009994Y-106386081D02*
X136009994Y-105386081D01*
X136009994Y-105386081D02*
X135771899Y-105386081D01*
X135771899Y-105386081D02*
X135629042Y-105433700D01*
X135629042Y-105433700D02*
X135533804Y-105528938D01*
X135533804Y-105528938D02*
X135486185Y-105624176D01*
X135486185Y-105624176D02*
X135438566Y-105814652D01*
X135438566Y-105814652D02*
X135438566Y-105957509D01*
X135438566Y-105957509D02*
X135486185Y-106147985D01*
X135486185Y-106147985D02*
X135533804Y-106243223D01*
X135533804Y-106243223D02*
X135629042Y-106338462D01*
X135629042Y-106338462D02*
X135771899Y-106386081D01*
X135771899Y-106386081D02*
X136009994Y-106386081D01*
X134581423Y-105386081D02*
X134771899Y-105386081D01*
X134771899Y-105386081D02*
X134867137Y-105433700D01*
X134867137Y-105433700D02*
X134914756Y-105481319D01*
X134914756Y-105481319D02*
X135009994Y-105624176D01*
X135009994Y-105624176D02*
X135057613Y-105814652D01*
X135057613Y-105814652D02*
X135057613Y-106195604D01*
X135057613Y-106195604D02*
X135009994Y-106290842D01*
X135009994Y-106290842D02*
X134962375Y-106338462D01*
X134962375Y-106338462D02*
X134867137Y-106386081D01*
X134867137Y-106386081D02*
X134676661Y-106386081D01*
X134676661Y-106386081D02*
X134581423Y-106338462D01*
X134581423Y-106338462D02*
X134533804Y-106290842D01*
X134533804Y-106290842D02*
X134486185Y-106195604D01*
X134486185Y-106195604D02*
X134486185Y-105957509D01*
X134486185Y-105957509D02*
X134533804Y-105862271D01*
X134533804Y-105862271D02*
X134581423Y-105814652D01*
X134581423Y-105814652D02*
X134676661Y-105767033D01*
X134676661Y-105767033D02*
X134867137Y-105767033D01*
X134867137Y-105767033D02*
X134962375Y-105814652D01*
X134962375Y-105814652D02*
X135009994Y-105862271D01*
X135009994Y-105862271D02*
X135057613Y-105957509D01*
X137488566Y-91681081D02*
X137821899Y-91204890D01*
X138059994Y-91681081D02*
X138059994Y-90681081D01*
X138059994Y-90681081D02*
X137679042Y-90681081D01*
X137679042Y-90681081D02*
X137583804Y-90728700D01*
X137583804Y-90728700D02*
X137536185Y-90776319D01*
X137536185Y-90776319D02*
X137488566Y-90871557D01*
X137488566Y-90871557D02*
X137488566Y-91014414D01*
X137488566Y-91014414D02*
X137536185Y-91109652D01*
X137536185Y-91109652D02*
X137583804Y-91157271D01*
X137583804Y-91157271D02*
X137679042Y-91204890D01*
X137679042Y-91204890D02*
X138059994Y-91204890D01*
X136917137Y-91109652D02*
X137012375Y-91062033D01*
X137012375Y-91062033D02*
X137059994Y-91014414D01*
X137059994Y-91014414D02*
X137107613Y-90919176D01*
X137107613Y-90919176D02*
X137107613Y-90871557D01*
X137107613Y-90871557D02*
X137059994Y-90776319D01*
X137059994Y-90776319D02*
X137012375Y-90728700D01*
X137012375Y-90728700D02*
X136917137Y-90681081D01*
X136917137Y-90681081D02*
X136726661Y-90681081D01*
X136726661Y-90681081D02*
X136631423Y-90728700D01*
X136631423Y-90728700D02*
X136583804Y-90776319D01*
X136583804Y-90776319D02*
X136536185Y-90871557D01*
X136536185Y-90871557D02*
X136536185Y-90919176D01*
X136536185Y-90919176D02*
X136583804Y-91014414D01*
X136583804Y-91014414D02*
X136631423Y-91062033D01*
X136631423Y-91062033D02*
X136726661Y-91109652D01*
X136726661Y-91109652D02*
X136917137Y-91109652D01*
X136917137Y-91109652D02*
X137012375Y-91157271D01*
X137012375Y-91157271D02*
X137059994Y-91204890D01*
X137059994Y-91204890D02*
X137107613Y-91300128D01*
X137107613Y-91300128D02*
X137107613Y-91490604D01*
X137107613Y-91490604D02*
X137059994Y-91585842D01*
X137059994Y-91585842D02*
X137012375Y-91633462D01*
X137012375Y-91633462D02*
X136917137Y-91681081D01*
X136917137Y-91681081D02*
X136726661Y-91681081D01*
X136726661Y-91681081D02*
X136631423Y-91633462D01*
X136631423Y-91633462D02*
X136583804Y-91585842D01*
X136583804Y-91585842D02*
X136536185Y-91490604D01*
X136536185Y-91490604D02*
X136536185Y-91300128D01*
X136536185Y-91300128D02*
X136583804Y-91204890D01*
X136583804Y-91204890D02*
X136631423Y-91157271D01*
X136631423Y-91157271D02*
X136726661Y-91109652D01*
X145988566Y-110390842D02*
X146036185Y-110438462D01*
X146036185Y-110438462D02*
X146179042Y-110486081D01*
X146179042Y-110486081D02*
X146274280Y-110486081D01*
X146274280Y-110486081D02*
X146417137Y-110438462D01*
X146417137Y-110438462D02*
X146512375Y-110343223D01*
X146512375Y-110343223D02*
X146559994Y-110247985D01*
X146559994Y-110247985D02*
X146607613Y-110057509D01*
X146607613Y-110057509D02*
X146607613Y-109914652D01*
X146607613Y-109914652D02*
X146559994Y-109724176D01*
X146559994Y-109724176D02*
X146512375Y-109628938D01*
X146512375Y-109628938D02*
X146417137Y-109533700D01*
X146417137Y-109533700D02*
X146274280Y-109486081D01*
X146274280Y-109486081D02*
X146179042Y-109486081D01*
X146179042Y-109486081D02*
X146036185Y-109533700D01*
X146036185Y-109533700D02*
X145988566Y-109581319D01*
X145083804Y-109486081D02*
X145559994Y-109486081D01*
X145559994Y-109486081D02*
X145607613Y-109962271D01*
X145607613Y-109962271D02*
X145559994Y-109914652D01*
X145559994Y-109914652D02*
X145464756Y-109867033D01*
X145464756Y-109867033D02*
X145226661Y-109867033D01*
X145226661Y-109867033D02*
X145131423Y-109914652D01*
X145131423Y-109914652D02*
X145083804Y-109962271D01*
X145083804Y-109962271D02*
X145036185Y-110057509D01*
X145036185Y-110057509D02*
X145036185Y-110295604D01*
X145036185Y-110295604D02*
X145083804Y-110390842D01*
X145083804Y-110390842D02*
X145131423Y-110438462D01*
X145131423Y-110438462D02*
X145226661Y-110486081D01*
X145226661Y-110486081D02*
X145464756Y-110486081D01*
X145464756Y-110486081D02*
X145559994Y-110438462D01*
X145559994Y-110438462D02*
X145607613Y-110390842D01*
X146281480Y-100714595D02*
X146329100Y-100666976D01*
X146329100Y-100666976D02*
X146376719Y-100524119D01*
X146376719Y-100524119D02*
X146376719Y-100428881D01*
X146376719Y-100428881D02*
X146329100Y-100286024D01*
X146329100Y-100286024D02*
X146233861Y-100190786D01*
X146233861Y-100190786D02*
X146138623Y-100143167D01*
X146138623Y-100143167D02*
X145948147Y-100095548D01*
X145948147Y-100095548D02*
X145805290Y-100095548D01*
X145805290Y-100095548D02*
X145614814Y-100143167D01*
X145614814Y-100143167D02*
X145519576Y-100190786D01*
X145519576Y-100190786D02*
X145424338Y-100286024D01*
X145424338Y-100286024D02*
X145376719Y-100428881D01*
X145376719Y-100428881D02*
X145376719Y-100524119D01*
X145376719Y-100524119D02*
X145424338Y-100666976D01*
X145424338Y-100666976D02*
X145471957Y-100714595D01*
X146376719Y-101666976D02*
X146376719Y-101095548D01*
X146376719Y-101381262D02*
X145376719Y-101381262D01*
X145376719Y-101381262D02*
X145519576Y-101286024D01*
X145519576Y-101286024D02*
X145614814Y-101190786D01*
X145614814Y-101190786D02*
X145662433Y-101095548D01*
X139188566Y-93790842D02*
X139236185Y-93838462D01*
X139236185Y-93838462D02*
X139379042Y-93886081D01*
X139379042Y-93886081D02*
X139474280Y-93886081D01*
X139474280Y-93886081D02*
X139617137Y-93838462D01*
X139617137Y-93838462D02*
X139712375Y-93743223D01*
X139712375Y-93743223D02*
X139759994Y-93647985D01*
X139759994Y-93647985D02*
X139807613Y-93457509D01*
X139807613Y-93457509D02*
X139807613Y-93314652D01*
X139807613Y-93314652D02*
X139759994Y-93124176D01*
X139759994Y-93124176D02*
X139712375Y-93028938D01*
X139712375Y-93028938D02*
X139617137Y-92933700D01*
X139617137Y-92933700D02*
X139474280Y-92886081D01*
X139474280Y-92886081D02*
X139379042Y-92886081D01*
X139379042Y-92886081D02*
X139236185Y-92933700D01*
X139236185Y-92933700D02*
X139188566Y-92981319D01*
X138712375Y-93886081D02*
X138521899Y-93886081D01*
X138521899Y-93886081D02*
X138426661Y-93838462D01*
X138426661Y-93838462D02*
X138379042Y-93790842D01*
X138379042Y-93790842D02*
X138283804Y-93647985D01*
X138283804Y-93647985D02*
X138236185Y-93457509D01*
X138236185Y-93457509D02*
X138236185Y-93076557D01*
X138236185Y-93076557D02*
X138283804Y-92981319D01*
X138283804Y-92981319D02*
X138331423Y-92933700D01*
X138331423Y-92933700D02*
X138426661Y-92886081D01*
X138426661Y-92886081D02*
X138617137Y-92886081D01*
X138617137Y-92886081D02*
X138712375Y-92933700D01*
X138712375Y-92933700D02*
X138759994Y-92981319D01*
X138759994Y-92981319D02*
X138807613Y-93076557D01*
X138807613Y-93076557D02*
X138807613Y-93314652D01*
X138807613Y-93314652D02*
X138759994Y-93409890D01*
X138759994Y-93409890D02*
X138712375Y-93457509D01*
X138712375Y-93457509D02*
X138617137Y-93505128D01*
X138617137Y-93505128D02*
X138426661Y-93505128D01*
X138426661Y-93505128D02*
X138331423Y-93457509D01*
X138331423Y-93457509D02*
X138283804Y-93409890D01*
X138283804Y-93409890D02*
X138236185Y-93314652D01*
X141888566Y-109940842D02*
X141936185Y-109988462D01*
X141936185Y-109988462D02*
X142079042Y-110036081D01*
X142079042Y-110036081D02*
X142174280Y-110036081D01*
X142174280Y-110036081D02*
X142317137Y-109988462D01*
X142317137Y-109988462D02*
X142412375Y-109893223D01*
X142412375Y-109893223D02*
X142459994Y-109797985D01*
X142459994Y-109797985D02*
X142507613Y-109607509D01*
X142507613Y-109607509D02*
X142507613Y-109464652D01*
X142507613Y-109464652D02*
X142459994Y-109274176D01*
X142459994Y-109274176D02*
X142412375Y-109178938D01*
X142412375Y-109178938D02*
X142317137Y-109083700D01*
X142317137Y-109083700D02*
X142174280Y-109036081D01*
X142174280Y-109036081D02*
X142079042Y-109036081D01*
X142079042Y-109036081D02*
X141936185Y-109083700D01*
X141936185Y-109083700D02*
X141888566Y-109131319D01*
X141031423Y-109036081D02*
X141221899Y-109036081D01*
X141221899Y-109036081D02*
X141317137Y-109083700D01*
X141317137Y-109083700D02*
X141364756Y-109131319D01*
X141364756Y-109131319D02*
X141459994Y-109274176D01*
X141459994Y-109274176D02*
X141507613Y-109464652D01*
X141507613Y-109464652D02*
X141507613Y-109845604D01*
X141507613Y-109845604D02*
X141459994Y-109940842D01*
X141459994Y-109940842D02*
X141412375Y-109988462D01*
X141412375Y-109988462D02*
X141317137Y-110036081D01*
X141317137Y-110036081D02*
X141126661Y-110036081D01*
X141126661Y-110036081D02*
X141031423Y-109988462D01*
X141031423Y-109988462D02*
X140983804Y-109940842D01*
X140983804Y-109940842D02*
X140936185Y-109845604D01*
X140936185Y-109845604D02*
X140936185Y-109607509D01*
X140936185Y-109607509D02*
X140983804Y-109512271D01*
X140983804Y-109512271D02*
X141031423Y-109464652D01*
X141031423Y-109464652D02*
X141126661Y-109417033D01*
X141126661Y-109417033D02*
X141317137Y-109417033D01*
X141317137Y-109417033D02*
X141412375Y-109464652D01*
X141412375Y-109464652D02*
X141459994Y-109512271D01*
X141459994Y-109512271D02*
X141507613Y-109607509D01*
X136314757Y-103990842D02*
X136362376Y-104038462D01*
X136362376Y-104038462D02*
X136505233Y-104086081D01*
X136505233Y-104086081D02*
X136600471Y-104086081D01*
X136600471Y-104086081D02*
X136743328Y-104038462D01*
X136743328Y-104038462D02*
X136838566Y-103943223D01*
X136838566Y-103943223D02*
X136886185Y-103847985D01*
X136886185Y-103847985D02*
X136933804Y-103657509D01*
X136933804Y-103657509D02*
X136933804Y-103514652D01*
X136933804Y-103514652D02*
X136886185Y-103324176D01*
X136886185Y-103324176D02*
X136838566Y-103228938D01*
X136838566Y-103228938D02*
X136743328Y-103133700D01*
X136743328Y-103133700D02*
X136600471Y-103086081D01*
X136600471Y-103086081D02*
X136505233Y-103086081D01*
X136505233Y-103086081D02*
X136362376Y-103133700D01*
X136362376Y-103133700D02*
X136314757Y-103181319D01*
X135362376Y-104086081D02*
X135933804Y-104086081D01*
X135648090Y-104086081D02*
X135648090Y-103086081D01*
X135648090Y-103086081D02*
X135743328Y-103228938D01*
X135743328Y-103228938D02*
X135838566Y-103324176D01*
X135838566Y-103324176D02*
X135933804Y-103371795D01*
X134457614Y-103086081D02*
X134933804Y-103086081D01*
X134933804Y-103086081D02*
X134981423Y-103562271D01*
X134981423Y-103562271D02*
X134933804Y-103514652D01*
X134933804Y-103514652D02*
X134838566Y-103467033D01*
X134838566Y-103467033D02*
X134600471Y-103467033D01*
X134600471Y-103467033D02*
X134505233Y-103514652D01*
X134505233Y-103514652D02*
X134457614Y-103562271D01*
X134457614Y-103562271D02*
X134409995Y-103657509D01*
X134409995Y-103657509D02*
X134409995Y-103895604D01*
X134409995Y-103895604D02*
X134457614Y-103990842D01*
X134457614Y-103990842D02*
X134505233Y-104038462D01*
X134505233Y-104038462D02*
X134600471Y-104086081D01*
X134600471Y-104086081D02*
X134838566Y-104086081D01*
X134838566Y-104086081D02*
X134933804Y-104038462D01*
X134933804Y-104038462D02*
X134981423Y-103990842D01*
X145983804Y-102136081D02*
X145983804Y-102945604D01*
X145983804Y-102945604D02*
X145936185Y-103040842D01*
X145936185Y-103040842D02*
X145888566Y-103088462D01*
X145888566Y-103088462D02*
X145793328Y-103136081D01*
X145793328Y-103136081D02*
X145602852Y-103136081D01*
X145602852Y-103136081D02*
X145507614Y-103088462D01*
X145507614Y-103088462D02*
X145459995Y-103040842D01*
X145459995Y-103040842D02*
X145412376Y-102945604D01*
X145412376Y-102945604D02*
X145412376Y-102136081D01*
X144983804Y-102231319D02*
X144936185Y-102183700D01*
X144936185Y-102183700D02*
X144840947Y-102136081D01*
X144840947Y-102136081D02*
X144602852Y-102136081D01*
X144602852Y-102136081D02*
X144507614Y-102183700D01*
X144507614Y-102183700D02*
X144459995Y-102231319D01*
X144459995Y-102231319D02*
X144412376Y-102326557D01*
X144412376Y-102326557D02*
X144412376Y-102421795D01*
X144412376Y-102421795D02*
X144459995Y-102564652D01*
X144459995Y-102564652D02*
X145031423Y-103136081D01*
X145031423Y-103136081D02*
X144412376Y-103136081D01*
D11*
X135355233Y-110663681D02*
X135355233Y-111377966D01*
X135355233Y-111377966D02*
X135402852Y-111520823D01*
X135402852Y-111520823D02*
X135498090Y-111616062D01*
X135498090Y-111616062D02*
X135640947Y-111663681D01*
X135640947Y-111663681D02*
X135736185Y-111663681D01*
X134926661Y-110758919D02*
X134879042Y-110711300D01*
X134879042Y-110711300D02*
X134783804Y-110663681D01*
X134783804Y-110663681D02*
X134545709Y-110663681D01*
X134545709Y-110663681D02*
X134450471Y-110711300D01*
X134450471Y-110711300D02*
X134402852Y-110758919D01*
X134402852Y-110758919D02*
X134355233Y-110854157D01*
X134355233Y-110854157D02*
X134355233Y-110949395D01*
X134355233Y-110949395D02*
X134402852Y-111092252D01*
X134402852Y-111092252D02*
X134974280Y-111663681D01*
X134974280Y-111663681D02*
X134355233Y-111663681D01*
D10*
X139326719Y-98664595D02*
X138850528Y-98331262D01*
X139326719Y-98093167D02*
X138326719Y-98093167D01*
X138326719Y-98093167D02*
X138326719Y-98474119D01*
X138326719Y-98474119D02*
X138374338Y-98569357D01*
X138374338Y-98569357D02*
X138421957Y-98616976D01*
X138421957Y-98616976D02*
X138517195Y-98664595D01*
X138517195Y-98664595D02*
X138660052Y-98664595D01*
X138660052Y-98664595D02*
X138755290Y-98616976D01*
X138755290Y-98616976D02*
X138802909Y-98569357D01*
X138802909Y-98569357D02*
X138850528Y-98474119D01*
X138850528Y-98474119D02*
X138850528Y-98093167D01*
X138421957Y-99045548D02*
X138374338Y-99093167D01*
X138374338Y-99093167D02*
X138326719Y-99188405D01*
X138326719Y-99188405D02*
X138326719Y-99426500D01*
X138326719Y-99426500D02*
X138374338Y-99521738D01*
X138374338Y-99521738D02*
X138421957Y-99569357D01*
X138421957Y-99569357D02*
X138517195Y-99616976D01*
X138517195Y-99616976D02*
X138612433Y-99616976D01*
X138612433Y-99616976D02*
X138755290Y-99569357D01*
X138755290Y-99569357D02*
X139326719Y-98997929D01*
X139326719Y-98997929D02*
X139326719Y-99616976D01*
X144476719Y-93819357D02*
X145286242Y-93819357D01*
X145286242Y-93819357D02*
X145381480Y-93866976D01*
X145381480Y-93866976D02*
X145429100Y-93914595D01*
X145429100Y-93914595D02*
X145476719Y-94009833D01*
X145476719Y-94009833D02*
X145476719Y-94200309D01*
X145476719Y-94200309D02*
X145429100Y-94295547D01*
X145429100Y-94295547D02*
X145381480Y-94343166D01*
X145381480Y-94343166D02*
X145286242Y-94390785D01*
X145286242Y-94390785D02*
X144476719Y-94390785D01*
X144905290Y-95009833D02*
X144857671Y-94914595D01*
X144857671Y-94914595D02*
X144810052Y-94866976D01*
X144810052Y-94866976D02*
X144714814Y-94819357D01*
X144714814Y-94819357D02*
X144667195Y-94819357D01*
X144667195Y-94819357D02*
X144571957Y-94866976D01*
X144571957Y-94866976D02*
X144524338Y-94914595D01*
X144524338Y-94914595D02*
X144476719Y-95009833D01*
X144476719Y-95009833D02*
X144476719Y-95200309D01*
X144476719Y-95200309D02*
X144524338Y-95295547D01*
X144524338Y-95295547D02*
X144571957Y-95343166D01*
X144571957Y-95343166D02*
X144667195Y-95390785D01*
X144667195Y-95390785D02*
X144714814Y-95390785D01*
X144714814Y-95390785D02*
X144810052Y-95343166D01*
X144810052Y-95343166D02*
X144857671Y-95295547D01*
X144857671Y-95295547D02*
X144905290Y-95200309D01*
X144905290Y-95200309D02*
X144905290Y-95009833D01*
X144905290Y-95009833D02*
X144952909Y-94914595D01*
X144952909Y-94914595D02*
X145000528Y-94866976D01*
X145000528Y-94866976D02*
X145095766Y-94819357D01*
X145095766Y-94819357D02*
X145286242Y-94819357D01*
X145286242Y-94819357D02*
X145381480Y-94866976D01*
X145381480Y-94866976D02*
X145429100Y-94914595D01*
X145429100Y-94914595D02*
X145476719Y-95009833D01*
X145476719Y-95009833D02*
X145476719Y-95200309D01*
X145476719Y-95200309D02*
X145429100Y-95295547D01*
X145429100Y-95295547D02*
X145381480Y-95343166D01*
X145381480Y-95343166D02*
X145286242Y-95390785D01*
X145286242Y-95390785D02*
X145095766Y-95390785D01*
X145095766Y-95390785D02*
X145000528Y-95343166D01*
X145000528Y-95343166D02*
X144952909Y-95295547D01*
X144952909Y-95295547D02*
X144905290Y-95200309D01*
X139388566Y-104611081D02*
X139721899Y-104134890D01*
X139959994Y-104611081D02*
X139959994Y-103611081D01*
X139959994Y-103611081D02*
X139579042Y-103611081D01*
X139579042Y-103611081D02*
X139483804Y-103658700D01*
X139483804Y-103658700D02*
X139436185Y-103706319D01*
X139436185Y-103706319D02*
X139388566Y-103801557D01*
X139388566Y-103801557D02*
X139388566Y-103944414D01*
X139388566Y-103944414D02*
X139436185Y-104039652D01*
X139436185Y-104039652D02*
X139483804Y-104087271D01*
X139483804Y-104087271D02*
X139579042Y-104134890D01*
X139579042Y-104134890D02*
X139959994Y-104134890D01*
X138483804Y-103611081D02*
X138959994Y-103611081D01*
X138959994Y-103611081D02*
X139007613Y-104087271D01*
X139007613Y-104087271D02*
X138959994Y-104039652D01*
X138959994Y-104039652D02*
X138864756Y-103992033D01*
X138864756Y-103992033D02*
X138626661Y-103992033D01*
X138626661Y-103992033D02*
X138531423Y-104039652D01*
X138531423Y-104039652D02*
X138483804Y-104087271D01*
X138483804Y-104087271D02*
X138436185Y-104182509D01*
X138436185Y-104182509D02*
X138436185Y-104420604D01*
X138436185Y-104420604D02*
X138483804Y-104515842D01*
X138483804Y-104515842D02*
X138531423Y-104563462D01*
X138531423Y-104563462D02*
X138626661Y-104611081D01*
X138626661Y-104611081D02*
X138864756Y-104611081D01*
X138864756Y-104611081D02*
X138959994Y-104563462D01*
X138959994Y-104563462D02*
X139007613Y-104515842D01*
X136117138Y-102781319D02*
X136212376Y-102733700D01*
X136212376Y-102733700D02*
X136307614Y-102638462D01*
X136307614Y-102638462D02*
X136450471Y-102495604D01*
X136450471Y-102495604D02*
X136545709Y-102447985D01*
X136545709Y-102447985D02*
X136640947Y-102447985D01*
X136593328Y-102686081D02*
X136688566Y-102638462D01*
X136688566Y-102638462D02*
X136783804Y-102543223D01*
X136783804Y-102543223D02*
X136831423Y-102352747D01*
X136831423Y-102352747D02*
X136831423Y-102019414D01*
X136831423Y-102019414D02*
X136783804Y-101828938D01*
X136783804Y-101828938D02*
X136688566Y-101733700D01*
X136688566Y-101733700D02*
X136593328Y-101686081D01*
X136593328Y-101686081D02*
X136402852Y-101686081D01*
X136402852Y-101686081D02*
X136307614Y-101733700D01*
X136307614Y-101733700D02*
X136212376Y-101828938D01*
X136212376Y-101828938D02*
X136164757Y-102019414D01*
X136164757Y-102019414D02*
X136164757Y-102352747D01*
X136164757Y-102352747D02*
X136212376Y-102543223D01*
X136212376Y-102543223D02*
X136307614Y-102638462D01*
X136307614Y-102638462D02*
X136402852Y-102686081D01*
X136402852Y-102686081D02*
X136593328Y-102686081D01*
X135783804Y-101781319D02*
X135736185Y-101733700D01*
X135736185Y-101733700D02*
X135640947Y-101686081D01*
X135640947Y-101686081D02*
X135402852Y-101686081D01*
X135402852Y-101686081D02*
X135307614Y-101733700D01*
X135307614Y-101733700D02*
X135259995Y-101781319D01*
X135259995Y-101781319D02*
X135212376Y-101876557D01*
X135212376Y-101876557D02*
X135212376Y-101971795D01*
X135212376Y-101971795D02*
X135259995Y-102114652D01*
X135259995Y-102114652D02*
X135831423Y-102686081D01*
X135831423Y-102686081D02*
X135212376Y-102686081D01*
X134926719Y-90119357D02*
X135736242Y-90119357D01*
X135736242Y-90119357D02*
X135831480Y-90166976D01*
X135831480Y-90166976D02*
X135879100Y-90214595D01*
X135879100Y-90214595D02*
X135926719Y-90309833D01*
X135926719Y-90309833D02*
X135926719Y-90500309D01*
X135926719Y-90500309D02*
X135879100Y-90595547D01*
X135879100Y-90595547D02*
X135831480Y-90643166D01*
X135831480Y-90643166D02*
X135736242Y-90690785D01*
X135736242Y-90690785D02*
X134926719Y-90690785D01*
X134926719Y-91643166D02*
X134926719Y-91166976D01*
X134926719Y-91166976D02*
X135402909Y-91119357D01*
X135402909Y-91119357D02*
X135355290Y-91166976D01*
X135355290Y-91166976D02*
X135307671Y-91262214D01*
X135307671Y-91262214D02*
X135307671Y-91500309D01*
X135307671Y-91500309D02*
X135355290Y-91595547D01*
X135355290Y-91595547D02*
X135402909Y-91643166D01*
X135402909Y-91643166D02*
X135498147Y-91690785D01*
X135498147Y-91690785D02*
X135736242Y-91690785D01*
X135736242Y-91690785D02*
X135831480Y-91643166D01*
X135831480Y-91643166D02*
X135879100Y-91595547D01*
X135879100Y-91595547D02*
X135926719Y-91500309D01*
X135926719Y-91500309D02*
X135926719Y-91262214D01*
X135926719Y-91262214D02*
X135879100Y-91166976D01*
X135879100Y-91166976D02*
X135831480Y-91119357D01*
X140788566Y-88790842D02*
X140836185Y-88838462D01*
X140836185Y-88838462D02*
X140979042Y-88886081D01*
X140979042Y-88886081D02*
X141074280Y-88886081D01*
X141074280Y-88886081D02*
X141217137Y-88838462D01*
X141217137Y-88838462D02*
X141312375Y-88743223D01*
X141312375Y-88743223D02*
X141359994Y-88647985D01*
X141359994Y-88647985D02*
X141407613Y-88457509D01*
X141407613Y-88457509D02*
X141407613Y-88314652D01*
X141407613Y-88314652D02*
X141359994Y-88124176D01*
X141359994Y-88124176D02*
X141312375Y-88028938D01*
X141312375Y-88028938D02*
X141217137Y-87933700D01*
X141217137Y-87933700D02*
X141074280Y-87886081D01*
X141074280Y-87886081D02*
X140979042Y-87886081D01*
X140979042Y-87886081D02*
X140836185Y-87933700D01*
X140836185Y-87933700D02*
X140788566Y-87981319D01*
X140455232Y-87886081D02*
X139836185Y-87886081D01*
X139836185Y-87886081D02*
X140169518Y-88267033D01*
X140169518Y-88267033D02*
X140026661Y-88267033D01*
X140026661Y-88267033D02*
X139931423Y-88314652D01*
X139931423Y-88314652D02*
X139883804Y-88362271D01*
X139883804Y-88362271D02*
X139836185Y-88457509D01*
X139836185Y-88457509D02*
X139836185Y-88695604D01*
X139836185Y-88695604D02*
X139883804Y-88790842D01*
X139883804Y-88790842D02*
X139931423Y-88838462D01*
X139931423Y-88838462D02*
X140026661Y-88886081D01*
X140026661Y-88886081D02*
X140312375Y-88886081D01*
X140312375Y-88886081D02*
X140407613Y-88838462D01*
X140407613Y-88838462D02*
X140455232Y-88790842D01*
X137327909Y-98122928D02*
X137327909Y-97789595D01*
X137851719Y-97789595D02*
X136851719Y-97789595D01*
X136851719Y-97789595D02*
X136851719Y-98265785D01*
X137851719Y-99170547D02*
X137851719Y-98599119D01*
X137851719Y-98884833D02*
X136851719Y-98884833D01*
X136851719Y-98884833D02*
X136994576Y-98789595D01*
X136994576Y-98789595D02*
X137089814Y-98694357D01*
X137089814Y-98694357D02*
X137137433Y-98599119D01*
D12*
X143044154Y-100469202D02*
X142082489Y-99507536D01*
X143044154Y-100469202D02*
X143609840Y-99903516D01*
X143609840Y-99903516D02*
X142648174Y-98941851D01*
X140071900Y-94771262D02*
X140071900Y-96131262D01*
X140871900Y-94771262D02*
X140071900Y-94771262D01*
X140871900Y-94771262D02*
X140871900Y-96131262D01*
X147856900Y-99331262D02*
X145336900Y-99331262D01*
X147906900Y-96431262D02*
X145386900Y-96431262D01*
X143111900Y-86131262D02*
X143111900Y-87531262D01*
X145431900Y-86131262D02*
X145431900Y-87541262D01*
X145711900Y-88151262D02*
X145381900Y-87911262D01*
X145711900Y-87671262D01*
X145711900Y-88151262D01*
G36*
X145711900Y-88151262D02*
G01*
X145381900Y-87911262D01*
X145711900Y-87671262D01*
X145711900Y-88151262D01*
G37*
D11*
X138171900Y-108143762D02*
X138171900Y-108493762D01*
X138171900Y-108493762D02*
X139071900Y-108493762D01*
X139071900Y-108093762D02*
X139071900Y-108493762D01*
D12*
X146783152Y-91296262D02*
X146260648Y-91296262D01*
X146783152Y-92766262D02*
X146260648Y-92766262D01*
X140161900Y-86131262D02*
X140161900Y-87531262D01*
X142481900Y-86131262D02*
X142481900Y-87541262D01*
X142761900Y-88151262D02*
X142431900Y-87911262D01*
X142761900Y-87671262D01*
X142761900Y-88151262D01*
G36*
X142761900Y-88151262D02*
G01*
X142431900Y-87911262D01*
X142761900Y-87671262D01*
X142761900Y-88151262D01*
G37*
D11*
X137046900Y-108043762D02*
X137046900Y-107643762D01*
X137946900Y-107643762D02*
X137046900Y-107643762D01*
X137946900Y-107993762D02*
X137946900Y-107643762D01*
D12*
X146911900Y-109896842D02*
X146911900Y-109615682D01*
X147931900Y-109896842D02*
X147931900Y-109615682D01*
X136086900Y-84742514D02*
X136086900Y-84220010D01*
X137556900Y-84742514D02*
X137556900Y-84220010D01*
X136562480Y-109371262D02*
X136281320Y-109371262D01*
X136562480Y-110391262D02*
X136281320Y-110391262D01*
X141211900Y-104471842D02*
X141211900Y-104190682D01*
X142231900Y-104471842D02*
X142231900Y-104190682D01*
X142671900Y-96621262D02*
X142671900Y-97981262D01*
X143471900Y-96621262D02*
X142671900Y-96621262D01*
X143471900Y-96621262D02*
X143471900Y-97981262D01*
D11*
X136659400Y-106656262D02*
X136659400Y-107556262D01*
X137009400Y-106656262D02*
X136659400Y-106656262D01*
X137059400Y-107556262D02*
X136659400Y-107556262D01*
D12*
X137475541Y-89676262D02*
X137168259Y-89676262D01*
X137475541Y-90436262D02*
X137168259Y-90436262D01*
X146636900Y-101270010D02*
X146636900Y-101792514D01*
X148106900Y-101270010D02*
X148106900Y-101792514D01*
X141281320Y-93021262D02*
X141562480Y-93021262D01*
X141281320Y-94041262D02*
X141562480Y-94041262D01*
X139281320Y-108796262D02*
X139562480Y-108796262D01*
X139281320Y-109816262D02*
X139562480Y-109816262D01*
X136811900Y-105371842D02*
X136811900Y-105090682D01*
X137831900Y-105371842D02*
X137831900Y-105090682D01*
X145371900Y-103421262D02*
X146021900Y-103421262D01*
X145371900Y-106541262D02*
X146021900Y-106541262D01*
X146671900Y-103421262D02*
X146021900Y-103421262D01*
X146671900Y-106541262D02*
X146021900Y-106541262D01*
X147184400Y-103471262D02*
X146944400Y-103141262D01*
X147424400Y-103141262D01*
X147184400Y-103471262D01*
G36*
X147184400Y-103471262D02*
G01*
X146944400Y-103141262D01*
X147424400Y-103141262D01*
X147184400Y-103471262D01*
G37*
D11*
X145921900Y-115631262D02*
X145421900Y-115631262D01*
X145671900Y-115131262D01*
X145921900Y-115631262D01*
G36*
X145921900Y-115631262D02*
G01*
X145421900Y-115631262D01*
X145671900Y-115131262D01*
X145921900Y-115631262D01*
G37*
D12*
X145631900Y-95571262D02*
X145631900Y-93571262D01*
X147911900Y-95581262D02*
X147911900Y-93581262D01*
X145701900Y-93211262D02*
X145421900Y-93211262D01*
X145701900Y-92931262D01*
X145701900Y-93211262D01*
G36*
X145701900Y-93211262D02*
G01*
X145421900Y-93211262D01*
X145701900Y-92931262D01*
X145701900Y-93211262D01*
G37*
X138791900Y-103721262D02*
X140201900Y-103721262D01*
X138791900Y-104381262D02*
X138791900Y-103721262D01*
X138791900Y-106041262D02*
X138791900Y-105381262D01*
X138791900Y-106041262D02*
X140201900Y-106041262D01*
X140571900Y-103741262D02*
X140331900Y-103411262D01*
X140811900Y-103411262D01*
X140571900Y-103741262D01*
G36*
X140571900Y-103741262D02*
G01*
X140331900Y-103411262D01*
X140811900Y-103411262D01*
X140571900Y-103741262D01*
G37*
X136171900Y-86333762D02*
X136971900Y-86333762D01*
X136171900Y-89453762D02*
X136971900Y-89453762D01*
X137771900Y-86333762D02*
X136971900Y-86333762D01*
X137771900Y-89453762D02*
X136971900Y-89453762D01*
X135911900Y-89733762D02*
X135431900Y-89733762D01*
X135671900Y-89403762D01*
X135911900Y-89733762D01*
G36*
X135911900Y-89733762D02*
G01*
X135431900Y-89733762D01*
X135671900Y-89403762D01*
X135911900Y-89733762D01*
G37*
X140460648Y-89096262D02*
X140983152Y-89096262D01*
X140460648Y-90566262D02*
X140983152Y-90566262D01*
X141111900Y-96423426D02*
X141111900Y-96639098D01*
X141831900Y-96423426D02*
X141831900Y-96639098D01*
%LPC*%
D13*
X141421900Y-102331262D03*
D14*
X141421900Y-94831262D03*
D15*
X139271900Y-100981262D03*
X143571900Y-100981262D03*
X139271900Y-96181262D03*
X143571900Y-96181262D03*
D16*
X136521900Y-100731262D03*
X136521900Y-96431262D03*
D17*
X140001900Y-103231262D03*
X140641900Y-103231262D03*
D18*
X143015870Y-99875232D03*
X142421900Y-99281262D03*
D19*
X140471900Y-95211262D03*
X140471900Y-96051262D03*
D20*
X145521900Y-97881262D03*
X147721900Y-97881262D03*
D21*
X140121900Y-82356262D03*
X143121900Y-82356262D03*
D22*
X139371900Y-84106262D03*
X142371900Y-84106262D03*
X143871900Y-84106262D03*
D23*
X144921900Y-87781262D03*
X144271900Y-87781262D03*
X143621900Y-87781262D03*
X143621900Y-85881262D03*
X144271900Y-85881262D03*
X144921900Y-85881262D03*
D24*
X138171900Y-110411262D03*
X138171900Y-111051262D03*
D25*
X142342126Y-100401488D03*
X141889578Y-99948940D03*
D26*
X138621900Y-108123762D03*
D27*
X138621900Y-107431262D03*
D28*
X142386900Y-94981262D03*
X143356900Y-94981262D03*
D29*
X145571900Y-92031262D03*
X147471900Y-92031262D03*
D24*
X139921900Y-110411262D03*
X139921900Y-111051262D03*
D23*
X141971900Y-87781262D03*
X141321900Y-87781262D03*
X140671900Y-87781262D03*
X140671900Y-85881262D03*
X141321900Y-85881262D03*
X141971900Y-85881262D03*
D24*
X144171900Y-94411262D03*
X144171900Y-95051262D03*
D30*
X141761900Y-107356262D03*
X139981900Y-107356262D03*
D26*
X137496900Y-108013762D03*
D27*
X137496900Y-108706262D03*
D31*
X147421900Y-108981262D03*
X147421900Y-110531262D03*
D32*
X136821900Y-83531262D03*
X136821900Y-85431262D03*
D33*
X135646900Y-109881262D03*
X137196900Y-109881262D03*
D31*
X141721900Y-103556262D03*
X141721900Y-105106262D03*
D34*
X141291900Y-110931262D03*
X140651900Y-110931262D03*
D19*
X143071900Y-97061262D03*
X143071900Y-97901262D03*
D24*
X139221900Y-110411262D03*
X139221900Y-111051262D03*
D35*
X137029400Y-107106262D03*
D36*
X137721900Y-107106262D03*
D37*
X136811900Y-90056262D03*
X137831900Y-90056262D03*
D34*
X146241900Y-110981262D03*
X145601900Y-110981262D03*
D38*
X147371900Y-102481262D03*
X147371900Y-100581262D03*
D17*
X136501900Y-110956262D03*
X137141900Y-110956262D03*
D39*
X142196900Y-93531262D03*
X140646900Y-93531262D03*
X140196900Y-109306262D03*
X138646900Y-109306262D03*
D31*
X137321900Y-104456262D03*
X137321900Y-106006262D03*
D40*
X146959400Y-104031262D03*
X146959400Y-105931262D03*
X145084400Y-104981262D03*
D41*
X145671900Y-114256262D03*
X145171900Y-112306262D03*
X144671900Y-114256262D03*
X144171900Y-112306262D03*
X143671900Y-114256262D03*
X143171900Y-112306262D03*
X142671900Y-114256262D03*
X142171900Y-112306262D03*
X141671900Y-114256262D03*
X141171900Y-112306262D03*
X140671900Y-114256262D03*
X140171900Y-112306262D03*
X139671900Y-114256262D03*
X139171900Y-112306262D03*
X138671900Y-114256262D03*
X138171900Y-112306262D03*
X137671900Y-114256262D03*
X137171900Y-112306262D03*
D24*
X142221900Y-96761262D03*
X142221900Y-97401262D03*
D42*
X146021900Y-93631262D03*
X146521900Y-93631262D03*
X147021900Y-93631262D03*
X147521900Y-93631262D03*
X147521900Y-95531262D03*
X147021900Y-95531262D03*
X146521900Y-95531262D03*
X146021900Y-95531262D03*
D43*
X146771900Y-94581262D03*
D17*
X138601900Y-103231262D03*
X139241900Y-103231262D03*
D44*
X140521900Y-104231262D03*
X140521900Y-105531262D03*
X138521900Y-104881262D03*
D45*
X135834400Y-88843762D03*
X135834400Y-87893762D03*
X135834400Y-86943762D03*
X138109400Y-86943762D03*
X138109400Y-87893762D03*
X138109400Y-88843762D03*
D46*
X141671900Y-89831262D03*
X139771900Y-89831262D03*
D47*
X141471900Y-97011262D03*
X141471900Y-96051262D03*
%LPD*%
M02*
