G04 #@! TF.GenerationSoftware,KiCad,Pcbnew,8.0.4*
G04 #@! TF.CreationDate,2025-02-17T15:20:16+00:00*
G04 #@! TF.ProjectId,miniCO2,6d696e69-434f-4322-9e6b-696361645f70,rev?*
G04 #@! TF.SameCoordinates,Original*
G04 #@! TF.FileFunction,AssemblyDrawing,Top*
%FSLAX46Y46*%
G04 Gerber Fmt 4.6, Leading zero omitted, Abs format (unit mm)*
G04 Created by KiCad (PCBNEW 8.0.4) date 2025-02-17 15:20:16*
%MOMM*%
%LPD*%
G01*
G04 APERTURE LIST*
%ADD10C,0.150000*%
%ADD11C,0.040000*%
%ADD12C,0.100000*%
G04 APERTURE END LIST*
D10*
X148959995Y-85786081D02*
X148959995Y-84786081D01*
X148959995Y-85262271D02*
X149531423Y-85262271D01*
X149531423Y-85786081D02*
X149531423Y-84786081D01*
X149959995Y-84881319D02*
X150007614Y-84833700D01*
X150007614Y-84833700D02*
X150102852Y-84786081D01*
X150102852Y-84786081D02*
X150340947Y-84786081D01*
X150340947Y-84786081D02*
X150436185Y-84833700D01*
X150436185Y-84833700D02*
X150483804Y-84881319D01*
X150483804Y-84881319D02*
X150531423Y-84976557D01*
X150531423Y-84976557D02*
X150531423Y-85071795D01*
X150531423Y-85071795D02*
X150483804Y-85214652D01*
X150483804Y-85214652D02*
X149912376Y-85786081D01*
X149912376Y-85786081D02*
X150531423Y-85786081D01*
X144688566Y-96686081D02*
X144688566Y-97400366D01*
X144688566Y-97400366D02*
X144640947Y-97543223D01*
X144640947Y-97543223D02*
X144545709Y-97638462D01*
X144545709Y-97638462D02*
X144402852Y-97686081D01*
X144402852Y-97686081D02*
X144307614Y-97686081D01*
X145688566Y-97686081D02*
X145117138Y-97686081D01*
X145402852Y-97686081D02*
X145402852Y-96686081D01*
X145402852Y-96686081D02*
X145307614Y-96828938D01*
X145307614Y-96828938D02*
X145212376Y-96924176D01*
X145212376Y-96924176D02*
X145117138Y-96971795D01*
X148959995Y-101186081D02*
X148959995Y-101995604D01*
X148959995Y-101995604D02*
X149007614Y-102090842D01*
X149007614Y-102090842D02*
X149055233Y-102138462D01*
X149055233Y-102138462D02*
X149150471Y-102186081D01*
X149150471Y-102186081D02*
X149340947Y-102186081D01*
X149340947Y-102186081D02*
X149436185Y-102138462D01*
X149436185Y-102138462D02*
X149483804Y-102090842D01*
X149483804Y-102090842D02*
X149531423Y-101995604D01*
X149531423Y-101995604D02*
X149531423Y-101186081D01*
X150436185Y-101519414D02*
X150436185Y-102186081D01*
X150198090Y-101138462D02*
X149959995Y-101852747D01*
X149959995Y-101852747D02*
X150579042Y-101852747D01*
D11*
X135455474Y-102972928D02*
X135336427Y-103056261D01*
X135455474Y-103115785D02*
X135205474Y-103115785D01*
X135205474Y-103115785D02*
X135205474Y-103020547D01*
X135205474Y-103020547D02*
X135217379Y-102996737D01*
X135217379Y-102996737D02*
X135229284Y-102984832D01*
X135229284Y-102984832D02*
X135253093Y-102972928D01*
X135253093Y-102972928D02*
X135288808Y-102972928D01*
X135288808Y-102972928D02*
X135312617Y-102984832D01*
X135312617Y-102984832D02*
X135324522Y-102996737D01*
X135324522Y-102996737D02*
X135336427Y-103020547D01*
X135336427Y-103020547D02*
X135336427Y-103115785D01*
X135205474Y-102758642D02*
X135205474Y-102806261D01*
X135205474Y-102806261D02*
X135217379Y-102830070D01*
X135217379Y-102830070D02*
X135229284Y-102841975D01*
X135229284Y-102841975D02*
X135264998Y-102865785D01*
X135264998Y-102865785D02*
X135312617Y-102877689D01*
X135312617Y-102877689D02*
X135407855Y-102877689D01*
X135407855Y-102877689D02*
X135431665Y-102865785D01*
X135431665Y-102865785D02*
X135443570Y-102853880D01*
X135443570Y-102853880D02*
X135455474Y-102830070D01*
X135455474Y-102830070D02*
X135455474Y-102782451D01*
X135455474Y-102782451D02*
X135443570Y-102758642D01*
X135443570Y-102758642D02*
X135431665Y-102746737D01*
X135431665Y-102746737D02*
X135407855Y-102734832D01*
X135407855Y-102734832D02*
X135348331Y-102734832D01*
X135348331Y-102734832D02*
X135324522Y-102746737D01*
X135324522Y-102746737D02*
X135312617Y-102758642D01*
X135312617Y-102758642D02*
X135300712Y-102782451D01*
X135300712Y-102782451D02*
X135300712Y-102830070D01*
X135300712Y-102830070D02*
X135312617Y-102853880D01*
X135312617Y-102853880D02*
X135324522Y-102865785D01*
X135324522Y-102865785D02*
X135348331Y-102877689D01*
D10*
X131859995Y-85686081D02*
X131859995Y-84686081D01*
X131859995Y-85162271D02*
X132431423Y-85162271D01*
X132431423Y-85686081D02*
X132431423Y-84686081D01*
X133431423Y-85686081D02*
X132859995Y-85686081D01*
X133145709Y-85686081D02*
X133145709Y-84686081D01*
X133145709Y-84686081D02*
X133050471Y-84828938D01*
X133050471Y-84828938D02*
X132955233Y-84924176D01*
X132955233Y-84924176D02*
X132859995Y-84971795D01*
D11*
X134755474Y-102972928D02*
X134636427Y-103056261D01*
X134755474Y-103115785D02*
X134505474Y-103115785D01*
X134505474Y-103115785D02*
X134505474Y-103020547D01*
X134505474Y-103020547D02*
X134517379Y-102996737D01*
X134517379Y-102996737D02*
X134529284Y-102984832D01*
X134529284Y-102984832D02*
X134553093Y-102972928D01*
X134553093Y-102972928D02*
X134588808Y-102972928D01*
X134588808Y-102972928D02*
X134612617Y-102984832D01*
X134612617Y-102984832D02*
X134624522Y-102996737D01*
X134624522Y-102996737D02*
X134636427Y-103020547D01*
X134636427Y-103020547D02*
X134636427Y-103115785D01*
X134505474Y-102889594D02*
X134505474Y-102722928D01*
X134505474Y-102722928D02*
X134755474Y-102830070D01*
X136015474Y-91072928D02*
X135896427Y-91156261D01*
X136015474Y-91215785D02*
X135765474Y-91215785D01*
X135765474Y-91215785D02*
X135765474Y-91120547D01*
X135765474Y-91120547D02*
X135777379Y-91096737D01*
X135777379Y-91096737D02*
X135789284Y-91084832D01*
X135789284Y-91084832D02*
X135813093Y-91072928D01*
X135813093Y-91072928D02*
X135848808Y-91072928D01*
X135848808Y-91072928D02*
X135872617Y-91084832D01*
X135872617Y-91084832D02*
X135884522Y-91096737D01*
X135884522Y-91096737D02*
X135896427Y-91120547D01*
X135896427Y-91120547D02*
X135896427Y-91215785D01*
X136015474Y-90834832D02*
X136015474Y-90977689D01*
X136015474Y-90906261D02*
X135765474Y-90906261D01*
X135765474Y-90906261D02*
X135801189Y-90930070D01*
X135801189Y-90930070D02*
X135824998Y-90953880D01*
X135824998Y-90953880D02*
X135836903Y-90977689D01*
X135335474Y-89515785D02*
X135085474Y-89515785D01*
X135085474Y-89515785D02*
X135085474Y-89456261D01*
X135085474Y-89456261D02*
X135097379Y-89420547D01*
X135097379Y-89420547D02*
X135121189Y-89396737D01*
X135121189Y-89396737D02*
X135144998Y-89384832D01*
X135144998Y-89384832D02*
X135192617Y-89372928D01*
X135192617Y-89372928D02*
X135228331Y-89372928D01*
X135228331Y-89372928D02*
X135275950Y-89384832D01*
X135275950Y-89384832D02*
X135299760Y-89396737D01*
X135299760Y-89396737D02*
X135323570Y-89420547D01*
X135323570Y-89420547D02*
X135335474Y-89456261D01*
X135335474Y-89456261D02*
X135335474Y-89515785D01*
X135192617Y-89230070D02*
X135180712Y-89253880D01*
X135180712Y-89253880D02*
X135168808Y-89265785D01*
X135168808Y-89265785D02*
X135144998Y-89277689D01*
X135144998Y-89277689D02*
X135133093Y-89277689D01*
X135133093Y-89277689D02*
X135109284Y-89265785D01*
X135109284Y-89265785D02*
X135097379Y-89253880D01*
X135097379Y-89253880D02*
X135085474Y-89230070D01*
X135085474Y-89230070D02*
X135085474Y-89182451D01*
X135085474Y-89182451D02*
X135097379Y-89158642D01*
X135097379Y-89158642D02*
X135109284Y-89146737D01*
X135109284Y-89146737D02*
X135133093Y-89134832D01*
X135133093Y-89134832D02*
X135144998Y-89134832D01*
X135144998Y-89134832D02*
X135168808Y-89146737D01*
X135168808Y-89146737D02*
X135180712Y-89158642D01*
X135180712Y-89158642D02*
X135192617Y-89182451D01*
X135192617Y-89182451D02*
X135192617Y-89230070D01*
X135192617Y-89230070D02*
X135204522Y-89253880D01*
X135204522Y-89253880D02*
X135216427Y-89265785D01*
X135216427Y-89265785D02*
X135240236Y-89277689D01*
X135240236Y-89277689D02*
X135287855Y-89277689D01*
X135287855Y-89277689D02*
X135311665Y-89265785D01*
X135311665Y-89265785D02*
X135323570Y-89253880D01*
X135323570Y-89253880D02*
X135335474Y-89230070D01*
X135335474Y-89230070D02*
X135335474Y-89182451D01*
X135335474Y-89182451D02*
X135323570Y-89158642D01*
X135323570Y-89158642D02*
X135311665Y-89146737D01*
X135311665Y-89146737D02*
X135287855Y-89134832D01*
X135287855Y-89134832D02*
X135240236Y-89134832D01*
X135240236Y-89134832D02*
X135216427Y-89146737D01*
X135216427Y-89146737D02*
X135204522Y-89158642D01*
X135204522Y-89158642D02*
X135192617Y-89182451D01*
D10*
X140659995Y-87636081D02*
X140659995Y-88445604D01*
X140659995Y-88445604D02*
X140707614Y-88540842D01*
X140707614Y-88540842D02*
X140755233Y-88588462D01*
X140755233Y-88588462D02*
X140850471Y-88636081D01*
X140850471Y-88636081D02*
X141040947Y-88636081D01*
X141040947Y-88636081D02*
X141136185Y-88588462D01*
X141136185Y-88588462D02*
X141183804Y-88540842D01*
X141183804Y-88540842D02*
X141231423Y-88445604D01*
X141231423Y-88445604D02*
X141231423Y-87636081D01*
X141612376Y-87636081D02*
X142231423Y-87636081D01*
X142231423Y-87636081D02*
X141898090Y-88017033D01*
X141898090Y-88017033D02*
X142040947Y-88017033D01*
X142040947Y-88017033D02*
X142136185Y-88064652D01*
X142136185Y-88064652D02*
X142183804Y-88112271D01*
X142183804Y-88112271D02*
X142231423Y-88207509D01*
X142231423Y-88207509D02*
X142231423Y-88445604D01*
X142231423Y-88445604D02*
X142183804Y-88540842D01*
X142183804Y-88540842D02*
X142136185Y-88588462D01*
X142136185Y-88588462D02*
X142040947Y-88636081D01*
X142040947Y-88636081D02*
X141755233Y-88636081D01*
X141755233Y-88636081D02*
X141659995Y-88588462D01*
X141659995Y-88588462D02*
X141612376Y-88540842D01*
D11*
X136955474Y-102972928D02*
X136836427Y-103056261D01*
X136955474Y-103115785D02*
X136705474Y-103115785D01*
X136705474Y-103115785D02*
X136705474Y-103020547D01*
X136705474Y-103020547D02*
X136717379Y-102996737D01*
X136717379Y-102996737D02*
X136729284Y-102984832D01*
X136729284Y-102984832D02*
X136753093Y-102972928D01*
X136753093Y-102972928D02*
X136788808Y-102972928D01*
X136788808Y-102972928D02*
X136812617Y-102984832D01*
X136812617Y-102984832D02*
X136824522Y-102996737D01*
X136824522Y-102996737D02*
X136836427Y-103020547D01*
X136836427Y-103020547D02*
X136836427Y-103115785D01*
X136955474Y-102853880D02*
X136955474Y-102806261D01*
X136955474Y-102806261D02*
X136943570Y-102782451D01*
X136943570Y-102782451D02*
X136931665Y-102770547D01*
X136931665Y-102770547D02*
X136895950Y-102746737D01*
X136895950Y-102746737D02*
X136848331Y-102734832D01*
X136848331Y-102734832D02*
X136753093Y-102734832D01*
X136753093Y-102734832D02*
X136729284Y-102746737D01*
X136729284Y-102746737D02*
X136717379Y-102758642D01*
X136717379Y-102758642D02*
X136705474Y-102782451D01*
X136705474Y-102782451D02*
X136705474Y-102830070D01*
X136705474Y-102830070D02*
X136717379Y-102853880D01*
X136717379Y-102853880D02*
X136729284Y-102865785D01*
X136729284Y-102865785D02*
X136753093Y-102877689D01*
X136753093Y-102877689D02*
X136812617Y-102877689D01*
X136812617Y-102877689D02*
X136836427Y-102865785D01*
X136836427Y-102865785D02*
X136848331Y-102853880D01*
X136848331Y-102853880D02*
X136860236Y-102830070D01*
X136860236Y-102830070D02*
X136860236Y-102782451D01*
X136860236Y-102782451D02*
X136848331Y-102758642D01*
X136848331Y-102758642D02*
X136836427Y-102746737D01*
X136836427Y-102746737D02*
X136812617Y-102734832D01*
X135182376Y-101844836D02*
X135182376Y-101594836D01*
X135182376Y-101594836D02*
X135241900Y-101594836D01*
X135241900Y-101594836D02*
X135277614Y-101606741D01*
X135277614Y-101606741D02*
X135301424Y-101630551D01*
X135301424Y-101630551D02*
X135313329Y-101654360D01*
X135313329Y-101654360D02*
X135325233Y-101701979D01*
X135325233Y-101701979D02*
X135325233Y-101737693D01*
X135325233Y-101737693D02*
X135313329Y-101785312D01*
X135313329Y-101785312D02*
X135301424Y-101809122D01*
X135301424Y-101809122D02*
X135277614Y-101832932D01*
X135277614Y-101832932D02*
X135241900Y-101844836D01*
X135241900Y-101844836D02*
X135182376Y-101844836D01*
X135444281Y-101844836D02*
X135491900Y-101844836D01*
X135491900Y-101844836D02*
X135515710Y-101832932D01*
X135515710Y-101832932D02*
X135527614Y-101821027D01*
X135527614Y-101821027D02*
X135551424Y-101785312D01*
X135551424Y-101785312D02*
X135563329Y-101737693D01*
X135563329Y-101737693D02*
X135563329Y-101642455D01*
X135563329Y-101642455D02*
X135551424Y-101618646D01*
X135551424Y-101618646D02*
X135539519Y-101606741D01*
X135539519Y-101606741D02*
X135515710Y-101594836D01*
X135515710Y-101594836D02*
X135468091Y-101594836D01*
X135468091Y-101594836D02*
X135444281Y-101606741D01*
X135444281Y-101606741D02*
X135432376Y-101618646D01*
X135432376Y-101618646D02*
X135420472Y-101642455D01*
X135420472Y-101642455D02*
X135420472Y-101701979D01*
X135420472Y-101701979D02*
X135432376Y-101725789D01*
X135432376Y-101725789D02*
X135444281Y-101737693D01*
X135444281Y-101737693D02*
X135468091Y-101749598D01*
X135468091Y-101749598D02*
X135515710Y-101749598D01*
X135515710Y-101749598D02*
X135539519Y-101737693D01*
X135539519Y-101737693D02*
X135551424Y-101725789D01*
X135551424Y-101725789D02*
X135563329Y-101701979D01*
X138311665Y-102272928D02*
X138323570Y-102284832D01*
X138323570Y-102284832D02*
X138335474Y-102320547D01*
X138335474Y-102320547D02*
X138335474Y-102344356D01*
X138335474Y-102344356D02*
X138323570Y-102380070D01*
X138323570Y-102380070D02*
X138299760Y-102403880D01*
X138299760Y-102403880D02*
X138275950Y-102415785D01*
X138275950Y-102415785D02*
X138228331Y-102427689D01*
X138228331Y-102427689D02*
X138192617Y-102427689D01*
X138192617Y-102427689D02*
X138144998Y-102415785D01*
X138144998Y-102415785D02*
X138121189Y-102403880D01*
X138121189Y-102403880D02*
X138097379Y-102380070D01*
X138097379Y-102380070D02*
X138085474Y-102344356D01*
X138085474Y-102344356D02*
X138085474Y-102320547D01*
X138085474Y-102320547D02*
X138097379Y-102284832D01*
X138097379Y-102284832D02*
X138109284Y-102272928D01*
X138192617Y-102130070D02*
X138180712Y-102153880D01*
X138180712Y-102153880D02*
X138168808Y-102165785D01*
X138168808Y-102165785D02*
X138144998Y-102177689D01*
X138144998Y-102177689D02*
X138133093Y-102177689D01*
X138133093Y-102177689D02*
X138109284Y-102165785D01*
X138109284Y-102165785D02*
X138097379Y-102153880D01*
X138097379Y-102153880D02*
X138085474Y-102130070D01*
X138085474Y-102130070D02*
X138085474Y-102082451D01*
X138085474Y-102082451D02*
X138097379Y-102058642D01*
X138097379Y-102058642D02*
X138109284Y-102046737D01*
X138109284Y-102046737D02*
X138133093Y-102034832D01*
X138133093Y-102034832D02*
X138144998Y-102034832D01*
X138144998Y-102034832D02*
X138168808Y-102046737D01*
X138168808Y-102046737D02*
X138180712Y-102058642D01*
X138180712Y-102058642D02*
X138192617Y-102082451D01*
X138192617Y-102082451D02*
X138192617Y-102130070D01*
X138192617Y-102130070D02*
X138204522Y-102153880D01*
X138204522Y-102153880D02*
X138216427Y-102165785D01*
X138216427Y-102165785D02*
X138240236Y-102177689D01*
X138240236Y-102177689D02*
X138287855Y-102177689D01*
X138287855Y-102177689D02*
X138311665Y-102165785D01*
X138311665Y-102165785D02*
X138323570Y-102153880D01*
X138323570Y-102153880D02*
X138335474Y-102130070D01*
X138335474Y-102130070D02*
X138335474Y-102082451D01*
X138335474Y-102082451D02*
X138323570Y-102058642D01*
X138323570Y-102058642D02*
X138311665Y-102046737D01*
X138311665Y-102046737D02*
X138287855Y-102034832D01*
X138287855Y-102034832D02*
X138240236Y-102034832D01*
X138240236Y-102034832D02*
X138216427Y-102046737D01*
X138216427Y-102046737D02*
X138204522Y-102058642D01*
X138204522Y-102058642D02*
X138192617Y-102082451D01*
D10*
X131929100Y-99864594D02*
X131976719Y-99721737D01*
X131976719Y-99721737D02*
X131976719Y-99483642D01*
X131976719Y-99483642D02*
X131929100Y-99388404D01*
X131929100Y-99388404D02*
X131881480Y-99340785D01*
X131881480Y-99340785D02*
X131786242Y-99293166D01*
X131786242Y-99293166D02*
X131691004Y-99293166D01*
X131691004Y-99293166D02*
X131595766Y-99340785D01*
X131595766Y-99340785D02*
X131548147Y-99388404D01*
X131548147Y-99388404D02*
X131500528Y-99483642D01*
X131500528Y-99483642D02*
X131452909Y-99674118D01*
X131452909Y-99674118D02*
X131405290Y-99769356D01*
X131405290Y-99769356D02*
X131357671Y-99816975D01*
X131357671Y-99816975D02*
X131262433Y-99864594D01*
X131262433Y-99864594D02*
X131167195Y-99864594D01*
X131167195Y-99864594D02*
X131071957Y-99816975D01*
X131071957Y-99816975D02*
X131024338Y-99769356D01*
X131024338Y-99769356D02*
X130976719Y-99674118D01*
X130976719Y-99674118D02*
X130976719Y-99436023D01*
X130976719Y-99436023D02*
X131024338Y-99293166D01*
X130976719Y-98959832D02*
X131976719Y-98721737D01*
X131976719Y-98721737D02*
X131262433Y-98531261D01*
X131262433Y-98531261D02*
X131976719Y-98340785D01*
X131976719Y-98340785D02*
X130976719Y-98102690D01*
X131071957Y-97769356D02*
X131024338Y-97721737D01*
X131024338Y-97721737D02*
X130976719Y-97626499D01*
X130976719Y-97626499D02*
X130976719Y-97388404D01*
X130976719Y-97388404D02*
X131024338Y-97293166D01*
X131024338Y-97293166D02*
X131071957Y-97245547D01*
X131071957Y-97245547D02*
X131167195Y-97197928D01*
X131167195Y-97197928D02*
X131262433Y-97197928D01*
X131262433Y-97197928D02*
X131405290Y-97245547D01*
X131405290Y-97245547D02*
X131976719Y-97816975D01*
X131976719Y-97816975D02*
X131976719Y-97197928D01*
X146659995Y-120686081D02*
X146659995Y-121495604D01*
X146659995Y-121495604D02*
X146707614Y-121590842D01*
X146707614Y-121590842D02*
X146755233Y-121638462D01*
X146755233Y-121638462D02*
X146850471Y-121686081D01*
X146850471Y-121686081D02*
X147040947Y-121686081D01*
X147040947Y-121686081D02*
X147136185Y-121638462D01*
X147136185Y-121638462D02*
X147183804Y-121590842D01*
X147183804Y-121590842D02*
X147231423Y-121495604D01*
X147231423Y-121495604D02*
X147231423Y-120686081D01*
X148231423Y-121686081D02*
X147659995Y-121686081D01*
X147945709Y-121686081D02*
X147945709Y-120686081D01*
X147945709Y-120686081D02*
X147850471Y-120828938D01*
X147850471Y-120828938D02*
X147755233Y-120924176D01*
X147755233Y-120924176D02*
X147659995Y-120971795D01*
D11*
X137615474Y-102191976D02*
X137496427Y-102275309D01*
X137615474Y-102334833D02*
X137365474Y-102334833D01*
X137365474Y-102334833D02*
X137365474Y-102239595D01*
X137365474Y-102239595D02*
X137377379Y-102215785D01*
X137377379Y-102215785D02*
X137389284Y-102203880D01*
X137389284Y-102203880D02*
X137413093Y-102191976D01*
X137413093Y-102191976D02*
X137448808Y-102191976D01*
X137448808Y-102191976D02*
X137472617Y-102203880D01*
X137472617Y-102203880D02*
X137484522Y-102215785D01*
X137484522Y-102215785D02*
X137496427Y-102239595D01*
X137496427Y-102239595D02*
X137496427Y-102334833D01*
X137615474Y-101953880D02*
X137615474Y-102096737D01*
X137615474Y-102025309D02*
X137365474Y-102025309D01*
X137365474Y-102025309D02*
X137401189Y-102049118D01*
X137401189Y-102049118D02*
X137424998Y-102072928D01*
X137424998Y-102072928D02*
X137436903Y-102096737D01*
X137365474Y-101799119D02*
X137365474Y-101775309D01*
X137365474Y-101775309D02*
X137377379Y-101751500D01*
X137377379Y-101751500D02*
X137389284Y-101739595D01*
X137389284Y-101739595D02*
X137413093Y-101727690D01*
X137413093Y-101727690D02*
X137460712Y-101715785D01*
X137460712Y-101715785D02*
X137520236Y-101715785D01*
X137520236Y-101715785D02*
X137567855Y-101727690D01*
X137567855Y-101727690D02*
X137591665Y-101739595D01*
X137591665Y-101739595D02*
X137603570Y-101751500D01*
X137603570Y-101751500D02*
X137615474Y-101775309D01*
X137615474Y-101775309D02*
X137615474Y-101799119D01*
X137615474Y-101799119D02*
X137603570Y-101822928D01*
X137603570Y-101822928D02*
X137591665Y-101834833D01*
X137591665Y-101834833D02*
X137567855Y-101846738D01*
X137567855Y-101846738D02*
X137520236Y-101858642D01*
X137520236Y-101858642D02*
X137460712Y-101858642D01*
X137460712Y-101858642D02*
X137413093Y-101846738D01*
X137413093Y-101846738D02*
X137389284Y-101834833D01*
X137389284Y-101834833D02*
X137377379Y-101822928D01*
X137377379Y-101822928D02*
X137365474Y-101799119D01*
D12*
X146991900Y-83361262D02*
X148251900Y-83361262D01*
X146991900Y-85901262D02*
X146991900Y-83361262D01*
X148251900Y-83361262D02*
X148251900Y-85901262D01*
X148251900Y-85901262D02*
X146991900Y-85901262D01*
X139271900Y-95881262D02*
X139271900Y-96881262D01*
X139271900Y-96881262D02*
X139821900Y-96881262D01*
X139271900Y-98081262D02*
X139821900Y-98081262D01*
X139271900Y-99081262D02*
X139271900Y-98081262D01*
X139271900Y-100281262D02*
X139821900Y-100281262D01*
X139271900Y-101281262D02*
X139271900Y-100281262D01*
X139521900Y-94431262D02*
X139521900Y-95231262D01*
X139521900Y-94431262D02*
X140421900Y-94431262D01*
X139521900Y-95231262D02*
X139871900Y-95231262D01*
X139521900Y-101931262D02*
X139871900Y-101931262D01*
X139521900Y-102731262D02*
X139521900Y-101931262D01*
X139521900Y-102731262D02*
X140421900Y-102731262D01*
X139821900Y-95881262D02*
X139271900Y-95881262D01*
X139821900Y-99081262D02*
X139271900Y-99081262D01*
X139821900Y-101281262D02*
X139271900Y-101281262D01*
X139841900Y-95691262D02*
X139841900Y-101471262D01*
X139841900Y-101081262D02*
X140161900Y-101331262D01*
X140161900Y-101331262D02*
X139841900Y-101581262D01*
X143001900Y-101471262D02*
X143001900Y-95691262D01*
X143021900Y-95881262D02*
X143571900Y-95881262D01*
X143021900Y-98081262D02*
X143571900Y-98081262D01*
X143021900Y-101281262D02*
X143571900Y-101281262D01*
X143321900Y-94431262D02*
X142421900Y-94431262D01*
X143321900Y-94431262D02*
X143321900Y-95231262D01*
X143321900Y-95231262D02*
X142971900Y-95231262D01*
X143321900Y-101931262D02*
X142971900Y-101931262D01*
X143321900Y-102731262D02*
X142421900Y-102731262D01*
X143321900Y-102731262D02*
X143321900Y-101931262D01*
X143571900Y-95881262D02*
X143571900Y-96881262D01*
X143571900Y-96881262D02*
X143021900Y-96881262D01*
X143571900Y-98081262D02*
X143571900Y-99081262D01*
X143571900Y-99081262D02*
X143021900Y-99081262D01*
X143571900Y-100281262D02*
X143021900Y-100281262D01*
X143571900Y-101281262D02*
X143571900Y-100281262D01*
X139841900Y-95691262D02*
G75*
G02*
X143001900Y-95691262I1580000J0D01*
G01*
X143001900Y-101471262D02*
G75*
G02*
X139841900Y-101471262I-1580000J0D01*
G01*
X135871900Y-102631262D02*
X136171900Y-102631262D01*
X135871900Y-103231262D02*
X135871900Y-102631262D01*
X136171900Y-102631262D02*
X136171900Y-103231262D01*
X136171900Y-103231262D02*
X135871900Y-103231262D01*
X134591900Y-83361262D02*
X135851900Y-83361262D01*
X134591900Y-85901262D02*
X134591900Y-83361262D01*
X135851900Y-83361262D02*
X135851900Y-85901262D01*
X135851900Y-85901262D02*
X134591900Y-85901262D01*
X135171900Y-102631262D02*
X135471900Y-102631262D01*
X135171900Y-103231262D02*
X135171900Y-102631262D01*
X135471900Y-102631262D02*
X135471900Y-103231262D01*
X135471900Y-103231262D02*
X135171900Y-103231262D01*
X135071900Y-90731262D02*
X135371900Y-90731262D01*
X135071900Y-91331262D02*
X135071900Y-90731262D01*
X135371900Y-90731262D02*
X135371900Y-91331262D01*
X135371900Y-91331262D02*
X135071900Y-91331262D01*
X134971900Y-88831262D02*
X135471900Y-88831262D01*
X134971900Y-88931262D02*
X135471900Y-88931262D01*
X134971900Y-89031262D02*
X135471900Y-89031262D01*
X134971900Y-89831262D02*
X134971900Y-88831262D01*
X135471900Y-88831262D02*
X135471900Y-89831262D01*
X135471900Y-89831262D02*
X134971900Y-89831262D01*
X136371900Y-84131262D02*
X137371900Y-83131262D01*
X136371900Y-93231262D02*
X136371900Y-84131262D01*
X137371900Y-83131262D02*
X146471900Y-83131262D01*
X146471900Y-83131262D02*
X146471900Y-93231262D01*
X146471900Y-93231262D02*
X136371900Y-93231262D01*
X137371900Y-102631262D02*
X137671900Y-102631262D01*
X137371900Y-103231262D02*
X137371900Y-102631262D01*
X137671900Y-102631262D02*
X137671900Y-103231262D01*
X137671900Y-103231262D02*
X137371900Y-103231262D01*
X134866900Y-101481262D02*
X135866900Y-101481262D01*
X134866900Y-101981262D02*
X134866900Y-101481262D01*
X134966900Y-101981262D02*
X134966900Y-101481262D01*
X135066900Y-101981262D02*
X135066900Y-101481262D01*
X135866900Y-101481262D02*
X135866900Y-101981262D01*
X135866900Y-101981262D02*
X134866900Y-101981262D01*
X138071900Y-102631262D02*
X138371900Y-102631262D01*
X138071900Y-103231262D02*
X138071900Y-102631262D01*
X138371900Y-102631262D02*
X138371900Y-103231262D01*
X138371900Y-103231262D02*
X138071900Y-103231262D01*
X134321900Y-97631262D02*
X135321900Y-97631262D01*
X134321900Y-99531262D02*
X134321900Y-97631262D01*
X134321900Y-99531262D02*
X135321900Y-99531262D01*
X135321900Y-96431262D02*
X135321900Y-100731262D01*
X137721900Y-96431262D02*
X135321900Y-96431262D01*
X137721900Y-96431262D02*
X137721900Y-100731262D01*
X137721900Y-100731262D02*
X135321900Y-100731262D01*
X148021900Y-103831262D02*
X148021900Y-120431262D01*
X148021900Y-103831262D02*
X134821900Y-103831262D01*
X147221900Y-115031262D02*
X148021900Y-114231262D01*
X134821900Y-120431262D02*
X148021900Y-120431262D01*
X134821900Y-115031262D02*
X148021900Y-115031262D01*
X134821900Y-103831262D02*
X134821900Y-120431262D01*
X136971900Y-102331262D02*
X136671900Y-102331262D01*
X136971900Y-101731262D02*
X136971900Y-102331262D01*
X136671900Y-102331262D02*
X136671900Y-101731262D01*
X136671900Y-101731262D02*
X136971900Y-101731262D01*
M02*
